<?xml version="1.0" encoding="utf-8" standalone="no"?>
<!DOCTYPE svg PUBLIC "-//W3C//DTD SVG 1.1//EN"
  "http://www.w3.org/Graphics/SVG/1.1/DTD/svg11.dtd">
<!-- Created with matplotlib (https://matplotlib.org/) -->
<svg height="300.185121pt" version="1.1" viewBox="0 0 386.755061 300.185121" width="386.755061pt" xmlns="http://www.w3.org/2000/svg" xmlns:xlink="http://www.w3.org/1999/xlink">
 <defs>
  <style type="text/css">
*{stroke-linecap:butt;stroke-linejoin:round;}
  </style>
 </defs>
 <g id="figure_1">
  <g id="patch_1">
   <path d="M 0 300.185121 
L 386.755061 300.185121 
L 386.755061 0 
L 0 0 
z
" style="fill:#ffffff;"/>
  </g>
  <g id="axes_1">
   <g id="patch_2">
    <path d="M 20.5625 273.312 
L 377.6825 273.312 
L 377.6825 7.2 
L 20.5625 7.2 
z
" style="fill:#ffffff;"/>
   </g>
   <g id="matplotlib.axis_1">
    <g id="xtick_1">
     <g id="text_1">
      <!-- 20 -->
      <defs>
       <path d="M 19.1875 8.296875 
L 53.609375 8.296875 
L 53.609375 0 
L 7.328125 0 
L 7.328125 8.296875 
Q 12.9375 14.109375 22.625 23.890625 
Q 32.328125 33.6875 34.8125 36.53125 
Q 39.546875 41.84375 41.421875 45.53125 
Q 43.3125 49.21875 43.3125 52.78125 
Q 43.3125 58.59375 39.234375 62.25 
Q 35.15625 65.921875 28.609375 65.921875 
Q 23.96875 65.921875 18.8125 64.3125 
Q 13.671875 62.703125 7.8125 59.421875 
L 7.8125 69.390625 
Q 13.765625 71.78125 18.9375 73 
Q 24.125 74.21875 28.421875 74.21875 
Q 39.75 74.21875 46.484375 68.546875 
Q 53.21875 62.890625 53.21875 53.421875 
Q 53.21875 48.921875 51.53125 44.890625 
Q 49.859375 40.875 45.40625 35.40625 
Q 44.1875 33.984375 37.640625 27.21875 
Q 31.109375 20.453125 19.1875 8.296875 
z
" id="DejaVuSans-50"/>
       <path d="M 31.78125 66.40625 
Q 24.171875 66.40625 20.328125 58.90625 
Q 16.5 51.421875 16.5 36.375 
Q 16.5 21.390625 20.328125 13.890625 
Q 24.171875 6.390625 31.78125 6.390625 
Q 39.453125 6.390625 43.28125 13.890625 
Q 47.125 21.390625 47.125 36.375 
Q 47.125 51.421875 43.28125 58.90625 
Q 39.453125 66.40625 31.78125 66.40625 
z
M 31.78125 74.21875 
Q 44.046875 74.21875 50.515625 64.515625 
Q 56.984375 54.828125 56.984375 36.375 
Q 56.984375 17.96875 50.515625 8.265625 
Q 44.046875 -1.421875 31.78125 -1.421875 
Q 19.53125 -1.421875 13.0625 8.265625 
Q 6.59375 17.96875 6.59375 36.375 
Q 6.59375 54.828125 13.0625 64.515625 
Q 19.53125 74.21875 31.78125 74.21875 
z
" id="DejaVuSans-48"/>
      </defs>
      <g transform="translate(22.988265 291.808672)rotate(-45)scale(0.08 -0.08)">
       <use xlink:href="#DejaVuSans-50"/>
       <use x="63.623047" xlink:href="#DejaVuSans-48"/>
      </g>
     </g>
    </g>
    <g id="xtick_2">
     <g id="text_2">
      <!-- 1 -->
      <defs>
       <path d="M 12.40625 8.296875 
L 28.515625 8.296875 
L 28.515625 63.921875 
L 10.984375 60.40625 
L 10.984375 69.390625 
L 28.421875 72.90625 
L 38.28125 72.90625 
L 38.28125 8.296875 
L 54.390625 8.296875 
L 54.390625 0 
L 12.40625 0 
z
" id="DejaVuSans-49"/>
      </defs>
      <g transform="translate(33.715851 288.209499)rotate(-45)scale(0.08 -0.08)">
       <use xlink:href="#DejaVuSans-49"/>
      </g>
     </g>
    </g>
    <g id="xtick_3">
     <g id="text_3">
      <!-- 26 -->
      <defs>
       <path d="M 33.015625 40.375 
Q 26.375 40.375 22.484375 35.828125 
Q 18.609375 31.296875 18.609375 23.390625 
Q 18.609375 15.53125 22.484375 10.953125 
Q 26.375 6.390625 33.015625 6.390625 
Q 39.65625 6.390625 43.53125 10.953125 
Q 47.40625 15.53125 47.40625 23.390625 
Q 47.40625 31.296875 43.53125 35.828125 
Q 39.65625 40.375 33.015625 40.375 
z
M 52.59375 71.296875 
L 52.59375 62.3125 
Q 48.875 64.0625 45.09375 64.984375 
Q 41.3125 65.921875 37.59375 65.921875 
Q 27.828125 65.921875 22.671875 59.328125 
Q 17.53125 52.734375 16.796875 39.40625 
Q 19.671875 43.65625 24.015625 45.921875 
Q 28.375 48.1875 33.59375 48.1875 
Q 44.578125 48.1875 50.953125 41.515625 
Q 57.328125 34.859375 57.328125 23.390625 
Q 57.328125 12.15625 50.6875 5.359375 
Q 44.046875 -1.421875 33.015625 -1.421875 
Q 20.359375 -1.421875 13.671875 8.265625 
Q 6.984375 17.96875 6.984375 36.375 
Q 6.984375 53.65625 15.1875 63.9375 
Q 23.390625 74.21875 37.203125 74.21875 
Q 40.921875 74.21875 44.703125 73.484375 
Q 48.484375 72.75 52.59375 71.296875 
z
" id="DejaVuSans-54"/>
      </defs>
      <g transform="translate(40.844265 291.808672)rotate(-45)scale(0.08 -0.08)">
       <use xlink:href="#DejaVuSans-50"/>
       <use x="63.623047" xlink:href="#DejaVuSans-54"/>
      </g>
     </g>
    </g>
    <g id="xtick_4">
     <g id="text_4">
      <!-- 11 -->
      <g transform="translate(49.772265 291.808672)rotate(-45)scale(0.08 -0.08)">
       <use xlink:href="#DejaVuSans-49"/>
       <use x="63.623047" xlink:href="#DejaVuSans-49"/>
      </g>
     </g>
    </g>
    <g id="xtick_5">
     <g id="text_5">
      <!-- 24 -->
      <defs>
       <path d="M 37.796875 64.3125 
L 12.890625 25.390625 
L 37.796875 25.390625 
z
M 35.203125 72.90625 
L 47.609375 72.90625 
L 47.609375 25.390625 
L 58.015625 25.390625 
L 58.015625 17.1875 
L 47.609375 17.1875 
L 47.609375 0 
L 37.796875 0 
L 37.796875 17.1875 
L 4.890625 17.1875 
L 4.890625 26.703125 
z
" id="DejaVuSans-52"/>
      </defs>
      <g transform="translate(58.700265 291.808672)rotate(-45)scale(0.08 -0.08)">
       <use xlink:href="#DejaVuSans-50"/>
       <use x="63.623047" xlink:href="#DejaVuSans-52"/>
      </g>
     </g>
    </g>
    <g id="xtick_6">
     <g id="text_6">
      <!-- 31 -->
      <defs>
       <path d="M 40.578125 39.3125 
Q 47.65625 37.796875 51.625 33 
Q 55.609375 28.21875 55.609375 21.1875 
Q 55.609375 10.40625 48.1875 4.484375 
Q 40.765625 -1.421875 27.09375 -1.421875 
Q 22.515625 -1.421875 17.65625 -0.515625 
Q 12.796875 0.390625 7.625 2.203125 
L 7.625 11.71875 
Q 11.71875 9.328125 16.59375 8.109375 
Q 21.484375 6.890625 26.8125 6.890625 
Q 36.078125 6.890625 40.9375 10.546875 
Q 45.796875 14.203125 45.796875 21.1875 
Q 45.796875 27.640625 41.28125 31.265625 
Q 36.765625 34.90625 28.71875 34.90625 
L 20.21875 34.90625 
L 20.21875 43.015625 
L 29.109375 43.015625 
Q 36.375 43.015625 40.234375 45.921875 
Q 44.09375 48.828125 44.09375 54.296875 
Q 44.09375 59.90625 40.109375 62.90625 
Q 36.140625 65.921875 28.71875 65.921875 
Q 24.65625 65.921875 20.015625 65.03125 
Q 15.375 64.15625 9.8125 62.3125 
L 9.8125 71.09375 
Q 15.4375 72.65625 20.34375 73.4375 
Q 25.25 74.21875 29.59375 74.21875 
Q 40.828125 74.21875 47.359375 69.109375 
Q 53.90625 64.015625 53.90625 55.328125 
Q 53.90625 49.265625 50.4375 45.09375 
Q 46.96875 40.921875 40.578125 39.3125 
z
" id="DejaVuSans-51"/>
      </defs>
      <g transform="translate(67.628265 291.808672)rotate(-45)scale(0.08 -0.08)">
       <use xlink:href="#DejaVuSans-51"/>
       <use x="63.623047" xlink:href="#DejaVuSans-49"/>
      </g>
     </g>
    </g>
    <g id="xtick_7">
     <g id="text_7">
      <!-- 4 -->
      <g transform="translate(78.355851 288.209499)rotate(-45)scale(0.08 -0.08)">
       <use xlink:href="#DejaVuSans-52"/>
      </g>
     </g>
    </g>
    <g id="xtick_8">
     <g id="text_8">
      <!-- 3 -->
      <g transform="translate(87.283851 288.209499)rotate(-45)scale(0.08 -0.08)">
       <use xlink:href="#DejaVuSans-51"/>
      </g>
     </g>
    </g>
    <g id="xtick_9">
     <g id="text_9">
      <!-- 2 -->
      <g transform="translate(96.211851 288.209499)rotate(-45)scale(0.08 -0.08)">
       <use xlink:href="#DejaVuSans-50"/>
      </g>
     </g>
    </g>
    <g id="xtick_10">
     <g id="text_10">
      <!-- 6 -->
      <g transform="translate(105.139851 288.209499)rotate(-45)scale(0.08 -0.08)">
       <use xlink:href="#DejaVuSans-54"/>
      </g>
     </g>
    </g>
    <g id="xtick_11">
     <g id="text_11">
      <!-- 15 -->
      <defs>
       <path d="M 10.796875 72.90625 
L 49.515625 72.90625 
L 49.515625 64.59375 
L 19.828125 64.59375 
L 19.828125 46.734375 
Q 21.96875 47.46875 24.109375 47.828125 
Q 26.265625 48.1875 28.421875 48.1875 
Q 40.625 48.1875 47.75 41.5 
Q 54.890625 34.8125 54.890625 23.390625 
Q 54.890625 11.625 47.5625 5.09375 
Q 40.234375 -1.421875 26.90625 -1.421875 
Q 22.3125 -1.421875 17.546875 -0.640625 
Q 12.796875 0.140625 7.71875 1.703125 
L 7.71875 11.625 
Q 12.109375 9.234375 16.796875 8.0625 
Q 21.484375 6.890625 26.703125 6.890625 
Q 35.15625 6.890625 40.078125 11.328125 
Q 45.015625 15.765625 45.015625 23.390625 
Q 45.015625 31 40.078125 35.4375 
Q 35.15625 39.890625 26.703125 39.890625 
Q 22.75 39.890625 18.8125 39.015625 
Q 14.890625 38.140625 10.796875 36.28125 
z
" id="DejaVuSans-53"/>
      </defs>
      <g transform="translate(112.268265 291.808672)rotate(-45)scale(0.08 -0.08)">
       <use xlink:href="#DejaVuSans-49"/>
       <use x="63.623047" xlink:href="#DejaVuSans-53"/>
      </g>
     </g>
    </g>
    <g id="xtick_12">
     <g id="text_12">
      <!-- 21 -->
      <g transform="translate(121.196265 291.808672)rotate(-45)scale(0.08 -0.08)">
       <use xlink:href="#DejaVuSans-50"/>
       <use x="63.623047" xlink:href="#DejaVuSans-49"/>
      </g>
     </g>
    </g>
    <g id="xtick_13">
     <g id="text_13">
      <!-- 34 -->
      <g transform="translate(130.124265 291.808672)rotate(-45)scale(0.08 -0.08)">
       <use xlink:href="#DejaVuSans-51"/>
       <use x="63.623047" xlink:href="#DejaVuSans-52"/>
      </g>
     </g>
    </g>
    <g id="xtick_14">
     <g id="text_14">
      <!-- 25 -->
      <g transform="translate(139.052265 291.808672)rotate(-45)scale(0.08 -0.08)">
       <use xlink:href="#DejaVuSans-50"/>
       <use x="63.623047" xlink:href="#DejaVuSans-53"/>
      </g>
     </g>
    </g>
    <g id="xtick_15">
     <g id="text_15">
      <!-- 10 -->
      <g transform="translate(147.980265 291.808672)rotate(-45)scale(0.08 -0.08)">
       <use xlink:href="#DejaVuSans-49"/>
       <use x="63.623047" xlink:href="#DejaVuSans-48"/>
      </g>
     </g>
    </g>
    <g id="xtick_16">
     <g id="text_16">
      <!-- 33 -->
      <g transform="translate(156.908265 291.808672)rotate(-45)scale(0.08 -0.08)">
       <use xlink:href="#DejaVuSans-51"/>
       <use x="63.623047" xlink:href="#DejaVuSans-51"/>
      </g>
     </g>
    </g>
    <g id="xtick_17">
     <g id="text_17">
      <!-- 17 -->
      <defs>
       <path d="M 8.203125 72.90625 
L 55.078125 72.90625 
L 55.078125 68.703125 
L 28.609375 0 
L 18.3125 0 
L 43.21875 64.59375 
L 8.203125 64.59375 
z
" id="DejaVuSans-55"/>
      </defs>
      <g transform="translate(165.836265 291.808672)rotate(-45)scale(0.08 -0.08)">
       <use xlink:href="#DejaVuSans-49"/>
       <use x="63.623047" xlink:href="#DejaVuSans-55"/>
      </g>
     </g>
    </g>
    <g id="xtick_18">
     <g id="text_18">
      <!-- 13 -->
      <g transform="translate(174.764265 291.808672)rotate(-45)scale(0.08 -0.08)">
       <use xlink:href="#DejaVuSans-49"/>
       <use x="63.623047" xlink:href="#DejaVuSans-51"/>
      </g>
     </g>
    </g>
    <g id="xtick_19">
     <g id="text_19">
      <!-- 14 -->
      <g transform="translate(183.692265 291.808672)rotate(-45)scale(0.08 -0.08)">
       <use xlink:href="#DejaVuSans-49"/>
       <use x="63.623047" xlink:href="#DejaVuSans-52"/>
      </g>
     </g>
    </g>
    <g id="xtick_20">
     <g id="text_20">
      <!-- 5 -->
      <g transform="translate(194.419851 288.209499)rotate(-45)scale(0.08 -0.08)">
       <use xlink:href="#DejaVuSans-53"/>
      </g>
     </g>
    </g>
    <g id="xtick_21">
     <g id="text_21">
      <!-- 37 -->
      <g transform="translate(201.548265 291.808672)rotate(-45)scale(0.08 -0.08)">
       <use xlink:href="#DejaVuSans-51"/>
       <use x="63.623047" xlink:href="#DejaVuSans-55"/>
      </g>
     </g>
    </g>
    <g id="xtick_22">
     <g id="text_22">
      <!-- 36 -->
      <g transform="translate(210.476265 291.808672)rotate(-45)scale(0.08 -0.08)">
       <use xlink:href="#DejaVuSans-51"/>
       <use x="63.623047" xlink:href="#DejaVuSans-54"/>
      </g>
     </g>
    </g>
    <g id="xtick_23">
     <g id="text_23">
      <!-- 9 -->
      <defs>
       <path d="M 10.984375 1.515625 
L 10.984375 10.5 
Q 14.703125 8.734375 18.5 7.8125 
Q 22.3125 6.890625 25.984375 6.890625 
Q 35.75 6.890625 40.890625 13.453125 
Q 46.046875 20.015625 46.78125 33.40625 
Q 43.953125 29.203125 39.59375 26.953125 
Q 35.25 24.703125 29.984375 24.703125 
Q 19.046875 24.703125 12.671875 31.3125 
Q 6.296875 37.9375 6.296875 49.421875 
Q 6.296875 60.640625 12.9375 67.421875 
Q 19.578125 74.21875 30.609375 74.21875 
Q 43.265625 74.21875 49.921875 64.515625 
Q 56.59375 54.828125 56.59375 36.375 
Q 56.59375 19.140625 48.40625 8.859375 
Q 40.234375 -1.421875 26.421875 -1.421875 
Q 22.703125 -1.421875 18.890625 -0.6875 
Q 15.09375 0.046875 10.984375 1.515625 
z
M 30.609375 32.421875 
Q 37.25 32.421875 41.125 36.953125 
Q 45.015625 41.5 45.015625 49.421875 
Q 45.015625 57.28125 41.125 61.84375 
Q 37.25 66.40625 30.609375 66.40625 
Q 23.96875 66.40625 20.09375 61.84375 
Q 16.21875 57.28125 16.21875 49.421875 
Q 16.21875 41.5 20.09375 36.953125 
Q 23.96875 32.421875 30.609375 32.421875 
z
" id="DejaVuSans-57"/>
      </defs>
      <g transform="translate(221.203851 288.209499)rotate(-45)scale(0.08 -0.08)">
       <use xlink:href="#DejaVuSans-57"/>
      </g>
     </g>
    </g>
    <g id="xtick_24">
     <g id="text_24">
      <!-- 30 -->
      <g transform="translate(228.332265 291.808672)rotate(-45)scale(0.08 -0.08)">
       <use xlink:href="#DejaVuSans-51"/>
       <use x="63.623047" xlink:href="#DejaVuSans-48"/>
      </g>
     </g>
    </g>
    <g id="xtick_25">
     <g id="text_25">
      <!-- 39 -->
      <g transform="translate(237.260265 291.808672)rotate(-45)scale(0.08 -0.08)">
       <use xlink:href="#DejaVuSans-51"/>
       <use x="63.623047" xlink:href="#DejaVuSans-57"/>
      </g>
     </g>
    </g>
    <g id="xtick_26">
     <g id="text_26">
      <!-- 38 -->
      <defs>
       <path d="M 31.78125 34.625 
Q 24.75 34.625 20.71875 30.859375 
Q 16.703125 27.09375 16.703125 20.515625 
Q 16.703125 13.921875 20.71875 10.15625 
Q 24.75 6.390625 31.78125 6.390625 
Q 38.8125 6.390625 42.859375 10.171875 
Q 46.921875 13.96875 46.921875 20.515625 
Q 46.921875 27.09375 42.890625 30.859375 
Q 38.875 34.625 31.78125 34.625 
z
M 21.921875 38.8125 
Q 15.578125 40.375 12.03125 44.71875 
Q 8.5 49.078125 8.5 55.328125 
Q 8.5 64.0625 14.71875 69.140625 
Q 20.953125 74.21875 31.78125 74.21875 
Q 42.671875 74.21875 48.875 69.140625 
Q 55.078125 64.0625 55.078125 55.328125 
Q 55.078125 49.078125 51.53125 44.71875 
Q 48 40.375 41.703125 38.8125 
Q 48.828125 37.15625 52.796875 32.3125 
Q 56.78125 27.484375 56.78125 20.515625 
Q 56.78125 9.90625 50.3125 4.234375 
Q 43.84375 -1.421875 31.78125 -1.421875 
Q 19.734375 -1.421875 13.25 4.234375 
Q 6.78125 9.90625 6.78125 20.515625 
Q 6.78125 27.484375 10.78125 32.3125 
Q 14.796875 37.15625 21.921875 38.8125 
z
M 18.3125 54.390625 
Q 18.3125 48.734375 21.84375 45.5625 
Q 25.390625 42.390625 31.78125 42.390625 
Q 38.140625 42.390625 41.71875 45.5625 
Q 45.3125 48.734375 45.3125 54.390625 
Q 45.3125 60.0625 41.71875 63.234375 
Q 38.140625 66.40625 31.78125 66.40625 
Q 25.390625 66.40625 21.84375 63.234375 
Q 18.3125 60.0625 18.3125 54.390625 
z
" id="DejaVuSans-56"/>
      </defs>
      <g transform="translate(246.188265 291.808672)rotate(-45)scale(0.08 -0.08)">
       <use xlink:href="#DejaVuSans-51"/>
       <use x="63.623047" xlink:href="#DejaVuSans-56"/>
      </g>
     </g>
    </g>
    <g id="xtick_27">
     <g id="text_27">
      <!-- 28 -->
      <g transform="translate(255.116265 291.808672)rotate(-45)scale(0.08 -0.08)">
       <use xlink:href="#DejaVuSans-50"/>
       <use x="63.623047" xlink:href="#DejaVuSans-56"/>
      </g>
     </g>
    </g>
    <g id="xtick_28">
     <g id="text_28">
      <!-- 29 -->
      <g transform="translate(264.044265 291.808672)rotate(-45)scale(0.08 -0.08)">
       <use xlink:href="#DejaVuSans-50"/>
       <use x="63.623047" xlink:href="#DejaVuSans-57"/>
      </g>
     </g>
    </g>
    <g id="xtick_29">
     <g id="text_29">
      <!-- 0 -->
      <g transform="translate(274.771851 288.209499)rotate(-45)scale(0.08 -0.08)">
       <use xlink:href="#DejaVuSans-48"/>
      </g>
     </g>
    </g>
    <g id="xtick_30">
     <g id="text_30">
      <!-- 16 -->
      <g transform="translate(281.900265 291.808672)rotate(-45)scale(0.08 -0.08)">
       <use xlink:href="#DejaVuSans-49"/>
       <use x="63.623047" xlink:href="#DejaVuSans-54"/>
      </g>
     </g>
    </g>
    <g id="xtick_31">
     <g id="text_31">
      <!-- 19 -->
      <g transform="translate(290.828265 291.808672)rotate(-45)scale(0.08 -0.08)">
       <use xlink:href="#DejaVuSans-49"/>
       <use x="63.623047" xlink:href="#DejaVuSans-57"/>
      </g>
     </g>
    </g>
    <g id="xtick_32">
     <g id="text_32">
      <!-- 23 -->
      <g transform="translate(299.756265 291.808672)rotate(-45)scale(0.08 -0.08)">
       <use xlink:href="#DejaVuSans-50"/>
       <use x="63.623047" xlink:href="#DejaVuSans-51"/>
      </g>
     </g>
    </g>
    <g id="xtick_33">
     <g id="text_33">
      <!-- 7 -->
      <g transform="translate(310.483851 288.209499)rotate(-45)scale(0.08 -0.08)">
       <use xlink:href="#DejaVuSans-55"/>
      </g>
     </g>
    </g>
    <g id="xtick_34">
     <g id="text_34">
      <!-- 12 -->
      <g transform="translate(317.612265 291.808672)rotate(-45)scale(0.08 -0.08)">
       <use xlink:href="#DejaVuSans-49"/>
       <use x="63.623047" xlink:href="#DejaVuSans-50"/>
      </g>
     </g>
    </g>
    <g id="xtick_35">
     <g id="text_35">
      <!-- 32 -->
      <g transform="translate(326.540265 291.808672)rotate(-45)scale(0.08 -0.08)">
       <use xlink:href="#DejaVuSans-51"/>
       <use x="63.623047" xlink:href="#DejaVuSans-50"/>
      </g>
     </g>
    </g>
    <g id="xtick_36">
     <g id="text_36">
      <!-- 18 -->
      <g transform="translate(335.468265 291.808672)rotate(-45)scale(0.08 -0.08)">
       <use xlink:href="#DejaVuSans-49"/>
       <use x="63.623047" xlink:href="#DejaVuSans-56"/>
      </g>
     </g>
    </g>
    <g id="xtick_37">
     <g id="text_37">
      <!-- 27 -->
      <g transform="translate(344.396265 291.808672)rotate(-45)scale(0.08 -0.08)">
       <use xlink:href="#DejaVuSans-50"/>
       <use x="63.623047" xlink:href="#DejaVuSans-55"/>
      </g>
     </g>
    </g>
    <g id="xtick_38">
     <g id="text_38">
      <!-- 35 -->
      <g transform="translate(353.324265 291.808672)rotate(-45)scale(0.08 -0.08)">
       <use xlink:href="#DejaVuSans-51"/>
       <use x="63.623047" xlink:href="#DejaVuSans-53"/>
      </g>
     </g>
    </g>
    <g id="xtick_39">
     <g id="text_39">
      <!-- 8 -->
      <g transform="translate(364.051851 288.209499)rotate(-45)scale(0.08 -0.08)">
       <use xlink:href="#DejaVuSans-56"/>
      </g>
     </g>
    </g>
    <g id="xtick_40">
     <g id="text_40">
      <!-- 22 -->
      <g transform="translate(371.180265 291.808672)rotate(-45)scale(0.08 -0.08)">
       <use xlink:href="#DejaVuSans-50"/>
       <use x="63.623047" xlink:href="#DejaVuSans-50"/>
      </g>
     </g>
    </g>
   </g>
   <g id="matplotlib.axis_2">
    <g id="ytick_1">
     <g id="line2d_1">
      <defs>
       <path d="M 0 0 
L -3.5 0 
" id="m3b90ff1b37" style="stroke:#000000;stroke-width:0.8;"/>
      </defs>
      <g>
       <use style="stroke:#000000;stroke-width:0.8;" x="20.5625" xlink:href="#m3b90ff1b37" y="273.312"/>
      </g>
     </g>
     <g id="text_41">
      <!-- 0 -->
      <g transform="translate(7.2 277.111219)scale(0.1 -0.1)">
       <use xlink:href="#DejaVuSans-48"/>
      </g>
     </g>
    </g>
    <g id="ytick_2">
     <g id="line2d_2">
      <g>
       <use style="stroke:#000000;stroke-width:0.8;" x="20.5625" xlink:href="#m3b90ff1b37" y="237.262449"/>
      </g>
     </g>
     <g id="text_42">
      <!-- 1 -->
      <g transform="translate(7.2 241.061668)scale(0.1 -0.1)">
       <use xlink:href="#DejaVuSans-49"/>
      </g>
     </g>
    </g>
    <g id="ytick_3">
     <g id="line2d_3">
      <g>
       <use style="stroke:#000000;stroke-width:0.8;" x="20.5625" xlink:href="#m3b90ff1b37" y="201.212898"/>
      </g>
     </g>
     <g id="text_43">
      <!-- 2 -->
      <g transform="translate(7.2 205.012117)scale(0.1 -0.1)">
       <use xlink:href="#DejaVuSans-50"/>
      </g>
     </g>
    </g>
    <g id="ytick_4">
     <g id="line2d_4">
      <g>
       <use style="stroke:#000000;stroke-width:0.8;" x="20.5625" xlink:href="#m3b90ff1b37" y="165.163347"/>
      </g>
     </g>
     <g id="text_44">
      <!-- 3 -->
      <g transform="translate(7.2 168.962566)scale(0.1 -0.1)">
       <use xlink:href="#DejaVuSans-51"/>
      </g>
     </g>
    </g>
    <g id="ytick_5">
     <g id="line2d_5">
      <g>
       <use style="stroke:#000000;stroke-width:0.8;" x="20.5625" xlink:href="#m3b90ff1b37" y="129.113796"/>
      </g>
     </g>
     <g id="text_45">
      <!-- 4 -->
      <g transform="translate(7.2 132.913015)scale(0.1 -0.1)">
       <use xlink:href="#DejaVuSans-52"/>
      </g>
     </g>
    </g>
    <g id="ytick_6">
     <g id="line2d_6">
      <g>
       <use style="stroke:#000000;stroke-width:0.8;" x="20.5625" xlink:href="#m3b90ff1b37" y="93.064245"/>
      </g>
     </g>
     <g id="text_46">
      <!-- 5 -->
      <g transform="translate(7.2 96.863464)scale(0.1 -0.1)">
       <use xlink:href="#DejaVuSans-53"/>
      </g>
     </g>
    </g>
    <g id="ytick_7">
     <g id="line2d_7">
      <g>
       <use style="stroke:#000000;stroke-width:0.8;" x="20.5625" xlink:href="#m3b90ff1b37" y="57.014694"/>
      </g>
     </g>
     <g id="text_47">
      <!-- 6 -->
      <g transform="translate(7.2 60.813913)scale(0.1 -0.1)">
       <use xlink:href="#DejaVuSans-54"/>
      </g>
     </g>
    </g>
    <g id="ytick_8">
     <g id="line2d_8">
      <g>
       <use style="stroke:#000000;stroke-width:0.8;" x="20.5625" xlink:href="#m3b90ff1b37" y="20.965143"/>
      </g>
     </g>
     <g id="text_48">
      <!-- 7 -->
      <g transform="translate(7.2 24.764362)scale(0.1 -0.1)">
       <use xlink:href="#DejaVuSans-55"/>
      </g>
     </g>
    </g>
   </g>
   <g id="LineCollection_1">
    <path clip-path="url(#pe3967c4470)" d="M 33.9545 273.312 
L 33.9545 255.845423 
L 42.8825 255.845423 
L 42.8825 273.312 
" style="fill:none;stroke:#008000;stroke-width:1.5;"/>
    <path clip-path="url(#pe3967c4470)" d="M 25.0265 273.312 
L 25.0265 241.5421 
L 38.4185 241.5421 
L 38.4185 255.845423 
" style="fill:none;stroke:#008000;stroke-width:1.5;"/>
    <path clip-path="url(#pe3967c4470)" d="M 60.7385 273.312 
L 60.7385 260.973616 
L 69.6665 260.973616 
L 69.6665 273.312 
" style="fill:none;stroke:#008000;stroke-width:1.5;"/>
    <path clip-path="url(#pe3967c4470)" d="M 96.4505 273.312 
L 96.4505 266.097947 
L 105.3785 266.097947 
L 105.3785 273.312 
" style="fill:none;stroke:#008000;stroke-width:1.5;"/>
    <path clip-path="url(#pe3967c4470)" d="M 87.5225 273.312 
L 87.5225 261.240651 
L 100.9145 261.240651 
L 100.9145 266.097947 
" style="fill:none;stroke:#008000;stroke-width:1.5;"/>
    <path clip-path="url(#pe3967c4470)" d="M 78.5945 273.312 
L 78.5945 245.366723 
L 94.2185 245.366723 
L 94.2185 261.240651 
" style="fill:none;stroke:#008000;stroke-width:1.5;"/>
    <path clip-path="url(#pe3967c4470)" d="M 65.2025 260.973616 
L 65.2025 228.3202 
L 86.4065 228.3202 
L 86.4065 245.366723 
" style="fill:none;stroke:#008000;stroke-width:1.5;"/>
    <path clip-path="url(#pe3967c4470)" d="M 51.8105 273.312 
L 51.8105 207.746433 
L 75.8045 207.746433 
L 75.8045 228.3202 
" style="fill:none;stroke:#008000;stroke-width:1.5;"/>
    <path clip-path="url(#pe3967c4470)" d="M 31.7225 241.5421 
L 31.7225 200.345338 
L 63.8075 200.345338 
L 63.8075 207.746433 
" style="fill:none;stroke:#008000;stroke-width:1.5;"/>
   </g>
   <g id="LineCollection_2">
    <path clip-path="url(#pe3967c4470)" d="M 123.2345 273.312 
L 123.2345 255.023219 
L 132.1625 255.023219 
L 132.1625 273.312 
" style="fill:none;stroke:#ff0000;stroke-width:1.5;"/>
    <path clip-path="url(#pe3967c4470)" d="M 114.3065 273.312 
L 114.3065 239.851136 
L 127.6985 239.851136 
L 127.6985 255.023219 
" style="fill:none;stroke:#ff0000;stroke-width:1.5;"/>
    <path clip-path="url(#pe3967c4470)" d="M 150.0185 273.312 
L 150.0185 255.905399 
L 158.9465 255.905399 
L 158.9465 273.312 
" style="fill:none;stroke:#ff0000;stroke-width:1.5;"/>
    <path clip-path="url(#pe3967c4470)" d="M 141.0905 273.312 
L 141.0905 232.301086 
L 154.4825 232.301086 
L 154.4825 255.905399 
" style="fill:none;stroke:#ff0000;stroke-width:1.5;"/>
    <path clip-path="url(#pe3967c4470)" d="M 176.8025 273.312 
L 176.8025 243.405426 
L 185.7305 243.405426 
L 185.7305 273.312 
" style="fill:none;stroke:#ff0000;stroke-width:1.5;"/>
    <path clip-path="url(#pe3967c4470)" d="M 167.8745 273.312 
L 167.8745 233.557271 
L 181.2665 233.557271 
L 181.2665 243.405426 
" style="fill:none;stroke:#ff0000;stroke-width:1.5;"/>
    <path clip-path="url(#pe3967c4470)" d="M 194.6585 273.312 
L 194.6585 227.926053 
L 203.5865 227.926053 
L 203.5865 273.312 
" style="fill:none;stroke:#ff0000;stroke-width:1.5;"/>
    <path clip-path="url(#pe3967c4470)" d="M 174.5705 233.557271 
L 174.5705 213.21245 
L 199.1225 213.21245 
L 199.1225 227.926053 
" style="fill:none;stroke:#ff0000;stroke-width:1.5;"/>
    <path clip-path="url(#pe3967c4470)" d="M 147.7865 232.301086 
L 147.7865 212.175125 
L 186.8465 212.175125 
L 186.8465 213.21245 
" style="fill:none;stroke:#ff0000;stroke-width:1.5;"/>
    <path clip-path="url(#pe3967c4470)" d="M 121.0025 239.851136 
L 121.0025 167.897425 
L 167.3165 167.897425 
L 167.3165 212.175125 
" style="fill:none;stroke:#ff0000;stroke-width:1.5;"/>
   </g>
   <g id="LineCollection_3">
    <path clip-path="url(#pe3967c4470)" d="M 221.4425 273.312 
L 221.4425 272.565202 
L 230.3705 272.565202 
L 230.3705 273.312 
" style="fill:none;stroke:#00bfbf;stroke-width:1.5;"/>
    <path clip-path="url(#pe3967c4470)" d="M 212.5145 273.312 
L 212.5145 236.316096 
L 225.9065 236.316096 
L 225.9065 272.565202 
" style="fill:none;stroke:#00bfbf;stroke-width:1.5;"/>
    <path clip-path="url(#pe3967c4470)" d="M 257.1545 273.312 
L 257.1545 247.758436 
L 266.0825 247.758436 
L 266.0825 273.312 
" style="fill:none;stroke:#00bfbf;stroke-width:1.5;"/>
    <path clip-path="url(#pe3967c4470)" d="M 248.2265 273.312 
L 248.2265 221.624004 
L 261.6185 221.624004 
L 261.6185 247.758436 
" style="fill:none;stroke:#00bfbf;stroke-width:1.5;"/>
    <path clip-path="url(#pe3967c4470)" d="M 239.2985 273.312 
L 239.2985 211.426758 
L 254.9225 211.426758 
L 254.9225 221.624004 
" style="fill:none;stroke:#00bfbf;stroke-width:1.5;"/>
    <path clip-path="url(#pe3967c4470)" d="M 275.0105 273.312 
L 275.0105 240.765424 
L 283.9385 240.765424 
L 283.9385 273.312 
" style="fill:none;stroke:#00bfbf;stroke-width:1.5;"/>
    <path clip-path="url(#pe3967c4470)" d="M 292.8665 273.312 
L 292.8665 225.42042 
L 301.7945 225.42042 
L 301.7945 273.312 
" style="fill:none;stroke:#00bfbf;stroke-width:1.5;"/>
    <path clip-path="url(#pe3967c4470)" d="M 279.4745 240.765424 
L 279.4745 205.973214 
L 297.3305 205.973214 
L 297.3305 225.42042 
" style="fill:none;stroke:#00bfbf;stroke-width:1.5;"/>
    <path clip-path="url(#pe3967c4470)" d="M 247.1105 211.426758 
L 247.1105 181.083059 
L 288.4025 181.083059 
L 288.4025 205.973214 
" style="fill:none;stroke:#00bfbf;stroke-width:1.5;"/>
    <path clip-path="url(#pe3967c4470)" d="M 319.6505 273.312 
L 319.6505 256.144175 
L 328.5785 256.144175 
L 328.5785 273.312 
" style="fill:none;stroke:#00bfbf;stroke-width:1.5;"/>
    <path clip-path="url(#pe3967c4470)" d="M 310.7225 273.312 
L 310.7225 244.020459 
L 324.1145 244.020459 
L 324.1145 256.144175 
" style="fill:none;stroke:#00bfbf;stroke-width:1.5;"/>
    <path clip-path="url(#pe3967c4470)" d="M 346.4345 273.312 
L 346.4345 240.349952 
L 355.3625 240.349952 
L 355.3625 273.312 
" style="fill:none;stroke:#00bfbf;stroke-width:1.5;"/>
    <path clip-path="url(#pe3967c4470)" d="M 337.5065 273.312 
L 337.5065 233.857658 
L 350.8985 233.857658 
L 350.8985 240.349952 
" style="fill:none;stroke:#00bfbf;stroke-width:1.5;"/>
    <path clip-path="url(#pe3967c4470)" d="M 364.2905 273.312 
L 364.2905 225.091295 
L 373.2185 225.091295 
L 373.2185 273.312 
" style="fill:none;stroke:#00bfbf;stroke-width:1.5;"/>
    <path clip-path="url(#pe3967c4470)" d="M 344.2025 233.857658 
L 344.2025 213.216305 
L 368.7545 213.216305 
L 368.7545 225.091295 
" style="fill:none;stroke:#00bfbf;stroke-width:1.5;"/>
    <path clip-path="url(#pe3967c4470)" d="M 317.4185 244.020459 
L 317.4185 163.088112 
L 356.4785 163.088112 
L 356.4785 213.216305 
" style="fill:none;stroke:#00bfbf;stroke-width:1.5;"/>
    <path clip-path="url(#pe3967c4470)" d="M 267.7565 181.083059 
L 267.7565 154.960419 
L 336.9485 154.960419 
L 336.9485 163.088112 
" style="fill:none;stroke:#00bfbf;stroke-width:1.5;"/>
    <path clip-path="url(#pe3967c4470)" d="M 219.2105 236.316096 
L 219.2105 141.550234 
L 302.3525 141.550234 
L 302.3525 154.960419 
" style="fill:none;stroke:#00bfbf;stroke-width:1.5;"/>
   </g>
   <g id="LineCollection_4">
    <path clip-path="url(#pe3967c4470)" d="M 144.1595 167.897425 
L 144.1595 94.747548 
L 260.7815 94.747548 
L 260.7815 141.550234 
" style="fill:none;stroke:#0000ff;stroke-width:1.5;"/>
    <path clip-path="url(#pe3967c4470)" d="M 47.765 200.345338 
L 47.765 19.872 
L 202.4705 19.872 
L 202.4705 94.747548 
" style="fill:none;stroke:#0000ff;stroke-width:1.5;"/>
   </g>
   <g id="patch_3">
    <path d="M 20.5625 273.312 
L 20.5625 7.2 
" style="fill:none;stroke:#000000;stroke-linecap:square;stroke-linejoin:miter;stroke-width:0.8;"/>
   </g>
   <g id="patch_4">
    <path d="M 377.6825 273.312 
L 377.6825 7.2 
" style="fill:none;stroke:#000000;stroke-linecap:square;stroke-linejoin:miter;stroke-width:0.8;"/>
   </g>
   <g id="patch_5">
    <path d="M 20.5625 273.312 
L 377.6825 273.312 
" style="fill:none;stroke:#000000;stroke-linecap:square;stroke-linejoin:miter;stroke-width:0.8;"/>
   </g>
   <g id="patch_6">
    <path d="M 20.5625 7.2 
L 377.6825 7.2 
" style="fill:none;stroke:#000000;stroke-linecap:square;stroke-linejoin:miter;stroke-width:0.8;"/>
   </g>
  </g>
 </g>
 <defs>
  <clipPath id="pe3967c4470">
   <rect height="266.112" width="357.12" x="20.5625" y="7.2"/>
  </clipPath>
 </defs>
</svg>
