<?xml version="1.0" encoding="utf-8" standalone="no"?>
<!DOCTYPE svg PUBLIC "-//W3C//DTD SVG 1.1//EN"
  "http://www.w3.org/Graphics/SVG/1.1/DTD/svg11.dtd">
<!-- Created with matplotlib (http://matplotlib.org/) -->
<svg height="345.6pt" version="1.1" viewBox="0 0 460.8 345.6" width="460.8pt" xmlns="http://www.w3.org/2000/svg" xmlns:xlink="http://www.w3.org/1999/xlink">
 <defs>
  <style type="text/css">
*{stroke-linecap:butt;stroke-linejoin:round;}
  </style>
 </defs>
 <g id="figure_1">
  <g id="patch_1">
   <path d="M 0 345.6 
L 460.8 345.6 
L 460.8 0 
L 0 0 
z
" style="fill:#ffffff;"/>
  </g>
  <g id="axes_1">
   <g id="patch_2">
    <path d="M 57.6 307.584 
L 414.72 307.584 
L 414.72 41.472 
L 57.6 41.472 
z
" style="fill:#ffffff;"/>
   </g>
   <g id="matplotlib.axis_1">
    <g id="xtick_1">
     <g id="text_1">
      <!-- 0 -->
      <defs>
       <path d="M 31.78125 66.40625 
Q 24.171875 66.40625 20.328125 58.90625 
Q 16.5 51.421875 16.5 36.375 
Q 16.5 21.390625 20.328125 13.890625 
Q 24.171875 6.390625 31.78125 6.390625 
Q 39.453125 6.390625 43.28125 13.890625 
Q 47.125 21.390625 47.125 36.375 
Q 47.125 51.421875 43.28125 58.90625 
Q 39.453125 66.40625 31.78125 66.40625 
z
M 31.78125 74.21875 
Q 44.046875 74.21875 50.515625 64.515625 
Q 56.984375 54.828125 56.984375 36.375 
Q 56.984375 17.96875 50.515625 8.265625 
Q 44.046875 -1.421875 31.78125 -1.421875 
Q 19.53125 -1.421875 13.0625 8.265625 
Q 6.59375 17.96875 6.59375 36.375 
Q 6.59375 54.828125 13.0625 64.515625 
Q 19.53125 74.21875 31.78125 74.21875 
z
" id="DejaVuSans-30"/>
      </defs>
      <g style="fill:#262626;" transform="translate(83.860625 325.442281)scale(0.11 -0.11)">
       <use xlink:href="#DejaVuSans-30"/>
      </g>
     </g>
    </g>
    <g id="xtick_2">
     <g id="text_2">
      <!-- 1 -->
      <defs>
       <path d="M 12.40625 8.296875 
L 28.515625 8.296875 
L 28.515625 63.921875 
L 10.984375 60.40625 
L 10.984375 69.390625 
L 28.421875 72.90625 
L 38.28125 72.90625 
L 38.28125 8.296875 
L 54.390625 8.296875 
L 54.390625 0 
L 12.40625 0 
z
" id="DejaVuSans-31"/>
      </defs>
      <g style="fill:#262626;" transform="translate(143.380625 325.442281)scale(0.11 -0.11)">
       <use xlink:href="#DejaVuSans-31"/>
      </g>
     </g>
    </g>
    <g id="xtick_3">
     <g id="text_3">
      <!-- 2 -->
      <defs>
       <path d="M 19.1875 8.296875 
L 53.609375 8.296875 
L 53.609375 0 
L 7.328125 0 
L 7.328125 8.296875 
Q 12.9375 14.109375 22.625 23.890625 
Q 32.328125 33.6875 34.8125 36.53125 
Q 39.546875 41.84375 41.421875 45.53125 
Q 43.3125 49.21875 43.3125 52.78125 
Q 43.3125 58.59375 39.234375 62.25 
Q 35.15625 65.921875 28.609375 65.921875 
Q 23.96875 65.921875 18.8125 64.3125 
Q 13.671875 62.703125 7.8125 59.421875 
L 7.8125 69.390625 
Q 13.765625 71.78125 18.9375 73 
Q 24.125 74.21875 28.421875 74.21875 
Q 39.75 74.21875 46.484375 68.546875 
Q 53.21875 62.890625 53.21875 53.421875 
Q 53.21875 48.921875 51.53125 44.890625 
Q 49.859375 40.875 45.40625 35.40625 
Q 44.1875 33.984375 37.640625 27.21875 
Q 31.109375 20.453125 19.1875 8.296875 
z
" id="DejaVuSans-32"/>
      </defs>
      <g style="fill:#262626;" transform="translate(202.900625 325.442281)scale(0.11 -0.11)">
       <use xlink:href="#DejaVuSans-32"/>
      </g>
     </g>
    </g>
    <g id="xtick_4">
     <g id="text_4">
      <!-- 3 -->
      <defs>
       <path d="M 40.578125 39.3125 
Q 47.65625 37.796875 51.625 33 
Q 55.609375 28.21875 55.609375 21.1875 
Q 55.609375 10.40625 48.1875 4.484375 
Q 40.765625 -1.421875 27.09375 -1.421875 
Q 22.515625 -1.421875 17.65625 -0.515625 
Q 12.796875 0.390625 7.625 2.203125 
L 7.625 11.71875 
Q 11.71875 9.328125 16.59375 8.109375 
Q 21.484375 6.890625 26.8125 6.890625 
Q 36.078125 6.890625 40.9375 10.546875 
Q 45.796875 14.203125 45.796875 21.1875 
Q 45.796875 27.640625 41.28125 31.265625 
Q 36.765625 34.90625 28.71875 34.90625 
L 20.21875 34.90625 
L 20.21875 43.015625 
L 29.109375 43.015625 
Q 36.375 43.015625 40.234375 45.921875 
Q 44.09375 48.828125 44.09375 54.296875 
Q 44.09375 59.90625 40.109375 62.90625 
Q 36.140625 65.921875 28.71875 65.921875 
Q 24.65625 65.921875 20.015625 65.03125 
Q 15.375 64.15625 9.8125 62.3125 
L 9.8125 71.09375 
Q 15.4375 72.65625 20.34375 73.4375 
Q 25.25 74.21875 29.59375 74.21875 
Q 40.828125 74.21875 47.359375 69.109375 
Q 53.90625 64.015625 53.90625 55.328125 
Q 53.90625 49.265625 50.4375 45.09375 
Q 46.96875 40.921875 40.578125 39.3125 
z
" id="DejaVuSans-33"/>
      </defs>
      <g style="fill:#262626;" transform="translate(262.420625 325.442281)scale(0.11 -0.11)">
       <use xlink:href="#DejaVuSans-33"/>
      </g>
     </g>
    </g>
    <g id="xtick_5">
     <g id="text_5">
      <!-- 4 -->
      <defs>
       <path d="M 37.796875 64.3125 
L 12.890625 25.390625 
L 37.796875 25.390625 
z
M 35.203125 72.90625 
L 47.609375 72.90625 
L 47.609375 25.390625 
L 58.015625 25.390625 
L 58.015625 17.1875 
L 47.609375 17.1875 
L 47.609375 0 
L 37.796875 0 
L 37.796875 17.1875 
L 4.890625 17.1875 
L 4.890625 26.703125 
z
" id="DejaVuSans-34"/>
      </defs>
      <g style="fill:#262626;" transform="translate(321.940625 325.442281)scale(0.11 -0.11)">
       <use xlink:href="#DejaVuSans-34"/>
      </g>
     </g>
    </g>
    <g id="xtick_6">
     <g id="text_6">
      <!-- 5 -->
      <defs>
       <path d="M 10.796875 72.90625 
L 49.515625 72.90625 
L 49.515625 64.59375 
L 19.828125 64.59375 
L 19.828125 46.734375 
Q 21.96875 47.46875 24.109375 47.828125 
Q 26.265625 48.1875 28.421875 48.1875 
Q 40.625 48.1875 47.75 41.5 
Q 54.890625 34.8125 54.890625 23.390625 
Q 54.890625 11.625 47.5625 5.09375 
Q 40.234375 -1.421875 26.90625 -1.421875 
Q 22.3125 -1.421875 17.546875 -0.640625 
Q 12.796875 0.140625 7.71875 1.703125 
L 7.71875 11.625 
Q 12.109375 9.234375 16.796875 8.0625 
Q 21.484375 6.890625 26.703125 6.890625 
Q 35.15625 6.890625 40.078125 11.328125 
Q 45.015625 15.765625 45.015625 23.390625 
Q 45.015625 31 40.078125 35.4375 
Q 35.15625 39.890625 26.703125 39.890625 
Q 22.75 39.890625 18.8125 39.015625 
Q 14.890625 38.140625 10.796875 36.28125 
z
" id="DejaVuSans-35"/>
      </defs>
      <g style="fill:#262626;" transform="translate(381.460625 325.442281)scale(0.11 -0.11)">
       <use xlink:href="#DejaVuSans-35"/>
      </g>
     </g>
    </g>
    <g id="text_7">
     <!-- Class label -->
     <defs>
      <path d="M 64.40625 67.28125 
L 64.40625 56.890625 
Q 59.421875 61.53125 53.78125 63.8125 
Q 48.140625 66.109375 41.796875 66.109375 
Q 29.296875 66.109375 22.65625 58.46875 
Q 16.015625 50.828125 16.015625 36.375 
Q 16.015625 21.96875 22.65625 14.328125 
Q 29.296875 6.6875 41.796875 6.6875 
Q 48.140625 6.6875 53.78125 8.984375 
Q 59.421875 11.28125 64.40625 15.921875 
L 64.40625 5.609375 
Q 59.234375 2.09375 53.4375 0.328125 
Q 47.65625 -1.421875 41.21875 -1.421875 
Q 24.65625 -1.421875 15.125 8.703125 
Q 5.609375 18.84375 5.609375 36.375 
Q 5.609375 53.953125 15.125 64.078125 
Q 24.65625 74.21875 41.21875 74.21875 
Q 47.75 74.21875 53.53125 72.484375 
Q 59.328125 70.75 64.40625 67.28125 
z
" id="DejaVuSans-43"/>
      <path d="M 9.421875 75.984375 
L 18.40625 75.984375 
L 18.40625 0 
L 9.421875 0 
z
" id="DejaVuSans-6c"/>
      <path d="M 34.28125 27.484375 
Q 23.390625 27.484375 19.1875 25 
Q 14.984375 22.515625 14.984375 16.5 
Q 14.984375 11.71875 18.140625 8.90625 
Q 21.296875 6.109375 26.703125 6.109375 
Q 34.1875 6.109375 38.703125 11.40625 
Q 43.21875 16.703125 43.21875 25.484375 
L 43.21875 27.484375 
z
M 52.203125 31.203125 
L 52.203125 0 
L 43.21875 0 
L 43.21875 8.296875 
Q 40.140625 3.328125 35.546875 0.953125 
Q 30.953125 -1.421875 24.3125 -1.421875 
Q 15.921875 -1.421875 10.953125 3.296875 
Q 6 8.015625 6 15.921875 
Q 6 25.140625 12.171875 29.828125 
Q 18.359375 34.515625 30.609375 34.515625 
L 43.21875 34.515625 
L 43.21875 35.40625 
Q 43.21875 41.609375 39.140625 45 
Q 35.0625 48.390625 27.6875 48.390625 
Q 23 48.390625 18.546875 47.265625 
Q 14.109375 46.140625 10.015625 43.890625 
L 10.015625 52.203125 
Q 14.9375 54.109375 19.578125 55.046875 
Q 24.21875 56 28.609375 56 
Q 40.484375 56 46.34375 49.84375 
Q 52.203125 43.703125 52.203125 31.203125 
z
" id="DejaVuSans-61"/>
      <path d="M 44.28125 53.078125 
L 44.28125 44.578125 
Q 40.484375 46.53125 36.375 47.5 
Q 32.28125 48.484375 27.875 48.484375 
Q 21.1875 48.484375 17.84375 46.4375 
Q 14.5 44.390625 14.5 40.28125 
Q 14.5 37.15625 16.890625 35.375 
Q 19.28125 33.59375 26.515625 31.984375 
L 29.59375 31.296875 
Q 39.15625 29.25 43.1875 25.515625 
Q 47.21875 21.78125 47.21875 15.09375 
Q 47.21875 7.46875 41.1875 3.015625 
Q 35.15625 -1.421875 24.609375 -1.421875 
Q 20.21875 -1.421875 15.453125 -0.5625 
Q 10.6875 0.296875 5.421875 2 
L 5.421875 11.28125 
Q 10.40625 8.6875 15.234375 7.390625 
Q 20.0625 6.109375 24.8125 6.109375 
Q 31.15625 6.109375 34.5625 8.28125 
Q 37.984375 10.453125 37.984375 14.40625 
Q 37.984375 18.0625 35.515625 20.015625 
Q 33.0625 21.96875 24.703125 23.78125 
L 21.578125 24.515625 
Q 13.234375 26.265625 9.515625 29.90625 
Q 5.8125 33.546875 5.8125 39.890625 
Q 5.8125 47.609375 11.28125 51.796875 
Q 16.75 56 26.8125 56 
Q 31.78125 56 36.171875 55.265625 
Q 40.578125 54.546875 44.28125 53.078125 
z
" id="DejaVuSans-73"/>
      <path id="DejaVuSans-20"/>
      <path d="M 48.6875 27.296875 
Q 48.6875 37.203125 44.609375 42.84375 
Q 40.53125 48.484375 33.40625 48.484375 
Q 26.265625 48.484375 22.1875 42.84375 
Q 18.109375 37.203125 18.109375 27.296875 
Q 18.109375 17.390625 22.1875 11.75 
Q 26.265625 6.109375 33.40625 6.109375 
Q 40.53125 6.109375 44.609375 11.75 
Q 48.6875 17.390625 48.6875 27.296875 
z
M 18.109375 46.390625 
Q 20.953125 51.265625 25.265625 53.625 
Q 29.59375 56 35.59375 56 
Q 45.5625 56 51.78125 48.09375 
Q 58.015625 40.1875 58.015625 27.296875 
Q 58.015625 14.40625 51.78125 6.484375 
Q 45.5625 -1.421875 35.59375 -1.421875 
Q 29.59375 -1.421875 25.265625 0.953125 
Q 20.953125 3.328125 18.109375 8.203125 
L 18.109375 0 
L 9.078125 0 
L 9.078125 75.984375 
L 18.109375 75.984375 
z
" id="DejaVuSans-62"/>
      <path d="M 56.203125 29.59375 
L 56.203125 25.203125 
L 14.890625 25.203125 
Q 15.484375 15.921875 20.484375 11.0625 
Q 25.484375 6.203125 34.421875 6.203125 
Q 39.59375 6.203125 44.453125 7.46875 
Q 49.3125 8.734375 54.109375 11.28125 
L 54.109375 2.78125 
Q 49.265625 0.734375 44.1875 -0.34375 
Q 39.109375 -1.421875 33.890625 -1.421875 
Q 20.796875 -1.421875 13.15625 6.1875 
Q 5.515625 13.8125 5.515625 26.8125 
Q 5.515625 40.234375 12.765625 48.109375 
Q 20.015625 56 32.328125 56 
Q 43.359375 56 49.78125 48.890625 
Q 56.203125 41.796875 56.203125 29.59375 
z
M 47.21875 32.234375 
Q 47.125 39.59375 43.09375 43.984375 
Q 39.0625 48.390625 32.421875 48.390625 
Q 24.90625 48.390625 20.390625 44.140625 
Q 15.875 39.890625 15.1875 32.171875 
z
" id="DejaVuSans-65"/>
     </defs>
     <g style="fill:#262626;" transform="translate(203.956875 340.848062)scale(0.12 -0.12)">
      <use xlink:href="#DejaVuSans-43"/>
      <use x="69.824219" xlink:href="#DejaVuSans-6c"/>
      <use x="97.607422" xlink:href="#DejaVuSans-61"/>
      <use x="158.886719" xlink:href="#DejaVuSans-73"/>
      <use x="210.986328" xlink:href="#DejaVuSans-73"/>
      <use x="263.085938" xlink:href="#DejaVuSans-20"/>
      <use x="294.873047" xlink:href="#DejaVuSans-6c"/>
      <use x="322.65625" xlink:href="#DejaVuSans-61"/>
      <use x="383.935547" xlink:href="#DejaVuSans-62"/>
      <use x="447.412109" xlink:href="#DejaVuSans-65"/>
      <use x="508.935547" xlink:href="#DejaVuSans-6c"/>
     </g>
    </g>
   </g>
   <g id="matplotlib.axis_2">
    <g id="ytick_1">
     <g id="line2d_1">
      <path clip-path="url(#p83046bbc46)" d="M 57.6 297.111642 
L 414.72 297.111642 
" style="fill:none;stroke:#cccccc;stroke-linecap:round;"/>
     </g>
     <g id="text_8">
      <!-- −4 -->
      <defs>
       <path d="M 10.59375 35.5 
L 73.1875 35.5 
L 73.1875 27.203125 
L 10.59375 27.203125 
z
" id="DejaVuSans-2212"/>
      </defs>
      <g style="fill:#262626;" transform="translate(31.883594 301.290782)scale(0.11 -0.11)">
       <use xlink:href="#DejaVuSans-2212"/>
       <use x="83.789062" xlink:href="#DejaVuSans-34"/>
      </g>
     </g>
    </g>
    <g id="ytick_2">
     <g id="line2d_2">
      <path clip-path="url(#p83046bbc46)" d="M 57.6 262.359532 
L 414.72 262.359532 
" style="fill:none;stroke:#cccccc;stroke-linecap:round;"/>
     </g>
     <g id="text_9">
      <!-- −3 -->
      <g style="fill:#262626;" transform="translate(31.883594 266.538673)scale(0.11 -0.11)">
       <use xlink:href="#DejaVuSans-2212"/>
       <use x="83.789062" xlink:href="#DejaVuSans-33"/>
      </g>
     </g>
    </g>
    <g id="ytick_3">
     <g id="line2d_3">
      <path clip-path="url(#p83046bbc46)" d="M 57.6 227.607423 
L 414.72 227.607423 
" style="fill:none;stroke:#cccccc;stroke-linecap:round;"/>
     </g>
     <g id="text_10">
      <!-- −2 -->
      <g style="fill:#262626;" transform="translate(31.883594 231.786564)scale(0.11 -0.11)">
       <use xlink:href="#DejaVuSans-2212"/>
       <use x="83.789062" xlink:href="#DejaVuSans-32"/>
      </g>
     </g>
    </g>
    <g id="ytick_4">
     <g id="line2d_4">
      <path clip-path="url(#p83046bbc46)" d="M 57.6 192.855314 
L 414.72 192.855314 
" style="fill:none;stroke:#cccccc;stroke-linecap:round;"/>
     </g>
     <g id="text_11">
      <!-- −1 -->
      <g style="fill:#262626;" transform="translate(31.883594 197.034454)scale(0.11 -0.11)">
       <use xlink:href="#DejaVuSans-2212"/>
       <use x="83.789062" xlink:href="#DejaVuSans-31"/>
      </g>
     </g>
    </g>
    <g id="ytick_5">
     <g id="line2d_5">
      <path clip-path="url(#p83046bbc46)" d="M 57.6 158.103204 
L 414.72 158.103204 
" style="fill:none;stroke:#cccccc;stroke-linecap:round;"/>
     </g>
     <g id="text_12">
      <!-- 0 -->
      <g style="fill:#262626;" transform="translate(41.10125 162.282345)scale(0.11 -0.11)">
       <use xlink:href="#DejaVuSans-30"/>
      </g>
     </g>
    </g>
    <g id="ytick_6">
     <g id="line2d_6">
      <path clip-path="url(#p83046bbc46)" d="M 57.6 123.351095 
L 414.72 123.351095 
" style="fill:none;stroke:#cccccc;stroke-linecap:round;"/>
     </g>
     <g id="text_13">
      <!-- 1 -->
      <g style="fill:#262626;" transform="translate(41.10125 127.530235)scale(0.11 -0.11)">
       <use xlink:href="#DejaVuSans-31"/>
      </g>
     </g>
    </g>
    <g id="ytick_7">
     <g id="line2d_7">
      <path clip-path="url(#p83046bbc46)" d="M 57.6 88.598985 
L 414.72 88.598985 
" style="fill:none;stroke:#cccccc;stroke-linecap:round;"/>
     </g>
     <g id="text_14">
      <!-- 2 -->
      <g style="fill:#262626;" transform="translate(41.10125 92.778126)scale(0.11 -0.11)">
       <use xlink:href="#DejaVuSans-32"/>
      </g>
     </g>
    </g>
    <g id="ytick_8">
     <g id="line2d_8">
      <path clip-path="url(#p83046bbc46)" d="M 57.6 53.846876 
L 414.72 53.846876 
" style="fill:none;stroke:#cccccc;stroke-linecap:round;"/>
     </g>
     <g id="text_15">
      <!-- 3 -->
      <g style="fill:#262626;" transform="translate(41.10125 58.026017)scale(0.11 -0.11)">
       <use xlink:href="#DejaVuSans-33"/>
      </g>
     </g>
    </g>
    <g id="text_16">
     <!-- SA_A_eigvals_ratio_9_2_N -->
     <defs>
      <path d="M 53.515625 70.515625 
L 53.515625 60.890625 
Q 47.90625 63.578125 42.921875 64.890625 
Q 37.9375 66.21875 33.296875 66.21875 
Q 25.25 66.21875 20.875 63.09375 
Q 16.5 59.96875 16.5 54.203125 
Q 16.5 49.359375 19.40625 46.890625 
Q 22.3125 44.4375 30.421875 42.921875 
L 36.375 41.703125 
Q 47.40625 39.59375 52.65625 34.296875 
Q 57.90625 29 57.90625 20.125 
Q 57.90625 9.515625 50.796875 4.046875 
Q 43.703125 -1.421875 29.984375 -1.421875 
Q 24.8125 -1.421875 18.96875 -0.25 
Q 13.140625 0.921875 6.890625 3.21875 
L 6.890625 13.375 
Q 12.890625 10.015625 18.65625 8.296875 
Q 24.421875 6.59375 29.984375 6.59375 
Q 38.421875 6.59375 43.015625 9.90625 
Q 47.609375 13.234375 47.609375 19.390625 
Q 47.609375 24.75 44.3125 27.78125 
Q 41.015625 30.8125 33.5 32.328125 
L 27.484375 33.5 
Q 16.453125 35.6875 11.515625 40.375 
Q 6.59375 45.0625 6.59375 53.421875 
Q 6.59375 63.09375 13.40625 68.65625 
Q 20.21875 74.21875 32.171875 74.21875 
Q 37.3125 74.21875 42.625 73.28125 
Q 47.953125 72.359375 53.515625 70.515625 
z
" id="DejaVuSans-53"/>
      <path d="M 34.1875 63.1875 
L 20.796875 26.90625 
L 47.609375 26.90625 
z
M 28.609375 72.90625 
L 39.796875 72.90625 
L 67.578125 0 
L 57.328125 0 
L 50.6875 18.703125 
L 17.828125 18.703125 
L 11.1875 0 
L 0.78125 0 
z
" id="DejaVuSans-41"/>
      <path d="M 50.984375 -16.609375 
L 50.984375 -23.578125 
L -0.984375 -23.578125 
L -0.984375 -16.609375 
z
" id="DejaVuSans-5f"/>
      <path d="M 9.421875 54.6875 
L 18.40625 54.6875 
L 18.40625 0 
L 9.421875 0 
z
M 9.421875 75.984375 
L 18.40625 75.984375 
L 18.40625 64.59375 
L 9.421875 64.59375 
z
" id="DejaVuSans-69"/>
      <path d="M 45.40625 27.984375 
Q 45.40625 37.75 41.375 43.109375 
Q 37.359375 48.484375 30.078125 48.484375 
Q 22.859375 48.484375 18.828125 43.109375 
Q 14.796875 37.75 14.796875 27.984375 
Q 14.796875 18.265625 18.828125 12.890625 
Q 22.859375 7.515625 30.078125 7.515625 
Q 37.359375 7.515625 41.375 12.890625 
Q 45.40625 18.265625 45.40625 27.984375 
z
M 54.390625 6.78125 
Q 54.390625 -7.171875 48.1875 -13.984375 
Q 42 -20.796875 29.203125 -20.796875 
Q 24.46875 -20.796875 20.265625 -20.09375 
Q 16.0625 -19.390625 12.109375 -17.921875 
L 12.109375 -9.1875 
Q 16.0625 -11.328125 19.921875 -12.34375 
Q 23.78125 -13.375 27.78125 -13.375 
Q 36.625 -13.375 41.015625 -8.765625 
Q 45.40625 -4.15625 45.40625 5.171875 
L 45.40625 9.625 
Q 42.625 4.78125 38.28125 2.390625 
Q 33.9375 0 27.875 0 
Q 17.828125 0 11.671875 7.65625 
Q 5.515625 15.328125 5.515625 27.984375 
Q 5.515625 40.671875 11.671875 48.328125 
Q 17.828125 56 27.875 56 
Q 33.9375 56 38.28125 53.609375 
Q 42.625 51.21875 45.40625 46.390625 
L 45.40625 54.6875 
L 54.390625 54.6875 
z
" id="DejaVuSans-67"/>
      <path d="M 2.984375 54.6875 
L 12.5 54.6875 
L 29.59375 8.796875 
L 46.6875 54.6875 
L 56.203125 54.6875 
L 35.6875 0 
L 23.484375 0 
z
" id="DejaVuSans-76"/>
      <path d="M 41.109375 46.296875 
Q 39.59375 47.171875 37.8125 47.578125 
Q 36.03125 48 33.890625 48 
Q 26.265625 48 22.1875 43.046875 
Q 18.109375 38.09375 18.109375 28.8125 
L 18.109375 0 
L 9.078125 0 
L 9.078125 54.6875 
L 18.109375 54.6875 
L 18.109375 46.1875 
Q 20.953125 51.171875 25.484375 53.578125 
Q 30.03125 56 36.53125 56 
Q 37.453125 56 38.578125 55.875 
Q 39.703125 55.765625 41.0625 55.515625 
z
" id="DejaVuSans-72"/>
      <path d="M 18.3125 70.21875 
L 18.3125 54.6875 
L 36.8125 54.6875 
L 36.8125 47.703125 
L 18.3125 47.703125 
L 18.3125 18.015625 
Q 18.3125 11.328125 20.140625 9.421875 
Q 21.96875 7.515625 27.59375 7.515625 
L 36.8125 7.515625 
L 36.8125 0 
L 27.59375 0 
Q 17.1875 0 13.234375 3.875 
Q 9.28125 7.765625 9.28125 18.015625 
L 9.28125 47.703125 
L 2.6875 47.703125 
L 2.6875 54.6875 
L 9.28125 54.6875 
L 9.28125 70.21875 
z
" id="DejaVuSans-74"/>
      <path d="M 30.609375 48.390625 
Q 23.390625 48.390625 19.1875 42.75 
Q 14.984375 37.109375 14.984375 27.296875 
Q 14.984375 17.484375 19.15625 11.84375 
Q 23.34375 6.203125 30.609375 6.203125 
Q 37.796875 6.203125 41.984375 11.859375 
Q 46.1875 17.53125 46.1875 27.296875 
Q 46.1875 37.015625 41.984375 42.703125 
Q 37.796875 48.390625 30.609375 48.390625 
z
M 30.609375 56 
Q 42.328125 56 49.015625 48.375 
Q 55.71875 40.765625 55.71875 27.296875 
Q 55.71875 13.875 49.015625 6.21875 
Q 42.328125 -1.421875 30.609375 -1.421875 
Q 18.84375 -1.421875 12.171875 6.21875 
Q 5.515625 13.875 5.515625 27.296875 
Q 5.515625 40.765625 12.171875 48.375 
Q 18.84375 56 30.609375 56 
z
" id="DejaVuSans-6f"/>
      <path d="M 10.984375 1.515625 
L 10.984375 10.5 
Q 14.703125 8.734375 18.5 7.8125 
Q 22.3125 6.890625 25.984375 6.890625 
Q 35.75 6.890625 40.890625 13.453125 
Q 46.046875 20.015625 46.78125 33.40625 
Q 43.953125 29.203125 39.59375 26.953125 
Q 35.25 24.703125 29.984375 24.703125 
Q 19.046875 24.703125 12.671875 31.3125 
Q 6.296875 37.9375 6.296875 49.421875 
Q 6.296875 60.640625 12.9375 67.421875 
Q 19.578125 74.21875 30.609375 74.21875 
Q 43.265625 74.21875 49.921875 64.515625 
Q 56.59375 54.828125 56.59375 36.375 
Q 56.59375 19.140625 48.40625 8.859375 
Q 40.234375 -1.421875 26.421875 -1.421875 
Q 22.703125 -1.421875 18.890625 -0.6875 
Q 15.09375 0.046875 10.984375 1.515625 
z
M 30.609375 32.421875 
Q 37.25 32.421875 41.125 36.953125 
Q 45.015625 41.5 45.015625 49.421875 
Q 45.015625 57.28125 41.125 61.84375 
Q 37.25 66.40625 30.609375 66.40625 
Q 23.96875 66.40625 20.09375 61.84375 
Q 16.21875 57.28125 16.21875 49.421875 
Q 16.21875 41.5 20.09375 36.953125 
Q 23.96875 32.421875 30.609375 32.421875 
z
" id="DejaVuSans-39"/>
      <path d="M 9.8125 72.90625 
L 23.09375 72.90625 
L 55.421875 11.921875 
L 55.421875 72.90625 
L 64.984375 72.90625 
L 64.984375 0 
L 51.703125 0 
L 19.390625 60.984375 
L 19.390625 0 
L 9.8125 0 
z
" id="DejaVuSans-4e"/>
     </defs>
     <g style="fill:#262626;" transform="translate(25.054219 251.692687)rotate(-90)scale(0.12 -0.12)">
      <use xlink:href="#DejaVuSans-53"/>
      <use x="63.492188" xlink:href="#DejaVuSans-41"/>
      <use x="131.900391" xlink:href="#DejaVuSans-5f"/>
      <use x="181.900391" xlink:href="#DejaVuSans-41"/>
      <use x="250.308594" xlink:href="#DejaVuSans-5f"/>
      <use x="300.308594" xlink:href="#DejaVuSans-65"/>
      <use x="361.832031" xlink:href="#DejaVuSans-69"/>
      <use x="389.615234" xlink:href="#DejaVuSans-67"/>
      <use x="453.091797" xlink:href="#DejaVuSans-76"/>
      <use x="512.271484" xlink:href="#DejaVuSans-61"/>
      <use x="573.550781" xlink:href="#DejaVuSans-6c"/>
      <use x="601.333984" xlink:href="#DejaVuSans-73"/>
      <use x="653.433594" xlink:href="#DejaVuSans-5f"/>
      <use x="703.433594" xlink:href="#DejaVuSans-72"/>
      <use x="744.546875" xlink:href="#DejaVuSans-61"/>
      <use x="805.826172" xlink:href="#DejaVuSans-74"/>
      <use x="845.035156" xlink:href="#DejaVuSans-69"/>
      <use x="872.818359" xlink:href="#DejaVuSans-6f"/>
      <use x="934" xlink:href="#DejaVuSans-5f"/>
      <use x="984" xlink:href="#DejaVuSans-39"/>
      <use x="1047.623047" xlink:href="#DejaVuSans-5f"/>
      <use x="1097.623047" xlink:href="#DejaVuSans-32"/>
      <use x="1161.246094" xlink:href="#DejaVuSans-5f"/>
      <use x="1211.246094" xlink:href="#DejaVuSans-4e"/>
     </g>
    </g>
   </g>
   <g id="PolyCollection_1">
    <defs>
     <path d="M 88.062536 -119.607113 
L 86.657464 -119.607113 
L 86.520504 -120.952742 
L 86.363753 -122.298371 
L 86.185861 -123.644 
L 85.985703 -124.989629 
L 85.762446 -126.335258 
L 85.515624 -127.680888 
L 85.245209 -129.026517 
L 84.951677 -130.372146 
L 84.636064 -131.717775 
L 84.300015 -133.063404 
L 83.945807 -134.409033 
L 83.576365 -135.754663 
L 83.195245 -137.100292 
L 82.806597 -138.445921 
L 82.415104 -139.79155 
L 82.025889 -141.137179 
L 81.644406 -142.482808 
L 81.276298 -143.828438 
L 80.927245 -145.174067 
L 80.602792 -146.519696 
L 80.308171 -147.865325 
L 80.048115 -149.210954 
L 79.826686 -150.556583 
L 79.647102 -151.902213 
L 79.511588 -153.247842 
L 79.421249 -154.593471 
L 79.37597 -155.9391 
L 79.37435 -157.284729 
L 79.413669 -158.630358 
L 79.489893 -159.975987 
L 79.597715 -161.321617 
L 79.730631 -162.667246 
L 79.88105 -164.012875 
L 80.040429 -165.358504 
L 80.199443 -166.704133 
L 80.348161 -168.049762 
L 80.476252 -169.395392 
L 80.573193 -170.741021 
L 80.628487 -172.08665 
L 80.631882 -173.432279 
L 80.573591 -174.777908 
L 80.444506 -176.123537 
L 80.236407 -177.469167 
L 79.942163 -178.814796 
L 79.555917 -180.160425 
L 79.073268 -181.506054 
L 78.491428 -182.851683 
L 77.809368 -184.197312 
L 77.027942 -185.542942 
L 76.149989 -186.888571 
L 75.180401 -188.2342 
L 74.126162 -189.579829 
L 72.996354 -190.925458 
L 71.802108 -192.271087 
L 70.556521 -193.616717 
L 69.274513 -194.962346 
L 67.972631 -196.307975 
L 66.668805 -197.653604 
L 65.38204 -198.999233 
L 64.132066 -200.344862 
L 62.938941 -201.690492 
L 61.822612 -203.036121 
L 60.802466 -204.38175 
L 59.896851 -205.727379 
L 59.122614 -207.073008 
L 58.494656 -208.418637 
L 58.025518 -209.764267 
L 57.725026 -211.109896 
L 57.6 -212.455525 
L 57.654048 -213.801154 
L 57.887446 -215.146783 
L 58.297117 -216.492412 
L 58.876712 -217.838042 
L 59.616789 -219.183671 
L 60.505079 -220.5293 
L 61.526842 -221.874929 
L 62.665286 -223.220558 
L 63.90204 -224.566187 
L 65.217662 -225.911817 
L 66.59216 -227.257446 
L 68.005509 -228.603075 
L 69.43814 -229.948704 
L 70.871393 -231.294333 
L 72.287915 -232.639962 
L 73.671983 -233.985592 
L 75.009769 -235.331221 
L 76.289508 -236.67685 
L 77.501605 -238.022479 
L 78.638655 -239.368108 
L 79.695401 -240.713737 
L 80.668628 -242.059367 
L 81.557008 -243.404996 
L 82.360905 -244.750625 
L 83.082152 -246.096254 
L 83.723816 -247.441883 
L 84.289951 -248.787512 
L 84.785362 -250.133142 
L 85.215375 -251.478771 
L 85.585631 -252.8244 
L 89.134369 -252.8244 
L 89.134369 -252.8244 
L 89.504625 -251.478771 
L 89.934638 -250.133142 
L 90.430049 -248.787512 
L 90.996184 -247.441883 
L 91.637848 -246.096254 
L 92.359095 -244.750625 
L 93.162992 -243.404996 
L 94.051372 -242.059367 
L 95.024599 -240.713737 
L 96.081345 -239.368108 
L 97.218395 -238.022479 
L 98.430492 -236.67685 
L 99.710231 -235.331221 
L 101.048017 -233.985592 
L 102.432085 -232.639962 
L 103.848607 -231.294333 
L 105.28186 -229.948704 
L 106.714491 -228.603075 
L 108.12784 -227.257446 
L 109.502338 -225.911817 
L 110.81796 -224.566187 
L 112.054714 -223.220558 
L 113.193158 -221.874929 
L 114.214921 -220.5293 
L 115.103211 -219.183671 
L 115.843288 -217.838042 
L 116.422883 -216.492412 
L 116.832554 -215.146783 
L 117.065952 -213.801154 
L 117.12 -212.455525 
L 116.994974 -211.109896 
L 116.694482 -209.764267 
L 116.225344 -208.418637 
L 115.597386 -207.073008 
L 114.823149 -205.727379 
L 113.917534 -204.38175 
L 112.897388 -203.036121 
L 111.781059 -201.690492 
L 110.587934 -200.344862 
L 109.33796 -198.999233 
L 108.051195 -197.653604 
L 106.747369 -196.307975 
L 105.445487 -194.962346 
L 104.163479 -193.616717 
L 102.917892 -192.271087 
L 101.723646 -190.925458 
L 100.593838 -189.579829 
L 99.539599 -188.2342 
L 98.570011 -186.888571 
L 97.692058 -185.542942 
L 96.910632 -184.197312 
L 96.228572 -182.851683 
L 95.646732 -181.506054 
L 95.164083 -180.160425 
L 94.777837 -178.814796 
L 94.483593 -177.469167 
L 94.275494 -176.123537 
L 94.146409 -174.777908 
L 94.088118 -173.432279 
L 94.091513 -172.08665 
L 94.146807 -170.741021 
L 94.243748 -169.395392 
L 94.371839 -168.049762 
L 94.520557 -166.704133 
L 94.679571 -165.358504 
L 94.83895 -164.012875 
L 94.989369 -162.667246 
L 95.122285 -161.321617 
L 95.230107 -159.975987 
L 95.306331 -158.630358 
L 95.34565 -157.284729 
L 95.34403 -155.9391 
L 95.298751 -154.593471 
L 95.208412 -153.247842 
L 95.072898 -151.902213 
L 94.893314 -150.556583 
L 94.671885 -149.210954 
L 94.411829 -147.865325 
L 94.117208 -146.519696 
L 93.792755 -145.174067 
L 93.443702 -143.828438 
L 93.075594 -142.482808 
L 92.694111 -141.137179 
L 92.304896 -139.79155 
L 91.913403 -138.445921 
L 91.524755 -137.100292 
L 91.143635 -135.754663 
L 90.774193 -134.409033 
L 90.419985 -133.063404 
L 90.083936 -131.717775 
L 89.768323 -130.372146 
L 89.474791 -129.026517 
L 89.204376 -127.680888 
L 88.957554 -126.335258 
L 88.734297 -124.989629 
L 88.534139 -123.644 
L 88.356247 -122.298371 
L 88.199496 -120.952742 
L 88.062536 -119.607113 
z
" id="m487f677f28" style="stroke:#3c3c3c;stroke-width:1.5;"/>
    </defs>
    <g clip-path="url(#p83046bbc46)">
     <use style="fill:#597dbf;stroke:#3c3c3c;stroke-width:1.5;" x="0" xlink:href="#m487f677f28" y="345.6"/>
    </g>
   </g>
   <g id="PolyCollection_2">
    <defs>
     <path d="M 147.348915 -50.112 
L 146.411085 -50.112 
L 146.309839 -52.345558 
L 146.191132 -54.579117 
L 146.052936 -56.812675 
L 145.89318 -59.046233 
L 145.709792 -61.279792 
L 145.500745 -63.51335 
L 145.264105 -65.746908 
L 144.99809 -67.980467 
L 144.701134 -70.214025 
L 144.371944 -72.447584 
L 144.009573 -74.681142 
L 143.613478 -76.9147 
L 143.18359 -79.148259 
L 142.720363 -81.381817 
L 142.224832 -83.615375 
L 141.698653 -85.848934 
L 141.144127 -88.082492 
L 140.564219 -90.31605 
L 139.962557 -92.549609 
L 139.343407 -94.783167 
L 138.711638 -97.016725 
L 138.072663 -99.250284 
L 137.432357 -101.483842 
L 136.796961 -103.717401 
L 136.172969 -105.950959 
L 135.567002 -108.184517 
L 134.985665 -110.418076 
L 134.435411 -112.651634 
L 133.922396 -114.885192 
L 133.452336 -117.118751 
L 133.030387 -119.352309 
L 132.661026 -121.585867 
L 132.347957 -123.819426 
L 132.094044 -126.052984 
L 131.901261 -128.286542 
L 131.770672 -130.520101 
L 131.702434 -132.753659 
L 131.695828 -134.987218 
L 131.749306 -137.220776 
L 131.860555 -139.454334 
L 132.026574 -141.687893 
L 132.243762 -143.921451 
L 132.508001 -146.155009 
L 132.814748 -148.388568 
L 133.159113 -150.622126 
L 133.535941 -152.855684 
L 133.939877 -155.089243 
L 134.365435 -157.322801 
L 134.807054 -159.556359 
L 135.259156 -161.789918 
L 135.716205 -164.023476 
L 136.172764 -166.257034 
L 136.623562 -168.490593 
L 137.063569 -170.724151 
L 137.488074 -172.95771 
L 137.892776 -175.191268 
L 138.273874 -177.424826 
L 138.628167 -179.658385 
L 138.953138 -181.891943 
L 139.247042 -184.125501 
L 139.508974 -186.35906 
L 139.738911 -188.592618 
L 139.937737 -190.826176 
L 140.107227 -193.059735 
L 140.250012 -195.293293 
L 140.36949 -197.526851 
L 140.469722 -199.76041 
L 140.555291 -201.993968 
L 140.631128 -204.227527 
L 140.702338 -206.461085 
L 140.774002 -208.694643 
L 140.850986 -210.928202 
L 140.937758 -213.16176 
L 141.038223 -215.395318 
L 141.155585 -217.628877 
L 141.292244 -219.862435 
L 141.44972 -222.095993 
L 141.628635 -224.329552 
L 141.828718 -226.56311 
L 142.048855 -228.796668 
L 142.287175 -231.030227 
L 142.541158 -233.263785 
L 142.80777 -235.497343 
L 143.083606 -237.730902 
L 143.365045 -239.96446 
L 143.648395 -242.198019 
L 143.930034 -244.431577 
L 144.206539 -246.665135 
L 144.474785 -248.898694 
L 144.732031 -251.132252 
L 144.975979 -253.36581 
L 145.204809 -255.599369 
L 145.417186 -257.832927 
L 145.612255 -260.066485 
L 145.789613 -262.300044 
L 145.949267 -264.533602 
L 146.091581 -266.76716 
L 146.217219 -269.000719 
L 146.327086 -271.234277 
L 147.432914 -271.234277 
L 147.432914 -271.234277 
L 147.542781 -269.000719 
L 147.668419 -266.76716 
L 147.810733 -264.533602 
L 147.970387 -262.300044 
L 148.147745 -260.066485 
L 148.342814 -257.832927 
L 148.555191 -255.599369 
L 148.784021 -253.36581 
L 149.027969 -251.132252 
L 149.285215 -248.898694 
L 149.553461 -246.665135 
L 149.829966 -244.431577 
L 150.111605 -242.198019 
L 150.394955 -239.96446 
L 150.676394 -237.730902 
L 150.95223 -235.497343 
L 151.218842 -233.263785 
L 151.472825 -231.030227 
L 151.711145 -228.796668 
L 151.931282 -226.56311 
L 152.131365 -224.329552 
L 152.31028 -222.095993 
L 152.467756 -219.862435 
L 152.604415 -217.628877 
L 152.721777 -215.395318 
L 152.822242 -213.16176 
L 152.909014 -210.928202 
L 152.985998 -208.694643 
L 153.057662 -206.461085 
L 153.128872 -204.227527 
L 153.204709 -201.993968 
L 153.290278 -199.76041 
L 153.39051 -197.526851 
L 153.509988 -195.293293 
L 153.652773 -193.059735 
L 153.822263 -190.826176 
L 154.021089 -188.592618 
L 154.251026 -186.35906 
L 154.512958 -184.125501 
L 154.806862 -181.891943 
L 155.131833 -179.658385 
L 155.486126 -177.424826 
L 155.867224 -175.191268 
L 156.271926 -172.95771 
L 156.696431 -170.724151 
L 157.136438 -168.490593 
L 157.587236 -166.257034 
L 158.043795 -164.023476 
L 158.500844 -161.789918 
L 158.952946 -159.556359 
L 159.394565 -157.322801 
L 159.820123 -155.089243 
L 160.224059 -152.855684 
L 160.600887 -150.622126 
L 160.945252 -148.388568 
L 161.251999 -146.155009 
L 161.516238 -143.921451 
L 161.733426 -141.687893 
L 161.899445 -139.454334 
L 162.010694 -137.220776 
L 162.064172 -134.987218 
L 162.057566 -132.753659 
L 161.989328 -130.520101 
L 161.858739 -128.286542 
L 161.665956 -126.052984 
L 161.412043 -123.819426 
L 161.098974 -121.585867 
L 160.729613 -119.352309 
L 160.307664 -117.118751 
L 159.837604 -114.885192 
L 159.324589 -112.651634 
L 158.774335 -110.418076 
L 158.192998 -108.184517 
L 157.587031 -105.950959 
L 156.963039 -103.717401 
L 156.327643 -101.483842 
L 155.687337 -99.250284 
L 155.048362 -97.016725 
L 154.416593 -94.783167 
L 153.797443 -92.549609 
L 153.195781 -90.31605 
L 152.615873 -88.082492 
L 152.061347 -85.848934 
L 151.535168 -83.615375 
L 151.039637 -81.381817 
L 150.57641 -79.148259 
L 150.146522 -76.9147 
L 149.750427 -74.681142 
L 149.388056 -72.447584 
L 149.058866 -70.214025 
L 148.76191 -67.980467 
L 148.495895 -65.746908 
L 148.259255 -63.51335 
L 148.050208 -61.279792 
L 147.86682 -59.046233 
L 147.707064 -56.812675 
L 147.568868 -54.579117 
L 147.450161 -52.345558 
L 147.348915 -50.112 
z
" id="m69f409926a" style="stroke:#3c3c3c;stroke-width:1.5;"/>
    </defs>
    <g clip-path="url(#p83046bbc46)">
     <use style="fill:#d98b5f;stroke:#3c3c3c;stroke-width:1.5;" x="0" xlink:href="#m69f409926a" y="345.6"/>
    </g>
   </g>
   <g id="PolyCollection_3">
    <defs>
     <path d="M 206.989437 -116.250137 
L 205.810563 -116.250137 
L 205.679688 -118.025712 
L 205.526429 -119.801286 
L 205.348527 -121.576861 
L 205.143832 -123.352435 
L 204.910374 -125.128009 
L 204.646456 -126.903584 
L 204.350736 -128.679158 
L 204.022316 -130.454732 
L 203.660826 -132.230307 
L 203.266492 -134.005881 
L 202.8402 -135.781455 
L 202.383533 -137.55703 
L 201.898791 -139.332604 
L 201.388978 -141.108179 
L 200.857773 -142.883753 
L 200.309455 -144.659327 
L 199.748807 -146.434902 
L 199.180993 -148.210476 
L 198.611403 -149.98605 
L 198.045478 -151.761625 
L 197.488525 -153.537199 
L 196.945524 -155.312774 
L 196.420928 -157.088348 
L 195.918491 -158.863922 
L 195.441105 -160.639497 
L 194.990672 -162.415071 
L 194.568021 -164.190645 
L 194.172872 -165.96622 
L 193.803852 -167.741794 
L 193.458569 -169.517368 
L 193.133754 -171.292943 
L 192.825442 -173.068517 
L 192.529215 -174.844092 
L 192.24048 -176.619666 
L 191.954769 -178.39524 
L 191.668056 -180.170815 
L 191.377061 -181.946389 
L 191.079533 -183.721963 
L 190.774489 -185.497538 
L 190.462396 -187.273112 
L 190.145271 -189.048687 
L 189.826714 -190.824261 
L 189.511834 -192.599835 
L 189.207102 -194.37541 
L 188.920107 -196.150984 
L 188.659253 -197.926558 
L 188.433382 -199.702133 
L 188.25137 -201.477707 
L 188.121703 -203.253282 
L 188.052062 -205.028856 
L 188.048934 -206.80443 
L 188.117279 -208.580005 
L 188.260273 -210.355579 
L 188.479127 -212.131153 
L 188.773011 -213.906728 
L 189.139068 -215.682302 
L 189.572534 -217.457876 
L 190.066939 -219.233451 
L 190.614384 -221.009025 
L 191.205879 -222.7846 
L 191.83172 -224.560174 
L 192.48188 -226.335748 
L 193.146401 -228.111323 
L 193.815758 -229.886897 
L 194.481186 -231.662471 
L 195.134946 -233.438046 
L 195.770533 -235.21362 
L 196.382798 -236.989195 
L 196.968014 -238.764769 
L 197.523852 -240.540343 
L 198.049302 -242.315918 
L 198.544534 -244.091492 
L 199.01072 -245.867066 
L 199.449812 -247.642641 
L 199.86432 -249.418215 
L 200.257074 -251.193789 
L 200.631007 -252.969364 
L 200.988949 -254.744938 
L 201.333464 -256.520513 
L 201.666715 -258.296087 
L 201.99038 -260.071661 
L 202.305599 -261.847236 
L 202.612972 -263.62281 
L 202.912586 -265.398384 
L 203.204081 -267.173959 
L 203.486725 -268.949533 
L 203.75952 -270.725108 
L 204.021302 -272.500682 
L 204.270849 -274.276256 
L 204.506978 -276.051831 
L 204.728627 -277.827405 
L 204.934927 -279.602979 
L 205.125247 -281.378554 
L 205.299231 -283.154128 
L 205.4568 -284.929703 
L 205.598156 -286.705277 
L 205.723754 -288.480851 
L 205.834278 -290.256426 
L 205.930594 -292.032 
L 206.869406 -292.032 
L 206.869406 -292.032 
L 206.965722 -290.256426 
L 207.076246 -288.480851 
L 207.201844 -286.705277 
L 207.3432 -284.929703 
L 207.500769 -283.154128 
L 207.674753 -281.378554 
L 207.865073 -279.602979 
L 208.071373 -277.827405 
L 208.293022 -276.051831 
L 208.529151 -274.276256 
L 208.778698 -272.500682 
L 209.04048 -270.725108 
L 209.313275 -268.949533 
L 209.595919 -267.173959 
L 209.887414 -265.398384 
L 210.187028 -263.62281 
L 210.494401 -261.847236 
L 210.80962 -260.071661 
L 211.133285 -258.296087 
L 211.466536 -256.520513 
L 211.811051 -254.744938 
L 212.168993 -252.969364 
L 212.542926 -251.193789 
L 212.93568 -249.418215 
L 213.350188 -247.642641 
L 213.78928 -245.867066 
L 214.255466 -244.091492 
L 214.750698 -242.315918 
L 215.276148 -240.540343 
L 215.831986 -238.764769 
L 216.417202 -236.989195 
L 217.029467 -235.21362 
L 217.665054 -233.438046 
L 218.318814 -231.662471 
L 218.984242 -229.886897 
L 219.653599 -228.111323 
L 220.31812 -226.335748 
L 220.96828 -224.560174 
L 221.594121 -222.7846 
L 222.185616 -221.009025 
L 222.733061 -219.233451 
L 223.227466 -217.457876 
L 223.660932 -215.682302 
L 224.026989 -213.906728 
L 224.320873 -212.131153 
L 224.539727 -210.355579 
L 224.682721 -208.580005 
L 224.751066 -206.80443 
L 224.747938 -205.028856 
L 224.678297 -203.253282 
L 224.54863 -201.477707 
L 224.366618 -199.702133 
L 224.140747 -197.926558 
L 223.879893 -196.150984 
L 223.592898 -194.37541 
L 223.288166 -192.599835 
L 222.973286 -190.824261 
L 222.654729 -189.048687 
L 222.337604 -187.273112 
L 222.025511 -185.497538 
L 221.720467 -183.721963 
L 221.422939 -181.946389 
L 221.131944 -180.170815 
L 220.845231 -178.39524 
L 220.55952 -176.619666 
L 220.270785 -174.844092 
L 219.974558 -173.068517 
L 219.666246 -171.292943 
L 219.341431 -169.517368 
L 218.996148 -167.741794 
L 218.627128 -165.96622 
L 218.231979 -164.190645 
L 217.809328 -162.415071 
L 217.358895 -160.639497 
L 216.881509 -158.863922 
L 216.379072 -157.088348 
L 215.854476 -155.312774 
L 215.311475 -153.537199 
L 214.754522 -151.761625 
L 214.188597 -149.98605 
L 213.619007 -148.210476 
L 213.051193 -146.434902 
L 212.490545 -144.659327 
L 211.942227 -142.883753 
L 211.411022 -141.108179 
L 210.901209 -139.332604 
L 210.416467 -137.55703 
L 209.9598 -135.781455 
L 209.533508 -134.005881 
L 209.139174 -132.230307 
L 208.777684 -130.454732 
L 208.449264 -128.679158 
L 208.153544 -126.903584 
L 207.889626 -125.128009 
L 207.656168 -123.352435 
L 207.451473 -121.576861 
L 207.273571 -119.801286 
L 207.120312 -118.025712 
L 206.989437 -116.250137 
z
" id="maff7b90325" style="stroke:#3c3c3c;stroke-width:1.5;"/>
    </defs>
    <g clip-path="url(#p83046bbc46)">
     <use style="fill:#75bf71;stroke:#3c3c3c;stroke-width:1.5;" x="0" xlink:href="#maff7b90325" y="345.6"/>
    </g>
   </g>
   <g id="PolyCollection_4">
    <defs>
     <path d="M 266.441044 -97.309439 
L 265.398956 -97.309439 
L 265.297566 -98.97385 
L 265.181338 -100.63826 
L 265.049134 -102.30267 
L 264.899928 -103.967081 
L 264.732846 -105.631491 
L 264.547211 -107.295902 
L 264.342582 -108.960312 
L 264.118796 -110.624722 
L 263.876001 -112.289133 
L 263.614683 -113.953543 
L 263.335689 -115.617953 
L 263.040232 -117.282364 
L 262.729895 -118.946774 
L 262.406616 -120.611185 
L 262.072661 -122.275595 
L 261.730592 -123.940005 
L 261.383215 -125.604416 
L 261.033518 -127.268826 
L 260.684612 -128.933236 
L 260.339645 -130.597647 
L 260.001733 -132.262057 
L 259.67387 -133.926468 
L 259.358852 -135.590878 
L 259.059191 -137.255288 
L 258.777049 -138.919699 
L 258.514163 -140.584109 
L 258.271789 -142.248519 
L 258.050651 -143.91293 
L 257.850906 -145.57734 
L 257.672112 -147.241751 
L 257.513222 -148.906161 
L 257.372578 -150.570571 
L 257.247931 -152.234982 
L 257.136461 -153.899392 
L 257.034825 -155.563802 
L 256.939213 -157.228213 
L 256.845413 -158.892623 
L 256.748896 -160.557034 
L 256.644914 -162.221444 
L 256.528604 -163.885854 
L 256.39511 -165.550265 
L 256.239701 -167.214675 
L 256.057913 -168.879085 
L 255.845672 -170.543496 
L 255.599439 -172.207906 
L 255.316332 -173.872317 
L 254.99425 -175.536727 
L 254.631984 -177.201137 
L 254.229306 -178.865548 
L 253.787048 -180.529958 
L 253.307149 -182.194368 
L 252.79268 -183.858779 
L 252.247845 -185.523189 
L 251.677944 -187.1876 
L 251.089322 -188.85201 
L 250.489274 -190.51642 
L 249.885931 -192.180831 
L 249.288123 -193.845241 
L 248.705214 -195.509651 
L 248.146918 -197.174062 
L 247.623106 -198.838472 
L 247.143591 -200.502883 
L 246.717917 -202.167293 
L 246.355137 -203.831703 
L 246.063599 -205.496114 
L 245.850738 -207.160524 
L 245.722887 -208.824934 
L 245.685102 -210.489345 
L 245.741015 -212.153755 
L 245.892722 -213.818166 
L 246.140702 -215.482576 
L 246.483777 -217.146986 
L 246.919114 -218.811397 
L 247.44228 -220.475807 
L 248.047323 -222.140217 
L 248.726916 -223.804628 
L 249.472527 -225.469038 
L 250.274626 -227.133449 
L 251.122923 -228.797859 
L 252.006618 -230.462269 
L 252.914669 -232.12668 
L 253.836053 -233.79109 
L 254.760028 -235.455501 
L 255.676366 -237.119911 
L 256.575568 -238.784321 
L 257.449047 -240.448732 
L 258.289268 -242.113142 
L 259.089852 -243.777552 
L 259.845636 -245.441963 
L 260.552694 -247.106373 
L 261.208317 -248.770784 
L 261.81096 -250.435194 
L 262.360156 -252.099604 
L 262.856409 -253.764015 
L 263.301071 -255.428425 
L 263.696207 -257.092835 
L 264.044449 -258.757246 
L 264.348864 -260.421656 
L 264.612816 -262.086067 
L 267.227184 -262.086067 
L 267.227184 -262.086067 
L 267.491136 -260.421656 
L 267.795551 -258.757246 
L 268.143793 -257.092835 
L 268.538929 -255.428425 
L 268.983591 -253.764015 
L 269.479844 -252.099604 
L 270.02904 -250.435194 
L 270.631683 -248.770784 
L 271.287306 -247.106373 
L 271.994364 -245.441963 
L 272.750148 -243.777552 
L 273.550732 -242.113142 
L 274.390953 -240.448732 
L 275.264432 -238.784321 
L 276.163634 -237.119911 
L 277.079972 -235.455501 
L 278.003947 -233.79109 
L 278.925331 -232.12668 
L 279.833382 -230.462269 
L 280.717077 -228.797859 
L 281.565374 -227.133449 
L 282.367473 -225.469038 
L 283.113084 -223.804628 
L 283.792677 -222.140217 
L 284.39772 -220.475807 
L 284.920886 -218.811397 
L 285.356223 -217.146986 
L 285.699298 -215.482576 
L 285.947278 -213.818166 
L 286.098985 -212.153755 
L 286.154898 -210.489345 
L 286.117113 -208.824934 
L 285.989262 -207.160524 
L 285.776401 -205.496114 
L 285.484863 -203.831703 
L 285.122083 -202.167293 
L 284.696409 -200.502883 
L 284.216894 -198.838472 
L 283.693082 -197.174062 
L 283.134786 -195.509651 
L 282.551877 -193.845241 
L 281.954069 -192.180831 
L 281.350726 -190.51642 
L 280.750678 -188.85201 
L 280.162056 -187.1876 
L 279.592155 -185.523189 
L 279.04732 -183.858779 
L 278.532851 -182.194368 
L 278.052952 -180.529958 
L 277.610694 -178.865548 
L 277.208016 -177.201137 
L 276.84575 -175.536727 
L 276.523668 -173.872317 
L 276.240561 -172.207906 
L 275.994328 -170.543496 
L 275.782087 -168.879085 
L 275.600299 -167.214675 
L 275.44489 -165.550265 
L 275.311396 -163.885854 
L 275.195086 -162.221444 
L 275.091104 -160.557034 
L 274.994587 -158.892623 
L 274.900787 -157.228213 
L 274.805175 -155.563802 
L 274.703539 -153.899392 
L 274.592069 -152.234982 
L 274.467422 -150.570571 
L 274.326778 -148.906161 
L 274.167888 -147.241751 
L 273.989094 -145.57734 
L 273.789349 -143.91293 
L 273.568211 -142.248519 
L 273.325837 -140.584109 
L 273.062951 -138.919699 
L 272.780809 -137.255288 
L 272.481148 -135.590878 
L 272.16613 -133.926468 
L 271.838267 -132.262057 
L 271.500355 -130.597647 
L 271.155388 -128.933236 
L 270.806482 -127.268826 
L 270.456785 -125.604416 
L 270.109408 -123.940005 
L 269.767339 -122.275595 
L 269.433384 -120.611185 
L 269.110105 -118.946774 
L 268.799768 -117.282364 
L 268.504311 -115.617953 
L 268.225317 -113.953543 
L 267.963999 -112.289133 
L 267.721204 -110.624722 
L 267.497418 -108.960312 
L 267.292789 -107.295902 
L 267.107154 -105.631491 
L 266.940072 -103.967081 
L 266.790866 -102.30267 
L 266.658662 -100.63826 
L 266.542434 -98.97385 
L 266.441044 -97.309439 
z
" id="m3d86fbf654" style="stroke:#3c3c3c;stroke-width:1.5;"/>
    </defs>
    <g clip-path="url(#p83046bbc46)">
     <use style="fill:#c76e6e;stroke:#3c3c3c;stroke-width:1.5;" x="0" xlink:href="#m3d86fbf654" y="345.6"/>
    </g>
   </g>
   <g id="PolyCollection_5">
    <defs>
     <path d="M 326.026722 -82.826419 
L 324.853278 -82.826419 
L 324.736996 -84.762646 
L 324.602349 -86.698872 
L 324.447438 -88.635099 
L 324.270364 -90.571325 
L 324.069276 -92.507552 
L 323.842415 -94.443778 
L 323.588169 -96.380005 
L 323.30514 -98.316231 
L 322.9922 -100.252458 
L 322.648559 -102.188684 
L 322.273828 -104.124911 
L 321.868085 -106.061137 
L 321.431928 -107.997364 
L 320.966527 -109.93359 
L 320.473662 -111.869817 
L 319.955751 -113.806044 
L 319.41586 -115.74227 
L 318.857699 -117.678497 
L 318.285594 -119.614723 
L 317.704444 -121.55095 
L 317.11966 -123.487176 
L 316.53707 -125.423403 
L 315.962828 -127.359629 
L 315.403284 -129.295856 
L 314.864855 -131.232082 
L 314.35388 -133.168309 
L 313.87647 -135.104535 
L 313.438355 -137.040762 
L 313.04474 -138.976989 
L 312.700158 -140.913215 
L 312.408352 -142.849442 
L 312.172158 -144.785668 
L 311.993424 -146.721895 
L 311.872943 -148.658121 
L 311.810417 -150.594348 
L 311.804453 -152.530574 
L 311.85258 -154.466801 
L 311.951302 -156.403027 
L 312.096169 -158.339254 
L 312.281882 -160.27548 
L 312.502411 -162.211707 
L 312.751134 -164.147934 
L 313.020994 -166.08416 
L 313.304658 -168.020387 
L 313.594688 -169.956613 
L 313.883714 -171.89284 
L 314.1646 -173.829066 
L 314.430613 -175.765293 
L 314.675576 -177.701519 
L 314.894013 -179.637746 
L 315.081277 -181.573972 
L 315.233666 -183.510199 
L 315.348511 -185.446425 
L 315.424252 -187.382652 
L 315.460477 -189.318878 
L 315.457947 -191.255105 
L 315.418586 -193.191332 
L 315.345443 -195.127558 
L 315.242627 -197.063785 
L 315.11521 -199.000011 
L 314.969106 -200.936238 
L 314.810918 -202.872464 
L 314.647768 -204.808691 
L 314.487104 -206.744917 
L 314.336498 -208.681144 
L 314.203433 -210.61737 
L 314.09509 -212.553597 
L 314.018144 -214.489823 
L 313.97857 -216.42605 
L 313.981472 -218.362277 
L 314.03094 -220.298503 
L 314.129935 -222.23473 
L 314.280215 -224.170956 
L 314.482301 -226.107183 
L 314.735478 -228.043409 
L 315.037839 -229.979636 
L 315.386369 -231.915862 
L 315.777056 -233.852089 
L 316.205039 -235.788315 
L 316.664765 -237.724542 
L 317.15018 -239.660768 
L 317.654904 -241.596995 
L 318.172429 -243.533221 
L 318.696292 -245.469448 
L 319.220247 -247.405675 
L 319.738413 -249.341901 
L 320.245397 -251.278128 
L 320.736397 -253.214354 
L 321.207278 -255.150581 
L 321.654613 -257.086807 
L 322.075703 -259.023034 
L 322.468576 -260.95926 
L 322.831955 -262.895487 
L 323.165215 -264.831713 
L 323.468325 -266.76794 
L 323.741772 -268.704166 
L 323.986488 -270.640393 
L 324.203768 -272.57662 
L 324.395191 -274.512846 
L 326.484809 -274.512846 
L 326.484809 -274.512846 
L 326.676232 -272.57662 
L 326.893512 -270.640393 
L 327.138228 -268.704166 
L 327.411675 -266.76794 
L 327.714785 -264.831713 
L 328.048045 -262.895487 
L 328.411424 -260.95926 
L 328.804297 -259.023034 
L 329.225387 -257.086807 
L 329.672722 -255.150581 
L 330.143603 -253.214354 
L 330.634603 -251.278128 
L 331.141587 -249.341901 
L 331.659753 -247.405675 
L 332.183708 -245.469448 
L 332.707571 -243.533221 
L 333.225096 -241.596995 
L 333.72982 -239.660768 
L 334.215235 -237.724542 
L 334.674961 -235.788315 
L 335.102944 -233.852089 
L 335.493631 -231.915862 
L 335.842161 -229.979636 
L 336.144522 -228.043409 
L 336.397699 -226.107183 
L 336.599785 -224.170956 
L 336.750065 -222.23473 
L 336.84906 -220.298503 
L 336.898528 -218.362277 
L 336.90143 -216.42605 
L 336.861856 -214.489823 
L 336.78491 -212.553597 
L 336.676567 -210.61737 
L 336.543502 -208.681144 
L 336.392896 -206.744917 
L 336.232232 -204.808691 
L 336.069082 -202.872464 
L 335.910894 -200.936238 
L 335.76479 -199.000011 
L 335.637373 -197.063785 
L 335.534557 -195.127558 
L 335.461414 -193.191332 
L 335.422053 -191.255105 
L 335.419523 -189.318878 
L 335.455748 -187.382652 
L 335.531489 -185.446425 
L 335.646334 -183.510199 
L 335.798723 -181.573972 
L 335.985987 -179.637746 
L 336.204424 -177.701519 
L 336.449387 -175.765293 
L 336.7154 -173.829066 
L 336.996286 -171.89284 
L 337.285312 -169.956613 
L 337.575342 -168.020387 
L 337.859006 -166.08416 
L 338.128866 -164.147934 
L 338.377589 -162.211707 
L 338.598118 -160.27548 
L 338.783831 -158.339254 
L 338.928698 -156.403027 
L 339.02742 -154.466801 
L 339.075547 -152.530574 
L 339.069583 -150.594348 
L 339.007057 -148.658121 
L 338.886576 -146.721895 
L 338.707842 -144.785668 
L 338.471648 -142.849442 
L 338.179842 -140.913215 
L 337.83526 -138.976989 
L 337.441645 -137.040762 
L 337.00353 -135.104535 
L 336.52612 -133.168309 
L 336.015145 -131.232082 
L 335.476716 -129.295856 
L 334.917172 -127.359629 
L 334.34293 -125.423403 
L 333.76034 -123.487176 
L 333.175556 -121.55095 
L 332.594406 -119.614723 
L 332.022301 -117.678497 
L 331.46414 -115.74227 
L 330.924249 -113.806044 
L 330.406338 -111.869817 
L 329.913473 -109.93359 
L 329.448072 -107.997364 
L 329.011915 -106.061137 
L 328.606172 -104.124911 
L 328.231441 -102.188684 
L 327.8878 -100.252458 
L 327.57486 -98.316231 
L 327.291831 -96.380005 
L 327.037585 -94.443778 
L 326.810724 -92.507552 
L 326.609636 -90.571325 
L 326.432562 -88.635099 
L 326.277651 -86.698872 
L 326.143004 -84.762646 
L 326.026722 -82.826419 
z
" id="m29bddab951" style="stroke:#3c3c3c;stroke-width:1.5;"/>
    </defs>
    <g clip-path="url(#p83046bbc46)">
     <use style="fill:#9475ab;stroke:#3c3c3c;stroke-width:1.5;" x="0" xlink:href="#m29bddab951" y="345.6"/>
    </g>
   </g>
   <g id="PolyCollection_6">
    <defs>
     <path d="M 386.192772 -133.947277 
L 383.727228 -133.947277 
L 383.500059 -135.156723 
L 383.24276 -136.366169 
L 382.953772 -137.575615 
L 382.631935 -138.785061 
L 382.276583 -139.994507 
L 381.887634 -141.203953 
L 381.465666 -142.413399 
L 381.011985 -143.622845 
L 380.528673 -144.832292 
L 380.018616 -146.041738 
L 379.485504 -147.251184 
L 378.933801 -148.46063 
L 378.368688 -149.670076 
L 377.795974 -150.879522 
L 377.221976 -152.088968 
L 376.653371 -153.298414 
L 376.097026 -154.50786 
L 375.559808 -155.717307 
L 375.048379 -156.926753 
L 374.56899 -158.136199 
L 374.127272 -159.345645 
L 373.728038 -160.555091 
L 373.375099 -161.764537 
L 373.071109 -162.973983 
L 372.81743 -164.183429 
L 372.614038 -165.392875 
L 372.459466 -166.602322 
L 372.350784 -167.811768 
L 372.283623 -169.021214 
L 372.252244 -170.23066 
L 372.249638 -171.440106 
L 372.267674 -172.649552 
L 372.297279 -173.858998 
L 372.328647 -175.068444 
L 372.351479 -176.27789 
L 372.35524 -177.487337 
L 372.329439 -178.696783 
L 372.263914 -179.906229 
L 372.149119 -181.115675 
L 371.976416 -182.325121 
L 371.738344 -183.534567 
L 371.428883 -184.744013 
L 371.04368 -185.953459 
L 370.580251 -187.162905 
L 370.038138 -188.372352 
L 369.419014 -189.581798 
L 368.726746 -190.791244 
L 367.967392 -192.00069 
L 367.149141 -193.210136 
L 366.282187 -194.419582 
L 365.378554 -195.629028 
L 364.45185 -196.838474 
L 363.51698 -198.04792 
L 362.589809 -199.257367 
L 361.686791 -200.466813 
L 360.824578 -201.676259 
L 360.019611 -202.885705 
L 359.287718 -204.095151 
L 358.643717 -205.304597 
L 358.101054 -206.514043 
L 357.671477 -207.723489 
L 357.364749 -208.932935 
L 357.188433 -210.142382 
L 357.147722 -211.351828 
L 357.24535 -212.561274 
L 357.481561 -213.77072 
L 357.854153 -214.980166 
L 358.358577 -216.189612 
L 358.988101 -217.399058 
L 359.734024 -218.608504 
L 360.58593 -219.81795 
L 361.531981 -221.027397 
L 362.559223 -222.236843 
L 363.653919 -223.446289 
L 364.801871 -224.655735 
L 365.988741 -225.865181 
L 367.200358 -227.074627 
L 368.422999 -228.284073 
L 369.643634 -229.493519 
L 370.850153 -230.702965 
L 372.031532 -231.912412 
L 373.177978 -233.121858 
L 374.281023 -234.331304 
L 375.333579 -235.54075 
L 376.329954 -236.750196 
L 377.265837 -237.959642 
L 378.138249 -239.169088 
L 378.945461 -240.378534 
L 379.6869 -241.58798 
L 380.363033 -242.797427 
L 380.975233 -244.006873 
L 381.525651 -245.216319 
L 382.017073 -246.425765 
L 382.452784 -247.635211 
L 382.836441 -248.844657 
L 383.171947 -250.054103 
L 383.46334 -251.263549 
L 383.714695 -252.472995 
L 383.930037 -253.682442 
L 385.989963 -253.682442 
L 385.989963 -253.682442 
L 386.205305 -252.472995 
L 386.45666 -251.263549 
L 386.748053 -250.054103 
L 387.083559 -248.844657 
L 387.467216 -247.635211 
L 387.902927 -246.425765 
L 388.394349 -245.216319 
L 388.944767 -244.006873 
L 389.556967 -242.797427 
L 390.2331 -241.58798 
L 390.974539 -240.378534 
L 391.781751 -239.169088 
L 392.654163 -237.959642 
L 393.590046 -236.750196 
L 394.586421 -235.54075 
L 395.638977 -234.331304 
L 396.742022 -233.121858 
L 397.888468 -231.912412 
L 399.069847 -230.702965 
L 400.276366 -229.493519 
L 401.497001 -228.284073 
L 402.719642 -227.074627 
L 403.931259 -225.865181 
L 405.118129 -224.655735 
L 406.266081 -223.446289 
L 407.360777 -222.236843 
L 408.388019 -221.027397 
L 409.33407 -219.81795 
L 410.185976 -218.608504 
L 410.931899 -217.399058 
L 411.561423 -216.189612 
L 412.065847 -214.980166 
L 412.438439 -213.77072 
L 412.67465 -212.561274 
L 412.772278 -211.351828 
L 412.731567 -210.142382 
L 412.555251 -208.932935 
L 412.248523 -207.723489 
L 411.818946 -206.514043 
L 411.276283 -205.304597 
L 410.632282 -204.095151 
L 409.900389 -202.885705 
L 409.095422 -201.676259 
L 408.233209 -200.466813 
L 407.330191 -199.257367 
L 406.40302 -198.04792 
L 405.46815 -196.838474 
L 404.541446 -195.629028 
L 403.637813 -194.419582 
L 402.770859 -193.210136 
L 401.952608 -192.00069 
L 401.193254 -190.791244 
L 400.500986 -189.581798 
L 399.881862 -188.372352 
L 399.339749 -187.162905 
L 398.87632 -185.953459 
L 398.491117 -184.744013 
L 398.181656 -183.534567 
L 397.943584 -182.325121 
L 397.770881 -181.115675 
L 397.656086 -179.906229 
L 397.590561 -178.696783 
L 397.56476 -177.487337 
L 397.568521 -176.27789 
L 397.591353 -175.068444 
L 397.622721 -173.858998 
L 397.652326 -172.649552 
L 397.670362 -171.440106 
L 397.667756 -170.23066 
L 397.636377 -169.021214 
L 397.569216 -167.811768 
L 397.460534 -166.602322 
L 397.305962 -165.392875 
L 397.10257 -164.183429 
L 396.848891 -162.973983 
L 396.544901 -161.764537 
L 396.191962 -160.555091 
L 395.792728 -159.345645 
L 395.35101 -158.136199 
L 394.871621 -156.926753 
L 394.360192 -155.717307 
L 393.822974 -154.50786 
L 393.266629 -153.298414 
L 392.698024 -152.088968 
L 392.124026 -150.879522 
L 391.551312 -149.670076 
L 390.986199 -148.46063 
L 390.434496 -147.251184 
L 389.901384 -146.041738 
L 389.391327 -144.832292 
L 388.908015 -143.622845 
L 388.454334 -142.413399 
L 388.032366 -141.203953 
L 387.643417 -139.994507 
L 387.288065 -138.785061 
L 386.966228 -137.575615 
L 386.67724 -136.366169 
L 386.419941 -135.156723 
L 386.192772 -133.947277 
z
" id="mf0d9bf2a98" style="stroke:#3c3c3c;stroke-width:1.5;"/>
    </defs>
    <g clip-path="url(#p83046bbc46)">
     <use style="fill:#826246;stroke:#3c3c3c;stroke-width:1.5;" x="0" xlink:href="#mf0d9bf2a98" y="345.6"/>
    </g>
   </g>
   <g id="line2d_9">
    <path clip-path="url(#p83046bbc46)" d="M 87.36 147.188639 
L 87.36 124.229169 
" style="fill:none;stroke:#3c3c3c;stroke-linecap:round;stroke-width:1.5;"/>
   </g>
   <g id="line2d_10">
    <path clip-path="url(#p83046bbc46)" d="M 87.36 145.272654 
L 87.36 129.220479 
" style="fill:none;stroke:#3c3c3c;stroke-linecap:round;stroke-width:4.5;"/>
   </g>
   <g id="line2d_11">
    <path clip-path="url(#p83046bbc46)" d="M 146.88 244.985151 
L 146.88 124.868572 
" style="fill:none;stroke:#3c3c3c;stroke-linecap:round;stroke-width:1.5;"/>
   </g>
   <g id="line2d_12">
    <path clip-path="url(#p83046bbc46)" d="M 146.88 221.293321 
L 146.88 178.671608 
" style="fill:none;stroke:#3c3c3c;stroke-linecap:round;stroke-width:4.5;"/>
   </g>
   <g id="line2d_13">
    <path clip-path="url(#p83046bbc46)" d="M 206.4 191.400926 
L 206.4 91.516937 
" style="fill:none;stroke:#3c3c3c;stroke-linecap:round;stroke-width:1.5;"/>
   </g>
   <g id="line2d_14">
    <path clip-path="url(#p83046bbc46)" d="M 206.4 169.782248 
L 206.4 133.012016 
" style="fill:none;stroke:#3c3c3c;stroke-linecap:round;stroke-width:4.5;"/>
   </g>
   <g id="line2d_15">
    <path clip-path="url(#p83046bbc46)" d="M 265.92 209.337847 
L 265.92 122.466647 
" style="fill:none;stroke:#3c3c3c;stroke-linecap:round;stroke-width:1.5;"/>
   </g>
   <g id="line2d_16">
    <path clip-path="url(#p83046bbc46)" d="M 265.92 171.158747 
L 265.92 127.082926 
" style="fill:none;stroke:#3c3c3c;stroke-linecap:round;stroke-width:4.5;"/>
   </g>
   <g id="line2d_17">
    <path clip-path="url(#p83046bbc46)" d="M 325.44 214.661874 
L 325.44 119.198861 
" style="fill:none;stroke:#3c3c3c;stroke-linecap:round;stroke-width:1.5;"/>
   </g>
   <g id="line2d_18">
    <path clip-path="url(#p83046bbc46)" d="M 325.44 196.76555 
L 325.44 125.210889 
" style="fill:none;stroke:#3c3c3c;stroke-linecap:round;stroke-width:4.5;"/>
   </g>
   <g id="line2d_19">
    <path clip-path="url(#p83046bbc46)" d="M 384.96 182.947715 
L 384.96 120.622566 
" style="fill:none;stroke:#3c3c3c;stroke-linecap:round;stroke-width:1.5;"/>
   </g>
   <g id="line2d_20">
    <path clip-path="url(#p83046bbc46)" d="M 384.96 162.364503 
L 384.96 131.721568 
" style="fill:none;stroke:#3c3c3c;stroke-linecap:round;stroke-width:4.5;"/>
   </g>
   <g id="patch_3">
    <path d="M 57.6 307.584 
L 57.6 41.472 
" style="fill:none;stroke:#cccccc;stroke-linecap:square;stroke-linejoin:miter;stroke-width:1.25;"/>
   </g>
   <g id="patch_4">
    <path d="M 414.72 307.584 
L 414.72 41.472 
" style="fill:none;stroke:#cccccc;stroke-linecap:square;stroke-linejoin:miter;stroke-width:1.25;"/>
   </g>
   <g id="patch_5">
    <path d="M 57.6 307.584 
L 414.72 307.584 
" style="fill:none;stroke:#cccccc;stroke-linecap:square;stroke-linejoin:miter;stroke-width:1.25;"/>
   </g>
   <g id="patch_6">
    <path d="M 57.6 41.472 
L 414.72 41.472 
" style="fill:none;stroke:#cccccc;stroke-linecap:square;stroke-linejoin:miter;stroke-width:1.25;"/>
   </g>
   <g id="PathCollection_1">
    <defs>
     <path d="M 0 1.5 
C 0.397805 1.5 0.77937 1.341951 1.06066 1.06066 
C 1.341951 0.77937 1.5 0.397805 1.5 0 
C 1.5 -0.397805 1.341951 -0.77937 1.06066 -1.06066 
C 0.77937 -1.341951 0.397805 -1.5 0 -1.5 
C -0.397805 -1.5 -0.77937 -1.341951 -1.06066 -1.06066 
C -1.341951 -0.77937 -1.5 -0.397805 -1.5 0 
C -1.5 0.397805 -1.341951 0.77937 -1.06066 1.06066 
C -0.77937 1.341951 -0.397805 1.5 0 1.5 
z
" id="m0b700f744d" style="stroke:#3c3c3c;"/>
    </defs>
    <g clip-path="url(#p83046bbc46)">
     <use style="fill:#ffffff;stroke:#3c3c3c;" x="87.36" xlink:href="#m0b700f744d" y="134.459615"/>
    </g>
   </g>
   <g id="PathCollection_2">
    <g clip-path="url(#p83046bbc46)">
     <use style="fill:#ffffff;stroke:#3c3c3c;" x="146.88" xlink:href="#m0b700f744d" y="204.265883"/>
    </g>
   </g>
   <g id="PathCollection_3">
    <g clip-path="url(#p83046bbc46)">
     <use style="fill:#ffffff;stroke:#3c3c3c;" x="206.4" xlink:href="#m0b700f744d" y="138.833824"/>
    </g>
   </g>
   <g id="PathCollection_4">
    <g clip-path="url(#p83046bbc46)">
     <use style="fill:#ffffff;stroke:#3c3c3c;" x="265.92" xlink:href="#m0b700f744d" y="144.055702"/>
    </g>
   </g>
   <g id="PathCollection_5">
    <g clip-path="url(#p83046bbc46)">
     <use style="fill:#ffffff;stroke:#3c3c3c;" x="325.44" xlink:href="#m0b700f744d" y="175.105515"/>
    </g>
   </g>
   <g id="PathCollection_6">
    <g clip-path="url(#p83046bbc46)">
     <use style="fill:#ffffff;stroke:#3c3c3c;" x="384.96" xlink:href="#m0b700f744d" y="138.574275"/>
    </g>
   </g>
  </g>
 </g>
 <defs>
  <clipPath id="p83046bbc46">
   <rect height="266.112" width="357.12" x="57.6" y="41.472"/>
  </clipPath>
 </defs>
</svg>
