<?xml version="1.0" encoding="utf-8" standalone="no"?>
<!DOCTYPE svg PUBLIC "-//W3C//DTD SVG 1.1//EN"
  "http://www.w3.org/Graphics/SVG/1.1/DTD/svg11.dtd">
<!-- Created with matplotlib (http://matplotlib.org/) -->
<svg height="345.6pt" version="1.1" viewBox="0 0 460.8 345.6" width="460.8pt" xmlns="http://www.w3.org/2000/svg" xmlns:xlink="http://www.w3.org/1999/xlink">
 <defs>
  <style type="text/css">
*{stroke-linecap:butt;stroke-linejoin:round;}
  </style>
 </defs>
 <g id="figure_1">
  <g id="patch_1">
   <path d="M 0 345.6 
L 460.8 345.6 
L 460.8 0 
L 0 0 
z
" style="fill:#ffffff;"/>
  </g>
  <g id="axes_1">
   <g id="patch_2">
    <path d="M 57.6 307.584 
L 414.72 307.584 
L 414.72 41.472 
L 57.6 41.472 
z
" style="fill:#ffffff;"/>
   </g>
   <g id="matplotlib.axis_1">
    <g id="xtick_1">
     <g id="text_1">
      <!-- 0 -->
      <defs>
       <path d="M 31.78125 66.40625 
Q 24.171875 66.40625 20.328125 58.90625 
Q 16.5 51.421875 16.5 36.375 
Q 16.5 21.390625 20.328125 13.890625 
Q 24.171875 6.390625 31.78125 6.390625 
Q 39.453125 6.390625 43.28125 13.890625 
Q 47.125 21.390625 47.125 36.375 
Q 47.125 51.421875 43.28125 58.90625 
Q 39.453125 66.40625 31.78125 66.40625 
z
M 31.78125 74.21875 
Q 44.046875 74.21875 50.515625 64.515625 
Q 56.984375 54.828125 56.984375 36.375 
Q 56.984375 17.96875 50.515625 8.265625 
Q 44.046875 -1.421875 31.78125 -1.421875 
Q 19.53125 -1.421875 13.0625 8.265625 
Q 6.59375 17.96875 6.59375 36.375 
Q 6.59375 54.828125 13.0625 64.515625 
Q 19.53125 74.21875 31.78125 74.21875 
z
" id="DejaVuSans-30"/>
      </defs>
      <g style="fill:#262626;" transform="translate(83.860625 325.442281)scale(0.11 -0.11)">
       <use xlink:href="#DejaVuSans-30"/>
      </g>
     </g>
    </g>
    <g id="xtick_2">
     <g id="text_2">
      <!-- 1 -->
      <defs>
       <path d="M 12.40625 8.296875 
L 28.515625 8.296875 
L 28.515625 63.921875 
L 10.984375 60.40625 
L 10.984375 69.390625 
L 28.421875 72.90625 
L 38.28125 72.90625 
L 38.28125 8.296875 
L 54.390625 8.296875 
L 54.390625 0 
L 12.40625 0 
z
" id="DejaVuSans-31"/>
      </defs>
      <g style="fill:#262626;" transform="translate(143.380625 325.442281)scale(0.11 -0.11)">
       <use xlink:href="#DejaVuSans-31"/>
      </g>
     </g>
    </g>
    <g id="xtick_3">
     <g id="text_3">
      <!-- 2 -->
      <defs>
       <path d="M 19.1875 8.296875 
L 53.609375 8.296875 
L 53.609375 0 
L 7.328125 0 
L 7.328125 8.296875 
Q 12.9375 14.109375 22.625 23.890625 
Q 32.328125 33.6875 34.8125 36.53125 
Q 39.546875 41.84375 41.421875 45.53125 
Q 43.3125 49.21875 43.3125 52.78125 
Q 43.3125 58.59375 39.234375 62.25 
Q 35.15625 65.921875 28.609375 65.921875 
Q 23.96875 65.921875 18.8125 64.3125 
Q 13.671875 62.703125 7.8125 59.421875 
L 7.8125 69.390625 
Q 13.765625 71.78125 18.9375 73 
Q 24.125 74.21875 28.421875 74.21875 
Q 39.75 74.21875 46.484375 68.546875 
Q 53.21875 62.890625 53.21875 53.421875 
Q 53.21875 48.921875 51.53125 44.890625 
Q 49.859375 40.875 45.40625 35.40625 
Q 44.1875 33.984375 37.640625 27.21875 
Q 31.109375 20.453125 19.1875 8.296875 
z
" id="DejaVuSans-32"/>
      </defs>
      <g style="fill:#262626;" transform="translate(202.900625 325.442281)scale(0.11 -0.11)">
       <use xlink:href="#DejaVuSans-32"/>
      </g>
     </g>
    </g>
    <g id="xtick_4">
     <g id="text_4">
      <!-- 3 -->
      <defs>
       <path d="M 40.578125 39.3125 
Q 47.65625 37.796875 51.625 33 
Q 55.609375 28.21875 55.609375 21.1875 
Q 55.609375 10.40625 48.1875 4.484375 
Q 40.765625 -1.421875 27.09375 -1.421875 
Q 22.515625 -1.421875 17.65625 -0.515625 
Q 12.796875 0.390625 7.625 2.203125 
L 7.625 11.71875 
Q 11.71875 9.328125 16.59375 8.109375 
Q 21.484375 6.890625 26.8125 6.890625 
Q 36.078125 6.890625 40.9375 10.546875 
Q 45.796875 14.203125 45.796875 21.1875 
Q 45.796875 27.640625 41.28125 31.265625 
Q 36.765625 34.90625 28.71875 34.90625 
L 20.21875 34.90625 
L 20.21875 43.015625 
L 29.109375 43.015625 
Q 36.375 43.015625 40.234375 45.921875 
Q 44.09375 48.828125 44.09375 54.296875 
Q 44.09375 59.90625 40.109375 62.90625 
Q 36.140625 65.921875 28.71875 65.921875 
Q 24.65625 65.921875 20.015625 65.03125 
Q 15.375 64.15625 9.8125 62.3125 
L 9.8125 71.09375 
Q 15.4375 72.65625 20.34375 73.4375 
Q 25.25 74.21875 29.59375 74.21875 
Q 40.828125 74.21875 47.359375 69.109375 
Q 53.90625 64.015625 53.90625 55.328125 
Q 53.90625 49.265625 50.4375 45.09375 
Q 46.96875 40.921875 40.578125 39.3125 
z
" id="DejaVuSans-33"/>
      </defs>
      <g style="fill:#262626;" transform="translate(262.420625 325.442281)scale(0.11 -0.11)">
       <use xlink:href="#DejaVuSans-33"/>
      </g>
     </g>
    </g>
    <g id="xtick_5">
     <g id="text_5">
      <!-- 4 -->
      <defs>
       <path d="M 37.796875 64.3125 
L 12.890625 25.390625 
L 37.796875 25.390625 
z
M 35.203125 72.90625 
L 47.609375 72.90625 
L 47.609375 25.390625 
L 58.015625 25.390625 
L 58.015625 17.1875 
L 47.609375 17.1875 
L 47.609375 0 
L 37.796875 0 
L 37.796875 17.1875 
L 4.890625 17.1875 
L 4.890625 26.703125 
z
" id="DejaVuSans-34"/>
      </defs>
      <g style="fill:#262626;" transform="translate(321.940625 325.442281)scale(0.11 -0.11)">
       <use xlink:href="#DejaVuSans-34"/>
      </g>
     </g>
    </g>
    <g id="xtick_6">
     <g id="text_6">
      <!-- 5 -->
      <defs>
       <path d="M 10.796875 72.90625 
L 49.515625 72.90625 
L 49.515625 64.59375 
L 19.828125 64.59375 
L 19.828125 46.734375 
Q 21.96875 47.46875 24.109375 47.828125 
Q 26.265625 48.1875 28.421875 48.1875 
Q 40.625 48.1875 47.75 41.5 
Q 54.890625 34.8125 54.890625 23.390625 
Q 54.890625 11.625 47.5625 5.09375 
Q 40.234375 -1.421875 26.90625 -1.421875 
Q 22.3125 -1.421875 17.546875 -0.640625 
Q 12.796875 0.140625 7.71875 1.703125 
L 7.71875 11.625 
Q 12.109375 9.234375 16.796875 8.0625 
Q 21.484375 6.890625 26.703125 6.890625 
Q 35.15625 6.890625 40.078125 11.328125 
Q 45.015625 15.765625 45.015625 23.390625 
Q 45.015625 31 40.078125 35.4375 
Q 35.15625 39.890625 26.703125 39.890625 
Q 22.75 39.890625 18.8125 39.015625 
Q 14.890625 38.140625 10.796875 36.28125 
z
" id="DejaVuSans-35"/>
      </defs>
      <g style="fill:#262626;" transform="translate(381.460625 325.442281)scale(0.11 -0.11)">
       <use xlink:href="#DejaVuSans-35"/>
      </g>
     </g>
    </g>
    <g id="text_7">
     <!-- Class label -->
     <defs>
      <path d="M 64.40625 67.28125 
L 64.40625 56.890625 
Q 59.421875 61.53125 53.78125 63.8125 
Q 48.140625 66.109375 41.796875 66.109375 
Q 29.296875 66.109375 22.65625 58.46875 
Q 16.015625 50.828125 16.015625 36.375 
Q 16.015625 21.96875 22.65625 14.328125 
Q 29.296875 6.6875 41.796875 6.6875 
Q 48.140625 6.6875 53.78125 8.984375 
Q 59.421875 11.28125 64.40625 15.921875 
L 64.40625 5.609375 
Q 59.234375 2.09375 53.4375 0.328125 
Q 47.65625 -1.421875 41.21875 -1.421875 
Q 24.65625 -1.421875 15.125 8.703125 
Q 5.609375 18.84375 5.609375 36.375 
Q 5.609375 53.953125 15.125 64.078125 
Q 24.65625 74.21875 41.21875 74.21875 
Q 47.75 74.21875 53.53125 72.484375 
Q 59.328125 70.75 64.40625 67.28125 
z
" id="DejaVuSans-43"/>
      <path d="M 9.421875 75.984375 
L 18.40625 75.984375 
L 18.40625 0 
L 9.421875 0 
z
" id="DejaVuSans-6c"/>
      <path d="M 34.28125 27.484375 
Q 23.390625 27.484375 19.1875 25 
Q 14.984375 22.515625 14.984375 16.5 
Q 14.984375 11.71875 18.140625 8.90625 
Q 21.296875 6.109375 26.703125 6.109375 
Q 34.1875 6.109375 38.703125 11.40625 
Q 43.21875 16.703125 43.21875 25.484375 
L 43.21875 27.484375 
z
M 52.203125 31.203125 
L 52.203125 0 
L 43.21875 0 
L 43.21875 8.296875 
Q 40.140625 3.328125 35.546875 0.953125 
Q 30.953125 -1.421875 24.3125 -1.421875 
Q 15.921875 -1.421875 10.953125 3.296875 
Q 6 8.015625 6 15.921875 
Q 6 25.140625 12.171875 29.828125 
Q 18.359375 34.515625 30.609375 34.515625 
L 43.21875 34.515625 
L 43.21875 35.40625 
Q 43.21875 41.609375 39.140625 45 
Q 35.0625 48.390625 27.6875 48.390625 
Q 23 48.390625 18.546875 47.265625 
Q 14.109375 46.140625 10.015625 43.890625 
L 10.015625 52.203125 
Q 14.9375 54.109375 19.578125 55.046875 
Q 24.21875 56 28.609375 56 
Q 40.484375 56 46.34375 49.84375 
Q 52.203125 43.703125 52.203125 31.203125 
z
" id="DejaVuSans-61"/>
      <path d="M 44.28125 53.078125 
L 44.28125 44.578125 
Q 40.484375 46.53125 36.375 47.5 
Q 32.28125 48.484375 27.875 48.484375 
Q 21.1875 48.484375 17.84375 46.4375 
Q 14.5 44.390625 14.5 40.28125 
Q 14.5 37.15625 16.890625 35.375 
Q 19.28125 33.59375 26.515625 31.984375 
L 29.59375 31.296875 
Q 39.15625 29.25 43.1875 25.515625 
Q 47.21875 21.78125 47.21875 15.09375 
Q 47.21875 7.46875 41.1875 3.015625 
Q 35.15625 -1.421875 24.609375 -1.421875 
Q 20.21875 -1.421875 15.453125 -0.5625 
Q 10.6875 0.296875 5.421875 2 
L 5.421875 11.28125 
Q 10.40625 8.6875 15.234375 7.390625 
Q 20.0625 6.109375 24.8125 6.109375 
Q 31.15625 6.109375 34.5625 8.28125 
Q 37.984375 10.453125 37.984375 14.40625 
Q 37.984375 18.0625 35.515625 20.015625 
Q 33.0625 21.96875 24.703125 23.78125 
L 21.578125 24.515625 
Q 13.234375 26.265625 9.515625 29.90625 
Q 5.8125 33.546875 5.8125 39.890625 
Q 5.8125 47.609375 11.28125 51.796875 
Q 16.75 56 26.8125 56 
Q 31.78125 56 36.171875 55.265625 
Q 40.578125 54.546875 44.28125 53.078125 
z
" id="DejaVuSans-73"/>
      <path id="DejaVuSans-20"/>
      <path d="M 48.6875 27.296875 
Q 48.6875 37.203125 44.609375 42.84375 
Q 40.53125 48.484375 33.40625 48.484375 
Q 26.265625 48.484375 22.1875 42.84375 
Q 18.109375 37.203125 18.109375 27.296875 
Q 18.109375 17.390625 22.1875 11.75 
Q 26.265625 6.109375 33.40625 6.109375 
Q 40.53125 6.109375 44.609375 11.75 
Q 48.6875 17.390625 48.6875 27.296875 
z
M 18.109375 46.390625 
Q 20.953125 51.265625 25.265625 53.625 
Q 29.59375 56 35.59375 56 
Q 45.5625 56 51.78125 48.09375 
Q 58.015625 40.1875 58.015625 27.296875 
Q 58.015625 14.40625 51.78125 6.484375 
Q 45.5625 -1.421875 35.59375 -1.421875 
Q 29.59375 -1.421875 25.265625 0.953125 
Q 20.953125 3.328125 18.109375 8.203125 
L 18.109375 0 
L 9.078125 0 
L 9.078125 75.984375 
L 18.109375 75.984375 
z
" id="DejaVuSans-62"/>
      <path d="M 56.203125 29.59375 
L 56.203125 25.203125 
L 14.890625 25.203125 
Q 15.484375 15.921875 20.484375 11.0625 
Q 25.484375 6.203125 34.421875 6.203125 
Q 39.59375 6.203125 44.453125 7.46875 
Q 49.3125 8.734375 54.109375 11.28125 
L 54.109375 2.78125 
Q 49.265625 0.734375 44.1875 -0.34375 
Q 39.109375 -1.421875 33.890625 -1.421875 
Q 20.796875 -1.421875 13.15625 6.1875 
Q 5.515625 13.8125 5.515625 26.8125 
Q 5.515625 40.234375 12.765625 48.109375 
Q 20.015625 56 32.328125 56 
Q 43.359375 56 49.78125 48.890625 
Q 56.203125 41.796875 56.203125 29.59375 
z
M 47.21875 32.234375 
Q 47.125 39.59375 43.09375 43.984375 
Q 39.0625 48.390625 32.421875 48.390625 
Q 24.90625 48.390625 20.390625 44.140625 
Q 15.875 39.890625 15.1875 32.171875 
z
" id="DejaVuSans-65"/>
     </defs>
     <g style="fill:#262626;" transform="translate(203.956875 340.848062)scale(0.12 -0.12)">
      <use xlink:href="#DejaVuSans-43"/>
      <use x="69.824219" xlink:href="#DejaVuSans-6c"/>
      <use x="97.607422" xlink:href="#DejaVuSans-61"/>
      <use x="158.886719" xlink:href="#DejaVuSans-73"/>
      <use x="210.986328" xlink:href="#DejaVuSans-73"/>
      <use x="263.085938" xlink:href="#DejaVuSans-20"/>
      <use x="294.873047" xlink:href="#DejaVuSans-6c"/>
      <use x="322.65625" xlink:href="#DejaVuSans-61"/>
      <use x="383.935547" xlink:href="#DejaVuSans-62"/>
      <use x="447.412109" xlink:href="#DejaVuSans-65"/>
      <use x="508.935547" xlink:href="#DejaVuSans-6c"/>
     </g>
    </g>
   </g>
   <g id="matplotlib.axis_2">
    <g id="ytick_1">
     <g id="line2d_1">
      <path clip-path="url(#pa53af55b04)" d="M 57.6 288.019892 
L 414.72 288.019892 
" style="fill:none;stroke:#cccccc;stroke-linecap:round;"/>
     </g>
     <g id="text_8">
      <!-- −8 -->
      <defs>
       <path d="M 10.59375 35.5 
L 73.1875 35.5 
L 73.1875 27.203125 
L 10.59375 27.203125 
z
" id="DejaVuSans-2212"/>
       <path d="M 31.78125 34.625 
Q 24.75 34.625 20.71875 30.859375 
Q 16.703125 27.09375 16.703125 20.515625 
Q 16.703125 13.921875 20.71875 10.15625 
Q 24.75 6.390625 31.78125 6.390625 
Q 38.8125 6.390625 42.859375 10.171875 
Q 46.921875 13.96875 46.921875 20.515625 
Q 46.921875 27.09375 42.890625 30.859375 
Q 38.875 34.625 31.78125 34.625 
z
M 21.921875 38.8125 
Q 15.578125 40.375 12.03125 44.71875 
Q 8.5 49.078125 8.5 55.328125 
Q 8.5 64.0625 14.71875 69.140625 
Q 20.953125 74.21875 31.78125 74.21875 
Q 42.671875 74.21875 48.875 69.140625 
Q 55.078125 64.0625 55.078125 55.328125 
Q 55.078125 49.078125 51.53125 44.71875 
Q 48 40.375 41.703125 38.8125 
Q 48.828125 37.15625 52.796875 32.3125 
Q 56.78125 27.484375 56.78125 20.515625 
Q 56.78125 9.90625 50.3125 4.234375 
Q 43.84375 -1.421875 31.78125 -1.421875 
Q 19.734375 -1.421875 13.25 4.234375 
Q 6.78125 9.90625 6.78125 20.515625 
Q 6.78125 27.484375 10.78125 32.3125 
Q 14.796875 37.15625 21.921875 38.8125 
z
M 18.3125 54.390625 
Q 18.3125 48.734375 21.84375 45.5625 
Q 25.390625 42.390625 31.78125 42.390625 
Q 38.140625 42.390625 41.71875 45.5625 
Q 45.3125 48.734375 45.3125 54.390625 
Q 45.3125 60.0625 41.71875 63.234375 
Q 38.140625 66.40625 31.78125 66.40625 
Q 25.390625 66.40625 21.84375 63.234375 
Q 18.3125 60.0625 18.3125 54.390625 
z
" id="DejaVuSans-38"/>
      </defs>
      <g style="fill:#262626;" transform="translate(31.883594 292.199033)scale(0.11 -0.11)">
       <use xlink:href="#DejaVuSans-2212"/>
       <use x="83.789062" xlink:href="#DejaVuSans-38"/>
      </g>
     </g>
    </g>
    <g id="ytick_2">
     <g id="line2d_2">
      <path clip-path="url(#pa53af55b04)" d="M 57.6 245.759418 
L 414.72 245.759418 
" style="fill:none;stroke:#cccccc;stroke-linecap:round;"/>
     </g>
     <g id="text_9">
      <!-- −6 -->
      <defs>
       <path d="M 33.015625 40.375 
Q 26.375 40.375 22.484375 35.828125 
Q 18.609375 31.296875 18.609375 23.390625 
Q 18.609375 15.53125 22.484375 10.953125 
Q 26.375 6.390625 33.015625 6.390625 
Q 39.65625 6.390625 43.53125 10.953125 
Q 47.40625 15.53125 47.40625 23.390625 
Q 47.40625 31.296875 43.53125 35.828125 
Q 39.65625 40.375 33.015625 40.375 
z
M 52.59375 71.296875 
L 52.59375 62.3125 
Q 48.875 64.0625 45.09375 64.984375 
Q 41.3125 65.921875 37.59375 65.921875 
Q 27.828125 65.921875 22.671875 59.328125 
Q 17.53125 52.734375 16.796875 39.40625 
Q 19.671875 43.65625 24.015625 45.921875 
Q 28.375 48.1875 33.59375 48.1875 
Q 44.578125 48.1875 50.953125 41.515625 
Q 57.328125 34.859375 57.328125 23.390625 
Q 57.328125 12.15625 50.6875 5.359375 
Q 44.046875 -1.421875 33.015625 -1.421875 
Q 20.359375 -1.421875 13.671875 8.265625 
Q 6.984375 17.96875 6.984375 36.375 
Q 6.984375 53.65625 15.1875 63.9375 
Q 23.390625 74.21875 37.203125 74.21875 
Q 40.921875 74.21875 44.703125 73.484375 
Q 48.484375 72.75 52.59375 71.296875 
z
" id="DejaVuSans-36"/>
      </defs>
      <g style="fill:#262626;" transform="translate(31.883594 249.938558)scale(0.11 -0.11)">
       <use xlink:href="#DejaVuSans-2212"/>
       <use x="83.789062" xlink:href="#DejaVuSans-36"/>
      </g>
     </g>
    </g>
    <g id="ytick_3">
     <g id="line2d_3">
      <path clip-path="url(#pa53af55b04)" d="M 57.6 203.498943 
L 414.72 203.498943 
" style="fill:none;stroke:#cccccc;stroke-linecap:round;"/>
     </g>
     <g id="text_10">
      <!-- −4 -->
      <g style="fill:#262626;" transform="translate(31.883594 207.678084)scale(0.11 -0.11)">
       <use xlink:href="#DejaVuSans-2212"/>
       <use x="83.789062" xlink:href="#DejaVuSans-34"/>
      </g>
     </g>
    </g>
    <g id="ytick_4">
     <g id="line2d_4">
      <path clip-path="url(#pa53af55b04)" d="M 57.6 161.238469 
L 414.72 161.238469 
" style="fill:none;stroke:#cccccc;stroke-linecap:round;"/>
     </g>
     <g id="text_11">
      <!-- −2 -->
      <g style="fill:#262626;" transform="translate(31.883594 165.41761)scale(0.11 -0.11)">
       <use xlink:href="#DejaVuSans-2212"/>
       <use x="83.789062" xlink:href="#DejaVuSans-32"/>
      </g>
     </g>
    </g>
    <g id="ytick_5">
     <g id="line2d_5">
      <path clip-path="url(#pa53af55b04)" d="M 57.6 118.977995 
L 414.72 118.977995 
" style="fill:none;stroke:#cccccc;stroke-linecap:round;"/>
     </g>
     <g id="text_12">
      <!-- 0 -->
      <g style="fill:#262626;" transform="translate(41.10125 123.157135)scale(0.11 -0.11)">
       <use xlink:href="#DejaVuSans-30"/>
      </g>
     </g>
    </g>
    <g id="ytick_6">
     <g id="line2d_6">
      <path clip-path="url(#pa53af55b04)" d="M 57.6 76.71752 
L 414.72 76.71752 
" style="fill:none;stroke:#cccccc;stroke-linecap:round;"/>
     </g>
     <g id="text_13">
      <!-- 2 -->
      <g style="fill:#262626;" transform="translate(41.10125 80.896661)scale(0.11 -0.11)">
       <use xlink:href="#DejaVuSans-32"/>
      </g>
     </g>
    </g>
    <g id="text_14">
     <!-- SA_A_eigvals_ratio_4_0_N -->
     <defs>
      <path d="M 53.515625 70.515625 
L 53.515625 60.890625 
Q 47.90625 63.578125 42.921875 64.890625 
Q 37.9375 66.21875 33.296875 66.21875 
Q 25.25 66.21875 20.875 63.09375 
Q 16.5 59.96875 16.5 54.203125 
Q 16.5 49.359375 19.40625 46.890625 
Q 22.3125 44.4375 30.421875 42.921875 
L 36.375 41.703125 
Q 47.40625 39.59375 52.65625 34.296875 
Q 57.90625 29 57.90625 20.125 
Q 57.90625 9.515625 50.796875 4.046875 
Q 43.703125 -1.421875 29.984375 -1.421875 
Q 24.8125 -1.421875 18.96875 -0.25 
Q 13.140625 0.921875 6.890625 3.21875 
L 6.890625 13.375 
Q 12.890625 10.015625 18.65625 8.296875 
Q 24.421875 6.59375 29.984375 6.59375 
Q 38.421875 6.59375 43.015625 9.90625 
Q 47.609375 13.234375 47.609375 19.390625 
Q 47.609375 24.75 44.3125 27.78125 
Q 41.015625 30.8125 33.5 32.328125 
L 27.484375 33.5 
Q 16.453125 35.6875 11.515625 40.375 
Q 6.59375 45.0625 6.59375 53.421875 
Q 6.59375 63.09375 13.40625 68.65625 
Q 20.21875 74.21875 32.171875 74.21875 
Q 37.3125 74.21875 42.625 73.28125 
Q 47.953125 72.359375 53.515625 70.515625 
z
" id="DejaVuSans-53"/>
      <path d="M 34.1875 63.1875 
L 20.796875 26.90625 
L 47.609375 26.90625 
z
M 28.609375 72.90625 
L 39.796875 72.90625 
L 67.578125 0 
L 57.328125 0 
L 50.6875 18.703125 
L 17.828125 18.703125 
L 11.1875 0 
L 0.78125 0 
z
" id="DejaVuSans-41"/>
      <path d="M 50.984375 -16.609375 
L 50.984375 -23.578125 
L -0.984375 -23.578125 
L -0.984375 -16.609375 
z
" id="DejaVuSans-5f"/>
      <path d="M 9.421875 54.6875 
L 18.40625 54.6875 
L 18.40625 0 
L 9.421875 0 
z
M 9.421875 75.984375 
L 18.40625 75.984375 
L 18.40625 64.59375 
L 9.421875 64.59375 
z
" id="DejaVuSans-69"/>
      <path d="M 45.40625 27.984375 
Q 45.40625 37.75 41.375 43.109375 
Q 37.359375 48.484375 30.078125 48.484375 
Q 22.859375 48.484375 18.828125 43.109375 
Q 14.796875 37.75 14.796875 27.984375 
Q 14.796875 18.265625 18.828125 12.890625 
Q 22.859375 7.515625 30.078125 7.515625 
Q 37.359375 7.515625 41.375 12.890625 
Q 45.40625 18.265625 45.40625 27.984375 
z
M 54.390625 6.78125 
Q 54.390625 -7.171875 48.1875 -13.984375 
Q 42 -20.796875 29.203125 -20.796875 
Q 24.46875 -20.796875 20.265625 -20.09375 
Q 16.0625 -19.390625 12.109375 -17.921875 
L 12.109375 -9.1875 
Q 16.0625 -11.328125 19.921875 -12.34375 
Q 23.78125 -13.375 27.78125 -13.375 
Q 36.625 -13.375 41.015625 -8.765625 
Q 45.40625 -4.15625 45.40625 5.171875 
L 45.40625 9.625 
Q 42.625 4.78125 38.28125 2.390625 
Q 33.9375 0 27.875 0 
Q 17.828125 0 11.671875 7.65625 
Q 5.515625 15.328125 5.515625 27.984375 
Q 5.515625 40.671875 11.671875 48.328125 
Q 17.828125 56 27.875 56 
Q 33.9375 56 38.28125 53.609375 
Q 42.625 51.21875 45.40625 46.390625 
L 45.40625 54.6875 
L 54.390625 54.6875 
z
" id="DejaVuSans-67"/>
      <path d="M 2.984375 54.6875 
L 12.5 54.6875 
L 29.59375 8.796875 
L 46.6875 54.6875 
L 56.203125 54.6875 
L 35.6875 0 
L 23.484375 0 
z
" id="DejaVuSans-76"/>
      <path d="M 41.109375 46.296875 
Q 39.59375 47.171875 37.8125 47.578125 
Q 36.03125 48 33.890625 48 
Q 26.265625 48 22.1875 43.046875 
Q 18.109375 38.09375 18.109375 28.8125 
L 18.109375 0 
L 9.078125 0 
L 9.078125 54.6875 
L 18.109375 54.6875 
L 18.109375 46.1875 
Q 20.953125 51.171875 25.484375 53.578125 
Q 30.03125 56 36.53125 56 
Q 37.453125 56 38.578125 55.875 
Q 39.703125 55.765625 41.0625 55.515625 
z
" id="DejaVuSans-72"/>
      <path d="M 18.3125 70.21875 
L 18.3125 54.6875 
L 36.8125 54.6875 
L 36.8125 47.703125 
L 18.3125 47.703125 
L 18.3125 18.015625 
Q 18.3125 11.328125 20.140625 9.421875 
Q 21.96875 7.515625 27.59375 7.515625 
L 36.8125 7.515625 
L 36.8125 0 
L 27.59375 0 
Q 17.1875 0 13.234375 3.875 
Q 9.28125 7.765625 9.28125 18.015625 
L 9.28125 47.703125 
L 2.6875 47.703125 
L 2.6875 54.6875 
L 9.28125 54.6875 
L 9.28125 70.21875 
z
" id="DejaVuSans-74"/>
      <path d="M 30.609375 48.390625 
Q 23.390625 48.390625 19.1875 42.75 
Q 14.984375 37.109375 14.984375 27.296875 
Q 14.984375 17.484375 19.15625 11.84375 
Q 23.34375 6.203125 30.609375 6.203125 
Q 37.796875 6.203125 41.984375 11.859375 
Q 46.1875 17.53125 46.1875 27.296875 
Q 46.1875 37.015625 41.984375 42.703125 
Q 37.796875 48.390625 30.609375 48.390625 
z
M 30.609375 56 
Q 42.328125 56 49.015625 48.375 
Q 55.71875 40.765625 55.71875 27.296875 
Q 55.71875 13.875 49.015625 6.21875 
Q 42.328125 -1.421875 30.609375 -1.421875 
Q 18.84375 -1.421875 12.171875 6.21875 
Q 5.515625 13.875 5.515625 27.296875 
Q 5.515625 40.765625 12.171875 48.375 
Q 18.84375 56 30.609375 56 
z
" id="DejaVuSans-6f"/>
      <path d="M 9.8125 72.90625 
L 23.09375 72.90625 
L 55.421875 11.921875 
L 55.421875 72.90625 
L 64.984375 72.90625 
L 64.984375 0 
L 51.703125 0 
L 19.390625 60.984375 
L 19.390625 0 
L 9.8125 0 
z
" id="DejaVuSans-4e"/>
     </defs>
     <g style="fill:#262626;" transform="translate(25.054219 251.692687)rotate(-90)scale(0.12 -0.12)">
      <use xlink:href="#DejaVuSans-53"/>
      <use x="63.492188" xlink:href="#DejaVuSans-41"/>
      <use x="131.900391" xlink:href="#DejaVuSans-5f"/>
      <use x="181.900391" xlink:href="#DejaVuSans-41"/>
      <use x="250.308594" xlink:href="#DejaVuSans-5f"/>
      <use x="300.308594" xlink:href="#DejaVuSans-65"/>
      <use x="361.832031" xlink:href="#DejaVuSans-69"/>
      <use x="389.615234" xlink:href="#DejaVuSans-67"/>
      <use x="453.091797" xlink:href="#DejaVuSans-76"/>
      <use x="512.271484" xlink:href="#DejaVuSans-61"/>
      <use x="573.550781" xlink:href="#DejaVuSans-6c"/>
      <use x="601.333984" xlink:href="#DejaVuSans-73"/>
      <use x="653.433594" xlink:href="#DejaVuSans-5f"/>
      <use x="703.433594" xlink:href="#DejaVuSans-72"/>
      <use x="744.546875" xlink:href="#DejaVuSans-61"/>
      <use x="805.826172" xlink:href="#DejaVuSans-74"/>
      <use x="845.035156" xlink:href="#DejaVuSans-69"/>
      <use x="872.818359" xlink:href="#DejaVuSans-6f"/>
      <use x="934" xlink:href="#DejaVuSans-5f"/>
      <use x="984" xlink:href="#DejaVuSans-34"/>
      <use x="1047.623047" xlink:href="#DejaVuSans-5f"/>
      <use x="1097.623047" xlink:href="#DejaVuSans-30"/>
      <use x="1161.246094" xlink:href="#DejaVuSans-5f"/>
      <use x="1211.246094" xlink:href="#DejaVuSans-4e"/>
     </g>
    </g>
   </g>
   <g id="PolyCollection_1">
    <defs>
     <path d="M 87.784347 -208.307222 
L 86.935653 -208.307222 
L 86.848498 -208.675377 
L 86.749062 -209.043532 
L 86.636946 -209.411687 
L 86.512055 -209.779842 
L 86.374654 -210.147997 
L 86.225425 -210.516152 
L 86.065502 -210.884308 
L 85.896496 -211.252463 
L 85.720502 -211.620618 
L 85.540078 -211.988773 
L 85.358202 -212.356928 
L 85.178205 -212.725083 
L 85.003675 -213.093238 
L 84.838342 -213.461393 
L 84.685951 -213.829548 
L 84.550116 -214.197703 
L 84.434172 -214.565858 
L 84.341032 -214.934013 
L 84.273056 -215.302168 
L 84.231934 -215.670323 
L 84.2186 -216.038478 
L 84.233168 -216.406633 
L 84.274906 -216.774788 
L 84.34224 -217.142943 
L 84.43279 -217.511098 
L 84.543432 -217.879254 
L 84.670383 -218.247409 
L 84.809303 -218.615564 
L 84.955403 -218.983719 
L 85.103556 -219.351874 
L 85.2484 -219.720029 
L 85.384433 -220.088184 
L 85.506092 -220.456339 
L 85.607817 -220.824494 
L 85.684093 -221.192649 
L 85.729484 -221.560804 
L 85.738656 -221.928959 
L 85.706389 -222.297114 
L 85.627599 -222.665269 
L 85.497355 -223.033424 
L 85.310922 -223.401579 
L 85.063812 -223.769734 
L 84.751859 -224.137889 
L 84.371322 -224.506045 
L 83.918999 -224.8742 
L 83.392375 -225.242355 
L 82.789775 -225.61051 
L 82.110528 -225.978665 
L 81.355136 -226.34682 
L 80.525427 -226.714975 
L 79.624698 -227.08313 
L 78.657824 -227.451285 
L 77.631332 -227.81944 
L 76.553435 -228.187595 
L 75.434014 -228.55575 
L 74.284542 -228.923905 
L 73.117961 -229.29206 
L 71.948498 -229.660215 
L 70.791433 -230.02837 
L 69.662814 -230.396525 
L 68.579141 -230.76468 
L 67.557012 -231.132835 
L 66.612744 -231.500991 
L 65.761992 -231.869146 
L 65.019356 -232.237301 
L 64.398009 -232.605456 
L 63.909344 -232.973611 
L 63.562649 -233.341766 
L 63.364842 -233.709921 
L 63.32025 -234.078076 
L 63.430454 -234.446231 
L 63.694213 -234.814386 
L 64.10746 -235.182541 
L 64.663381 -235.550696 
L 65.352573 -235.918851 
L 66.163278 -236.287006 
L 67.081698 -236.655161 
L 68.092357 -237.023316 
L 69.178523 -237.391471 
L 70.322658 -237.759626 
L 71.506891 -238.127781 
L 72.71348 -238.495937 
L 73.925263 -238.864092 
L 75.126071 -239.232247 
L 76.301089 -239.600402 
L 77.437149 -239.968557 
L 78.522962 -240.336712 
L 79.549254 -240.704867 
L 80.508845 -241.073022 
L 81.396634 -241.441177 
L 82.209524 -241.809332 
L 82.946284 -242.177487 
L 83.607366 -242.545642 
L 84.194678 -242.913797 
L 84.711347 -243.281952 
L 85.161457 -243.650107 
L 85.549806 -244.018262 
L 85.881658 -244.386417 
L 86.162532 -244.754572 
L 88.557468 -244.754572 
L 88.557468 -244.754572 
L 88.838342 -244.386417 
L 89.170194 -244.018262 
L 89.558543 -243.650107 
L 90.008653 -243.281952 
L 90.525322 -242.913797 
L 91.112634 -242.545642 
L 91.773716 -242.177487 
L 92.510476 -241.809332 
L 93.323366 -241.441177 
L 94.211155 -241.073022 
L 95.170746 -240.704867 
L 96.197038 -240.336712 
L 97.282851 -239.968557 
L 98.418911 -239.600402 
L 99.593929 -239.232247 
L 100.794737 -238.864092 
L 102.00652 -238.495937 
L 103.213109 -238.127781 
L 104.397342 -237.759626 
L 105.541477 -237.391471 
L 106.627643 -237.023316 
L 107.638302 -236.655161 
L 108.556722 -236.287006 
L 109.367427 -235.918851 
L 110.056619 -235.550696 
L 110.61254 -235.182541 
L 111.025787 -234.814386 
L 111.289546 -234.446231 
L 111.39975 -234.078076 
L 111.355158 -233.709921 
L 111.157351 -233.341766 
L 110.810656 -232.973611 
L 110.321991 -232.605456 
L 109.700644 -232.237301 
L 108.958008 -231.869146 
L 108.107256 -231.500991 
L 107.162988 -231.132835 
L 106.140859 -230.76468 
L 105.057186 -230.396525 
L 103.928567 -230.02837 
L 102.771502 -229.660215 
L 101.602039 -229.29206 
L 100.435458 -228.923905 
L 99.285986 -228.55575 
L 98.166565 -228.187595 
L 97.088668 -227.81944 
L 96.062176 -227.451285 
L 95.095302 -227.08313 
L 94.194573 -226.714975 
L 93.364864 -226.34682 
L 92.609472 -225.978665 
L 91.930225 -225.61051 
L 91.327625 -225.242355 
L 90.801001 -224.8742 
L 90.348678 -224.506045 
L 89.968141 -224.137889 
L 89.656188 -223.769734 
L 89.409078 -223.401579 
L 89.222645 -223.033424 
L 89.092401 -222.665269 
L 89.013611 -222.297114 
L 88.981344 -221.928959 
L 88.990516 -221.560804 
L 89.035907 -221.192649 
L 89.112183 -220.824494 
L 89.213908 -220.456339 
L 89.335567 -220.088184 
L 89.4716 -219.720029 
L 89.616444 -219.351874 
L 89.764597 -218.983719 
L 89.910697 -218.615564 
L 90.049617 -218.247409 
L 90.176568 -217.879254 
L 90.28721 -217.511098 
L 90.37776 -217.142943 
L 90.445094 -216.774788 
L 90.486832 -216.406633 
L 90.5014 -216.038478 
L 90.488066 -215.670323 
L 90.446944 -215.302168 
L 90.378968 -214.934013 
L 90.285828 -214.565858 
L 90.169884 -214.197703 
L 90.034049 -213.829548 
L 89.881658 -213.461393 
L 89.716325 -213.093238 
L 89.541795 -212.725083 
L 89.361798 -212.356928 
L 89.179922 -211.988773 
L 88.999498 -211.620618 
L 88.823504 -211.252463 
L 88.654498 -210.884308 
L 88.494575 -210.516152 
L 88.345346 -210.147997 
L 88.207945 -209.779842 
L 88.083054 -209.411687 
L 87.970938 -209.043532 
L 87.871502 -208.675377 
L 87.784347 -208.307222 
z
" id="mbbb226c7e7" style="stroke:#3c3c3c;stroke-width:1.5;"/>
    </defs>
    <g clip-path="url(#pa53af55b04)">
     <use style="fill:#597dbf;stroke:#3c3c3c;stroke-width:1.5;" x="0" xlink:href="#mbbb226c7e7" y="345.6"/>
    </g>
   </g>
   <g id="PolyCollection_2">
    <defs>
     <path d="M 147.017633 -154.512476 
L 146.742367 -154.512476 
L 146.715362 -155.604123 
L 146.684588 -156.69577 
L 146.649849 -157.787417 
L 146.611009 -158.879064 
L 146.568001 -159.97071 
L 146.520839 -161.062357 
L 146.469625 -162.154004 
L 146.414557 -163.245651 
L 146.355929 -164.337298 
L 146.294131 -165.428944 
L 146.229642 -166.520591 
L 146.163021 -167.612238 
L 146.094893 -168.703885 
L 146.025927 -169.795532 
L 145.95682 -170.887178 
L 145.888271 -171.978825 
L 145.820957 -173.070472 
L 145.755513 -174.162119 
L 145.692506 -175.253766 
L 145.632418 -176.345412 
L 145.575629 -177.437059 
L 145.522409 -178.528706 
L 145.472908 -179.620353 
L 145.427155 -180.712 
L 145.38506 -181.803646 
L 145.346418 -182.895293 
L 145.310919 -183.98694 
L 145.278157 -185.078587 
L 145.247636 -186.170234 
L 145.218784 -187.26188 
L 145.19096 -188.353527 
L 145.163459 -189.445174 
L 145.135516 -190.536821 
L 145.10631 -191.628468 
L 145.074965 -192.720114 
L 145.040552 -193.811761 
L 145.002088 -194.903408 
L 144.958541 -195.995055 
L 144.908836 -197.086701 
L 144.851864 -198.178348 
L 144.786496 -199.269995 
L 144.711602 -200.361642 
L 144.626075 -201.453289 
L 144.528863 -202.544935 
L 144.418997 -203.636582 
L 144.295636 -204.728229 
L 144.158103 -205.819876 
L 144.005927 -206.911523 
L 143.838892 -208.003169 
L 143.657069 -209.094816 
L 143.460864 -210.186463 
L 143.251046 -211.27811 
L 143.028776 -212.369757 
L 142.795628 -213.461403 
L 142.553597 -214.55305 
L 142.305098 -215.644697 
L 142.052951 -216.736344 
L 141.800353 -217.827991 
L 141.550833 -218.919637 
L 141.308196 -220.011284 
L 141.076445 -221.102931 
L 140.859699 -222.194578 
L 140.662089 -223.286225 
L 140.487654 -224.377871 
L 140.340222 -225.469518 
L 140.223299 -226.561165 
L 140.139954 -227.652812 
L 140.092711 -228.744459 
L 140.083461 -229.836105 
L 140.113381 -230.927752 
L 140.182887 -232.019399 
L 140.291597 -233.111046 
L 140.438333 -234.202693 
L 140.621142 -235.294339 
L 140.837353 -236.385986 
L 141.083647 -237.477633 
L 141.356159 -238.56928 
L 141.650594 -239.660927 
L 141.962357 -240.752573 
L 142.286685 -241.84422 
L 142.618784 -242.935867 
L 142.953964 -244.027514 
L 143.287758 -245.119161 
L 143.616027 -246.210807 
L 143.935051 -247.302454 
L 144.241596 -248.394101 
L 144.532961 -249.485748 
L 144.806999 -250.577395 
L 145.062123 -251.669041 
L 145.297288 -252.760688 
L 145.511958 -253.852335 
L 145.706062 -254.943982 
L 145.879934 -256.035629 
L 146.034256 -257.127275 
L 146.169985 -258.218922 
L 146.288296 -259.310569 
L 146.390512 -260.402216 
L 146.478051 -261.493863 
L 146.55237 -262.585509 
L 147.20763 -262.585509 
L 147.20763 -262.585509 
L 147.281949 -261.493863 
L 147.369488 -260.402216 
L 147.471704 -259.310569 
L 147.590015 -258.218922 
L 147.725744 -257.127275 
L 147.880066 -256.035629 
L 148.053938 -254.943982 
L 148.248042 -253.852335 
L 148.462712 -252.760688 
L 148.697877 -251.669041 
L 148.953001 -250.577395 
L 149.227039 -249.485748 
L 149.518404 -248.394101 
L 149.824949 -247.302454 
L 150.143973 -246.210807 
L 150.472242 -245.119161 
L 150.806036 -244.027514 
L 151.141216 -242.935867 
L 151.473315 -241.84422 
L 151.797643 -240.752573 
L 152.109406 -239.660927 
L 152.403841 -238.56928 
L 152.676353 -237.477633 
L 152.922647 -236.385986 
L 153.138858 -235.294339 
L 153.321667 -234.202693 
L 153.468403 -233.111046 
L 153.577113 -232.019399 
L 153.646619 -230.927752 
L 153.676539 -229.836105 
L 153.667289 -228.744459 
L 153.620046 -227.652812 
L 153.536701 -226.561165 
L 153.419778 -225.469518 
L 153.272346 -224.377871 
L 153.097911 -223.286225 
L 152.900301 -222.194578 
L 152.683555 -221.102931 
L 152.451804 -220.011284 
L 152.209167 -218.919637 
L 151.959647 -217.827991 
L 151.707049 -216.736344 
L 151.454902 -215.644697 
L 151.206403 -214.55305 
L 150.964372 -213.461403 
L 150.731224 -212.369757 
L 150.508954 -211.27811 
L 150.299136 -210.186463 
L 150.102931 -209.094816 
L 149.921108 -208.003169 
L 149.754073 -206.911523 
L 149.601897 -205.819876 
L 149.464364 -204.728229 
L 149.341003 -203.636582 
L 149.231137 -202.544935 
L 149.133925 -201.453289 
L 149.048398 -200.361642 
L 148.973504 -199.269995 
L 148.908136 -198.178348 
L 148.851164 -197.086701 
L 148.801459 -195.995055 
L 148.757912 -194.903408 
L 148.719448 -193.811761 
L 148.685035 -192.720114 
L 148.65369 -191.628468 
L 148.624484 -190.536821 
L 148.596541 -189.445174 
L 148.56904 -188.353527 
L 148.541216 -187.26188 
L 148.512364 -186.170234 
L 148.481843 -185.078587 
L 148.449081 -183.98694 
L 148.413582 -182.895293 
L 148.37494 -181.803646 
L 148.332845 -180.712 
L 148.287092 -179.620353 
L 148.237591 -178.528706 
L 148.184371 -177.437059 
L 148.127582 -176.345412 
L 148.067494 -175.253766 
L 148.004487 -174.162119 
L 147.939043 -173.070472 
L 147.871729 -171.978825 
L 147.80318 -170.887178 
L 147.734073 -169.795532 
L 147.665107 -168.703885 
L 147.596979 -167.612238 
L 147.530358 -166.520591 
L 147.465869 -165.428944 
L 147.404071 -164.337298 
L 147.345443 -163.245651 
L 147.290375 -162.154004 
L 147.239161 -161.062357 
L 147.191999 -159.97071 
L 147.148991 -158.879064 
L 147.110151 -157.787417 
L 147.075412 -156.69577 
L 147.044638 -155.604123 
L 147.017633 -154.512476 
z
" id="mfc0dfaaa79" style="stroke:#3c3c3c;stroke-width:1.5;"/>
    </defs>
    <g clip-path="url(#pa53af55b04)">
     <use style="fill:#d98b5f;stroke:#3c3c3c;stroke-width:1.5;" x="0" xlink:href="#mfc0dfaaa79" y="345.6"/>
    </g>
   </g>
   <g id="PolyCollection_3">
    <defs>
     <path d="M 206.595959 -180.891034 
L 206.204041 -180.891034 
L 206.164445 -181.676193 
L 206.119352 -182.461351 
L 206.068583 -183.24651 
L 206.01209 -184.031669 
L 205.949982 -184.816828 
L 205.882545 -185.601987 
L 205.810263 -186.387146 
L 205.733826 -187.172305 
L 205.654135 -187.957464 
L 205.572294 -188.742623 
L 205.489591 -189.527782 
L 205.407475 -190.312941 
L 205.327513 -191.0981 
L 205.251348 -191.883258 
L 205.180638 -192.668417 
L 205.117 -193.453576 
L 205.061945 -194.238735 
L 205.016821 -195.023894 
L 204.982749 -195.809053 
L 204.960578 -196.594212 
L 204.950839 -197.379371 
L 204.953723 -198.16453 
L 204.96906 -198.949689 
L 204.996321 -199.734848 
L 205.03463 -200.520007 
L 205.082786 -201.305165 
L 205.139302 -202.090324 
L 205.202444 -202.875483 
L 205.270281 -203.660642 
L 205.34073 -204.445801 
L 205.411606 -205.23096 
L 205.480661 -206.016119 
L 205.545625 -206.801278 
L 205.60423 -207.586437 
L 205.654229 -208.371596 
L 205.693413 -209.156755 
L 205.719611 -209.941914 
L 205.730692 -210.727072 
L 205.72456 -211.512231 
L 205.699153 -212.29739 
L 205.652439 -213.082549 
L 205.582423 -213.867708 
L 205.487154 -214.652867 
L 205.364752 -215.438026 
L 205.213431 -216.223185 
L 205.031546 -217.008344 
L 204.817641 -217.793503 
L 204.570513 -218.578662 
L 204.289278 -219.363821 
L 203.973443 -220.148979 
L 203.622986 -220.934138 
L 203.238423 -221.719297 
L 202.820884 -222.504456 
L 202.372174 -223.289615 
L 201.894819 -224.074774 
L 201.392108 -224.859933 
L 200.868107 -225.645092 
L 200.32766 -226.430251 
L 199.776364 -227.21541 
L 199.22052 -228.000569 
L 198.667057 -228.785728 
L 198.123433 -229.570887 
L 197.597509 -230.356045 
L 197.097394 -231.141204 
L 196.631272 -231.926363 
L 196.207207 -232.711522 
L 195.832938 -233.496681 
L 195.51566 -234.28184 
L 195.261809 -235.066999 
L 195.076853 -235.852158 
L 194.965103 -236.637317 
L 194.929541 -237.422476 
L 194.971699 -238.207635 
L 195.091563 -238.992794 
L 195.287542 -239.777952 
L 195.556477 -240.563111 
L 195.893717 -241.34827 
L 196.293244 -242.133429 
L 196.747841 -242.918588 
L 197.249318 -243.703747 
L 197.788757 -244.488906 
L 198.356789 -245.274065 
L 198.943875 -246.059224 
L 199.540588 -246.844383 
L 200.137875 -247.629542 
L 200.727296 -248.414701 
L 201.301229 -249.199859 
L 201.853023 -249.985018 
L 202.37711 -250.770177 
L 202.86907 -251.555336 
L 203.325644 -252.340495 
L 203.744701 -253.125654 
L 204.125176 -253.910813 
L 204.466966 -254.695972 
L 204.770809 -255.481131 
L 205.03815 -256.26629 
L 205.270992 -257.051449 
L 205.471757 -257.836608 
L 205.64315 -258.621766 
L 207.15685 -258.621766 
L 207.15685 -258.621766 
L 207.328243 -257.836608 
L 207.529008 -257.051449 
L 207.76185 -256.26629 
L 208.029191 -255.481131 
L 208.333034 -254.695972 
L 208.674824 -253.910813 
L 209.055299 -253.125654 
L 209.474356 -252.340495 
L 209.93093 -251.555336 
L 210.42289 -250.770177 
L 210.946977 -249.985018 
L 211.498771 -249.199859 
L 212.072704 -248.414701 
L 212.662125 -247.629542 
L 213.259412 -246.844383 
L 213.856125 -246.059224 
L 214.443211 -245.274065 
L 215.011243 -244.488906 
L 215.550682 -243.703747 
L 216.052159 -242.918588 
L 216.506756 -242.133429 
L 216.906283 -241.34827 
L 217.243523 -240.563111 
L 217.512458 -239.777952 
L 217.708437 -238.992794 
L 217.828301 -238.207635 
L 217.870459 -237.422476 
L 217.834897 -236.637317 
L 217.723147 -235.852158 
L 217.538191 -235.066999 
L 217.28434 -234.28184 
L 216.967062 -233.496681 
L 216.592793 -232.711522 
L 216.168728 -231.926363 
L 215.702606 -231.141204 
L 215.202491 -230.356045 
L 214.676567 -229.570887 
L 214.132943 -228.785728 
L 213.57948 -228.000569 
L 213.023636 -227.21541 
L 212.47234 -226.430251 
L 211.931893 -225.645092 
L 211.407892 -224.859933 
L 210.905181 -224.074774 
L 210.427826 -223.289615 
L 209.979116 -222.504456 
L 209.561577 -221.719297 
L 209.177014 -220.934138 
L 208.826557 -220.148979 
L 208.510722 -219.363821 
L 208.229487 -218.578662 
L 207.982359 -217.793503 
L 207.768454 -217.008344 
L 207.586569 -216.223185 
L 207.435248 -215.438026 
L 207.312846 -214.652867 
L 207.217577 -213.867708 
L 207.147561 -213.082549 
L 207.100847 -212.29739 
L 207.07544 -211.512231 
L 207.069308 -210.727072 
L 207.080389 -209.941914 
L 207.106587 -209.156755 
L 207.145771 -208.371596 
L 207.19577 -207.586437 
L 207.254375 -206.801278 
L 207.319339 -206.016119 
L 207.388394 -205.23096 
L 207.45927 -204.445801 
L 207.529719 -203.660642 
L 207.597556 -202.875483 
L 207.660698 -202.090324 
L 207.717214 -201.305165 
L 207.76537 -200.520007 
L 207.803679 -199.734848 
L 207.83094 -198.949689 
L 207.846277 -198.16453 
L 207.849161 -197.379371 
L 207.839422 -196.594212 
L 207.817251 -195.809053 
L 207.783179 -195.023894 
L 207.738055 -194.238735 
L 207.683 -193.453576 
L 207.619362 -192.668417 
L 207.548652 -191.883258 
L 207.472487 -191.0981 
L 207.392525 -190.312941 
L 207.310409 -189.527782 
L 207.227706 -188.742623 
L 207.145865 -187.957464 
L 207.066174 -187.172305 
L 206.989737 -186.387146 
L 206.917455 -185.601987 
L 206.850018 -184.816828 
L 206.78791 -184.031669 
L 206.731417 -183.24651 
L 206.680648 -182.461351 
L 206.635555 -181.676193 
L 206.595959 -180.891034 
z
" id="m4af3b44857" style="stroke:#3c3c3c;stroke-width:1.5;"/>
    </defs>
    <g clip-path="url(#pa53af55b04)">
     <use style="fill:#75bf71;stroke:#3c3c3c;stroke-width:1.5;" x="0" xlink:href="#m4af3b44857" y="345.6"/>
    </g>
   </g>
   <g id="PolyCollection_4">
    <defs>
     <path d="M 265.981106 -50.112 
L 265.858894 -50.112 
L 265.846935 -52.555636 
L 265.833363 -54.999273 
L 265.818124 -57.442909 
L 265.801201 -59.886545 
L 265.78262 -62.330182 
L 265.762453 -64.773818 
L 265.740827 -67.217455 
L 265.717924 -69.661091 
L 265.693985 -72.104727 
L 265.669305 -74.548364 
L 265.644231 -76.992 
L 265.619154 -79.435636 
L 265.5945 -81.879273 
L 265.570717 -84.322909 
L 265.548261 -86.766545 
L 265.527578 -89.210182 
L 265.509087 -91.653818 
L 265.493165 -94.097455 
L 265.480127 -96.541091 
L 265.470214 -98.984727 
L 265.463575 -101.428364 
L 265.460263 -103.872 
L 265.460228 -106.315636 
L 265.463311 -108.759273 
L 265.469252 -111.202909 
L 265.477692 -113.646545 
L 265.488187 -116.090182 
L 265.500221 -118.533818 
L 265.51322 -120.977455 
L 265.526577 -123.421091 
L 265.539666 -125.864727 
L 265.551862 -128.308364 
L 265.562563 -130.752 
L 265.571204 -133.195636 
L 265.577271 -135.639273 
L 265.58031 -138.082909 
L 265.579937 -140.526545 
L 265.575833 -142.970182 
L 265.567745 -145.413818 
L 265.555477 -147.857455 
L 265.538878 -150.301091 
L 265.517821 -152.744727 
L 265.492193 -155.188364 
L 265.461868 -157.632 
L 265.426687 -160.075636 
L 265.386442 -162.519273 
L 265.340858 -164.962909 
L 265.289581 -167.406545 
L 265.232178 -169.850182 
L 265.168137 -172.293818 
L 265.096883 -174.737455 
L 265.017798 -177.181091 
L 264.930262 -179.624727 
L 264.833686 -182.068364 
L 264.727574 -184.512 
L 264.611573 -186.955636 
L 264.485538 -189.399273 
L 264.34959 -191.842909 
L 264.204175 -194.286545 
L 264.050107 -196.730182 
L 263.888609 -199.173818 
L 263.721328 -201.617455 
L 263.550333 -204.061091 
L 263.378095 -206.504727 
L 263.207437 -208.948364 
L 263.041472 -211.392 
L 262.883509 -213.835636 
L 262.73695 -216.279273 
L 262.605167 -218.722909 
L 262.491386 -221.166545 
L 262.398549 -223.610182 
L 262.329205 -226.053818 
L 262.285395 -228.497455 
L 262.26857 -230.941091 
L 262.279522 -233.384727 
L 262.318349 -235.828364 
L 262.384448 -238.272 
L 262.476537 -240.715636 
L 262.592707 -243.159273 
L 262.730495 -245.602909 
L 262.886986 -248.046545 
L 263.058921 -250.490182 
L 263.242822 -252.933818 
L 263.435114 -255.377455 
L 263.632246 -257.821091 
L 263.830808 -260.264727 
L 264.027621 -262.708364 
L 264.219824 -265.152 
L 264.404934 -267.595636 
L 264.580884 -270.039273 
L 264.746046 -272.482909 
L 264.89923 -274.926545 
L 265.039667 -277.370182 
L 265.166978 -279.813818 
L 265.281137 -282.257455 
L 265.382414 -284.701091 
L 265.471331 -287.144727 
L 265.5486 -289.588364 
L 265.615072 -292.032 
L 266.224928 -292.032 
L 266.224928 -292.032 
L 266.2914 -289.588364 
L 266.368669 -287.144727 
L 266.457586 -284.701091 
L 266.558863 -282.257455 
L 266.673022 -279.813818 
L 266.800333 -277.370182 
L 266.94077 -274.926545 
L 267.093954 -272.482909 
L 267.259116 -270.039273 
L 267.435066 -267.595636 
L 267.620176 -265.152 
L 267.812379 -262.708364 
L 268.009192 -260.264727 
L 268.207754 -257.821091 
L 268.404886 -255.377455 
L 268.597178 -252.933818 
L 268.781079 -250.490182 
L 268.953014 -248.046545 
L 269.109505 -245.602909 
L 269.247293 -243.159273 
L 269.363463 -240.715636 
L 269.455552 -238.272 
L 269.521651 -235.828364 
L 269.560478 -233.384727 
L 269.57143 -230.941091 
L 269.554605 -228.497455 
L 269.510795 -226.053818 
L 269.441451 -223.610182 
L 269.348614 -221.166545 
L 269.234833 -218.722909 
L 269.10305 -216.279273 
L 268.956491 -213.835636 
L 268.798528 -211.392 
L 268.632563 -208.948364 
L 268.461905 -206.504727 
L 268.289667 -204.061091 
L 268.118672 -201.617455 
L 267.951391 -199.173818 
L 267.789893 -196.730182 
L 267.635825 -194.286545 
L 267.49041 -191.842909 
L 267.354462 -189.399273 
L 267.228427 -186.955636 
L 267.112426 -184.512 
L 267.006314 -182.068364 
L 266.909738 -179.624727 
L 266.822202 -177.181091 
L 266.743117 -174.737455 
L 266.671863 -172.293818 
L 266.607822 -169.850182 
L 266.550419 -167.406545 
L 266.499142 -164.962909 
L 266.453558 -162.519273 
L 266.413313 -160.075636 
L 266.378132 -157.632 
L 266.347807 -155.188364 
L 266.322179 -152.744727 
L 266.301122 -150.301091 
L 266.284523 -147.857455 
L 266.272255 -145.413818 
L 266.264167 -142.970182 
L 266.260063 -140.526545 
L 266.25969 -138.082909 
L 266.262729 -135.639273 
L 266.268796 -133.195636 
L 266.277437 -130.752 
L 266.288138 -128.308364 
L 266.300334 -125.864727 
L 266.313423 -123.421091 
L 266.32678 -120.977455 
L 266.339779 -118.533818 
L 266.351813 -116.090182 
L 266.362308 -113.646545 
L 266.370748 -111.202909 
L 266.376689 -108.759273 
L 266.379772 -106.315636 
L 266.379737 -103.872 
L 266.376425 -101.428364 
L 266.369786 -98.984727 
L 266.359873 -96.541091 
L 266.346835 -94.097455 
L 266.330913 -91.653818 
L 266.312422 -89.210182 
L 266.291739 -86.766545 
L 266.269283 -84.322909 
L 266.2455 -81.879273 
L 266.220846 -79.435636 
L 266.195769 -76.992 
L 266.170695 -74.548364 
L 266.146015 -72.104727 
L 266.122076 -69.661091 
L 266.099173 -67.217455 
L 266.077547 -64.773818 
L 266.05738 -62.330182 
L 266.038799 -59.886545 
L 266.021876 -57.442909 
L 266.006637 -54.999273 
L 265.993065 -52.555636 
L 265.981106 -50.112 
z
" id="m0ece749492" style="stroke:#3c3c3c;stroke-width:1.5;"/>
    </defs>
    <g clip-path="url(#pa53af55b04)">
     <use style="fill:#c76e6e;stroke:#3c3c3c;stroke-width:1.5;" x="0" xlink:href="#m0ece749492" y="345.6"/>
    </g>
   </g>
   <g id="PolyCollection_5">
    <defs>
     <path d="M 325.605315 -166.005697 
L 325.274685 -166.005697 
L 325.241828 -166.922139 
L 325.204476 -167.838581 
L 325.162484 -168.755023 
L 325.115809 -169.671464 
L 325.064529 -170.587906 
L 325.008867 -171.504348 
L 324.949195 -172.42079 
L 324.886054 -173.337232 
L 324.820146 -174.253674 
L 324.75234 -175.170116 
L 324.68365 -176.086557 
L 324.615221 -177.002999 
L 324.548297 -177.919441 
L 324.484185 -178.835883 
L 324.424215 -179.752325 
L 324.36969 -180.668767 
L 324.321838 -181.585209 
L 324.281763 -182.50165 
L 324.2504 -183.418092 
L 324.228469 -184.334534 
L 324.216442 -185.250976 
L 324.214516 -186.167418 
L 324.222601 -187.08386 
L 324.24031 -188.000302 
L 324.266966 -188.916744 
L 324.30162 -189.833185 
L 324.343078 -190.749627 
L 324.38993 -191.666069 
L 324.44059 -192.582511 
L 324.493341 -193.498953 
L 324.546373 -194.415395 
L 324.597829 -195.331837 
L 324.64584 -196.248278 
L 324.688558 -197.16472 
L 324.724187 -198.081162 
L 324.751001 -198.997604 
L 324.767359 -199.914046 
L 324.771712 -200.830488 
L 324.762608 -201.74693 
L 324.738687 -202.663371 
L 324.698676 -203.579813 
L 324.641378 -204.496255 
L 324.56567 -205.412697 
L 324.47049 -206.329139 
L 324.354834 -207.245581 
L 324.217759 -208.162023 
L 324.058381 -209.078464 
L 323.875895 -209.994906 
L 323.669593 -210.911348 
L 323.438891 -211.82779 
L 323.183371 -212.744232 
L 322.90283 -213.660674 
L 322.597333 -214.577116 
L 322.267282 -215.493557 
L 321.913481 -216.409999 
L 321.537212 -217.326441 
L 321.140301 -218.242883 
L 320.725181 -219.159325 
L 320.294943 -220.075767 
L 319.853371 -220.992209 
L 319.404951 -221.90865 
L 318.954854 -222.825092 
L 318.508889 -223.741534 
L 318.073419 -224.657976 
L 317.655243 -225.574418 
L 317.261448 -226.49086 
L 316.89922 -227.407302 
L 316.575647 -228.323743 
L 316.297487 -229.240185 
L 316.070943 -230.156627 
L 315.901437 -231.073069 
L 315.793395 -231.989511 
L 315.750066 -232.905953 
L 315.773371 -233.822395 
L 315.863804 -234.738836 
L 316.020384 -235.655278 
L 316.240657 -236.57172 
L 316.520767 -237.488162 
L 316.855572 -238.404604 
L 317.238812 -239.321046 
L 317.66332 -240.237488 
L 318.121262 -241.15393 
L 318.604392 -242.070371 
L 319.104321 -242.986813 
L 319.612774 -243.903255 
L 320.121825 -244.819697 
L 320.624118 -245.736139 
L 321.113035 -246.652581 
L 321.582835 -247.569023 
L 322.028743 -248.485464 
L 322.446998 -249.401906 
L 322.834855 -250.318348 
L 323.190552 -251.23479 
L 323.513244 -252.151232 
L 323.802911 -253.067674 
L 324.060246 -253.984116 
L 324.286534 -254.900557 
L 324.48353 -255.816999 
L 324.653331 -256.733441 
L 326.226669 -256.733441 
L 326.226669 -256.733441 
L 326.39647 -255.816999 
L 326.593466 -254.900557 
L 326.819754 -253.984116 
L 327.077089 -253.067674 
L 327.366756 -252.151232 
L 327.689448 -251.23479 
L 328.045145 -250.318348 
L 328.433002 -249.401906 
L 328.851257 -248.485464 
L 329.297165 -247.569023 
L 329.766965 -246.652581 
L 330.255882 -245.736139 
L 330.758175 -244.819697 
L 331.267226 -243.903255 
L 331.775679 -242.986813 
L 332.275608 -242.070371 
L 332.758738 -241.15393 
L 333.21668 -240.237488 
L 333.641188 -239.321046 
L 334.024428 -238.404604 
L 334.359233 -237.488162 
L 334.639343 -236.57172 
L 334.859616 -235.655278 
L 335.016196 -234.738836 
L 335.106629 -233.822395 
L 335.129934 -232.905953 
L 335.086605 -231.989511 
L 334.978563 -231.073069 
L 334.809057 -230.156627 
L 334.582513 -229.240185 
L 334.304353 -228.323743 
L 333.98078 -227.407302 
L 333.618552 -226.49086 
L 333.224757 -225.574418 
L 332.806581 -224.657976 
L 332.371111 -223.741534 
L 331.925146 -222.825092 
L 331.475049 -221.90865 
L 331.026629 -220.992209 
L 330.585057 -220.075767 
L 330.154819 -219.159325 
L 329.739699 -218.242883 
L 329.342788 -217.326441 
L 328.966519 -216.409999 
L 328.612718 -215.493557 
L 328.282667 -214.577116 
L 327.97717 -213.660674 
L 327.696629 -212.744232 
L 327.441109 -211.82779 
L 327.210407 -210.911348 
L 327.004105 -209.994906 
L 326.821619 -209.078464 
L 326.662241 -208.162023 
L 326.525166 -207.245581 
L 326.40951 -206.329139 
L 326.31433 -205.412697 
L 326.238622 -204.496255 
L 326.181324 -203.579813 
L 326.141313 -202.663371 
L 326.117392 -201.74693 
L 326.108288 -200.830488 
L 326.112641 -199.914046 
L 326.128999 -198.997604 
L 326.155813 -198.081162 
L 326.191442 -197.16472 
L 326.23416 -196.248278 
L 326.282171 -195.331837 
L 326.333627 -194.415395 
L 326.386659 -193.498953 
L 326.43941 -192.582511 
L 326.49007 -191.666069 
L 326.536922 -190.749627 
L 326.57838 -189.833185 
L 326.613034 -188.916744 
L 326.63969 -188.000302 
L 326.657399 -187.08386 
L 326.665484 -186.167418 
L 326.663558 -185.250976 
L 326.651531 -184.334534 
L 326.6296 -183.418092 
L 326.598237 -182.50165 
L 326.558162 -181.585209 
L 326.51031 -180.668767 
L 326.455785 -179.752325 
L 326.395815 -178.835883 
L 326.331703 -177.919441 
L 326.264779 -177.002999 
L 326.19635 -176.086557 
L 326.12766 -175.170116 
L 326.059854 -174.253674 
L 325.993946 -173.337232 
L 325.930805 -172.42079 
L 325.871133 -171.504348 
L 325.815471 -170.587906 
L 325.764191 -169.671464 
L 325.717516 -168.755023 
L 325.675524 -167.838581 
L 325.638172 -166.922139 
L 325.605315 -166.005697 
z
" id="m6acc0384d8" style="stroke:#3c3c3c;stroke-width:1.5;"/>
    </defs>
    <g clip-path="url(#pa53af55b04)">
     <use style="fill:#9475ab;stroke:#3c3c3c;stroke-width:1.5;" x="0" xlink:href="#m6acc0384d8" y="345.6"/>
    </g>
   </g>
   <g id="PolyCollection_6">
    <defs>
     <path d="M 385.793746 -220.848103 
L 384.126254 -220.848103 
L 383.933211 -221.126777 
L 383.707279 -221.405452 
L 383.445811 -221.684127 
L 383.14661 -221.962802 
L 382.808084 -222.241476 
L 382.429374 -222.520151 
L 382.010472 -222.798826 
L 381.552291 -223.077501 
L 381.056689 -223.356176 
L 380.526435 -223.63485 
L 379.9651 -223.913525 
L 379.376887 -224.1922 
L 378.766379 -224.470875 
L 378.138243 -224.74955 
L 377.496877 -225.028224 
L 376.846047 -225.306899 
L 376.188525 -225.585574 
L 375.525766 -225.864249 
L 374.85766 -226.142924 
L 374.18238 -226.421598 
L 373.496369 -226.700273 
L 372.794471 -226.978948 
L 372.070227 -227.257623 
L 371.316325 -227.536298 
L 370.525199 -227.814972 
L 369.689735 -228.093647 
L 368.804063 -228.372322 
L 367.864356 -228.650997 
L 366.869607 -228.929672 
L 365.822302 -229.208346 
L 364.72894 -229.487021 
L 363.600345 -229.765696 
L 362.451736 -230.044371 
L 361.302513 -230.323045 
L 360.17578 -230.60172 
L 359.09759 -230.880395 
L 358.095959 -231.15907 
L 357.199702 -231.437745 
L 356.437142 -231.716419 
L 355.834788 -231.995094 
L 355.416038 -232.273769 
L 355.2 -232.552444 
L 355.200509 -232.831119 
L 355.425377 -233.109793 
L 355.875946 -233.388468 
L 356.546943 -233.667143 
L 357.426667 -233.945818 
L 358.497465 -234.224493 
L 359.73648 -234.503167 
L 361.116614 -234.781842 
L 362.607645 -235.060517 
L 364.17743 -235.339192 
L 365.793133 -235.617867 
L 367.422395 -235.896541 
L 369.03442 -236.175216 
L 370.6009 -236.453891 
L 372.096769 -236.732566 
L 373.500762 -237.01124 
L 374.795769 -237.289915 
L 375.969003 -237.56859 
L 377.011988 -237.847265 
L 377.9204 -238.12594 
L 378.693783 -238.404614 
L 379.335178 -238.683289 
L 379.850683 -238.961964 
L 380.24898 -239.240639 
L 380.540839 -239.519314 
L 380.738634 -239.797988 
L 380.855856 -240.076663 
L 380.90666 -240.355338 
L 380.905431 -240.634013 
L 380.866384 -240.912688 
L 380.803195 -241.191362 
L 380.728671 -241.470037 
L 380.654457 -241.748712 
L 380.590789 -242.027387 
L 380.546303 -242.306062 
L 380.527887 -242.584736 
L 380.540608 -242.863411 
L 380.587692 -243.142086 
L 380.670568 -243.420761 
L 380.788982 -243.699436 
L 380.941157 -243.97811 
L 381.124012 -244.256785 
L 381.333407 -244.53546 
L 381.564423 -244.814135 
L 381.811645 -245.092809 
L 382.069439 -245.371484 
L 382.33222 -245.650159 
L 382.594678 -245.928834 
L 382.851976 -246.207509 
L 383.099895 -246.486183 
L 383.334937 -246.764858 
L 383.554371 -247.043533 
L 383.756253 -247.322208 
L 383.939384 -247.600883 
L 384.103257 -247.879557 
L 384.247969 -248.158232 
L 384.374124 -248.436907 
L 385.545876 -248.436907 
L 385.545876 -248.436907 
L 385.672031 -248.158232 
L 385.816743 -247.879557 
L 385.980616 -247.600883 
L 386.163747 -247.322208 
L 386.365629 -247.043533 
L 386.585063 -246.764858 
L 386.820105 -246.486183 
L 387.068024 -246.207509 
L 387.325322 -245.928834 
L 387.58778 -245.650159 
L 387.850561 -245.371484 
L 388.108355 -245.092809 
L 388.355577 -244.814135 
L 388.586593 -244.53546 
L 388.795988 -244.256785 
L 388.978843 -243.97811 
L 389.131018 -243.699436 
L 389.249432 -243.420761 
L 389.332308 -243.142086 
L 389.379392 -242.863411 
L 389.392113 -242.584736 
L 389.373697 -242.306062 
L 389.329211 -242.027387 
L 389.265543 -241.748712 
L 389.191329 -241.470037 
L 389.116805 -241.191362 
L 389.053616 -240.912688 
L 389.014569 -240.634013 
L 389.01334 -240.355338 
L 389.064144 -240.076663 
L 389.181366 -239.797988 
L 389.379161 -239.519314 
L 389.67102 -239.240639 
L 390.069317 -238.961964 
L 390.584822 -238.683289 
L 391.226217 -238.404614 
L 391.9996 -238.12594 
L 392.908012 -237.847265 
L 393.950997 -237.56859 
L 395.124231 -237.289915 
L 396.419238 -237.01124 
L 397.823231 -236.732566 
L 399.3191 -236.453891 
L 400.88558 -236.175216 
L 402.497605 -235.896541 
L 404.126867 -235.617867 
L 405.74257 -235.339192 
L 407.312355 -235.060517 
L 408.803386 -234.781842 
L 410.18352 -234.503167 
L 411.422535 -234.224493 
L 412.493333 -233.945818 
L 413.373057 -233.667143 
L 414.044054 -233.388468 
L 414.494623 -233.109793 
L 414.719491 -232.831119 
L 414.72 -232.552444 
L 414.503962 -232.273769 
L 414.085212 -231.995094 
L 413.482858 -231.716419 
L 412.720298 -231.437745 
L 411.824041 -231.15907 
L 410.82241 -230.880395 
L 409.74422 -230.60172 
L 408.617487 -230.323045 
L 407.468264 -230.044371 
L 406.319655 -229.765696 
L 405.19106 -229.487021 
L 404.097698 -229.208346 
L 403.050393 -228.929672 
L 402.055644 -228.650997 
L 401.115937 -228.372322 
L 400.230265 -228.093647 
L 399.394801 -227.814972 
L 398.603675 -227.536298 
L 397.849773 -227.257623 
L 397.125529 -226.978948 
L 396.423631 -226.700273 
L 395.73762 -226.421598 
L 395.06234 -226.142924 
L 394.394234 -225.864249 
L 393.731475 -225.585574 
L 393.073953 -225.306899 
L 392.423123 -225.028224 
L 391.781757 -224.74955 
L 391.153621 -224.470875 
L 390.543113 -224.1922 
L 389.9549 -223.913525 
L 389.393565 -223.63485 
L 388.863311 -223.356176 
L 388.367709 -223.077501 
L 387.909528 -222.798826 
L 387.490626 -222.520151 
L 387.111916 -222.241476 
L 386.77339 -221.962802 
L 386.474189 -221.684127 
L 386.212721 -221.405452 
L 385.986789 -221.126777 
L 385.793746 -220.848103 
z
" id="m224ae4b6c0" style="stroke:#3c3c3c;stroke-width:1.5;"/>
    </defs>
    <g clip-path="url(#pa53af55b04)">
     <use style="fill:#826246;stroke:#3c3c3c;stroke-width:1.5;" x="0" xlink:href="#m224ae4b6c0" y="345.6"/>
    </g>
   </g>
   <g id="line2d_7">
    <path clip-path="url(#pa53af55b04)" d="M 87.36 115.604514 
L 87.36 108.540246 
" style="fill:none;stroke:#3c3c3c;stroke-linecap:round;stroke-width:1.5;"/>
   </g>
   <g id="line2d_8">
    <path clip-path="url(#pa53af55b04)" d="M 87.36 113.852895 
L 87.36 110.365062 
" style="fill:none;stroke:#3c3c3c;stroke-linecap:round;stroke-width:4.5;"/>
   </g>
   <g id="line2d_9">
    <path clip-path="url(#pa53af55b04)" d="M 146.88 149.361415 
L 146.88 107.194423 
" style="fill:none;stroke:#3c3c3c;stroke-linecap:round;stroke-width:1.5;"/>
   </g>
   <g id="line2d_10">
    <path clip-path="url(#pa53af55b04)" d="M 146.88 130.313585 
L 146.88 112.890701 
" style="fill:none;stroke:#3c3c3c;stroke-linecap:round;stroke-width:4.5;"/>
   </g>
   <g id="line2d_11">
    <path clip-path="url(#pa53af55b04)" d="M 206.4 116.243126 
L 206.4 103.641282 
" style="fill:none;stroke:#3c3c3c;stroke-linecap:round;stroke-width:1.5;"/>
   </g>
   <g id="line2d_12">
    <path clip-path="url(#pa53af55b04)" d="M 206.4 113.976551 
L 206.4 105.580368 
" style="fill:none;stroke:#3c3c3c;stroke-linecap:round;stroke-width:4.5;"/>
   </g>
   <g id="line2d_13">
    <path clip-path="url(#pa53af55b04)" d="M 265.92 116.197092 
L 265.92 113.132664 
" style="fill:none;stroke:#3c3c3c;stroke-linecap:round;stroke-width:1.5;"/>
   </g>
   <g id="line2d_14">
    <path clip-path="url(#pa53af55b04)" d="M 265.92 116.176147 
L 265.92 113.517316 
" style="fill:none;stroke:#3c3c3c;stroke-linecap:round;stroke-width:4.5;"/>
   </g>
   <g id="line2d_15">
    <path clip-path="url(#pa53af55b04)" d="M 325.44 126.526134 
L 325.44 108.618493 
" style="fill:none;stroke:#3c3c3c;stroke-linecap:round;stroke-width:1.5;"/>
   </g>
   <g id="line2d_16">
    <path clip-path="url(#pa53af55b04)" d="M 325.44 117.118222 
L 325.44 109.297453 
" style="fill:none;stroke:#3c3c3c;stroke-linecap:round;stroke-width:4.5;"/>
   </g>
   <g id="line2d_17">
    <path clip-path="url(#pa53af55b04)" d="M 384.96 114.025741 
L 384.96 111.302858 
" style="fill:none;stroke:#3c3c3c;stroke-linecap:round;stroke-width:1.5;"/>
   </g>
   <g id="line2d_18">
    <path clip-path="url(#pa53af55b04)" d="M 384.96 113.940142 
L 384.96 111.861799 
" style="fill:none;stroke:#3c3c3c;stroke-linecap:round;stroke-width:4.5;"/>
   </g>
   <g id="patch_3">
    <path d="M 57.6 307.584 
L 57.6 41.472 
" style="fill:none;stroke:#cccccc;stroke-linecap:square;stroke-linejoin:miter;stroke-width:1.25;"/>
   </g>
   <g id="patch_4">
    <path d="M 414.72 307.584 
L 414.72 41.472 
" style="fill:none;stroke:#cccccc;stroke-linecap:square;stroke-linejoin:miter;stroke-width:1.25;"/>
   </g>
   <g id="patch_5">
    <path d="M 57.6 307.584 
L 414.72 307.584 
" style="fill:none;stroke:#cccccc;stroke-linecap:square;stroke-linejoin:miter;stroke-width:1.25;"/>
   </g>
   <g id="patch_6">
    <path d="M 57.6 41.472 
L 414.72 41.472 
" style="fill:none;stroke:#cccccc;stroke-linecap:square;stroke-linejoin:miter;stroke-width:1.25;"/>
   </g>
   <g id="PathCollection_1">
    <defs>
     <path d="M 0 1.5 
C 0.397805 1.5 0.77937 1.341951 1.06066 1.06066 
C 1.341951 0.77937 1.5 0.397805 1.5 0 
C 1.5 -0.397805 1.341951 -0.77937 1.06066 -1.06066 
C 0.77937 -1.341951 0.397805 -1.5 0 -1.5 
C -0.397805 -1.5 -0.77937 -1.341951 -1.06066 -1.06066 
C -1.341951 -0.77937 -1.5 -0.397805 -1.5 0 
C -1.5 0.397805 -1.341951 0.77937 -1.06066 1.06066 
C -0.77937 1.341951 -0.397805 1.5 0 1.5 
z
" id="m8b2148a6bd" style="stroke:#3c3c3c;"/>
    </defs>
    <g clip-path="url(#pa53af55b04)">
     <use style="fill:#ffffff;stroke:#3c3c3c;" x="87.36" xlink:href="#m8b2148a6bd" y="112.066402"/>
    </g>
   </g>
   <g id="PathCollection_2">
    <g clip-path="url(#pa53af55b04)">
     <use style="fill:#ffffff;stroke:#3c3c3c;" x="146.88" xlink:href="#m8b2148a6bd" y="117.2573"/>
    </g>
   </g>
   <g id="PathCollection_3">
    <g clip-path="url(#pa53af55b04)">
     <use style="fill:#ffffff;stroke:#3c3c3c;" x="206.4" xlink:href="#m8b2148a6bd" y="107.955065"/>
    </g>
   </g>
   <g id="PathCollection_4">
    <g clip-path="url(#pa53af55b04)">
     <use style="fill:#ffffff;stroke:#3c3c3c;" x="265.92" xlink:href="#m8b2148a6bd" y="115.412364"/>
    </g>
   </g>
   <g id="PathCollection_5">
    <g clip-path="url(#pa53af55b04)">
     <use style="fill:#ffffff;stroke:#3c3c3c;" x="325.44" xlink:href="#m8b2148a6bd" y="112.458027"/>
    </g>
   </g>
   <g id="PathCollection_6">
    <g clip-path="url(#pa53af55b04)">
     <use style="fill:#ffffff;stroke:#3c3c3c;" x="384.96" xlink:href="#m8b2148a6bd" y="112.764683"/>
    </g>
   </g>
  </g>
 </g>
 <defs>
  <clipPath id="pa53af55b04">
   <rect height="266.112" width="357.12" x="57.6" y="41.472"/>
  </clipPath>
 </defs>
</svg>
