<?xml version="1.0" encoding="utf-8" standalone="no"?>
<!DOCTYPE svg PUBLIC "-//W3C//DTD SVG 1.1//EN"
  "http://www.w3.org/Graphics/SVG/1.1/DTD/svg11.dtd">
<!-- Created with matplotlib (https://matplotlib.org/) -->
<svg height="316.271687pt" version="1.1" viewBox="0 0 413.183906 316.271687" width="413.183906pt" xmlns="http://www.w3.org/2000/svg" xmlns:xlink="http://www.w3.org/1999/xlink">
 <defs>
  <style type="text/css">
*{stroke-linecap:butt;stroke-linejoin:round;}
  </style>
 </defs>
 <g id="figure_1">
  <g id="patch_1">
   <path d="M 0 316.271687 
L 413.183906 316.271687 
L 413.183906 0 
L 0 0 
z
" style="fill:#ffffff;"/>
  </g>
  <g id="axes_1">
   <g id="patch_2">
    <path d="M 48.863906 273.312 
L 405.983906 273.312 
L 405.983906 7.2 
L 48.863906 7.2 
z
" style="fill:#ffffff;"/>
   </g>
   <g id="matplotlib.axis_1">
    <g id="xtick_1">
     <g id="text_1">
      <!-- 0 -->
      <defs>
       <path d="M 31.78125 66.40625 
Q 24.171875 66.40625 20.328125 58.90625 
Q 16.5 51.421875 16.5 36.375 
Q 16.5 21.390625 20.328125 13.890625 
Q 24.171875 6.390625 31.78125 6.390625 
Q 39.453125 6.390625 43.28125 13.890625 
Q 47.125 21.390625 47.125 36.375 
Q 47.125 51.421875 43.28125 58.90625 
Q 39.453125 66.40625 31.78125 66.40625 
z
M 31.78125 74.21875 
Q 44.046875 74.21875 50.515625 64.515625 
Q 56.984375 54.828125 56.984375 36.375 
Q 56.984375 17.96875 50.515625 8.265625 
Q 44.046875 -1.421875 31.78125 -1.421875 
Q 19.53125 -1.421875 13.0625 8.265625 
Q 6.59375 17.96875 6.59375 36.375 
Q 6.59375 54.828125 13.0625 64.515625 
Q 19.53125 74.21875 31.78125 74.21875 
z
" id="DejaVuSans-48"/>
      </defs>
      <g style="fill:#262626;" transform="translate(75.124531 291.170281)scale(0.11 -0.11)">
       <use xlink:href="#DejaVuSans-48"/>
      </g>
     </g>
    </g>
    <g id="xtick_2">
     <g id="text_2">
      <!-- 1 -->
      <defs>
       <path d="M 12.40625 8.296875 
L 28.515625 8.296875 
L 28.515625 63.921875 
L 10.984375 60.40625 
L 10.984375 69.390625 
L 28.421875 72.90625 
L 38.28125 72.90625 
L 38.28125 8.296875 
L 54.390625 8.296875 
L 54.390625 0 
L 12.40625 0 
z
" id="DejaVuSans-49"/>
      </defs>
      <g style="fill:#262626;" transform="translate(134.644531 291.170281)scale(0.11 -0.11)">
       <use xlink:href="#DejaVuSans-49"/>
      </g>
     </g>
    </g>
    <g id="xtick_3">
     <g id="text_3">
      <!-- 2 -->
      <defs>
       <path d="M 19.1875 8.296875 
L 53.609375 8.296875 
L 53.609375 0 
L 7.328125 0 
L 7.328125 8.296875 
Q 12.9375 14.109375 22.625 23.890625 
Q 32.328125 33.6875 34.8125 36.53125 
Q 39.546875 41.84375 41.421875 45.53125 
Q 43.3125 49.21875 43.3125 52.78125 
Q 43.3125 58.59375 39.234375 62.25 
Q 35.15625 65.921875 28.609375 65.921875 
Q 23.96875 65.921875 18.8125 64.3125 
Q 13.671875 62.703125 7.8125 59.421875 
L 7.8125 69.390625 
Q 13.765625 71.78125 18.9375 73 
Q 24.125 74.21875 28.421875 74.21875 
Q 39.75 74.21875 46.484375 68.546875 
Q 53.21875 62.890625 53.21875 53.421875 
Q 53.21875 48.921875 51.53125 44.890625 
Q 49.859375 40.875 45.40625 35.40625 
Q 44.1875 33.984375 37.640625 27.21875 
Q 31.109375 20.453125 19.1875 8.296875 
z
" id="DejaVuSans-50"/>
      </defs>
      <g style="fill:#262626;" transform="translate(194.164531 291.170281)scale(0.11 -0.11)">
       <use xlink:href="#DejaVuSans-50"/>
      </g>
     </g>
    </g>
    <g id="xtick_4">
     <g id="text_4">
      <!-- 3 -->
      <defs>
       <path d="M 40.578125 39.3125 
Q 47.65625 37.796875 51.625 33 
Q 55.609375 28.21875 55.609375 21.1875 
Q 55.609375 10.40625 48.1875 4.484375 
Q 40.765625 -1.421875 27.09375 -1.421875 
Q 22.515625 -1.421875 17.65625 -0.515625 
Q 12.796875 0.390625 7.625 2.203125 
L 7.625 11.71875 
Q 11.71875 9.328125 16.59375 8.109375 
Q 21.484375 6.890625 26.8125 6.890625 
Q 36.078125 6.890625 40.9375 10.546875 
Q 45.796875 14.203125 45.796875 21.1875 
Q 45.796875 27.640625 41.28125 31.265625 
Q 36.765625 34.90625 28.71875 34.90625 
L 20.21875 34.90625 
L 20.21875 43.015625 
L 29.109375 43.015625 
Q 36.375 43.015625 40.234375 45.921875 
Q 44.09375 48.828125 44.09375 54.296875 
Q 44.09375 59.90625 40.109375 62.90625 
Q 36.140625 65.921875 28.71875 65.921875 
Q 24.65625 65.921875 20.015625 65.03125 
Q 15.375 64.15625 9.8125 62.3125 
L 9.8125 71.09375 
Q 15.4375 72.65625 20.34375 73.4375 
Q 25.25 74.21875 29.59375 74.21875 
Q 40.828125 74.21875 47.359375 69.109375 
Q 53.90625 64.015625 53.90625 55.328125 
Q 53.90625 49.265625 50.4375 45.09375 
Q 46.96875 40.921875 40.578125 39.3125 
z
" id="DejaVuSans-51"/>
      </defs>
      <g style="fill:#262626;" transform="translate(253.684531 291.170281)scale(0.11 -0.11)">
       <use xlink:href="#DejaVuSans-51"/>
      </g>
     </g>
    </g>
    <g id="xtick_5">
     <g id="text_5">
      <!-- 4 -->
      <defs>
       <path d="M 37.796875 64.3125 
L 12.890625 25.390625 
L 37.796875 25.390625 
z
M 35.203125 72.90625 
L 47.609375 72.90625 
L 47.609375 25.390625 
L 58.015625 25.390625 
L 58.015625 17.1875 
L 47.609375 17.1875 
L 47.609375 0 
L 37.796875 0 
L 37.796875 17.1875 
L 4.890625 17.1875 
L 4.890625 26.703125 
z
" id="DejaVuSans-52"/>
      </defs>
      <g style="fill:#262626;" transform="translate(313.204531 291.170281)scale(0.11 -0.11)">
       <use xlink:href="#DejaVuSans-52"/>
      </g>
     </g>
    </g>
    <g id="xtick_6">
     <g id="text_6">
      <!-- 5 -->
      <defs>
       <path d="M 10.796875 72.90625 
L 49.515625 72.90625 
L 49.515625 64.59375 
L 19.828125 64.59375 
L 19.828125 46.734375 
Q 21.96875 47.46875 24.109375 47.828125 
Q 26.265625 48.1875 28.421875 48.1875 
Q 40.625 48.1875 47.75 41.5 
Q 54.890625 34.8125 54.890625 23.390625 
Q 54.890625 11.625 47.5625 5.09375 
Q 40.234375 -1.421875 26.90625 -1.421875 
Q 22.3125 -1.421875 17.546875 -0.640625 
Q 12.796875 0.140625 7.71875 1.703125 
L 7.71875 11.625 
Q 12.109375 9.234375 16.796875 8.0625 
Q 21.484375 6.890625 26.703125 6.890625 
Q 35.15625 6.890625 40.078125 11.328125 
Q 45.015625 15.765625 45.015625 23.390625 
Q 45.015625 31 40.078125 35.4375 
Q 35.15625 39.890625 26.703125 39.890625 
Q 22.75 39.890625 18.8125 39.015625 
Q 14.890625 38.140625 10.796875 36.28125 
z
" id="DejaVuSans-53"/>
      </defs>
      <g style="fill:#262626;" transform="translate(372.724531 291.170281)scale(0.11 -0.11)">
       <use xlink:href="#DejaVuSans-53"/>
      </g>
     </g>
    </g>
    <g id="text_7">
     <!-- Class label -->
     <defs>
      <path d="M 64.40625 67.28125 
L 64.40625 56.890625 
Q 59.421875 61.53125 53.78125 63.8125 
Q 48.140625 66.109375 41.796875 66.109375 
Q 29.296875 66.109375 22.65625 58.46875 
Q 16.015625 50.828125 16.015625 36.375 
Q 16.015625 21.96875 22.65625 14.328125 
Q 29.296875 6.6875 41.796875 6.6875 
Q 48.140625 6.6875 53.78125 8.984375 
Q 59.421875 11.28125 64.40625 15.921875 
L 64.40625 5.609375 
Q 59.234375 2.09375 53.4375 0.328125 
Q 47.65625 -1.421875 41.21875 -1.421875 
Q 24.65625 -1.421875 15.125 8.703125 
Q 5.609375 18.84375 5.609375 36.375 
Q 5.609375 53.953125 15.125 64.078125 
Q 24.65625 74.21875 41.21875 74.21875 
Q 47.75 74.21875 53.53125 72.484375 
Q 59.328125 70.75 64.40625 67.28125 
z
" id="DejaVuSans-67"/>
      <path d="M 9.421875 75.984375 
L 18.40625 75.984375 
L 18.40625 0 
L 9.421875 0 
z
" id="DejaVuSans-108"/>
      <path d="M 34.28125 27.484375 
Q 23.390625 27.484375 19.1875 25 
Q 14.984375 22.515625 14.984375 16.5 
Q 14.984375 11.71875 18.140625 8.90625 
Q 21.296875 6.109375 26.703125 6.109375 
Q 34.1875 6.109375 38.703125 11.40625 
Q 43.21875 16.703125 43.21875 25.484375 
L 43.21875 27.484375 
z
M 52.203125 31.203125 
L 52.203125 0 
L 43.21875 0 
L 43.21875 8.296875 
Q 40.140625 3.328125 35.546875 0.953125 
Q 30.953125 -1.421875 24.3125 -1.421875 
Q 15.921875 -1.421875 10.953125 3.296875 
Q 6 8.015625 6 15.921875 
Q 6 25.140625 12.171875 29.828125 
Q 18.359375 34.515625 30.609375 34.515625 
L 43.21875 34.515625 
L 43.21875 35.40625 
Q 43.21875 41.609375 39.140625 45 
Q 35.0625 48.390625 27.6875 48.390625 
Q 23 48.390625 18.546875 47.265625 
Q 14.109375 46.140625 10.015625 43.890625 
L 10.015625 52.203125 
Q 14.9375 54.109375 19.578125 55.046875 
Q 24.21875 56 28.609375 56 
Q 40.484375 56 46.34375 49.84375 
Q 52.203125 43.703125 52.203125 31.203125 
z
" id="DejaVuSans-97"/>
      <path d="M 44.28125 53.078125 
L 44.28125 44.578125 
Q 40.484375 46.53125 36.375 47.5 
Q 32.28125 48.484375 27.875 48.484375 
Q 21.1875 48.484375 17.84375 46.4375 
Q 14.5 44.390625 14.5 40.28125 
Q 14.5 37.15625 16.890625 35.375 
Q 19.28125 33.59375 26.515625 31.984375 
L 29.59375 31.296875 
Q 39.15625 29.25 43.1875 25.515625 
Q 47.21875 21.78125 47.21875 15.09375 
Q 47.21875 7.46875 41.1875 3.015625 
Q 35.15625 -1.421875 24.609375 -1.421875 
Q 20.21875 -1.421875 15.453125 -0.5625 
Q 10.6875 0.296875 5.421875 2 
L 5.421875 11.28125 
Q 10.40625 8.6875 15.234375 7.390625 
Q 20.0625 6.109375 24.8125 6.109375 
Q 31.15625 6.109375 34.5625 8.28125 
Q 37.984375 10.453125 37.984375 14.40625 
Q 37.984375 18.0625 35.515625 20.015625 
Q 33.0625 21.96875 24.703125 23.78125 
L 21.578125 24.515625 
Q 13.234375 26.265625 9.515625 29.90625 
Q 5.8125 33.546875 5.8125 39.890625 
Q 5.8125 47.609375 11.28125 51.796875 
Q 16.75 56 26.8125 56 
Q 31.78125 56 36.171875 55.265625 
Q 40.578125 54.546875 44.28125 53.078125 
z
" id="DejaVuSans-115"/>
      <path id="DejaVuSans-32"/>
      <path d="M 48.6875 27.296875 
Q 48.6875 37.203125 44.609375 42.84375 
Q 40.53125 48.484375 33.40625 48.484375 
Q 26.265625 48.484375 22.1875 42.84375 
Q 18.109375 37.203125 18.109375 27.296875 
Q 18.109375 17.390625 22.1875 11.75 
Q 26.265625 6.109375 33.40625 6.109375 
Q 40.53125 6.109375 44.609375 11.75 
Q 48.6875 17.390625 48.6875 27.296875 
z
M 18.109375 46.390625 
Q 20.953125 51.265625 25.265625 53.625 
Q 29.59375 56 35.59375 56 
Q 45.5625 56 51.78125 48.09375 
Q 58.015625 40.1875 58.015625 27.296875 
Q 58.015625 14.40625 51.78125 6.484375 
Q 45.5625 -1.421875 35.59375 -1.421875 
Q 29.59375 -1.421875 25.265625 0.953125 
Q 20.953125 3.328125 18.109375 8.203125 
L 18.109375 0 
L 9.078125 0 
L 9.078125 75.984375 
L 18.109375 75.984375 
z
" id="DejaVuSans-98"/>
      <path d="M 56.203125 29.59375 
L 56.203125 25.203125 
L 14.890625 25.203125 
Q 15.484375 15.921875 20.484375 11.0625 
Q 25.484375 6.203125 34.421875 6.203125 
Q 39.59375 6.203125 44.453125 7.46875 
Q 49.3125 8.734375 54.109375 11.28125 
L 54.109375 2.78125 
Q 49.265625 0.734375 44.1875 -0.34375 
Q 39.109375 -1.421875 33.890625 -1.421875 
Q 20.796875 -1.421875 13.15625 6.1875 
Q 5.515625 13.8125 5.515625 26.8125 
Q 5.515625 40.234375 12.765625 48.109375 
Q 20.015625 56 32.328125 56 
Q 43.359375 56 49.78125 48.890625 
Q 56.203125 41.796875 56.203125 29.59375 
z
M 47.21875 32.234375 
Q 47.125 39.59375 43.09375 43.984375 
Q 39.0625 48.390625 32.421875 48.390625 
Q 24.90625 48.390625 20.390625 44.140625 
Q 15.875 39.890625 15.1875 32.171875 
z
" id="DejaVuSans-101"/>
     </defs>
     <g style="fill:#262626;" transform="translate(195.220781 306.576062)scale(0.12 -0.12)">
      <use xlink:href="#DejaVuSans-67"/>
      <use x="69.824219" xlink:href="#DejaVuSans-108"/>
      <use x="97.607422" xlink:href="#DejaVuSans-97"/>
      <use x="158.886719" xlink:href="#DejaVuSans-115"/>
      <use x="210.986328" xlink:href="#DejaVuSans-115"/>
      <use x="263.085938" xlink:href="#DejaVuSans-32"/>
      <use x="294.873047" xlink:href="#DejaVuSans-108"/>
      <use x="322.65625" xlink:href="#DejaVuSans-97"/>
      <use x="383.935547" xlink:href="#DejaVuSans-98"/>
      <use x="447.412109" xlink:href="#DejaVuSans-101"/>
      <use x="508.935547" xlink:href="#DejaVuSans-108"/>
     </g>
    </g>
   </g>
   <g id="matplotlib.axis_2">
    <g id="ytick_1">
     <g id="line2d_1">
      <path clip-path="url(#p679739df29)" d="M 48.863906 270.004499 
L 405.983906 270.004499 
" style="fill:none;stroke:#cccccc;stroke-linecap:round;"/>
     </g>
     <g id="text_8">
      <!-- −2 -->
      <defs>
       <path d="M 10.59375 35.5 
L 73.1875 35.5 
L 73.1875 27.203125 
L 10.59375 27.203125 
z
" id="DejaVuSans-8722"/>
      </defs>
      <g style="fill:#262626;" transform="translate(23.1475 274.18364)scale(0.11 -0.11)">
       <use xlink:href="#DejaVuSans-8722"/>
       <use x="83.789062" xlink:href="#DejaVuSans-50"/>
      </g>
     </g>
    </g>
    <g id="ytick_2">
     <g id="line2d_2">
      <path clip-path="url(#p679739df29)" d="M 48.863906 231.856566 
L 405.983906 231.856566 
" style="fill:none;stroke:#cccccc;stroke-linecap:round;"/>
     </g>
     <g id="text_9">
      <!-- −1 -->
      <g style="fill:#262626;" transform="translate(23.1475 236.035706)scale(0.11 -0.11)">
       <use xlink:href="#DejaVuSans-8722"/>
       <use x="83.789062" xlink:href="#DejaVuSans-49"/>
      </g>
     </g>
    </g>
    <g id="ytick_3">
     <g id="line2d_3">
      <path clip-path="url(#p679739df29)" d="M 48.863906 193.708633 
L 405.983906 193.708633 
" style="fill:none;stroke:#cccccc;stroke-linecap:round;"/>
     </g>
     <g id="text_10">
      <!-- 0 -->
      <g style="fill:#262626;" transform="translate(32.365156 197.887773)scale(0.11 -0.11)">
       <use xlink:href="#DejaVuSans-48"/>
      </g>
     </g>
    </g>
    <g id="ytick_4">
     <g id="line2d_4">
      <path clip-path="url(#p679739df29)" d="M 48.863906 155.5607 
L 405.983906 155.5607 
" style="fill:none;stroke:#cccccc;stroke-linecap:round;"/>
     </g>
     <g id="text_11">
      <!-- 1 -->
      <g style="fill:#262626;" transform="translate(32.365156 159.73984)scale(0.11 -0.11)">
       <use xlink:href="#DejaVuSans-49"/>
      </g>
     </g>
    </g>
    <g id="ytick_5">
     <g id="line2d_5">
      <path clip-path="url(#p679739df29)" d="M 48.863906 117.412767 
L 405.983906 117.412767 
" style="fill:none;stroke:#cccccc;stroke-linecap:round;"/>
     </g>
     <g id="text_12">
      <!-- 2 -->
      <g style="fill:#262626;" transform="translate(32.365156 121.591907)scale(0.11 -0.11)">
       <use xlink:href="#DejaVuSans-50"/>
      </g>
     </g>
    </g>
    <g id="ytick_6">
     <g id="line2d_6">
      <path clip-path="url(#p679739df29)" d="M 48.863906 79.264834 
L 405.983906 79.264834 
" style="fill:none;stroke:#cccccc;stroke-linecap:round;"/>
     </g>
     <g id="text_13">
      <!-- 3 -->
      <g style="fill:#262626;" transform="translate(32.365156 83.443974)scale(0.11 -0.11)">
       <use xlink:href="#DejaVuSans-51"/>
      </g>
     </g>
    </g>
    <g id="ytick_7">
     <g id="line2d_7">
      <path clip-path="url(#p679739df29)" d="M 48.863906 41.116901 
L 405.983906 41.116901 
" style="fill:none;stroke:#cccccc;stroke-linecap:round;"/>
     </g>
     <g id="text_14">
      <!-- 4 -->
      <g style="fill:#262626;" transform="translate(32.365156 45.296041)scale(0.11 -0.11)">
       <use xlink:href="#DejaVuSans-52"/>
      </g>
     </g>
    </g>
    <g id="text_15">
     <!-- CoN_std -->
     <defs>
      <path d="M 30.609375 48.390625 
Q 23.390625 48.390625 19.1875 42.75 
Q 14.984375 37.109375 14.984375 27.296875 
Q 14.984375 17.484375 19.15625 11.84375 
Q 23.34375 6.203125 30.609375 6.203125 
Q 37.796875 6.203125 41.984375 11.859375 
Q 46.1875 17.53125 46.1875 27.296875 
Q 46.1875 37.015625 41.984375 42.703125 
Q 37.796875 48.390625 30.609375 48.390625 
z
M 30.609375 56 
Q 42.328125 56 49.015625 48.375 
Q 55.71875 40.765625 55.71875 27.296875 
Q 55.71875 13.875 49.015625 6.21875 
Q 42.328125 -1.421875 30.609375 -1.421875 
Q 18.84375 -1.421875 12.171875 6.21875 
Q 5.515625 13.875 5.515625 27.296875 
Q 5.515625 40.765625 12.171875 48.375 
Q 18.84375 56 30.609375 56 
z
" id="DejaVuSans-111"/>
      <path d="M 9.8125 72.90625 
L 23.09375 72.90625 
L 55.421875 11.921875 
L 55.421875 72.90625 
L 64.984375 72.90625 
L 64.984375 0 
L 51.703125 0 
L 19.390625 60.984375 
L 19.390625 0 
L 9.8125 0 
z
" id="DejaVuSans-78"/>
      <path d="M 50.984375 -16.609375 
L 50.984375 -23.578125 
L -0.984375 -23.578125 
L -0.984375 -16.609375 
z
" id="DejaVuSans-95"/>
      <path d="M 18.3125 70.21875 
L 18.3125 54.6875 
L 36.8125 54.6875 
L 36.8125 47.703125 
L 18.3125 47.703125 
L 18.3125 18.015625 
Q 18.3125 11.328125 20.140625 9.421875 
Q 21.96875 7.515625 27.59375 7.515625 
L 36.8125 7.515625 
L 36.8125 0 
L 27.59375 0 
Q 17.1875 0 13.234375 3.875 
Q 9.28125 7.765625 9.28125 18.015625 
L 9.28125 47.703125 
L 2.6875 47.703125 
L 2.6875 54.6875 
L 9.28125 54.6875 
L 9.28125 70.21875 
z
" id="DejaVuSans-116"/>
      <path d="M 45.40625 46.390625 
L 45.40625 75.984375 
L 54.390625 75.984375 
L 54.390625 0 
L 45.40625 0 
L 45.40625 8.203125 
Q 42.578125 3.328125 38.25 0.953125 
Q 33.9375 -1.421875 27.875 -1.421875 
Q 17.96875 -1.421875 11.734375 6.484375 
Q 5.515625 14.40625 5.515625 27.296875 
Q 5.515625 40.1875 11.734375 48.09375 
Q 17.96875 56 27.875 56 
Q 33.9375 56 38.25 53.625 
Q 42.578125 51.265625 45.40625 46.390625 
z
M 14.796875 27.296875 
Q 14.796875 17.390625 18.875 11.75 
Q 22.953125 6.109375 30.078125 6.109375 
Q 37.203125 6.109375 41.296875 11.75 
Q 45.40625 17.390625 45.40625 27.296875 
Q 45.40625 37.203125 41.296875 42.84375 
Q 37.203125 48.484375 30.078125 48.484375 
Q 22.953125 48.484375 18.875 42.84375 
Q 14.796875 37.203125 14.796875 27.296875 
z
" id="DejaVuSans-100"/>
     </defs>
     <g style="fill:#262626;" transform="translate(16.318125 164.892562)rotate(-90)scale(0.12 -0.12)">
      <use xlink:href="#DejaVuSans-67"/>
      <use x="69.824219" xlink:href="#DejaVuSans-111"/>
      <use x="131.005859" xlink:href="#DejaVuSans-78"/>
      <use x="205.810547" xlink:href="#DejaVuSans-95"/>
      <use x="255.810547" xlink:href="#DejaVuSans-115"/>
      <use x="307.910156" xlink:href="#DejaVuSans-116"/>
      <use x="347.119141" xlink:href="#DejaVuSans-100"/>
     </g>
    </g>
   </g>
   <g id="PolyCollection_1">
    <defs>
     <path d="M 82.651252 -78.662611 
L 74.59656 -78.662611 
L 73.201129 -79.780041 
L 71.494946 -80.897471 
L 69.473671 -82.014901 
L 67.157165 -83.132331 
L 64.594171 -84.249761 
L 61.864419 -85.36719 
L 59.077184 -86.48462 
L 56.365739 -87.60205 
L 53.877762 -88.71948 
L 51.762477 -89.83691 
L 50.156004 -90.95434 
L 49.166886 -92.07177 
L 48.863906 -93.189199 
L 49.268082 -94.306629 
L 50.35013 -95.424059 
L 52.033794 -96.541489 
L 54.204503 -97.658919 
L 56.721985 -98.776349 
L 59.434877 -99.893778 
L 62.19525 -101.011208 
L 64.871125 -102.128638 
L 67.355632 -103.246068 
L 69.572127 -104.363498 
L 71.475301 -105.480928 
L 73.048895 -106.598358 
L 74.30101 -107.715787 
L 75.258097 -108.833217 
L 75.95865 -109.950647 
L 76.447393 -111.068077 
L 76.77043 -112.185507 
L 76.971599 -113.302937 
L 77.089982 -114.420367 
L 77.158466 -115.537796 
L 77.203114 -116.655226 
L 77.243159 -117.772656 
L 77.291448 -118.890086 
L 77.355184 -120.007516 
L 77.436878 -121.124946 
L 77.535416 -122.242375 
L 77.647161 -123.359805 
L 77.767012 -124.477235 
L 77.889357 -125.594665 
L 78.008841 -126.712095 
L 78.120934 -127.829525 
L 78.222264 -128.946955 
L 78.310734 -130.064384 
L 78.385476 -131.181814 
L 78.446658 -132.299244 
L 78.495234 -133.416674 
L 78.532665 -134.534104 
L 78.56066 -135.651534 
L 78.58096 -136.768964 
L 78.595176 -137.886393 
L 78.604692 -139.003823 
L 78.610599 -140.121253 
L 78.613679 -141.238683 
L 78.614407 -142.356113 
L 78.612961 -143.473543 
L 78.609243 -144.590972 
L 78.602902 -145.708402 
L 78.593365 -146.825832 
L 78.57987 -147.943262 
L 78.561525 -149.060692 
L 78.53738 -150.178122 
L 78.506522 -151.295552 
L 78.46819 -152.412981 
L 78.421903 -153.530411 
L 78.367573 -154.647841 
L 78.305605 -155.765271 
L 78.236952 -156.882701 
L 78.163107 -158.000131 
L 78.086039 -159.117561 
L 78.008063 -160.23499 
L 77.931669 -161.35242 
L 77.859332 -162.46985 
L 77.793333 -163.58728 
L 77.735625 -164.70471 
L 77.687754 -165.82214 
L 77.650846 -166.93957 
L 77.625651 -168.056999 
L 77.612607 -169.174429 
L 77.611917 -170.291859 
L 77.623592 -171.409289 
L 77.647451 -172.526719 
L 77.683085 -173.644149 
L 77.729784 -174.761578 
L 77.786466 -175.879008 
L 77.851631 -176.996438 
L 77.923371 -178.113868 
L 77.999434 -179.231298 
L 78.077358 -180.348728 
L 78.154647 -181.466158 
L 78.228956 -182.583587 
L 78.298271 -183.701017 
L 78.361042 -184.818447 
L 78.416255 -185.935877 
L 78.463449 -187.053307 
L 78.502663 -188.170737 
L 78.534347 -189.288167 
L 78.713465 -189.288167 
L 78.713465 -189.288167 
L 78.74515 -188.170737 
L 78.784363 -187.053307 
L 78.831557 -185.935877 
L 78.886771 -184.818447 
L 78.949541 -183.701017 
L 79.018857 -182.583587 
L 79.093166 -181.466158 
L 79.170454 -180.348728 
L 79.248379 -179.231298 
L 79.324441 -178.113868 
L 79.396181 -176.996438 
L 79.461347 -175.879008 
L 79.518028 -174.761578 
L 79.564727 -173.644149 
L 79.600361 -172.526719 
L 79.624221 -171.409289 
L 79.635895 -170.291859 
L 79.635206 -169.174429 
L 79.622162 -168.056999 
L 79.596966 -166.93957 
L 79.560059 -165.82214 
L 79.512188 -164.70471 
L 79.45448 -163.58728 
L 79.388481 -162.46985 
L 79.316143 -161.35242 
L 79.239749 -160.23499 
L 79.161773 -159.117561 
L 79.084705 -158.000131 
L 79.01086 -156.882701 
L 78.942207 -155.765271 
L 78.88024 -154.647841 
L 78.82591 -153.530411 
L 78.779622 -152.412981 
L 78.741291 -151.295552 
L 78.710433 -150.178122 
L 78.686287 -149.060692 
L 78.667943 -147.943262 
L 78.654448 -146.825832 
L 78.64491 -145.708402 
L 78.63857 -144.590972 
L 78.634852 -143.473543 
L 78.633405 -142.356113 
L 78.634133 -141.238683 
L 78.637214 -140.121253 
L 78.643121 -139.003823 
L 78.652636 -137.886393 
L 78.666853 -136.768964 
L 78.687152 -135.651534 
L 78.715147 -134.534104 
L 78.752578 -133.416674 
L 78.801155 -132.299244 
L 78.862336 -131.181814 
L 78.937078 -130.064384 
L 79.025549 -128.946955 
L 79.126878 -127.829525 
L 79.238972 -126.712095 
L 79.358456 -125.594665 
L 79.4808 -124.477235 
L 79.600651 -123.359805 
L 79.712396 -122.242375 
L 79.810934 -121.124946 
L 79.892629 -120.007516 
L 79.956364 -118.890086 
L 80.004653 -117.772656 
L 80.044699 -116.655226 
L 80.089346 -115.537796 
L 80.15783 -114.420367 
L 80.276214 -113.302937 
L 80.477382 -112.185507 
L 80.80042 -111.068077 
L 81.289162 -109.950647 
L 81.989716 -108.833217 
L 82.946802 -107.715787 
L 84.198918 -106.598358 
L 85.772512 -105.480928 
L 87.675685 -104.363498 
L 89.89218 -103.246068 
L 92.376688 -102.128638 
L 95.052563 -101.011208 
L 97.812935 -99.893778 
L 100.525828 -98.776349 
L 103.043309 -97.658919 
L 105.214019 -96.541489 
L 106.897682 -95.424059 
L 107.97973 -94.306629 
L 108.383906 -93.189199 
L 108.080926 -92.07177 
L 107.091809 -90.95434 
L 105.485336 -89.83691 
L 103.37005 -88.71948 
L 100.882073 -87.60205 
L 98.170629 -86.48462 
L 95.383394 -85.36719 
L 92.653641 -84.249761 
L 90.090648 -83.132331 
L 87.774142 -82.014901 
L 85.752867 -80.897471 
L 84.046683 -79.780041 
L 82.651252 -78.662611 
z
" id="ma510a72d80" style="stroke:#3c3c3c;stroke-width:1.5;"/>
    </defs>
    <g clip-path="url(#p679739df29)">
     <use style="fill:#597dbf;stroke:#3c3c3c;stroke-width:1.5;" x="0" xlink:href="#ma510a72d80" y="316.271687"/>
    </g>
   </g>
   <g id="PolyCollection_2">
    <defs>
     <path d="M 138.943968 -55.055688 
L 137.343844 -55.055688 
L 137.140255 -57.271607 
L 136.901702 -59.487527 
L 136.626986 -61.703447 
L 136.316223 -63.919367 
L 135.971108 -66.135286 
L 135.595128 -68.351206 
L 135.193678 -70.567126 
L 134.774059 -72.783046 
L 134.345334 -74.998965 
L 133.918041 -77.214885 
L 133.503754 -79.430805 
L 133.114529 -81.646725 
L 132.762255 -83.862644 
L 132.457963 -86.078564 
L 132.211143 -88.294484 
L 132.02914 -90.510404 
L 131.916657 -92.726323 
L 131.87544 -94.942243 
L 131.904147 -97.158163 
L 131.998429 -99.374083 
L 132.151217 -101.590002 
L 132.35317 -103.805922 
L 132.593266 -106.021842 
L 132.859467 -108.237762 
L 133.139416 -110.453681 
L 133.421101 -112.669601 
L 133.693448 -114.885521 
L 133.946802 -117.101441 
L 134.173281 -119.31736 
L 134.366991 -121.53328 
L 134.524101 -123.7492 
L 134.642807 -125.96512 
L 134.723193 -128.181039 
L 134.767018 -130.396959 
L 134.777459 -132.612879 
L 134.758828 -134.828799 
L 134.716274 -137.044718 
L 134.655506 -139.260638 
L 134.582525 -141.476558 
L 134.503385 -143.692478 
L 134.42398 -145.908397 
L 134.34986 -148.124317 
L 134.286075 -150.340237 
L 134.23705 -152.556157 
L 134.206484 -154.772076 
L 134.197278 -156.987996 
L 134.211483 -159.203916 
L 134.250279 -161.419836 
L 134.31398 -163.635755 
L 134.402059 -165.851675 
L 134.5132 -168.067595 
L 134.645379 -170.283515 
L 134.795956 -172.499434 
L 134.9618 -174.715354 
L 135.139419 -176.931274 
L 135.325108 -179.147194 
L 135.515095 -181.363113 
L 135.705688 -183.579033 
L 135.89341 -185.794953 
L 136.075117 -188.010873 
L 136.248096 -190.226792 
L 136.410128 -192.442712 
L 136.559529 -194.658632 
L 136.69516 -196.874552 
L 136.81641 -199.090471 
L 136.923156 -201.306391 
L 137.01571 -203.522311 
L 137.094751 -205.738231 
L 137.161259 -207.95415 
L 137.216444 -210.17007 
L 137.261682 -212.38599 
L 137.298456 -214.60191 
L 137.328307 -216.817829 
L 137.352787 -219.033749 
L 137.37342 -221.249669 
L 137.391662 -223.465589 
L 137.40887 -225.681508 
L 137.426265 -227.897428 
L 137.4449 -230.113348 
L 137.465632 -232.329268 
L 137.489101 -234.545187 
L 137.515709 -236.761107 
L 137.545617 -238.977027 
L 137.578751 -241.192947 
L 137.614818 -243.408866 
L 137.653337 -245.624786 
L 137.693675 -247.840706 
L 137.735099 -250.056626 
L 137.776822 -252.272545 
L 137.818054 -254.488465 
L 137.858047 -256.704385 
L 137.896139 -258.920305 
L 137.931776 -261.136224 
L 137.964539 -263.352144 
L 137.994146 -265.568064 
L 138.020453 -267.783984 
L 138.043441 -269.999903 
L 138.063204 -272.215823 
L 138.07992 -274.431743 
L 138.207892 -274.431743 
L 138.207892 -274.431743 
L 138.224609 -272.215823 
L 138.244371 -269.999903 
L 138.26736 -267.783984 
L 138.293666 -265.568064 
L 138.323273 -263.352144 
L 138.356036 -261.136224 
L 138.391674 -258.920305 
L 138.429765 -256.704385 
L 138.469759 -254.488465 
L 138.51099 -252.272545 
L 138.552713 -250.056626 
L 138.594138 -247.840706 
L 138.634476 -245.624786 
L 138.672994 -243.408866 
L 138.709061 -241.192947 
L 138.742195 -238.977027 
L 138.772104 -236.761107 
L 138.798711 -234.545187 
L 138.82218 -232.329268 
L 138.842913 -230.113348 
L 138.861548 -227.897428 
L 138.878942 -225.681508 
L 138.89615 -223.465589 
L 138.914393 -221.249669 
L 138.935025 -219.033749 
L 138.959505 -216.817829 
L 138.989357 -214.60191 
L 139.026131 -212.38599 
L 139.071368 -210.17007 
L 139.126553 -207.95415 
L 139.193062 -205.738231 
L 139.272103 -203.522311 
L 139.364657 -201.306391 
L 139.471403 -199.090471 
L 139.592652 -196.874552 
L 139.728284 -194.658632 
L 139.877685 -192.442712 
L 140.039716 -190.226792 
L 140.212695 -188.010873 
L 140.394403 -185.794953 
L 140.582124 -183.579033 
L 140.772717 -181.363113 
L 140.962704 -179.147194 
L 141.148393 -176.931274 
L 141.326013 -174.715354 
L 141.491857 -172.499434 
L 141.642434 -170.283515 
L 141.774612 -168.067595 
L 141.885754 -165.851675 
L 141.973833 -163.635755 
L 142.037534 -161.419836 
L 142.07633 -159.203916 
L 142.090534 -156.987996 
L 142.081328 -154.772076 
L 142.050763 -152.556157 
L 142.001738 -150.340237 
L 141.937953 -148.124317 
L 141.863832 -145.908397 
L 141.784427 -143.692478 
L 141.705288 -141.476558 
L 141.632307 -139.260638 
L 141.571539 -137.044718 
L 141.528985 -134.828799 
L 141.510353 -132.612879 
L 141.520795 -130.396959 
L 141.56462 -128.181039 
L 141.645005 -125.96512 
L 141.763711 -123.7492 
L 141.920821 -121.53328 
L 142.114531 -119.31736 
L 142.341011 -117.101441 
L 142.594365 -114.885521 
L 142.866711 -112.669601 
L 143.148396 -110.453681 
L 143.428345 -108.237762 
L 143.694547 -106.021842 
L 143.934642 -103.805922 
L 144.136595 -101.590002 
L 144.289383 -99.374083 
L 144.383666 -97.158163 
L 144.412372 -94.942243 
L 144.371155 -92.726323 
L 144.258673 -90.510404 
L 144.076669 -88.294484 
L 143.82985 -86.078564 
L 143.525557 -83.862644 
L 143.173283 -81.646725 
L 142.784059 -79.430805 
L 142.369772 -77.214885 
L 141.942478 -74.998965 
L 141.513754 -72.783046 
L 141.094134 -70.567126 
L 140.692684 -68.351206 
L 140.316704 -66.135286 
L 139.971589 -63.919367 
L 139.660826 -61.703447 
L 139.386111 -59.487527 
L 139.147557 -57.271607 
L 138.943968 -55.055688 
z
" id="me5ba48e934" style="stroke:#3c3c3c;stroke-width:1.5;"/>
    </defs>
    <g clip-path="url(#p679739df29)">
     <use style="fill:#d98b5f;stroke:#3c3c3c;stroke-width:1.5;" x="0" xlink:href="#me5ba48e934" y="316.271687"/>
    </g>
   </g>
   <g id="PolyCollection_3">
    <defs>
     <path d="M 198.865156 -61.524703 
L 196.462656 -61.524703 
L 196.190682 -63.179304 
L 195.876854 -64.833904 
L 195.519837 -66.488504 
L 195.119572 -68.143105 
L 194.677535 -69.797705 
L 194.196947 -71.452306 
L 193.682927 -73.106906 
L 193.142549 -74.761506 
L 192.584801 -76.416107 
L 192.02042 -78.070707 
L 191.461609 -79.725308 
L 190.92163 -81.379908 
L 190.414297 -83.034508 
L 189.953387 -84.689109 
L 189.552008 -86.343709 
L 189.221951 -87.99831 
L 188.973086 -89.65291 
L 188.812829 -91.30751 
L 188.745726 -92.962111 
L 188.773187 -94.616711 
L 188.893382 -96.271311 
L 189.101311 -97.925912 
L 189.389054 -99.580512 
L 189.74616 -101.235113 
L 190.160171 -102.889713 
L 190.617228 -104.544313 
L 191.102718 -106.198914 
L 191.601939 -107.853514 
L 192.100709 -109.508115 
L 192.585914 -111.162715 
L 193.045959 -112.817315 
L 193.471094 -114.471916 
L 193.853626 -116.126516 
L 194.18801 -117.781117 
L 194.470819 -119.435717 
L 194.700637 -121.090317 
L 194.877861 -122.744918 
L 195.004462 -124.399518 
L 195.083707 -126.054118 
L 195.11988 -127.708719 
L 195.117993 -129.363319 
L 195.083529 -131.01792 
L 195.0222 -132.67252 
L 194.939741 -134.32712 
L 194.841734 -135.981721 
L 194.733468 -137.636321 
L 194.619829 -139.290922 
L 194.50521 -140.945522 
L 194.393462 -142.600122 
L 194.287855 -144.254723 
L 194.191066 -145.909323 
L 194.105191 -147.563923 
L 194.031764 -149.218524 
L 193.971805 -150.873124 
L 193.925876 -152.527725 
L 193.894152 -154.182325 
L 193.876496 -155.836925 
L 193.872546 -157.491526 
L 193.881789 -159.146126 
L 193.903647 -160.800727 
L 193.937532 -162.455327 
L 193.982899 -164.109927 
L 194.039279 -165.764528 
L 194.106288 -167.419128 
L 194.183622 -169.073729 
L 194.27103 -170.728329 
L 194.368276 -172.382929 
L 194.475095 -174.03753 
L 194.591142 -175.69213 
L 194.715945 -177.34673 
L 194.84887 -179.001331 
L 194.989097 -180.655931 
L 195.135606 -182.310532 
L 195.287187 -183.965132 
L 195.442465 -185.619732 
L 195.599935 -187.274333 
L 195.75801 -188.928933 
L 195.915078 -190.583534 
L 196.069555 -192.238134 
L 196.219942 -193.892734 
L 196.364874 -195.547335 
L 196.503158 -197.201935 
L 196.633804 -198.856535 
L 196.756039 -200.511136 
L 196.869319 -202.165736 
L 196.97332 -203.820337 
L 197.067927 -205.474937 
L 197.153211 -207.129537 
L 197.229411 -208.784138 
L 197.296899 -210.438738 
L 197.356153 -212.093339 
L 197.407735 -213.747939 
L 197.452255 -215.402539 
L 197.490354 -217.05714 
L 197.522682 -218.71174 
L 197.54988 -220.366341 
L 197.572566 -222.020941 
L 197.591326 -223.675541 
L 197.606704 -225.330142 
L 197.721109 -225.330142 
L 197.721109 -225.330142 
L 197.736486 -223.675541 
L 197.755246 -222.020941 
L 197.777933 -220.366341 
L 197.805131 -218.71174 
L 197.837459 -217.05714 
L 197.875558 -215.402539 
L 197.920078 -213.747939 
L 197.971659 -212.093339 
L 198.030914 -210.438738 
L 198.098401 -208.784138 
L 198.174601 -207.129537 
L 198.259886 -205.474937 
L 198.354492 -203.820337 
L 198.458493 -202.165736 
L 198.571773 -200.511136 
L 198.694009 -198.856535 
L 198.824654 -197.201935 
L 198.962938 -195.547335 
L 199.107871 -193.892734 
L 199.258258 -192.238134 
L 199.412735 -190.583534 
L 199.569803 -188.928933 
L 199.727878 -187.274333 
L 199.885348 -185.619732 
L 200.040626 -183.965132 
L 200.192207 -182.310532 
L 200.338715 -180.655931 
L 200.478942 -179.001331 
L 200.611868 -177.34673 
L 200.736671 -175.69213 
L 200.852717 -174.03753 
L 200.959536 -172.382929 
L 201.056782 -170.728329 
L 201.14419 -169.073729 
L 201.221524 -167.419128 
L 201.288534 -165.764528 
L 201.344914 -164.109927 
L 201.390281 -162.455327 
L 201.424165 -160.800727 
L 201.446023 -159.146126 
L 201.455267 -157.491526 
L 201.451316 -155.836925 
L 201.433661 -154.182325 
L 201.401936 -152.527725 
L 201.356008 -150.873124 
L 201.296049 -149.218524 
L 201.222622 -147.563923 
L 201.136746 -145.909323 
L 201.039958 -144.254723 
L 200.934351 -142.600122 
L 200.822602 -140.945522 
L 200.707984 -139.290922 
L 200.594344 -137.636321 
L 200.486079 -135.981721 
L 200.388072 -134.32712 
L 200.305612 -132.67252 
L 200.244283 -131.01792 
L 200.209819 -129.363319 
L 200.207933 -127.708719 
L 200.244105 -126.054118 
L 200.323351 -124.399518 
L 200.449951 -122.744918 
L 200.627175 -121.090317 
L 200.856993 -119.435717 
L 201.139803 -117.781117 
L 201.474186 -116.126516 
L 201.856719 -114.471916 
L 202.281854 -112.817315 
L 202.741898 -111.162715 
L 203.227104 -109.508115 
L 203.725873 -107.853514 
L 204.225094 -106.198914 
L 204.710585 -104.544313 
L 205.167641 -102.889713 
L 205.581652 -101.235113 
L 205.938759 -99.580512 
L 206.226501 -97.925912 
L 206.434431 -96.271311 
L 206.554625 -94.616711 
L 206.582086 -92.962111 
L 206.514984 -91.30751 
L 206.354727 -89.65291 
L 206.105862 -87.99831 
L 205.775805 -86.343709 
L 205.374425 -84.689109 
L 204.913516 -83.034508 
L 204.406183 -81.379908 
L 203.866203 -79.725308 
L 203.307392 -78.070707 
L 202.743012 -76.416107 
L 202.185264 -74.761506 
L 201.644886 -73.106906 
L 201.130865 -71.452306 
L 200.650278 -69.797705 
L 200.20824 -68.143105 
L 199.807975 -66.488504 
L 199.450958 -64.833904 
L 199.137131 -63.179304 
L 198.865156 -61.524703 
z
" id="m775e79ac8c" style="stroke:#3c3c3c;stroke-width:1.5;"/>
    </defs>
    <g clip-path="url(#p679739df29)">
     <use style="fill:#75bf71;stroke:#3c3c3c;stroke-width:1.5;" x="0" xlink:href="#m775e79ac8c" y="316.271687"/>
    </g>
   </g>
   <g id="PolyCollection_4">
    <defs>
     <path d="M 258.070835 -57.436936 
L 256.296978 -57.436936 
L 256.030916 -59.856519 
L 255.712285 -62.276102 
L 255.339707 -64.695686 
L 254.91471 -67.115269 
L 254.442319 -69.534852 
L 253.931417 -71.954436 
L 253.3948 -74.374019 
L 252.848846 -76.793602 
L 252.312763 -79.213186 
L 251.80745 -81.632769 
L 251.354038 -84.052353 
L 250.97224 -86.471936 
L 250.678701 -88.891519 
L 250.485514 -91.311103 
L 250.399105 -93.730686 
L 250.419615 -96.150269 
L 250.540867 -98.569853 
L 250.750932 -100.989436 
L 251.033208 -103.409019 
L 251.367905 -105.828603 
L 251.73372 -108.248186 
L 252.109537 -110.667769 
L 252.47594 -113.087353 
L 252.816415 -115.506936 
L 253.118132 -117.926519 
L 253.372284 -120.346103 
L 253.574026 -122.765686 
L 253.722074 -125.18527 
L 253.818089 -127.604853 
L 253.865952 -130.024436 
L 253.871048 -132.44402 
L 253.839628 -134.863603 
L 253.778318 -137.283186 
L 253.693783 -139.70277 
L 253.592549 -142.122353 
L 253.480946 -144.541936 
L 253.365126 -146.96152 
L 253.251129 -149.381103 
L 253.144923 -151.800686 
L 253.052413 -154.22027 
L 252.979373 -156.639853 
L 252.931308 -159.059436 
L 252.913241 -161.47902 
L 252.929448 -163.898603 
L 252.98317 -166.318187 
L 253.076334 -168.73777 
L 253.209328 -171.157353 
L 253.380853 -173.576937 
L 253.5879 -175.99652 
L 253.82585 -178.416103 
L 254.088697 -180.835687 
L 254.369401 -183.25527 
L 254.660306 -185.674853 
L 254.953618 -188.094437 
L 255.241864 -190.51402 
L 255.518319 -192.933603 
L 255.777336 -195.353187 
L 256.01457 -197.77277 
L 256.227085 -200.192353 
L 256.413332 -202.611937 
L 256.573033 -205.03152 
L 256.706982 -207.451103 
L 256.816799 -209.870687 
L 256.904673 -212.29027 
L 256.973101 -214.709854 
L 257.024673 -217.129437 
L 257.061894 -219.54902 
L 257.08706 -221.968604 
L 257.102188 -224.388187 
L 257.108992 -226.80777 
L 257.108902 -229.227354 
L 257.103105 -231.646937 
L 257.092611 -234.06652 
L 257.078318 -236.486104 
L 257.061077 -238.905687 
L 257.041742 -241.32527 
L 257.021208 -243.744854 
L 257.000414 -246.164437 
L 256.980334 -248.58402 
L 256.961949 -251.003604 
L 256.946189 -253.423187 
L 256.933884 -255.842771 
L 256.9257 -258.262354 
L 256.922092 -260.681937 
L 256.923265 -263.101521 
L 256.92916 -265.521104 
L 256.93946 -267.940687 
L 256.95362 -270.360271 
L 256.970916 -272.779854 
L 256.990506 -275.199437 
L 257.011496 -277.619021 
L 257.033011 -280.038604 
L 257.05425 -282.458187 
L 257.074532 -284.877771 
L 257.093323 -287.297354 
L 257.110254 -289.716937 
L 257.125113 -292.136521 
L 257.13783 -294.556104 
L 257.148455 -296.975687 
L 257.219358 -296.975687 
L 257.219358 -296.975687 
L 257.229982 -294.556104 
L 257.242699 -292.136521 
L 257.257558 -289.716937 
L 257.274489 -287.297354 
L 257.293281 -284.877771 
L 257.313562 -282.458187 
L 257.334801 -280.038604 
L 257.356316 -277.619021 
L 257.377307 -275.199437 
L 257.396896 -272.779854 
L 257.414192 -270.360271 
L 257.428352 -267.940687 
L 257.438652 -265.521104 
L 257.444547 -263.101521 
L 257.44572 -260.681937 
L 257.442113 -258.262354 
L 257.433929 -255.842771 
L 257.421624 -253.423187 
L 257.405864 -251.003604 
L 257.387478 -248.58402 
L 257.367399 -246.164437 
L 257.346604 -243.744854 
L 257.32607 -241.32527 
L 257.306736 -238.905687 
L 257.289495 -236.486104 
L 257.275201 -234.06652 
L 257.264707 -231.646937 
L 257.258911 -229.227354 
L 257.25882 -226.80777 
L 257.265625 -224.388187 
L 257.280752 -221.968604 
L 257.305918 -219.54902 
L 257.343139 -217.129437 
L 257.394712 -214.709854 
L 257.46314 -212.29027 
L 257.551013 -209.870687 
L 257.660831 -207.451103 
L 257.794779 -205.03152 
L 257.95448 -202.611937 
L 258.140727 -200.192353 
L 258.353242 -197.77277 
L 258.590477 -195.353187 
L 258.849493 -192.933603 
L 259.125948 -190.51402 
L 259.414195 -188.094437 
L 259.707506 -185.674853 
L 259.998412 -183.25527 
L 260.279116 -180.835687 
L 260.541963 -178.416103 
L 260.779912 -175.99652 
L 260.98696 -173.576937 
L 261.158485 -171.157353 
L 261.291478 -168.73777 
L 261.384643 -166.318187 
L 261.438365 -163.898603 
L 261.454572 -161.47902 
L 261.436504 -159.059436 
L 261.388439 -156.639853 
L 261.315399 -154.22027 
L 261.222889 -151.800686 
L 261.116683 -149.381103 
L 261.002686 -146.96152 
L 260.886867 -144.541936 
L 260.775263 -142.122353 
L 260.67403 -139.70277 
L 260.589495 -137.283186 
L 260.528184 -134.863603 
L 260.496764 -132.44402 
L 260.50186 -130.024436 
L 260.549724 -127.604853 
L 260.645738 -125.18527 
L 260.793786 -122.765686 
L 260.995528 -120.346103 
L 261.249681 -117.926519 
L 261.551397 -115.506936 
L 261.891873 -113.087353 
L 262.258276 -110.667769 
L 262.634092 -108.248186 
L 262.999907 -105.828603 
L 263.334604 -103.409019 
L 263.616881 -100.989436 
L 263.826945 -98.569853 
L 263.948198 -96.150269 
L 263.968708 -93.730686 
L 263.882299 -91.311103 
L 263.689112 -88.891519 
L 263.395572 -86.471936 
L 263.013774 -84.052353 
L 262.560362 -81.632769 
L 262.05505 -79.213186 
L 261.518967 -76.793602 
L 260.973012 -74.374019 
L 260.436396 -71.954436 
L 259.925494 -69.534852 
L 259.453103 -67.115269 
L 259.028106 -64.695686 
L 258.655527 -62.276102 
L 258.336896 -59.856519 
L 258.070835 -57.436936 
z
" id="m735ff564dc" style="stroke:#3c3c3c;stroke-width:1.5;"/>
    </defs>
    <g clip-path="url(#p679739df29)">
     <use style="fill:#c76e6e;stroke:#3c3c3c;stroke-width:1.5;" x="0" xlink:href="#m735ff564dc" y="316.271687"/>
    </g>
   </g>
   <g id="PolyCollection_5">
    <defs>
     <path d="M 317.295346 -56.678785 
L 316.112466 -56.678785 
L 315.966028 -58.747489 
L 315.795025 -60.816193 
L 315.598581 -62.884897 
L 315.37667 -64.953601 
L 315.130287 -67.022305 
L 314.861575 -69.091009 
L 314.573902 -71.159713 
L 314.271854 -73.228418 
L 313.961145 -75.297122 
L 313.648428 -77.365826 
L 313.341016 -79.43453 
L 313.046533 -81.503234 
L 312.772489 -83.571938 
L 312.525851 -85.640642 
L 312.312598 -87.709346 
L 312.137347 -89.778051 
L 312.003038 -91.846755 
L 311.91075 -93.915459 
L 311.859641 -95.984163 
L 311.847033 -98.052867 
L 311.868635 -100.121571 
L 311.918886 -102.190275 
L 311.99138 -104.258979 
L 312.079347 -106.327684 
L 312.176129 -108.396388 
L 312.275625 -110.465092 
L 312.372648 -112.533796 
L 312.463177 -114.6025 
L 312.544487 -116.671204 
L 312.61514 -118.739908 
L 312.674859 -120.808612 
L 312.7243 -122.877316 
L 312.764762 -124.946021 
L 312.797852 -127.014725 
L 312.825167 -129.083429 
L 312.848009 -131.152133 
L 312.867168 -133.220837 
L 312.882798 -135.289541 
L 312.894388 -137.358245 
L 312.900833 -139.426949 
L 312.900587 -141.495654 
L 312.891893 -143.564358 
L 312.87304 -145.633062 
L 312.842651 -147.701766 
L 312.799937 -149.77047 
L 312.744922 -151.839174 
L 312.678594 -153.907878 
L 312.602977 -155.976582 
L 312.521113 -158.045287 
L 312.43695 -160.113991 
L 312.355153 -162.182695 
L 312.280843 -164.251399 
L 312.219289 -166.320103 
L 312.175582 -168.388807 
L 312.154307 -170.457511 
L 312.159251 -172.526215 
L 312.193158 -174.59492 
L 312.257563 -176.663624 
L 312.352698 -178.732328 
L 312.477498 -180.801032 
L 312.629679 -182.869736 
L 312.805902 -184.93844 
L 313.001993 -187.007144 
L 313.213202 -189.075848 
L 313.434484 -191.144552 
L 313.660781 -193.213257 
L 313.887276 -195.281961 
L 314.109618 -197.350665 
L 314.324091 -199.419369 
L 314.527731 -201.488073 
L 314.71838 -203.556777 
L 314.89469 -205.625481 
L 315.056075 -207.694185 
L 315.20262 -209.76289 
L 315.334967 -211.831594 
L 315.454184 -213.900298 
L 315.561619 -215.969002 
L 315.658769 -218.037706 
L 315.747159 -220.10641 
L 315.828239 -222.175114 
L 315.903303 -224.243818 
L 315.973438 -226.312523 
L 316.039494 -228.381227 
L 316.10208 -230.449931 
L 316.161575 -232.518635 
L 316.218162 -234.587339 
L 316.271863 -236.656043 
L 316.322587 -238.724747 
L 316.370175 -240.793451 
L 316.414441 -242.862156 
L 316.455213 -244.93086 
L 316.492358 -246.999564 
L 316.525803 -249.068268 
L 316.555548 -251.136972 
L 316.581667 -253.205676 
L 316.604303 -255.27438 
L 316.623664 -257.343084 
L 316.64 -259.411788 
L 316.653601 -261.480493 
L 316.754212 -261.480493 
L 316.754212 -261.480493 
L 316.767812 -259.411788 
L 316.784149 -257.343084 
L 316.803509 -255.27438 
L 316.826146 -253.205676 
L 316.852265 -251.136972 
L 316.88201 -249.068268 
L 316.915455 -246.999564 
L 316.952599 -244.93086 
L 316.993371 -242.862156 
L 317.037638 -240.793451 
L 317.085225 -238.724747 
L 317.13595 -236.656043 
L 317.189651 -234.587339 
L 317.246238 -232.518635 
L 317.305733 -230.449931 
L 317.368318 -228.381227 
L 317.434374 -226.312523 
L 317.504509 -224.243818 
L 317.579573 -222.175114 
L 317.660653 -220.10641 
L 317.749044 -218.037706 
L 317.846194 -215.969002 
L 317.953628 -213.900298 
L 318.072845 -211.831594 
L 318.205193 -209.76289 
L 318.351738 -207.694185 
L 318.513122 -205.625481 
L 318.689433 -203.556777 
L 318.880082 -201.488073 
L 319.083722 -199.419369 
L 319.298195 -197.350665 
L 319.520537 -195.281961 
L 319.747032 -193.213257 
L 319.973328 -191.144552 
L 320.19461 -189.075848 
L 320.405819 -187.007144 
L 320.60191 -184.93844 
L 320.778134 -182.869736 
L 320.930315 -180.801032 
L 321.055114 -178.732328 
L 321.15025 -176.663624 
L 321.214654 -174.59492 
L 321.248562 -172.526215 
L 321.253505 -170.457511 
L 321.23223 -168.388807 
L 321.188523 -166.320103 
L 321.12697 -164.251399 
L 321.05266 -162.182695 
L 320.970863 -160.113991 
L 320.8867 -158.045287 
L 320.804835 -155.976582 
L 320.729218 -153.907878 
L 320.66289 -151.839174 
L 320.607876 -149.77047 
L 320.565162 -147.701766 
L 320.534772 -145.633062 
L 320.51592 -143.564358 
L 320.507225 -141.495654 
L 320.50698 -139.426949 
L 320.513424 -137.358245 
L 320.525015 -135.289541 
L 320.540644 -133.220837 
L 320.559803 -131.152133 
L 320.582645 -129.083429 
L 320.609961 -127.014725 
L 320.643051 -124.946021 
L 320.683512 -122.877316 
L 320.732954 -120.808612 
L 320.792672 -118.739908 
L 320.863325 -116.671204 
L 320.944636 -114.6025 
L 321.035165 -112.533796 
L 321.132187 -110.465092 
L 321.231683 -108.396388 
L 321.328466 -106.327684 
L 321.416433 -104.258979 
L 321.488927 -102.190275 
L 321.539178 -100.121571 
L 321.56078 -98.052867 
L 321.548171 -95.984163 
L 321.497062 -93.915459 
L 321.404774 -91.846755 
L 321.270465 -89.778051 
L 321.095214 -87.709346 
L 320.881962 -85.640642 
L 320.635323 -83.571938 
L 320.36128 -81.503234 
L 320.066796 -79.43453 
L 319.759385 -77.365826 
L 319.446667 -75.297122 
L 319.135958 -73.228418 
L 318.833911 -71.159713 
L 318.546238 -69.091009 
L 318.277526 -67.022305 
L 318.031142 -64.953601 
L 317.809231 -62.884897 
L 317.612788 -60.816193 
L 317.441785 -58.747489 
L 317.295346 -56.678785 
z
" id="m4e3cc9aafa" style="stroke:#3c3c3c;stroke-width:1.5;"/>
    </defs>
    <g clip-path="url(#p679739df29)">
     <use style="fill:#9475ab;stroke:#3c3c3c;stroke-width:1.5;" x="0" xlink:href="#m4e3cc9aafa" y="316.271687"/>
    </g>
   </g>
   <g id="PolyCollection_6">
    <defs>
     <path d="M 377.152876 -56.180106 
L 375.294937 -56.180106 
L 375.055765 -58.351046 
L 374.774968 -60.521986 
L 374.451037 -62.692927 
L 374.084021 -64.863867 
L 373.67586 -67.034807 
L 373.230627 -69.205748 
L 372.754671 -71.376688 
L 372.256609 -73.547628 
L 371.747152 -75.718569 
L 371.238751 -77.889509 
L 370.745078 -80.060449 
L 370.280359 -82.23139 
L 369.858608 -84.40233 
L 369.492825 -86.57327 
L 369.194206 -88.744211 
L 368.971459 -90.915151 
L 368.830268 -93.086091 
L 368.772963 -95.257032 
L 368.798425 -97.427972 
L 368.902229 -99.598912 
L 369.077012 -101.769853 
L 369.313028 -103.940793 
L 369.598821 -106.111733 
L 369.921977 -108.282674 
L 370.269864 -110.453614 
L 370.630303 -112.624554 
L 370.992136 -114.795495 
L 371.345642 -116.966435 
L 371.682788 -119.137375 
L 371.997335 -121.308316 
L 372.28479 -123.479256 
L 372.542268 -125.650196 
L 372.768269 -127.821137 
L 372.962427 -129.992077 
L 373.125254 -132.163017 
L 373.257922 -134.333958 
L 373.362072 -136.504898 
L 373.43969 -138.675838 
L 373.493034 -140.846779 
L 373.524597 -143.017719 
L 373.537113 -145.188659 
L 373.533571 -147.3596 
L 373.517232 -149.53054 
L 373.49162 -151.70148 
L 373.460499 -153.87242 
L 373.427794 -156.043361 
L 373.397495 -158.214301 
L 373.373508 -160.385241 
L 373.359495 -162.556182 
L 373.358698 -164.727122 
L 373.373762 -166.898062 
L 373.406589 -169.069003 
L 373.458219 -171.239943 
L 373.528766 -173.410883 
L 373.617412 -175.581824 
L 373.722451 -177.752764 
L 373.841408 -179.923704 
L 373.971187 -182.094645 
L 374.108275 -184.265585 
L 374.248951 -186.436525 
L 374.389512 -188.607466 
L 374.526482 -190.778406 
L 374.656793 -192.949346 
L 374.777929 -195.120287 
L 374.888025 -197.291227 
L 374.985917 -199.462167 
L 375.071142 -201.633108 
L 375.143897 -203.804048 
L 375.204953 -205.974988 
L 375.255556 -208.145929 
L 375.297295 -210.316869 
L 375.331977 -212.487809 
L 375.361494 -214.65875 
L 375.387705 -216.82969 
L 375.412335 -219.00063 
L 375.436893 -221.171571 
L 375.462615 -223.342511 
L 375.49043 -225.513451 
L 375.520946 -227.684392 
L 375.554457 -229.855332 
L 375.590973 -232.026272 
L 375.630252 -234.197213 
L 375.671846 -236.368153 
L 375.715159 -238.539093 
L 375.759492 -240.710034 
L 375.804099 -242.880974 
L 375.848235 -245.051914 
L 375.891192 -247.222855 
L 375.932336 -249.393795 
L 375.971131 -251.564735 
L 376.007154 -253.735676 
L 376.040102 -255.906616 
L 376.069794 -258.077556 
L 376.096162 -260.248496 
L 376.119242 -262.419437 
L 376.139154 -264.590377 
L 376.156089 -266.761317 
L 376.17029 -268.932258 
L 376.182029 -271.103198 
L 376.265784 -271.103198 
L 376.265784 -271.103198 
L 376.277523 -268.932258 
L 376.291723 -266.761317 
L 376.308659 -264.590377 
L 376.328571 -262.419437 
L 376.35165 -260.248496 
L 376.378019 -258.077556 
L 376.407711 -255.906616 
L 376.440659 -253.735676 
L 376.476682 -251.564735 
L 376.515477 -249.393795 
L 376.556621 -247.222855 
L 376.599578 -245.051914 
L 376.643713 -242.880974 
L 376.688321 -240.710034 
L 376.732654 -238.539093 
L 376.775966 -236.368153 
L 376.817561 -234.197213 
L 376.856839 -232.026272 
L 376.893355 -229.855332 
L 376.926867 -227.684392 
L 376.957382 -225.513451 
L 376.985197 -223.342511 
L 377.01092 -221.171571 
L 377.035478 -219.00063 
L 377.060108 -216.82969 
L 377.086318 -214.65875 
L 377.115835 -212.487809 
L 377.150517 -210.316869 
L 377.192257 -208.145929 
L 377.242859 -205.974988 
L 377.303916 -203.804048 
L 377.37667 -201.633108 
L 377.461896 -199.462167 
L 377.559788 -197.291227 
L 377.669884 -195.120287 
L 377.791019 -192.949346 
L 377.92133 -190.778406 
L 378.0583 -188.607466 
L 378.198862 -186.436525 
L 378.339538 -184.265585 
L 378.476625 -182.094645 
L 378.606405 -179.923704 
L 378.725361 -177.752764 
L 378.830401 -175.581824 
L 378.919046 -173.410883 
L 378.989594 -171.239943 
L 379.041223 -169.069003 
L 379.07405 -166.898062 
L 379.089114 -164.727122 
L 379.088317 -162.556182 
L 379.074305 -160.385241 
L 379.050318 -158.214301 
L 379.020018 -156.043361 
L 378.987314 -153.87242 
L 378.956192 -151.70148 
L 378.930581 -149.53054 
L 378.914241 -147.3596 
L 378.9107 -145.188659 
L 378.923216 -143.017719 
L 378.954779 -140.846779 
L 379.008122 -138.675838 
L 379.085741 -136.504898 
L 379.18989 -134.333958 
L 379.322558 -132.163017 
L 379.485386 -129.992077 
L 379.679543 -127.821137 
L 379.905544 -125.650196 
L 380.163022 -123.479256 
L 380.450478 -121.308316 
L 380.765024 -119.137375 
L 381.102171 -116.966435 
L 381.455676 -114.795495 
L 381.81751 -112.624554 
L 382.177949 -110.453614 
L 382.525835 -108.282674 
L 382.848992 -106.111733 
L 383.134785 -103.940793 
L 383.3708 -101.769853 
L 383.545584 -99.598912 
L 383.649388 -97.427972 
L 383.67485 -95.257032 
L 383.617545 -93.086091 
L 383.476354 -90.915151 
L 383.253607 -88.744211 
L 382.954988 -86.57327 
L 382.589204 -84.40233 
L 382.167454 -82.23139 
L 381.702735 -80.060449 
L 381.209062 -77.889509 
L 380.700661 -75.718569 
L 380.191203 -73.547628 
L 379.693142 -71.376688 
L 379.217186 -69.205748 
L 378.771952 -67.034807 
L 378.363791 -64.863867 
L 377.996776 -62.692927 
L 377.672844 -60.521986 
L 377.392047 -58.351046 
L 377.152876 -56.180106 
z
" id="m69814ae258" style="stroke:#3c3c3c;stroke-width:1.5;"/>
    </defs>
    <g clip-path="url(#p679739df29)">
     <use style="fill:#826246;stroke:#3c3c3c;stroke-width:1.5;" x="0" xlink:href="#m69814ae258" y="316.271687"/>
    </g>
   </g>
   <g id="line2d_8">
    <path clip-path="url(#p679739df29)" d="M 78.623906 223.166029 
L 78.623906 223.166029 
" style="fill:none;stroke:#3c3c3c;stroke-linecap:round;stroke-width:1.5;"/>
   </g>
   <g id="line2d_9">
    <path clip-path="url(#p679739df29)" d="M 78.623906 223.166029 
L 78.623906 223.166029 
" style="fill:none;stroke:#3c3c3c;stroke-linecap:round;stroke-width:4.5;"/>
   </g>
   <g id="line2d_10">
    <path clip-path="url(#p679739df29)" d="M 138.143906 223.166029 
L 138.143906 79.889915 
" style="fill:none;stroke:#3c3c3c;stroke-linecap:round;stroke-width:1.5;"/>
   </g>
   <g id="line2d_11">
    <path clip-path="url(#p679739df29)" d="M 138.143906 223.166029 
L 138.143906 154.913824 
" style="fill:none;stroke:#3c3c3c;stroke-linecap:round;stroke-width:4.5;"/>
   </g>
   <g id="line2d_12">
    <path clip-path="url(#p679739df29)" d="M 197.663906 223.166029 
L 197.663906 122.522501 
" style="fill:none;stroke:#3c3c3c;stroke-linecap:round;stroke-width:1.5;"/>
   </g>
   <g id="line2d_13">
    <path clip-path="url(#p679739df29)" d="M 197.663906 223.166029 
L 197.663906 164.581353 
" style="fill:none;stroke:#3c3c3c;stroke-linecap:round;stroke-width:4.5;"/>
   </g>
   <g id="line2d_14">
    <path clip-path="url(#p679739df29)" d="M 257.183906 223.166029 
L 257.183906 139.41362 
" style="fill:none;stroke:#3c3c3c;stroke-linecap:round;stroke-width:1.5;"/>
   </g>
   <g id="line2d_15">
    <path clip-path="url(#p679739df29)" d="M 257.183906 223.166029 
L 257.183906 156.507886 
" style="fill:none;stroke:#3c3c3c;stroke-linecap:round;stroke-width:4.5;"/>
   </g>
   <g id="line2d_16">
    <path clip-path="url(#p679739df29)" d="M 316.703906 223.166029 
L 316.703906 91.218068 
" style="fill:none;stroke:#3c3c3c;stroke-linecap:round;stroke-width:1.5;"/>
   </g>
   <g id="line2d_17">
    <path clip-path="url(#p679739df29)" d="M 316.703906 223.166029 
L 316.703906 141.069179 
" style="fill:none;stroke:#3c3c3c;stroke-linecap:round;stroke-width:4.5;"/>
   </g>
   <g id="line2d_18">
    <path clip-path="url(#p679739df29)" d="M 376.223906 223.166029 
L 376.223906 82.094042 
" style="fill:none;stroke:#3c3c3c;stroke-linecap:round;stroke-width:1.5;"/>
   </g>
   <g id="line2d_19">
    <path clip-path="url(#p679739df29)" d="M 376.223906 223.166029 
L 376.223906 159.335113 
" style="fill:none;stroke:#3c3c3c;stroke-linecap:round;stroke-width:4.5;"/>
   </g>
   <g id="patch_3">
    <path d="M 48.863906 273.312 
L 48.863906 7.2 
" style="fill:none;stroke:#cccccc;stroke-linecap:square;stroke-linejoin:miter;stroke-width:1.25;"/>
   </g>
   <g id="patch_4">
    <path d="M 405.983906 273.312 
L 405.983906 7.2 
" style="fill:none;stroke:#cccccc;stroke-linecap:square;stroke-linejoin:miter;stroke-width:1.25;"/>
   </g>
   <g id="patch_5">
    <path d="M 48.863906 273.312 
L 405.983906 273.312 
" style="fill:none;stroke:#cccccc;stroke-linecap:square;stroke-linejoin:miter;stroke-width:1.25;"/>
   </g>
   <g id="patch_6">
    <path d="M 48.863906 7.2 
L 405.983906 7.2 
" style="fill:none;stroke:#cccccc;stroke-linecap:square;stroke-linejoin:miter;stroke-width:1.25;"/>
   </g>
   <g id="PathCollection_1">
    <defs>
     <path d="M 0 1.5 
C 0.397805 1.5 0.77937 1.341951 1.06066 1.06066 
C 1.341951 0.77937 1.5 0.397805 1.5 0 
C 1.5 -0.397805 1.341951 -0.77937 1.06066 -1.06066 
C 0.77937 -1.341951 0.397805 -1.5 0 -1.5 
C -0.397805 -1.5 -0.77937 -1.341951 -1.06066 -1.06066 
C -1.341951 -0.77937 -1.5 -0.397805 -1.5 0 
C -1.5 0.397805 -1.341951 0.77937 -1.06066 1.06066 
C -0.77937 1.341951 -0.397805 1.5 0 1.5 
z
" id="m38e16db487" style="stroke:#3c3c3c;"/>
    </defs>
    <g clip-path="url(#p679739df29)">
     <use style="fill:#ffffff;stroke:#3c3c3c;" x="78.623906" xlink:href="#m38e16db487" y="223.166029"/>
    </g>
   </g>
   <g id="PathCollection_2">
    <g clip-path="url(#p679739df29)">
     <use style="fill:#ffffff;stroke:#3c3c3c;" x="138.143906" xlink:href="#m38e16db487" y="198.181106"/>
    </g>
   </g>
   <g id="PathCollection_3">
    <g clip-path="url(#p679739df29)">
     <use style="fill:#ffffff;stroke:#3c3c3c;" x="197.663906" xlink:href="#m38e16db487" y="223.166029"/>
    </g>
   </g>
   <g id="PathCollection_4">
    <g clip-path="url(#p679739df29)">
     <use style="fill:#ffffff;stroke:#3c3c3c;" x="257.183906" xlink:href="#m38e16db487" y="207.558893"/>
    </g>
   </g>
   <g id="PathCollection_5">
    <g clip-path="url(#p679739df29)">
     <use style="fill:#ffffff;stroke:#3c3c3c;" x="316.703906" xlink:href="#m38e16db487" y="184.637599"/>
    </g>
   </g>
   <g id="PathCollection_6">
    <g clip-path="url(#p679739df29)">
     <use style="fill:#ffffff;stroke:#3c3c3c;" x="376.223906" xlink:href="#m38e16db487" y="223.166029"/>
    </g>
   </g>
  </g>
 </g>
 <defs>
  <clipPath id="p679739df29">
   <rect height="266.112" width="357.12" x="48.863906" y="7.2"/>
  </clipPath>
 </defs>
</svg>
