<?xml version="1.0" encoding="utf-8" standalone="no"?>
<!DOCTYPE svg PUBLIC "-//W3C//DTD SVG 1.1//EN"
  "http://www.w3.org/Graphics/SVG/1.1/DTD/svg11.dtd">
<!-- Created with matplotlib (http://matplotlib.org/) -->
<svg height="345.6pt" version="1.1" viewBox="0 0 460.8 345.6" width="460.8pt" xmlns="http://www.w3.org/2000/svg" xmlns:xlink="http://www.w3.org/1999/xlink">
 <defs>
  <style type="text/css">
*{stroke-linecap:butt;stroke-linejoin:round;}
  </style>
 </defs>
 <g id="figure_1">
  <g id="patch_1">
   <path d="M 0 345.6 
L 460.8 345.6 
L 460.8 0 
L 0 0 
z
" style="fill:#ffffff;"/>
  </g>
  <g id="axes_1">
   <g id="patch_2">
    <path d="M 57.6 307.584 
L 414.72 307.584 
L 414.72 41.472 
L 57.6 41.472 
z
" style="fill:#ffffff;"/>
   </g>
   <g id="matplotlib.axis_1">
    <g id="xtick_1">
     <g id="text_1">
      <!-- 0 -->
      <defs>
       <path d="M 31.78125 66.40625 
Q 24.171875 66.40625 20.328125 58.90625 
Q 16.5 51.421875 16.5 36.375 
Q 16.5 21.390625 20.328125 13.890625 
Q 24.171875 6.390625 31.78125 6.390625 
Q 39.453125 6.390625 43.28125 13.890625 
Q 47.125 21.390625 47.125 36.375 
Q 47.125 51.421875 43.28125 58.90625 
Q 39.453125 66.40625 31.78125 66.40625 
z
M 31.78125 74.21875 
Q 44.046875 74.21875 50.515625 64.515625 
Q 56.984375 54.828125 56.984375 36.375 
Q 56.984375 17.96875 50.515625 8.265625 
Q 44.046875 -1.421875 31.78125 -1.421875 
Q 19.53125 -1.421875 13.0625 8.265625 
Q 6.59375 17.96875 6.59375 36.375 
Q 6.59375 54.828125 13.0625 64.515625 
Q 19.53125 74.21875 31.78125 74.21875 
z
" id="DejaVuSans-30"/>
      </defs>
      <g style="fill:#262626;" transform="translate(83.860625 325.442281)scale(0.11 -0.11)">
       <use xlink:href="#DejaVuSans-30"/>
      </g>
     </g>
    </g>
    <g id="xtick_2">
     <g id="text_2">
      <!-- 1 -->
      <defs>
       <path d="M 12.40625 8.296875 
L 28.515625 8.296875 
L 28.515625 63.921875 
L 10.984375 60.40625 
L 10.984375 69.390625 
L 28.421875 72.90625 
L 38.28125 72.90625 
L 38.28125 8.296875 
L 54.390625 8.296875 
L 54.390625 0 
L 12.40625 0 
z
" id="DejaVuSans-31"/>
      </defs>
      <g style="fill:#262626;" transform="translate(143.380625 325.442281)scale(0.11 -0.11)">
       <use xlink:href="#DejaVuSans-31"/>
      </g>
     </g>
    </g>
    <g id="xtick_3">
     <g id="text_3">
      <!-- 2 -->
      <defs>
       <path d="M 19.1875 8.296875 
L 53.609375 8.296875 
L 53.609375 0 
L 7.328125 0 
L 7.328125 8.296875 
Q 12.9375 14.109375 22.625 23.890625 
Q 32.328125 33.6875 34.8125 36.53125 
Q 39.546875 41.84375 41.421875 45.53125 
Q 43.3125 49.21875 43.3125 52.78125 
Q 43.3125 58.59375 39.234375 62.25 
Q 35.15625 65.921875 28.609375 65.921875 
Q 23.96875 65.921875 18.8125 64.3125 
Q 13.671875 62.703125 7.8125 59.421875 
L 7.8125 69.390625 
Q 13.765625 71.78125 18.9375 73 
Q 24.125 74.21875 28.421875 74.21875 
Q 39.75 74.21875 46.484375 68.546875 
Q 53.21875 62.890625 53.21875 53.421875 
Q 53.21875 48.921875 51.53125 44.890625 
Q 49.859375 40.875 45.40625 35.40625 
Q 44.1875 33.984375 37.640625 27.21875 
Q 31.109375 20.453125 19.1875 8.296875 
z
" id="DejaVuSans-32"/>
      </defs>
      <g style="fill:#262626;" transform="translate(202.900625 325.442281)scale(0.11 -0.11)">
       <use xlink:href="#DejaVuSans-32"/>
      </g>
     </g>
    </g>
    <g id="xtick_4">
     <g id="text_4">
      <!-- 3 -->
      <defs>
       <path d="M 40.578125 39.3125 
Q 47.65625 37.796875 51.625 33 
Q 55.609375 28.21875 55.609375 21.1875 
Q 55.609375 10.40625 48.1875 4.484375 
Q 40.765625 -1.421875 27.09375 -1.421875 
Q 22.515625 -1.421875 17.65625 -0.515625 
Q 12.796875 0.390625 7.625 2.203125 
L 7.625 11.71875 
Q 11.71875 9.328125 16.59375 8.109375 
Q 21.484375 6.890625 26.8125 6.890625 
Q 36.078125 6.890625 40.9375 10.546875 
Q 45.796875 14.203125 45.796875 21.1875 
Q 45.796875 27.640625 41.28125 31.265625 
Q 36.765625 34.90625 28.71875 34.90625 
L 20.21875 34.90625 
L 20.21875 43.015625 
L 29.109375 43.015625 
Q 36.375 43.015625 40.234375 45.921875 
Q 44.09375 48.828125 44.09375 54.296875 
Q 44.09375 59.90625 40.109375 62.90625 
Q 36.140625 65.921875 28.71875 65.921875 
Q 24.65625 65.921875 20.015625 65.03125 
Q 15.375 64.15625 9.8125 62.3125 
L 9.8125 71.09375 
Q 15.4375 72.65625 20.34375 73.4375 
Q 25.25 74.21875 29.59375 74.21875 
Q 40.828125 74.21875 47.359375 69.109375 
Q 53.90625 64.015625 53.90625 55.328125 
Q 53.90625 49.265625 50.4375 45.09375 
Q 46.96875 40.921875 40.578125 39.3125 
z
" id="DejaVuSans-33"/>
      </defs>
      <g style="fill:#262626;" transform="translate(262.420625 325.442281)scale(0.11 -0.11)">
       <use xlink:href="#DejaVuSans-33"/>
      </g>
     </g>
    </g>
    <g id="xtick_5">
     <g id="text_5">
      <!-- 4 -->
      <defs>
       <path d="M 37.796875 64.3125 
L 12.890625 25.390625 
L 37.796875 25.390625 
z
M 35.203125 72.90625 
L 47.609375 72.90625 
L 47.609375 25.390625 
L 58.015625 25.390625 
L 58.015625 17.1875 
L 47.609375 17.1875 
L 47.609375 0 
L 37.796875 0 
L 37.796875 17.1875 
L 4.890625 17.1875 
L 4.890625 26.703125 
z
" id="DejaVuSans-34"/>
      </defs>
      <g style="fill:#262626;" transform="translate(321.940625 325.442281)scale(0.11 -0.11)">
       <use xlink:href="#DejaVuSans-34"/>
      </g>
     </g>
    </g>
    <g id="xtick_6">
     <g id="text_6">
      <!-- 5 -->
      <defs>
       <path d="M 10.796875 72.90625 
L 49.515625 72.90625 
L 49.515625 64.59375 
L 19.828125 64.59375 
L 19.828125 46.734375 
Q 21.96875 47.46875 24.109375 47.828125 
Q 26.265625 48.1875 28.421875 48.1875 
Q 40.625 48.1875 47.75 41.5 
Q 54.890625 34.8125 54.890625 23.390625 
Q 54.890625 11.625 47.5625 5.09375 
Q 40.234375 -1.421875 26.90625 -1.421875 
Q 22.3125 -1.421875 17.546875 -0.640625 
Q 12.796875 0.140625 7.71875 1.703125 
L 7.71875 11.625 
Q 12.109375 9.234375 16.796875 8.0625 
Q 21.484375 6.890625 26.703125 6.890625 
Q 35.15625 6.890625 40.078125 11.328125 
Q 45.015625 15.765625 45.015625 23.390625 
Q 45.015625 31 40.078125 35.4375 
Q 35.15625 39.890625 26.703125 39.890625 
Q 22.75 39.890625 18.8125 39.015625 
Q 14.890625 38.140625 10.796875 36.28125 
z
" id="DejaVuSans-35"/>
      </defs>
      <g style="fill:#262626;" transform="translate(381.460625 325.442281)scale(0.11 -0.11)">
       <use xlink:href="#DejaVuSans-35"/>
      </g>
     </g>
    </g>
    <g id="text_7">
     <!-- Class label -->
     <defs>
      <path d="M 64.40625 67.28125 
L 64.40625 56.890625 
Q 59.421875 61.53125 53.78125 63.8125 
Q 48.140625 66.109375 41.796875 66.109375 
Q 29.296875 66.109375 22.65625 58.46875 
Q 16.015625 50.828125 16.015625 36.375 
Q 16.015625 21.96875 22.65625 14.328125 
Q 29.296875 6.6875 41.796875 6.6875 
Q 48.140625 6.6875 53.78125 8.984375 
Q 59.421875 11.28125 64.40625 15.921875 
L 64.40625 5.609375 
Q 59.234375 2.09375 53.4375 0.328125 
Q 47.65625 -1.421875 41.21875 -1.421875 
Q 24.65625 -1.421875 15.125 8.703125 
Q 5.609375 18.84375 5.609375 36.375 
Q 5.609375 53.953125 15.125 64.078125 
Q 24.65625 74.21875 41.21875 74.21875 
Q 47.75 74.21875 53.53125 72.484375 
Q 59.328125 70.75 64.40625 67.28125 
z
" id="DejaVuSans-43"/>
      <path d="M 9.421875 75.984375 
L 18.40625 75.984375 
L 18.40625 0 
L 9.421875 0 
z
" id="DejaVuSans-6c"/>
      <path d="M 34.28125 27.484375 
Q 23.390625 27.484375 19.1875 25 
Q 14.984375 22.515625 14.984375 16.5 
Q 14.984375 11.71875 18.140625 8.90625 
Q 21.296875 6.109375 26.703125 6.109375 
Q 34.1875 6.109375 38.703125 11.40625 
Q 43.21875 16.703125 43.21875 25.484375 
L 43.21875 27.484375 
z
M 52.203125 31.203125 
L 52.203125 0 
L 43.21875 0 
L 43.21875 8.296875 
Q 40.140625 3.328125 35.546875 0.953125 
Q 30.953125 -1.421875 24.3125 -1.421875 
Q 15.921875 -1.421875 10.953125 3.296875 
Q 6 8.015625 6 15.921875 
Q 6 25.140625 12.171875 29.828125 
Q 18.359375 34.515625 30.609375 34.515625 
L 43.21875 34.515625 
L 43.21875 35.40625 
Q 43.21875 41.609375 39.140625 45 
Q 35.0625 48.390625 27.6875 48.390625 
Q 23 48.390625 18.546875 47.265625 
Q 14.109375 46.140625 10.015625 43.890625 
L 10.015625 52.203125 
Q 14.9375 54.109375 19.578125 55.046875 
Q 24.21875 56 28.609375 56 
Q 40.484375 56 46.34375 49.84375 
Q 52.203125 43.703125 52.203125 31.203125 
z
" id="DejaVuSans-61"/>
      <path d="M 44.28125 53.078125 
L 44.28125 44.578125 
Q 40.484375 46.53125 36.375 47.5 
Q 32.28125 48.484375 27.875 48.484375 
Q 21.1875 48.484375 17.84375 46.4375 
Q 14.5 44.390625 14.5 40.28125 
Q 14.5 37.15625 16.890625 35.375 
Q 19.28125 33.59375 26.515625 31.984375 
L 29.59375 31.296875 
Q 39.15625 29.25 43.1875 25.515625 
Q 47.21875 21.78125 47.21875 15.09375 
Q 47.21875 7.46875 41.1875 3.015625 
Q 35.15625 -1.421875 24.609375 -1.421875 
Q 20.21875 -1.421875 15.453125 -0.5625 
Q 10.6875 0.296875 5.421875 2 
L 5.421875 11.28125 
Q 10.40625 8.6875 15.234375 7.390625 
Q 20.0625 6.109375 24.8125 6.109375 
Q 31.15625 6.109375 34.5625 8.28125 
Q 37.984375 10.453125 37.984375 14.40625 
Q 37.984375 18.0625 35.515625 20.015625 
Q 33.0625 21.96875 24.703125 23.78125 
L 21.578125 24.515625 
Q 13.234375 26.265625 9.515625 29.90625 
Q 5.8125 33.546875 5.8125 39.890625 
Q 5.8125 47.609375 11.28125 51.796875 
Q 16.75 56 26.8125 56 
Q 31.78125 56 36.171875 55.265625 
Q 40.578125 54.546875 44.28125 53.078125 
z
" id="DejaVuSans-73"/>
      <path id="DejaVuSans-20"/>
      <path d="M 48.6875 27.296875 
Q 48.6875 37.203125 44.609375 42.84375 
Q 40.53125 48.484375 33.40625 48.484375 
Q 26.265625 48.484375 22.1875 42.84375 
Q 18.109375 37.203125 18.109375 27.296875 
Q 18.109375 17.390625 22.1875 11.75 
Q 26.265625 6.109375 33.40625 6.109375 
Q 40.53125 6.109375 44.609375 11.75 
Q 48.6875 17.390625 48.6875 27.296875 
z
M 18.109375 46.390625 
Q 20.953125 51.265625 25.265625 53.625 
Q 29.59375 56 35.59375 56 
Q 45.5625 56 51.78125 48.09375 
Q 58.015625 40.1875 58.015625 27.296875 
Q 58.015625 14.40625 51.78125 6.484375 
Q 45.5625 -1.421875 35.59375 -1.421875 
Q 29.59375 -1.421875 25.265625 0.953125 
Q 20.953125 3.328125 18.109375 8.203125 
L 18.109375 0 
L 9.078125 0 
L 9.078125 75.984375 
L 18.109375 75.984375 
z
" id="DejaVuSans-62"/>
      <path d="M 56.203125 29.59375 
L 56.203125 25.203125 
L 14.890625 25.203125 
Q 15.484375 15.921875 20.484375 11.0625 
Q 25.484375 6.203125 34.421875 6.203125 
Q 39.59375 6.203125 44.453125 7.46875 
Q 49.3125 8.734375 54.109375 11.28125 
L 54.109375 2.78125 
Q 49.265625 0.734375 44.1875 -0.34375 
Q 39.109375 -1.421875 33.890625 -1.421875 
Q 20.796875 -1.421875 13.15625 6.1875 
Q 5.515625 13.8125 5.515625 26.8125 
Q 5.515625 40.234375 12.765625 48.109375 
Q 20.015625 56 32.328125 56 
Q 43.359375 56 49.78125 48.890625 
Q 56.203125 41.796875 56.203125 29.59375 
z
M 47.21875 32.234375 
Q 47.125 39.59375 43.09375 43.984375 
Q 39.0625 48.390625 32.421875 48.390625 
Q 24.90625 48.390625 20.390625 44.140625 
Q 15.875 39.890625 15.1875 32.171875 
z
" id="DejaVuSans-65"/>
     </defs>
     <g style="fill:#262626;" transform="translate(203.956875 340.848062)scale(0.12 -0.12)">
      <use xlink:href="#DejaVuSans-43"/>
      <use x="69.824219" xlink:href="#DejaVuSans-6c"/>
      <use x="97.607422" xlink:href="#DejaVuSans-61"/>
      <use x="158.886719" xlink:href="#DejaVuSans-73"/>
      <use x="210.986328" xlink:href="#DejaVuSans-73"/>
      <use x="263.085938" xlink:href="#DejaVuSans-20"/>
      <use x="294.873047" xlink:href="#DejaVuSans-6c"/>
      <use x="322.65625" xlink:href="#DejaVuSans-61"/>
      <use x="383.935547" xlink:href="#DejaVuSans-62"/>
      <use x="447.412109" xlink:href="#DejaVuSans-65"/>
      <use x="508.935547" xlink:href="#DejaVuSans-6c"/>
     </g>
    </g>
   </g>
   <g id="matplotlib.axis_2">
    <g id="ytick_1">
     <g id="line2d_1">
      <path clip-path="url(#pb4591514f6)" d="M 57.6 306.378965 
L 414.72 306.378965 
" style="fill:none;stroke:#cccccc;stroke-linecap:round;"/>
     </g>
     <g id="text_8">
      <!-- −4 -->
      <defs>
       <path d="M 10.59375 35.5 
L 73.1875 35.5 
L 73.1875 27.203125 
L 10.59375 27.203125 
z
" id="DejaVuSans-2212"/>
      </defs>
      <g style="fill:#262626;" transform="translate(31.883594 310.558106)scale(0.11 -0.11)">
       <use xlink:href="#DejaVuSans-2212"/>
       <use x="83.789062" xlink:href="#DejaVuSans-34"/>
      </g>
     </g>
    </g>
    <g id="ytick_2">
     <g id="line2d_2">
      <path clip-path="url(#pb4591514f6)" d="M 57.6 270.915984 
L 414.72 270.915984 
" style="fill:none;stroke:#cccccc;stroke-linecap:round;"/>
     </g>
     <g id="text_9">
      <!-- −2 -->
      <g style="fill:#262626;" transform="translate(31.883594 275.095125)scale(0.11 -0.11)">
       <use xlink:href="#DejaVuSans-2212"/>
       <use x="83.789062" xlink:href="#DejaVuSans-32"/>
      </g>
     </g>
    </g>
    <g id="ytick_3">
     <g id="line2d_3">
      <path clip-path="url(#pb4591514f6)" d="M 57.6 235.453003 
L 414.72 235.453003 
" style="fill:none;stroke:#cccccc;stroke-linecap:round;"/>
     </g>
     <g id="text_10">
      <!-- 0 -->
      <g style="fill:#262626;" transform="translate(41.10125 239.632143)scale(0.11 -0.11)">
       <use xlink:href="#DejaVuSans-30"/>
      </g>
     </g>
    </g>
    <g id="ytick_4">
     <g id="line2d_4">
      <path clip-path="url(#pb4591514f6)" d="M 57.6 199.990022 
L 414.72 199.990022 
" style="fill:none;stroke:#cccccc;stroke-linecap:round;"/>
     </g>
     <g id="text_11">
      <!-- 2 -->
      <g style="fill:#262626;" transform="translate(41.10125 204.169162)scale(0.11 -0.11)">
       <use xlink:href="#DejaVuSans-32"/>
      </g>
     </g>
    </g>
    <g id="ytick_5">
     <g id="line2d_5">
      <path clip-path="url(#pb4591514f6)" d="M 57.6 164.52704 
L 414.72 164.52704 
" style="fill:none;stroke:#cccccc;stroke-linecap:round;"/>
     </g>
     <g id="text_12">
      <!-- 4 -->
      <g style="fill:#262626;" transform="translate(41.10125 168.706181)scale(0.11 -0.11)">
       <use xlink:href="#DejaVuSans-34"/>
      </g>
     </g>
    </g>
    <g id="ytick_6">
     <g id="line2d_6">
      <path clip-path="url(#pb4591514f6)" d="M 57.6 129.064059 
L 414.72 129.064059 
" style="fill:none;stroke:#cccccc;stroke-linecap:round;"/>
     </g>
     <g id="text_13">
      <!-- 6 -->
      <defs>
       <path d="M 33.015625 40.375 
Q 26.375 40.375 22.484375 35.828125 
Q 18.609375 31.296875 18.609375 23.390625 
Q 18.609375 15.53125 22.484375 10.953125 
Q 26.375 6.390625 33.015625 6.390625 
Q 39.65625 6.390625 43.53125 10.953125 
Q 47.40625 15.53125 47.40625 23.390625 
Q 47.40625 31.296875 43.53125 35.828125 
Q 39.65625 40.375 33.015625 40.375 
z
M 52.59375 71.296875 
L 52.59375 62.3125 
Q 48.875 64.0625 45.09375 64.984375 
Q 41.3125 65.921875 37.59375 65.921875 
Q 27.828125 65.921875 22.671875 59.328125 
Q 17.53125 52.734375 16.796875 39.40625 
Q 19.671875 43.65625 24.015625 45.921875 
Q 28.375 48.1875 33.59375 48.1875 
Q 44.578125 48.1875 50.953125 41.515625 
Q 57.328125 34.859375 57.328125 23.390625 
Q 57.328125 12.15625 50.6875 5.359375 
Q 44.046875 -1.421875 33.015625 -1.421875 
Q 20.359375 -1.421875 13.671875 8.265625 
Q 6.984375 17.96875 6.984375 36.375 
Q 6.984375 53.65625 15.1875 63.9375 
Q 23.390625 74.21875 37.203125 74.21875 
Q 40.921875 74.21875 44.703125 73.484375 
Q 48.484375 72.75 52.59375 71.296875 
z
" id="DejaVuSans-36"/>
      </defs>
      <g style="fill:#262626;" transform="translate(41.10125 133.2432)scale(0.11 -0.11)">
       <use xlink:href="#DejaVuSans-36"/>
      </g>
     </g>
    </g>
    <g id="ytick_7">
     <g id="line2d_7">
      <path clip-path="url(#pb4591514f6)" d="M 57.6 93.601078 
L 414.72 93.601078 
" style="fill:none;stroke:#cccccc;stroke-linecap:round;"/>
     </g>
     <g id="text_14">
      <!-- 8 -->
      <defs>
       <path d="M 31.78125 34.625 
Q 24.75 34.625 20.71875 30.859375 
Q 16.703125 27.09375 16.703125 20.515625 
Q 16.703125 13.921875 20.71875 10.15625 
Q 24.75 6.390625 31.78125 6.390625 
Q 38.8125 6.390625 42.859375 10.171875 
Q 46.921875 13.96875 46.921875 20.515625 
Q 46.921875 27.09375 42.890625 30.859375 
Q 38.875 34.625 31.78125 34.625 
z
M 21.921875 38.8125 
Q 15.578125 40.375 12.03125 44.71875 
Q 8.5 49.078125 8.5 55.328125 
Q 8.5 64.0625 14.71875 69.140625 
Q 20.953125 74.21875 31.78125 74.21875 
Q 42.671875 74.21875 48.875 69.140625 
Q 55.078125 64.0625 55.078125 55.328125 
Q 55.078125 49.078125 51.53125 44.71875 
Q 48 40.375 41.703125 38.8125 
Q 48.828125 37.15625 52.796875 32.3125 
Q 56.78125 27.484375 56.78125 20.515625 
Q 56.78125 9.90625 50.3125 4.234375 
Q 43.84375 -1.421875 31.78125 -1.421875 
Q 19.734375 -1.421875 13.25 4.234375 
Q 6.78125 9.90625 6.78125 20.515625 
Q 6.78125 27.484375 10.78125 32.3125 
Q 14.796875 37.15625 21.921875 38.8125 
z
M 18.3125 54.390625 
Q 18.3125 48.734375 21.84375 45.5625 
Q 25.390625 42.390625 31.78125 42.390625 
Q 38.140625 42.390625 41.71875 45.5625 
Q 45.3125 48.734375 45.3125 54.390625 
Q 45.3125 60.0625 41.71875 63.234375 
Q 38.140625 66.40625 31.78125 66.40625 
Q 25.390625 66.40625 21.84375 63.234375 
Q 18.3125 60.0625 18.3125 54.390625 
z
" id="DejaVuSans-38"/>
      </defs>
      <g style="fill:#262626;" transform="translate(41.10125 97.780218)scale(0.11 -0.11)">
       <use xlink:href="#DejaVuSans-38"/>
      </g>
     </g>
    </g>
    <g id="ytick_8">
     <g id="line2d_8">
      <path clip-path="url(#pb4591514f6)" d="M 57.6 58.138096 
L 414.72 58.138096 
" style="fill:none;stroke:#cccccc;stroke-linecap:round;"/>
     </g>
     <g id="text_15">
      <!-- 10 -->
      <g style="fill:#262626;" transform="translate(34.1025 62.317237)scale(0.11 -0.11)">
       <use xlink:href="#DejaVuSans-31"/>
       <use x="63.623047" xlink:href="#DejaVuSans-30"/>
      </g>
     </g>
    </g>
    <g id="text_16">
     <!-- SL_L_eigvals_ratio_2_3_N -->
     <defs>
      <path d="M 53.515625 70.515625 
L 53.515625 60.890625 
Q 47.90625 63.578125 42.921875 64.890625 
Q 37.9375 66.21875 33.296875 66.21875 
Q 25.25 66.21875 20.875 63.09375 
Q 16.5 59.96875 16.5 54.203125 
Q 16.5 49.359375 19.40625 46.890625 
Q 22.3125 44.4375 30.421875 42.921875 
L 36.375 41.703125 
Q 47.40625 39.59375 52.65625 34.296875 
Q 57.90625 29 57.90625 20.125 
Q 57.90625 9.515625 50.796875 4.046875 
Q 43.703125 -1.421875 29.984375 -1.421875 
Q 24.8125 -1.421875 18.96875 -0.25 
Q 13.140625 0.921875 6.890625 3.21875 
L 6.890625 13.375 
Q 12.890625 10.015625 18.65625 8.296875 
Q 24.421875 6.59375 29.984375 6.59375 
Q 38.421875 6.59375 43.015625 9.90625 
Q 47.609375 13.234375 47.609375 19.390625 
Q 47.609375 24.75 44.3125 27.78125 
Q 41.015625 30.8125 33.5 32.328125 
L 27.484375 33.5 
Q 16.453125 35.6875 11.515625 40.375 
Q 6.59375 45.0625 6.59375 53.421875 
Q 6.59375 63.09375 13.40625 68.65625 
Q 20.21875 74.21875 32.171875 74.21875 
Q 37.3125 74.21875 42.625 73.28125 
Q 47.953125 72.359375 53.515625 70.515625 
z
" id="DejaVuSans-53"/>
      <path d="M 9.8125 72.90625 
L 19.671875 72.90625 
L 19.671875 8.296875 
L 55.171875 8.296875 
L 55.171875 0 
L 9.8125 0 
z
" id="DejaVuSans-4c"/>
      <path d="M 50.984375 -16.609375 
L 50.984375 -23.578125 
L -0.984375 -23.578125 
L -0.984375 -16.609375 
z
" id="DejaVuSans-5f"/>
      <path d="M 9.421875 54.6875 
L 18.40625 54.6875 
L 18.40625 0 
L 9.421875 0 
z
M 9.421875 75.984375 
L 18.40625 75.984375 
L 18.40625 64.59375 
L 9.421875 64.59375 
z
" id="DejaVuSans-69"/>
      <path d="M 45.40625 27.984375 
Q 45.40625 37.75 41.375 43.109375 
Q 37.359375 48.484375 30.078125 48.484375 
Q 22.859375 48.484375 18.828125 43.109375 
Q 14.796875 37.75 14.796875 27.984375 
Q 14.796875 18.265625 18.828125 12.890625 
Q 22.859375 7.515625 30.078125 7.515625 
Q 37.359375 7.515625 41.375 12.890625 
Q 45.40625 18.265625 45.40625 27.984375 
z
M 54.390625 6.78125 
Q 54.390625 -7.171875 48.1875 -13.984375 
Q 42 -20.796875 29.203125 -20.796875 
Q 24.46875 -20.796875 20.265625 -20.09375 
Q 16.0625 -19.390625 12.109375 -17.921875 
L 12.109375 -9.1875 
Q 16.0625 -11.328125 19.921875 -12.34375 
Q 23.78125 -13.375 27.78125 -13.375 
Q 36.625 -13.375 41.015625 -8.765625 
Q 45.40625 -4.15625 45.40625 5.171875 
L 45.40625 9.625 
Q 42.625 4.78125 38.28125 2.390625 
Q 33.9375 0 27.875 0 
Q 17.828125 0 11.671875 7.65625 
Q 5.515625 15.328125 5.515625 27.984375 
Q 5.515625 40.671875 11.671875 48.328125 
Q 17.828125 56 27.875 56 
Q 33.9375 56 38.28125 53.609375 
Q 42.625 51.21875 45.40625 46.390625 
L 45.40625 54.6875 
L 54.390625 54.6875 
z
" id="DejaVuSans-67"/>
      <path d="M 2.984375 54.6875 
L 12.5 54.6875 
L 29.59375 8.796875 
L 46.6875 54.6875 
L 56.203125 54.6875 
L 35.6875 0 
L 23.484375 0 
z
" id="DejaVuSans-76"/>
      <path d="M 41.109375 46.296875 
Q 39.59375 47.171875 37.8125 47.578125 
Q 36.03125 48 33.890625 48 
Q 26.265625 48 22.1875 43.046875 
Q 18.109375 38.09375 18.109375 28.8125 
L 18.109375 0 
L 9.078125 0 
L 9.078125 54.6875 
L 18.109375 54.6875 
L 18.109375 46.1875 
Q 20.953125 51.171875 25.484375 53.578125 
Q 30.03125 56 36.53125 56 
Q 37.453125 56 38.578125 55.875 
Q 39.703125 55.765625 41.0625 55.515625 
z
" id="DejaVuSans-72"/>
      <path d="M 18.3125 70.21875 
L 18.3125 54.6875 
L 36.8125 54.6875 
L 36.8125 47.703125 
L 18.3125 47.703125 
L 18.3125 18.015625 
Q 18.3125 11.328125 20.140625 9.421875 
Q 21.96875 7.515625 27.59375 7.515625 
L 36.8125 7.515625 
L 36.8125 0 
L 27.59375 0 
Q 17.1875 0 13.234375 3.875 
Q 9.28125 7.765625 9.28125 18.015625 
L 9.28125 47.703125 
L 2.6875 47.703125 
L 2.6875 54.6875 
L 9.28125 54.6875 
L 9.28125 70.21875 
z
" id="DejaVuSans-74"/>
      <path d="M 30.609375 48.390625 
Q 23.390625 48.390625 19.1875 42.75 
Q 14.984375 37.109375 14.984375 27.296875 
Q 14.984375 17.484375 19.15625 11.84375 
Q 23.34375 6.203125 30.609375 6.203125 
Q 37.796875 6.203125 41.984375 11.859375 
Q 46.1875 17.53125 46.1875 27.296875 
Q 46.1875 37.015625 41.984375 42.703125 
Q 37.796875 48.390625 30.609375 48.390625 
z
M 30.609375 56 
Q 42.328125 56 49.015625 48.375 
Q 55.71875 40.765625 55.71875 27.296875 
Q 55.71875 13.875 49.015625 6.21875 
Q 42.328125 -1.421875 30.609375 -1.421875 
Q 18.84375 -1.421875 12.171875 6.21875 
Q 5.515625 13.875 5.515625 27.296875 
Q 5.515625 40.765625 12.171875 48.375 
Q 18.84375 56 30.609375 56 
z
" id="DejaVuSans-6f"/>
      <path d="M 9.8125 72.90625 
L 23.09375 72.90625 
L 55.421875 11.921875 
L 55.421875 72.90625 
L 64.984375 72.90625 
L 64.984375 0 
L 51.703125 0 
L 19.390625 60.984375 
L 19.390625 0 
L 9.8125 0 
z
" id="DejaVuSans-4e"/>
     </defs>
     <g style="fill:#262626;" transform="translate(25.054219 250.16925)rotate(-90)scale(0.12 -0.12)">
      <use xlink:href="#DejaVuSans-53"/>
      <use x="63.476562" xlink:href="#DejaVuSans-4c"/>
      <use x="119.189453" xlink:href="#DejaVuSans-5f"/>
      <use x="169.189453" xlink:href="#DejaVuSans-4c"/>
      <use x="224.902344" xlink:href="#DejaVuSans-5f"/>
      <use x="274.902344" xlink:href="#DejaVuSans-65"/>
      <use x="336.425781" xlink:href="#DejaVuSans-69"/>
      <use x="364.208984" xlink:href="#DejaVuSans-67"/>
      <use x="427.685547" xlink:href="#DejaVuSans-76"/>
      <use x="486.865234" xlink:href="#DejaVuSans-61"/>
      <use x="548.144531" xlink:href="#DejaVuSans-6c"/>
      <use x="575.927734" xlink:href="#DejaVuSans-73"/>
      <use x="628.027344" xlink:href="#DejaVuSans-5f"/>
      <use x="678.027344" xlink:href="#DejaVuSans-72"/>
      <use x="719.140625" xlink:href="#DejaVuSans-61"/>
      <use x="780.419922" xlink:href="#DejaVuSans-74"/>
      <use x="819.628906" xlink:href="#DejaVuSans-69"/>
      <use x="847.412109" xlink:href="#DejaVuSans-6f"/>
      <use x="908.59375" xlink:href="#DejaVuSans-5f"/>
      <use x="958.59375" xlink:href="#DejaVuSans-32"/>
      <use x="1022.216797" xlink:href="#DejaVuSans-5f"/>
      <use x="1072.216797" xlink:href="#DejaVuSans-33"/>
      <use x="1135.839844" xlink:href="#DejaVuSans-5f"/>
      <use x="1185.839844" xlink:href="#DejaVuSans-4e"/>
     </g>
    </g>
   </g>
   <g id="PolyCollection_1">
    <defs>
     <path d="M 87.733132 -50.112 
L 86.986868 -50.112 
L 86.910373 -52.555636 
L 86.822733 -54.999273 
L 86.723386 -57.442909 
L 86.611985 -59.886545 
L 86.488449 -62.330182 
L 86.353014 -64.773818 
L 86.206276 -67.217455 
L 86.049223 -69.661091 
L 85.88326 -72.104727 
L 85.710215 -74.548364 
L 85.532325 -76.992 
L 85.352208 -79.435636 
L 85.172808 -81.879273 
L 84.997328 -84.322909 
L 84.829139 -86.766545 
L 84.671677 -89.210182 
L 84.528328 -91.653818 
L 84.402309 -94.097455 
L 84.296547 -96.541091 
L 84.213571 -98.984727 
L 84.155405 -101.428364 
L 84.123491 -103.872 
L 84.118628 -106.315636 
L 84.140936 -108.759273 
L 84.189857 -111.202909 
L 84.264173 -113.646545 
L 84.362058 -116.090182 
L 84.481153 -118.533818 
L 84.61866 -120.977455 
L 84.771451 -123.421091 
L 84.936184 -125.864727 
L 85.109426 -128.308364 
L 85.28777 -130.752 
L 85.467936 -133.195636 
L 85.646876 -135.639273 
L 85.821841 -138.082909 
L 85.990446 -140.526545 
L 86.150704 -142.970182 
L 86.301046 -145.413818 
L 86.440318 -147.857455 
L 86.567767 -150.301091 
L 86.683007 -152.744727 
L 86.785976 -155.188364 
L 86.876894 -157.632 
L 86.956204 -160.075636 
L 87.024522 -162.519273 
L 87.082587 -164.962909 
L 87.131209 -167.406545 
L 87.171233 -169.850182 
L 87.203501 -172.293818 
L 87.228825 -174.737455 
L 87.247964 -177.181091 
L 87.261613 -179.624727 
L 87.270398 -182.068364 
L 87.274869 -184.512 
L 87.275508 -186.955636 
L 87.272732 -189.399273 
L 87.266907 -191.842909 
L 87.25836 -194.286545 
L 87.247386 -196.730182 
L 87.234268 -199.173818 
L 87.219283 -201.617455 
L 87.202713 -204.061091 
L 87.184859 -206.504727 
L 87.166038 -208.948364 
L 87.146592 -211.392 
L 87.126886 -213.835636 
L 87.107304 -216.279273 
L 87.088246 -218.722909 
L 87.070115 -221.166545 
L 87.053311 -223.610182 
L 87.038218 -226.053818 
L 87.025192 -228.497455 
L 87.014547 -230.941091 
L 87.006545 -233.384727 
L 87.001389 -235.828364 
L 86.999208 -238.272 
L 87.000059 -240.715636 
L 87.003922 -243.159273 
L 87.010701 -245.602909 
L 87.020228 -248.046545 
L 87.032269 -250.490182 
L 87.046539 -252.933818 
L 87.062705 -255.377455 
L 87.080405 -257.821091 
L 87.09926 -260.264727 
L 87.118885 -262.708364 
L 87.138905 -265.152 
L 87.158966 -267.595636 
L 87.178741 -270.039273 
L 87.197944 -272.482909 
L 87.216329 -274.926545 
L 87.233698 -277.370182 
L 87.2499 -279.813818 
L 87.264829 -282.257455 
L 87.278425 -284.701091 
L 87.290666 -287.144727 
L 87.301565 -289.588364 
L 87.311164 -292.032 
L 87.408836 -292.032 
L 87.408836 -292.032 
L 87.418435 -289.588364 
L 87.429334 -287.144727 
L 87.441575 -284.701091 
L 87.455171 -282.257455 
L 87.4701 -279.813818 
L 87.486302 -277.370182 
L 87.503671 -274.926545 
L 87.522056 -272.482909 
L 87.541259 -270.039273 
L 87.561034 -267.595636 
L 87.581095 -265.152 
L 87.601115 -262.708364 
L 87.62074 -260.264727 
L 87.639595 -257.821091 
L 87.657295 -255.377455 
L 87.673461 -252.933818 
L 87.687731 -250.490182 
L 87.699772 -248.046545 
L 87.709299 -245.602909 
L 87.716078 -243.159273 
L 87.719941 -240.715636 
L 87.720792 -238.272 
L 87.718611 -235.828364 
L 87.713455 -233.384727 
L 87.705453 -230.941091 
L 87.694808 -228.497455 
L 87.681782 -226.053818 
L 87.666689 -223.610182 
L 87.649885 -221.166545 
L 87.631754 -218.722909 
L 87.612696 -216.279273 
L 87.593114 -213.835636 
L 87.573408 -211.392 
L 87.553962 -208.948364 
L 87.535141 -206.504727 
L 87.517287 -204.061091 
L 87.500717 -201.617455 
L 87.485732 -199.173818 
L 87.472614 -196.730182 
L 87.46164 -194.286545 
L 87.453093 -191.842909 
L 87.447268 -189.399273 
L 87.444492 -186.955636 
L 87.445131 -184.512 
L 87.449602 -182.068364 
L 87.458387 -179.624727 
L 87.472036 -177.181091 
L 87.491175 -174.737455 
L 87.516499 -172.293818 
L 87.548767 -169.850182 
L 87.588791 -167.406545 
L 87.637413 -164.962909 
L 87.695478 -162.519273 
L 87.763796 -160.075636 
L 87.843106 -157.632 
L 87.934024 -155.188364 
L 88.036993 -152.744727 
L 88.152233 -150.301091 
L 88.279682 -147.857455 
L 88.418954 -145.413818 
L 88.569296 -142.970182 
L 88.729554 -140.526545 
L 88.898159 -138.082909 
L 89.073124 -135.639273 
L 89.252064 -133.195636 
L 89.43223 -130.752 
L 89.610574 -128.308364 
L 89.783816 -125.864727 
L 89.948549 -123.421091 
L 90.10134 -120.977455 
L 90.238847 -118.533818 
L 90.357942 -116.090182 
L 90.455827 -113.646545 
L 90.530143 -111.202909 
L 90.579064 -108.759273 
L 90.601372 -106.315636 
L 90.596509 -103.872 
L 90.564595 -101.428364 
L 90.506429 -98.984727 
L 90.423453 -96.541091 
L 90.317691 -94.097455 
L 90.191672 -91.653818 
L 90.048323 -89.210182 
L 89.890861 -86.766545 
L 89.722672 -84.322909 
L 89.547192 -81.879273 
L 89.367792 -79.435636 
L 89.187675 -76.992 
L 89.009785 -74.548364 
L 88.83674 -72.104727 
L 88.670777 -69.661091 
L 88.513724 -67.217455 
L 88.366986 -64.773818 
L 88.231551 -62.330182 
L 88.108015 -59.886545 
L 87.996614 -57.442909 
L 87.897267 -54.999273 
L 87.809627 -52.555636 
L 87.733132 -50.112 
z
" id="m9fa7d2a035" style="stroke:#3c3c3c;stroke-width:1.5;"/>
    </defs>
    <g clip-path="url(#pb4591514f6)">
     <use style="fill:#597dbf;stroke:#3c3c3c;stroke-width:1.5;" x="0" xlink:href="#m9fa7d2a035" y="345.6"/>
    </g>
   </g>
   <g id="PolyCollection_2">
    <defs>
     <path d="M 147.811726 -92.078238 
L 145.948274 -92.078238 
L 145.773493 -92.548612 
L 145.574731 -93.018987 
L 145.350563 -93.489361 
L 145.09986 -93.959736 
L 144.821865 -94.43011 
L 144.516274 -94.900484 
L 144.18331 -95.370859 
L 143.823791 -95.841233 
L 143.439185 -96.311608 
L 143.031647 -96.781982 
L 142.604042 -97.252357 
L 142.15994 -97.722731 
L 141.703586 -98.193105 
L 141.239848 -98.66348 
L 140.774136 -99.133854 
L 140.31229 -99.604229 
L 139.860451 -100.074603 
L 139.42491 -100.544978 
L 139.011939 -101.015352 
L 138.627617 -101.485726 
L 138.277646 -101.956101 
L 137.967178 -102.426475 
L 137.700649 -102.89685 
L 137.481633 -103.367224 
L 137.312719 -103.837598 
L 137.195415 -104.307973 
L 137.130095 -104.778347 
L 137.115976 -105.248722 
L 137.151131 -105.719096 
L 137.232547 -106.189471 
L 137.356219 -106.659845 
L 137.517267 -107.130219 
L 137.710095 -107.600594 
L 137.928562 -108.070968 
L 138.166175 -108.541343 
L 138.416286 -109.011717 
L 138.672297 -109.482092 
L 138.927853 -109.952466 
L 139.177027 -110.42284 
L 139.414485 -110.893215 
L 139.635626 -111.363589 
L 139.836698 -111.833964 
L 140.014875 -112.304338 
L 140.16831 -112.774712 
L 140.296144 -113.245087 
L 140.398488 -113.715461 
L 140.476369 -114.185836 
L 140.531652 -114.65621 
L 140.56693 -115.126585 
L 140.585395 -115.596959 
L 140.590699 -116.067333 
L 140.586803 -116.537708 
L 140.577817 -117.008082 
L 140.567853 -117.478457 
L 140.560881 -117.948831 
L 140.560601 -118.419206 
L 140.57033 -118.88958 
L 140.592917 -119.359954 
L 140.630676 -119.830329 
L 140.685348 -120.300703 
L 140.758085 -120.771078 
L 140.849463 -121.241452 
L 140.959506 -121.711826 
L 141.087741 -122.182201 
L 141.233257 -122.652575 
L 141.394776 -123.12295 
L 141.570734 -123.593324 
L 141.759356 -124.063699 
L 141.958734 -124.534073 
L 142.166899 -125.004447 
L 142.381878 -125.474822 
L 142.601749 -125.945196 
L 142.824683 -126.415571 
L 143.048968 -126.885945 
L 143.273032 -127.35632 
L 143.495454 -127.826694 
L 143.714959 -128.297068 
L 143.930423 -128.767443 
L 144.140855 -129.237817 
L 144.345393 -129.708192 
L 144.543291 -130.178566 
L 144.733905 -130.64894 
L 144.916687 -131.119315 
L 145.091174 -131.589689 
L 145.256985 -132.060064 
L 145.413819 -132.530438 
L 145.561446 -133.000813 
L 145.699718 -133.471187 
L 145.828559 -133.941561 
L 145.94797 -134.411936 
L 146.058028 -134.88231 
L 146.158886 -135.352685 
L 146.250765 -135.823059 
L 146.333958 -136.293434 
L 146.408815 -136.763808 
L 146.475741 -137.234182 
L 146.535186 -137.704557 
L 146.587637 -138.174931 
L 146.633604 -138.645306 
L 147.126396 -138.645306 
L 147.126396 -138.645306 
L 147.172363 -138.174931 
L 147.224814 -137.704557 
L 147.284259 -137.234182 
L 147.351185 -136.763808 
L 147.426042 -136.293434 
L 147.509235 -135.823059 
L 147.601114 -135.352685 
L 147.701972 -134.88231 
L 147.81203 -134.411936 
L 147.931441 -133.941561 
L 148.060282 -133.471187 
L 148.198554 -133.000813 
L 148.346181 -132.530438 
L 148.503015 -132.060064 
L 148.668826 -131.589689 
L 148.843313 -131.119315 
L 149.026095 -130.64894 
L 149.216709 -130.178566 
L 149.414607 -129.708192 
L 149.619145 -129.237817 
L 149.829577 -128.767443 
L 150.045041 -128.297068 
L 150.264546 -127.826694 
L 150.486968 -127.35632 
L 150.711032 -126.885945 
L 150.935317 -126.415571 
L 151.158251 -125.945196 
L 151.378122 -125.474822 
L 151.593101 -125.004447 
L 151.801266 -124.534073 
L 152.000644 -124.063699 
L 152.189266 -123.593324 
L 152.365224 -123.12295 
L 152.526743 -122.652575 
L 152.672259 -122.182201 
L 152.800494 -121.711826 
L 152.910537 -121.241452 
L 153.001915 -120.771078 
L 153.074652 -120.300703 
L 153.129324 -119.830329 
L 153.167083 -119.359954 
L 153.18967 -118.88958 
L 153.199399 -118.419206 
L 153.199119 -117.948831 
L 153.192147 -117.478457 
L 153.182183 -117.008082 
L 153.173197 -116.537708 
L 153.169301 -116.067333 
L 153.174605 -115.596959 
L 153.19307 -115.126585 
L 153.228348 -114.65621 
L 153.283631 -114.185836 
L 153.361512 -113.715461 
L 153.463856 -113.245087 
L 153.59169 -112.774712 
L 153.745125 -112.304338 
L 153.923302 -111.833964 
L 154.124374 -111.363589 
L 154.345515 -110.893215 
L 154.582973 -110.42284 
L 154.832147 -109.952466 
L 155.087703 -109.482092 
L 155.343714 -109.011717 
L 155.593825 -108.541343 
L 155.831438 -108.070968 
L 156.049905 -107.600594 
L 156.242733 -107.130219 
L 156.403781 -106.659845 
L 156.527453 -106.189471 
L 156.608869 -105.719096 
L 156.644024 -105.248722 
L 156.629905 -104.778347 
L 156.564585 -104.307973 
L 156.447281 -103.837598 
L 156.278367 -103.367224 
L 156.059351 -102.89685 
L 155.792822 -102.426475 
L 155.482354 -101.956101 
L 155.132383 -101.485726 
L 154.748061 -101.015352 
L 154.33509 -100.544978 
L 153.899549 -100.074603 
L 153.44771 -99.604229 
L 152.985864 -99.133854 
L 152.520152 -98.66348 
L 152.056414 -98.193105 
L 151.60006 -97.722731 
L 151.155958 -97.252357 
L 150.728353 -96.781982 
L 150.320815 -96.311608 
L 149.936209 -95.841233 
L 149.57669 -95.370859 
L 149.243726 -94.900484 
L 148.938135 -94.43011 
L 148.66014 -93.959736 
L 148.409437 -93.489361 
L 148.185269 -93.018987 
L 147.986507 -92.548612 
L 147.811726 -92.078238 
z
" id="md91b8e0289" style="stroke:#3c3c3c;stroke-width:1.5;"/>
    </defs>
    <g clip-path="url(#pb4591514f6)">
     <use style="fill:#d98b5f;stroke:#3c3c3c;stroke-width:1.5;" x="0" xlink:href="#md91b8e0289" y="345.6"/>
    </g>
   </g>
   <g id="PolyCollection_3">
    <defs>
     <path d="M 207.655363 -99.005518 
L 205.144637 -99.005518 
L 204.902974 -99.170333 
L 204.626812 -99.335148 
L 204.313794 -99.499963 
L 203.961914 -99.664778 
L 203.569623 -99.829592 
L 203.13594 -99.994407 
L 202.660556 -100.159222 
L 202.143925 -100.324037 
L 201.587344 -100.488851 
L 200.993006 -100.653666 
L 200.364032 -100.818481 
L 199.70447 -100.983296 
L 199.019257 -101.14811 
L 198.314147 -101.312925 
L 197.595606 -101.47774 
L 196.870665 -101.642555 
L 196.146744 -101.80737 
L 195.431453 -101.972184 
L 194.732368 -102.136999 
L 194.056799 -102.301814 
L 193.411551 -102.466629 
L 192.802699 -102.631443 
L 192.23538 -102.796258 
L 191.713605 -102.961073 
L 191.240115 -103.125888 
L 190.81628 -103.290702 
L 190.442038 -103.455517 
L 190.115896 -103.620332 
L 189.834976 -103.785147 
L 189.595115 -103.949962 
L 189.391005 -104.114776 
L 189.216387 -104.279591 
L 189.064259 -104.444406 
L 188.927123 -104.609221 
L 188.797237 -104.774035 
L 188.666874 -104.93885 
L 188.528576 -105.103665 
L 188.375385 -105.26848 
L 188.201063 -105.433295 
L 188.000276 -105.598109 
L 187.768741 -105.762924 
L 187.503345 -105.927739 
L 187.20222 -106.092554 
L 186.864782 -106.257368 
L 186.491736 -106.422183 
L 186.085048 -106.586998 
L 185.64789 -106.751813 
L 185.184557 -106.916627 
L 184.700369 -107.081442 
L 184.201552 -107.246257 
L 183.695113 -107.411072 
L 183.188704 -107.575887 
L 182.690476 -107.740701 
L 182.208937 -107.905516 
L 181.7528 -108.070331 
L 181.330836 -108.235146 
L 180.95172 -108.39996 
L 180.623885 -108.564775 
L 180.355369 -108.72959 
L 180.153667 -108.894405 
L 180.025592 -109.059219 
L 179.977129 -109.224034 
L 180.013314 -109.388849 
L 180.138106 -109.553664 
L 180.354292 -109.718479 
L 180.663392 -109.883293 
L 181.065605 -110.048108 
L 181.559762 -110.212923 
L 182.143323 -110.377738 
L 182.812393 -110.542552 
L 183.56178 -110.707367 
L 184.385075 -110.872182 
L 185.274772 -111.036997 
L 186.22241 -111.201811 
L 187.218743 -111.366626 
L 188.253932 -111.531441 
L 189.317749 -111.696256 
L 190.399787 -111.861071 
L 191.48968 -112.025885 
L 192.577308 -112.1907 
L 193.652996 -112.355515 
L 194.707698 -112.52033 
L 195.733144 -112.685144 
L 196.721979 -112.849959 
L 197.667855 -113.014774 
L 198.565502 -113.179589 
L 199.410756 -113.344403 
L 200.200569 -113.509218 
L 200.932974 -113.674033 
L 201.607038 -113.838848 
L 202.222779 -114.003663 
L 202.781078 -114.168477 
L 203.283563 -114.333292 
L 203.7325 -114.498107 
L 204.130669 -114.662922 
L 204.481244 -114.827736 
L 204.787676 -114.992551 
L 205.053586 -115.157366 
L 205.28267 -115.322181 
L 207.51733 -115.322181 
L 207.51733 -115.322181 
L 207.746414 -115.157366 
L 208.012324 -114.992551 
L 208.318756 -114.827736 
L 208.669331 -114.662922 
L 209.0675 -114.498107 
L 209.516437 -114.333292 
L 210.018922 -114.168477 
L 210.577221 -114.003663 
L 211.192962 -113.838848 
L 211.867026 -113.674033 
L 212.599431 -113.509218 
L 213.389244 -113.344403 
L 214.234498 -113.179589 
L 215.132145 -113.014774 
L 216.078021 -112.849959 
L 217.066856 -112.685144 
L 218.092302 -112.52033 
L 219.147004 -112.355515 
L 220.222692 -112.1907 
L 221.31032 -112.025885 
L 222.400213 -111.861071 
L 223.482251 -111.696256 
L 224.546068 -111.531441 
L 225.581257 -111.366626 
L 226.57759 -111.201811 
L 227.525228 -111.036997 
L 228.414925 -110.872182 
L 229.23822 -110.707367 
L 229.987607 -110.542552 
L 230.656677 -110.377738 
L 231.240238 -110.212923 
L 231.734395 -110.048108 
L 232.136608 -109.883293 
L 232.445708 -109.718479 
L 232.661894 -109.553664 
L 232.786686 -109.388849 
L 232.822871 -109.224034 
L 232.774408 -109.059219 
L 232.646333 -108.894405 
L 232.444631 -108.72959 
L 232.176115 -108.564775 
L 231.84828 -108.39996 
L 231.469164 -108.235146 
L 231.0472 -108.070331 
L 230.591063 -107.905516 
L 230.109524 -107.740701 
L 229.611296 -107.575887 
L 229.104887 -107.411072 
L 228.598448 -107.246257 
L 228.099631 -107.081442 
L 227.615443 -106.916627 
L 227.15211 -106.751813 
L 226.714952 -106.586998 
L 226.308264 -106.422183 
L 225.935218 -106.257368 
L 225.59778 -106.092554 
L 225.296655 -105.927739 
L 225.031259 -105.762924 
L 224.799724 -105.598109 
L 224.598937 -105.433295 
L 224.424615 -105.26848 
L 224.271424 -105.103665 
L 224.133126 -104.93885 
L 224.002763 -104.774035 
L 223.872877 -104.609221 
L 223.735741 -104.444406 
L 223.583613 -104.279591 
L 223.408995 -104.114776 
L 223.204885 -103.949962 
L 222.965024 -103.785147 
L 222.684104 -103.620332 
L 222.357962 -103.455517 
L 221.98372 -103.290702 
L 221.559885 -103.125888 
L 221.086395 -102.961073 
L 220.56462 -102.796258 
L 219.997301 -102.631443 
L 219.388449 -102.466629 
L 218.743201 -102.301814 
L 218.067632 -102.136999 
L 217.368547 -101.972184 
L 216.653256 -101.80737 
L 215.929335 -101.642555 
L 215.204394 -101.47774 
L 214.485853 -101.312925 
L 213.780743 -101.14811 
L 213.09553 -100.983296 
L 212.435968 -100.818481 
L 211.806994 -100.653666 
L 211.212656 -100.488851 
L 210.656075 -100.324037 
L 210.139444 -100.159222 
L 209.66406 -99.994407 
L 209.230377 -99.829592 
L 208.838086 -99.664778 
L 208.486206 -99.499963 
L 208.173188 -99.335148 
L 207.897026 -99.170333 
L 207.655363 -99.005518 
z
" id="m01f0a890e2" style="stroke:#3c3c3c;stroke-width:1.5;"/>
    </defs>
    <g clip-path="url(#pb4591514f6)">
     <use style="fill:#75bf71;stroke:#3c3c3c;stroke-width:1.5;" x="0" xlink:href="#m01f0a890e2" y="345.6"/>
    </g>
   </g>
   <g id="PolyCollection_4">
    <defs>
     <path d="M 267.248442 -93.865819 
L 264.591558 -93.865819 
L 264.34009 -94.19124 
L 264.053271 -94.51666 
L 263.728751 -94.84208 
L 263.364555 -95.1675 
L 262.959198 -95.49292 
L 262.511811 -95.818341 
L 262.022252 -96.143761 
L 261.491217 -96.469181 
L 260.920334 -96.794601 
L 260.312236 -97.120022 
L 259.670609 -97.445442 
L 259.00021 -97.770862 
L 258.306845 -98.096282 
L 257.597314 -98.421702 
L 256.879309 -98.747123 
L 256.161276 -99.072543 
L 255.452241 -99.397963 
L 254.761594 -99.723383 
L 254.098853 -100.048804 
L 253.473411 -100.374224 
L 252.89426 -100.699644 
L 252.369735 -101.025064 
L 251.907253 -101.350484 
L 251.513089 -101.675905 
L 251.192176 -102.001325 
L 250.947957 -102.326745 
L 250.782284 -102.652165 
L 250.695368 -102.977586 
L 250.685797 -103.303006 
L 250.750606 -103.628426 
L 250.885399 -103.953846 
L 251.084527 -104.279266 
L 251.341295 -104.604687 
L 251.648212 -104.930107 
L 251.997245 -105.255527 
L 252.380088 -105.580947 
L 252.788422 -105.906368 
L 253.214157 -106.231788 
L 253.649643 -106.557208 
L 254.087854 -106.882628 
L 254.522522 -107.208048 
L 254.948233 -107.533469 
L 255.360473 -107.858889 
L 255.75564 -108.184309 
L 256.131008 -108.509729 
L 256.48467 -108.83515 
L 256.815446 -109.16057 
L 257.122786 -109.48599 
L 257.406656 -109.81141 
L 257.667429 -110.13683 
L 257.905789 -110.462251 
L 258.122634 -110.787671 
L 258.319011 -111.113091 
L 258.496064 -111.438511 
L 258.655001 -111.763932 
L 258.79708 -112.089352 
L 258.923619 -112.414772 
L 259.036001 -112.740192 
L 259.135706 -113.065612 
L 259.224332 -113.391033 
L 259.303615 -113.716453 
L 259.375447 -114.041873 
L 259.441877 -114.367293 
L 259.505104 -114.692713 
L 259.567449 -115.018134 
L 259.631318 -115.343554 
L 259.699147 -115.668974 
L 259.773338 -115.994394 
L 259.856187 -116.319815 
L 259.949809 -116.645235 
L 260.056063 -116.970655 
L 260.17648 -117.296075 
L 260.312208 -117.621495 
L 260.463959 -117.946916 
L 260.631982 -118.272336 
L 260.816046 -118.597756 
L 261.015451 -118.923176 
L 261.229045 -119.248597 
L 261.455269 -119.574017 
L 261.692209 -119.899437 
L 261.937666 -120.224857 
L 262.18923 -120.550277 
L 262.444363 -120.875698 
L 262.700478 -121.201118 
L 262.955017 -121.526538 
L 263.205531 -121.851958 
L 263.449738 -122.177379 
L 263.685579 -122.502799 
L 263.911264 -122.828219 
L 264.125298 -123.153639 
L 264.326497 -123.479059 
L 264.514 -123.80448 
L 264.687251 -124.1299 
L 264.845996 -124.45532 
L 264.990246 -124.78074 
L 265.120258 -125.106161 
L 265.236494 -125.431581 
L 265.339586 -125.757001 
L 265.430302 -126.082421 
L 266.409698 -126.082421 
L 266.409698 -126.082421 
L 266.500414 -125.757001 
L 266.603506 -125.431581 
L 266.719742 -125.106161 
L 266.849754 -124.78074 
L 266.994004 -124.45532 
L 267.152749 -124.1299 
L 267.326 -123.80448 
L 267.513503 -123.479059 
L 267.714702 -123.153639 
L 267.928736 -122.828219 
L 268.154421 -122.502799 
L 268.390262 -122.177379 
L 268.634469 -121.851958 
L 268.884983 -121.526538 
L 269.139522 -121.201118 
L 269.395637 -120.875698 
L 269.65077 -120.550277 
L 269.902334 -120.224857 
L 270.147791 -119.899437 
L 270.384731 -119.574017 
L 270.610955 -119.248597 
L 270.824549 -118.923176 
L 271.023954 -118.597756 
L 271.208018 -118.272336 
L 271.376041 -117.946916 
L 271.527792 -117.621495 
L 271.66352 -117.296075 
L 271.783937 -116.970655 
L 271.890191 -116.645235 
L 271.983813 -116.319815 
L 272.066662 -115.994394 
L 272.140853 -115.668974 
L 272.208682 -115.343554 
L 272.272551 -115.018134 
L 272.334896 -114.692713 
L 272.398123 -114.367293 
L 272.464553 -114.041873 
L 272.536385 -113.716453 
L 272.615668 -113.391033 
L 272.704294 -113.065612 
L 272.803999 -112.740192 
L 272.916381 -112.414772 
L 273.04292 -112.089352 
L 273.184999 -111.763932 
L 273.343936 -111.438511 
L 273.520989 -111.113091 
L 273.717366 -110.787671 
L 273.934211 -110.462251 
L 274.172571 -110.13683 
L 274.433344 -109.81141 
L 274.717214 -109.48599 
L 275.024554 -109.16057 
L 275.35533 -108.83515 
L 275.708992 -108.509729 
L 276.08436 -108.184309 
L 276.479527 -107.858889 
L 276.891767 -107.533469 
L 277.317478 -107.208048 
L 277.752146 -106.882628 
L 278.190357 -106.557208 
L 278.625843 -106.231788 
L 279.051578 -105.906368 
L 279.459912 -105.580947 
L 279.842755 -105.255527 
L 280.191788 -104.930107 
L 280.498705 -104.604687 
L 280.755473 -104.279266 
L 280.954601 -103.953846 
L 281.089394 -103.628426 
L 281.154203 -103.303006 
L 281.144632 -102.977586 
L 281.057716 -102.652165 
L 280.892043 -102.326745 
L 280.647824 -102.001325 
L 280.326911 -101.675905 
L 279.932747 -101.350484 
L 279.470265 -101.025064 
L 278.94574 -100.699644 
L 278.366589 -100.374224 
L 277.741147 -100.048804 
L 277.078406 -99.723383 
L 276.387759 -99.397963 
L 275.678724 -99.072543 
L 274.960691 -98.747123 
L 274.242686 -98.421702 
L 273.533155 -98.096282 
L 272.83979 -97.770862 
L 272.169391 -97.445442 
L 271.527764 -97.120022 
L 270.919666 -96.794601 
L 270.348783 -96.469181 
L 269.817748 -96.143761 
L 269.328189 -95.818341 
L 268.880802 -95.49292 
L 268.475445 -95.1675 
L 268.111249 -94.84208 
L 267.786729 -94.51666 
L 267.49991 -94.19124 
L 267.248442 -93.865819 
z
" id="m52e6b0b6d2" style="stroke:#3c3c3c;stroke-width:1.5;"/>
    </defs>
    <g clip-path="url(#pb4591514f6)">
     <use style="fill:#c76e6e;stroke:#3c3c3c;stroke-width:1.5;" x="0" xlink:href="#m52e6b0b6d2" y="345.6"/>
    </g>
   </g>
   <g id="PolyCollection_5">
    <defs>
     <path d="M 326.317626 -95.017942 
L 324.562374 -95.017942 
L 324.36236 -95.454741 
L 324.127447 -95.891539 
L 323.854138 -96.328337 
L 323.539158 -96.765136 
L 323.17959 -97.201934 
L 322.773033 -97.638732 
L 322.317751 -98.075531 
L 321.812834 -98.512329 
L 321.258341 -98.949127 
L 320.655428 -99.385926 
L 320.006459 -99.822724 
L 319.315076 -100.259522 
L 318.586241 -100.696321 
L 317.826235 -101.133119 
L 317.042604 -101.569917 
L 316.24407 -102.006716 
L 315.440391 -102.443514 
L 314.642175 -102.880312 
L 313.860661 -103.31711 
L 313.107465 -103.753909 
L 312.3943 -104.190707 
L 311.732683 -104.627505 
L 311.133637 -105.064304 
L 310.607395 -105.501102 
L 310.163121 -105.9379 
L 309.808657 -106.374699 
L 309.550298 -106.811497 
L 309.392619 -107.248295 
L 309.338344 -107.685094 
L 309.388269 -108.121892 
L 309.541242 -108.55869 
L 309.794202 -108.995489 
L 310.142273 -109.432287 
L 310.578908 -109.869085 
L 311.096084 -110.305884 
L 311.684529 -110.742682 
L 312.33399 -111.17948 
L 313.03351 -111.616279 
L 313.771724 -112.053077 
L 314.537144 -112.489875 
L 315.318441 -112.926673 
L 316.104702 -113.363472 
L 316.885656 -113.80027 
L 317.651864 -114.237068 
L 318.394875 -114.673867 
L 319.107326 -115.110665 
L 319.783013 -115.547463 
L 320.416911 -115.984262 
L 321.005156 -116.42106 
L 321.545 -116.857858 
L 322.034733 -117.294657 
L 322.473585 -117.731455 
L 322.861618 -118.168253 
L 323.199608 -118.605052 
L 323.488929 -119.04185 
L 323.731444 -119.478648 
L 323.929402 -119.915447 
L 324.085355 -120.352245 
L 324.202081 -120.789043 
L 324.282538 -121.225842 
L 324.329817 -121.66264 
L 324.34712 -122.099438 
L 324.337745 -122.536237 
L 324.305074 -122.973035 
L 324.252571 -123.409833 
L 324.18377 -123.846631 
L 324.102266 -124.28343 
L 324.011692 -124.720228 
L 323.915687 -125.157026 
L 323.817855 -125.593825 
L 323.721707 -126.030623 
L 323.630602 -126.467421 
L 323.547672 -126.90422 
L 323.475749 -127.341018 
L 323.417297 -127.777816 
L 323.374339 -128.214615 
L 323.348407 -128.651413 
L 323.3405 -129.088211 
L 323.351059 -129.52501 
L 323.379972 -129.961808 
L 323.426587 -130.398606 
L 323.489761 -130.835405 
L 323.56791 -131.272203 
L 323.659095 -131.709001 
L 323.761103 -132.1458 
L 323.871542 -132.582598 
L 323.987942 -133.019396 
L 324.107843 -133.456195 
L 324.228884 -133.892993 
L 324.348876 -134.329791 
L 324.465864 -134.766589 
L 324.57817 -135.203388 
L 324.684421 -135.640186 
L 324.783561 -136.076984 
L 324.874849 -136.513783 
L 324.95784 -136.950581 
L 325.032364 -137.387379 
L 325.098485 -137.824178 
L 325.156468 -138.260976 
L 325.723532 -138.260976 
L 325.723532 -138.260976 
L 325.781515 -137.824178 
L 325.847636 -137.387379 
L 325.92216 -136.950581 
L 326.005151 -136.513783 
L 326.096439 -136.076984 
L 326.195579 -135.640186 
L 326.30183 -135.203388 
L 326.414136 -134.766589 
L 326.531124 -134.329791 
L 326.651116 -133.892993 
L 326.772157 -133.456195 
L 326.892058 -133.019396 
L 327.008458 -132.582598 
L 327.118897 -132.1458 
L 327.220905 -131.709001 
L 327.31209 -131.272203 
L 327.390239 -130.835405 
L 327.453413 -130.398606 
L 327.500028 -129.961808 
L 327.528941 -129.52501 
L 327.5395 -129.088211 
L 327.531593 -128.651413 
L 327.505661 -128.214615 
L 327.462703 -127.777816 
L 327.404251 -127.341018 
L 327.332328 -126.90422 
L 327.249398 -126.467421 
L 327.158293 -126.030623 
L 327.062145 -125.593825 
L 326.964313 -125.157026 
L 326.868308 -124.720228 
L 326.777734 -124.28343 
L 326.69623 -123.846631 
L 326.627429 -123.409833 
L 326.574926 -122.973035 
L 326.542255 -122.536237 
L 326.53288 -122.099438 
L 326.550183 -121.66264 
L 326.597462 -121.225842 
L 326.677919 -120.789043 
L 326.794645 -120.352245 
L 326.950598 -119.915447 
L 327.148556 -119.478648 
L 327.391071 -119.04185 
L 327.680392 -118.605052 
L 328.018382 -118.168253 
L 328.406415 -117.731455 
L 328.845267 -117.294657 
L 329.335 -116.857858 
L 329.874844 -116.42106 
L 330.463089 -115.984262 
L 331.096987 -115.547463 
L 331.772674 -115.110665 
L 332.485125 -114.673867 
L 333.228136 -114.237068 
L 333.994344 -113.80027 
L 334.775298 -113.363472 
L 335.561559 -112.926673 
L 336.342856 -112.489875 
L 337.108276 -112.053077 
L 337.84649 -111.616279 
L 338.54601 -111.17948 
L 339.195471 -110.742682 
L 339.783916 -110.305884 
L 340.301092 -109.869085 
L 340.737727 -109.432287 
L 341.085798 -108.995489 
L 341.338758 -108.55869 
L 341.491731 -108.121892 
L 341.541656 -107.685094 
L 341.487381 -107.248295 
L 341.329702 -106.811497 
L 341.071343 -106.374699 
L 340.716879 -105.9379 
L 340.272605 -105.501102 
L 339.746363 -105.064304 
L 339.147317 -104.627505 
L 338.4857 -104.190707 
L 337.772535 -103.753909 
L 337.019339 -103.31711 
L 336.237825 -102.880312 
L 335.439609 -102.443514 
L 334.63593 -102.006716 
L 333.837396 -101.569917 
L 333.053765 -101.133119 
L 332.293759 -100.696321 
L 331.564924 -100.259522 
L 330.873541 -99.822724 
L 330.224572 -99.385926 
L 329.621659 -98.949127 
L 329.067166 -98.512329 
L 328.562249 -98.075531 
L 328.106967 -97.638732 
L 327.70041 -97.201934 
L 327.340842 -96.765136 
L 327.025862 -96.328337 
L 326.752553 -95.891539 
L 326.51764 -95.454741 
L 326.317626 -95.017942 
z
" id="m75577c25a2" style="stroke:#3c3c3c;stroke-width:1.5;"/>
    </defs>
    <g clip-path="url(#pb4591514f6)">
     <use style="fill:#9475ab;stroke:#3c3c3c;stroke-width:1.5;" x="0" xlink:href="#m75577c25a2" y="345.6"/>
    </g>
   </g>
   <g id="PolyCollection_6">
    <defs>
     <path d="M 386.791565 -98.63836 
L 383.128435 -98.63836 
L 382.738941 -98.825948 
L 382.285617 -99.013535 
L 381.762435 -99.201123 
L 381.163752 -99.388711 
L 380.484556 -99.576298 
L 379.720725 -99.763886 
L 378.869301 -99.951473 
L 377.928769 -100.139061 
L 376.899323 -100.326649 
L 375.783116 -100.514236 
L 374.584463 -100.701824 
L 373.310008 -100.889411 
L 371.968812 -101.076999 
L 370.572379 -101.264587 
L 369.134584 -101.452174 
L 367.671518 -101.639762 
L 366.20123 -101.827349 
L 364.743384 -102.014937 
L 363.31882 -102.202525 
L 361.949045 -102.390112 
L 360.655662 -102.5777 
L 359.459754 -102.765287 
L 358.381256 -102.952875 
L 357.438329 -103.140463 
L 356.646772 -103.32805 
L 356.019481 -103.515638 
L 355.566007 -103.703225 
L 355.292203 -103.890813 
L 355.2 -104.078401 
L 355.287309 -104.265988 
L 355.548069 -104.453576 
L 355.972428 -104.641163 
L 356.547056 -104.828751 
L 357.255586 -105.016339 
L 358.079147 -105.203926 
L 358.996986 -105.391514 
L 359.987142 -105.579101 
L 361.02715 -105.766689 
L 362.094742 -105.954277 
L 363.16852 -106.141864 
L 364.228579 -106.329452 
L 365.257039 -106.517039 
L 366.238495 -106.704627 
L 367.160344 -106.892215 
L 368.012994 -107.079802 
L 368.789948 -107.26739 
L 369.487769 -107.454978 
L 370.105923 -107.642565 
L 370.646528 -107.830153 
L 371.11401 -108.01774 
L 371.514704 -108.205328 
L 371.856402 -108.392916 
L 372.147887 -108.580503 
L 372.398474 -108.768091 
L 372.617567 -108.955678 
L 372.814266 -109.143266 
L 372.997034 -109.330854 
L 373.173432 -109.518441 
L 373.349928 -109.706029 
L 373.531792 -109.893616 
L 373.723062 -110.081204 
L 373.926579 -110.268792 
L 374.144082 -110.456379 
L 374.376348 -110.643967 
L 374.623362 -110.831554 
L 374.884505 -111.019142 
L 375.158739 -111.20673 
L 375.444781 -111.394317 
L 375.741258 -111.581905 
L 376.046827 -111.769492 
L 376.360263 -111.95708 
L 376.680503 -112.144668 
L 377.006667 -112.332255 
L 377.338035 -112.519843 
L 377.674011 -112.70743 
L 378.01406 -112.895018 
L 378.357648 -113.082606 
L 378.704166 -113.270193 
L 379.05288 -113.457781 
L 379.402878 -113.645368 
L 379.753041 -113.832956 
L 380.102039 -114.020544 
L 380.448335 -114.208131 
L 380.790219 -114.395719 
L 381.125853 -114.583306 
L 381.453332 -114.770894 
L 381.770745 -114.958482 
L 382.076247 -115.146069 
L 382.368125 -115.333657 
L 382.644858 -115.521245 
L 382.905168 -115.708832 
L 383.148056 -115.89642 
L 383.372826 -116.084007 
L 383.579098 -116.271595 
L 383.7668 -116.459183 
L 383.936157 -116.64677 
L 384.087658 -116.834358 
L 384.222027 -117.021945 
L 384.340179 -117.209533 
L 385.579821 -117.209533 
L 385.579821 -117.209533 
L 385.697973 -117.021945 
L 385.832342 -116.834358 
L 385.983843 -116.64677 
L 386.1532 -116.459183 
L 386.340902 -116.271595 
L 386.547174 -116.084007 
L 386.771944 -115.89642 
L 387.014832 -115.708832 
L 387.275142 -115.521245 
L 387.551875 -115.333657 
L 387.843753 -115.146069 
L 388.149255 -114.958482 
L 388.466668 -114.770894 
L 388.794147 -114.583306 
L 389.129781 -114.395719 
L 389.471665 -114.208131 
L 389.817961 -114.020544 
L 390.166959 -113.832956 
L 390.517122 -113.645368 
L 390.86712 -113.457781 
L 391.215834 -113.270193 
L 391.562352 -113.082606 
L 391.90594 -112.895018 
L 392.245989 -112.70743 
L 392.581965 -112.519843 
L 392.913333 -112.332255 
L 393.239497 -112.144668 
L 393.559737 -111.95708 
L 393.873173 -111.769492 
L 394.178742 -111.581905 
L 394.475219 -111.394317 
L 394.761261 -111.20673 
L 395.035495 -111.019142 
L 395.296638 -110.831554 
L 395.543652 -110.643967 
L 395.775918 -110.456379 
L 395.993421 -110.268792 
L 396.196938 -110.081204 
L 396.388208 -109.893616 
L 396.570072 -109.706029 
L 396.746568 -109.518441 
L 396.922966 -109.330854 
L 397.105734 -109.143266 
L 397.302433 -108.955678 
L 397.521526 -108.768091 
L 397.772113 -108.580503 
L 398.063598 -108.392916 
L 398.405296 -108.205328 
L 398.80599 -108.01774 
L 399.273472 -107.830153 
L 399.814077 -107.642565 
L 400.432231 -107.454978 
L 401.130052 -107.26739 
L 401.907006 -107.079802 
L 402.759656 -106.892215 
L 403.681505 -106.704627 
L 404.662961 -106.517039 
L 405.691421 -106.329452 
L 406.75148 -106.141864 
L 407.825258 -105.954277 
L 408.89285 -105.766689 
L 409.932858 -105.579101 
L 410.923014 -105.391514 
L 411.840853 -105.203926 
L 412.664414 -105.016339 
L 413.372944 -104.828751 
L 413.947572 -104.641163 
L 414.371931 -104.453576 
L 414.632691 -104.265988 
L 414.72 -104.078401 
L 414.627797 -103.890813 
L 414.353993 -103.703225 
L 413.900519 -103.515638 
L 413.273228 -103.32805 
L 412.481671 -103.140463 
L 411.538744 -102.952875 
L 410.460246 -102.765287 
L 409.264338 -102.5777 
L 407.970955 -102.390112 
L 406.60118 -102.202525 
L 405.176616 -102.014937 
L 403.71877 -101.827349 
L 402.248482 -101.639762 
L 400.785416 -101.452174 
L 399.347621 -101.264587 
L 397.951188 -101.076999 
L 396.609992 -100.889411 
L 395.335537 -100.701824 
L 394.136884 -100.514236 
L 393.020677 -100.326649 
L 391.991231 -100.139061 
L 391.050699 -99.951473 
L 390.199275 -99.763886 
L 389.435444 -99.576298 
L 388.756248 -99.388711 
L 388.157565 -99.201123 
L 387.634383 -99.013535 
L 387.181059 -98.825948 
L 386.791565 -98.63836 
z
" id="md92c6448f1" style="stroke:#3c3c3c;stroke-width:1.5;"/>
    </defs>
    <g clip-path="url(#pb4591514f6)">
     <use style="fill:#826246;stroke:#3c3c3c;stroke-width:1.5;" x="0" xlink:href="#md92c6448f1" y="345.6"/>
    </g>
   </g>
   <g id="line2d_9">
    <path clip-path="url(#pb4591514f6)" d="M 87.36 242.269253 
L 87.36 237.479246 
" style="fill:none;stroke:#3c3c3c;stroke-linecap:round;stroke-width:1.5;"/>
   </g>
   <g id="line2d_10">
    <path clip-path="url(#pb4591514f6)" d="M 87.36 241.093919 
L 87.36 238.834267 
" style="fill:none;stroke:#3c3c3c;stroke-linecap:round;stroke-width:4.5;"/>
   </g>
   <g id="line2d_11">
    <path clip-path="url(#pb4591514f6)" d="M 146.88 242.227737 
L 146.88 218.24872 
" style="fill:none;stroke:#3c3c3c;stroke-linecap:round;stroke-width:1.5;"/>
   </g>
   <g id="line2d_12">
    <path clip-path="url(#pb4591514f6)" d="M 146.88 241.78333 
L 146.88 226.436299 
" style="fill:none;stroke:#3c3c3c;stroke-linecap:round;stroke-width:4.5;"/>
   </g>
   <g id="line2d_13">
    <path clip-path="url(#pb4591514f6)" d="M 206.4 242.697281 
L 206.4 234.17502 
" style="fill:none;stroke:#3c3c3c;stroke-linecap:round;stroke-width:1.5;"/>
   </g>
   <g id="line2d_14">
    <path clip-path="url(#pb4591514f6)" d="M 206.4 240.582794 
L 206.4 235.761094 
" style="fill:none;stroke:#3c3c3c;stroke-linecap:round;stroke-width:4.5;"/>
   </g>
   <g id="line2d_15">
    <path clip-path="url(#pb4591514f6)" d="M 265.92 243.788258 
L 265.92 227.463501 
" style="fill:none;stroke:#3c3c3c;stroke-linecap:round;stroke-width:1.5;"/>
   </g>
   <g id="line2d_16">
    <path clip-path="url(#pb4591514f6)" d="M 265.92 243.09414 
L 265.92 235.259735 
" style="fill:none;stroke:#3c3c3c;stroke-linecap:round;stroke-width:4.5;"/>
   </g>
   <g id="line2d_17">
    <path clip-path="url(#pb4591514f6)" d="M 325.44 241.415533 
L 325.44 232.839795 
" style="fill:none;stroke:#3c3c3c;stroke-linecap:round;stroke-width:1.5;"/>
   </g>
   <g id="line2d_18">
    <path clip-path="url(#pb4591514f6)" d="M 325.44 240.082076 
L 325.44 235.665567 
" style="fill:none;stroke:#3c3c3c;stroke-linecap:round;stroke-width:4.5;"/>
   </g>
   <g id="line2d_19">
    <path clip-path="url(#pb4591514f6)" d="M 384.96 242.677134 
L 384.96 232.674973 
" style="fill:none;stroke:#3c3c3c;stroke-linecap:round;stroke-width:1.5;"/>
   </g>
   <g id="line2d_20">
    <path clip-path="url(#pb4591514f6)" d="M 384.96 241.704147 
L 384.96 237.383946 
" style="fill:none;stroke:#3c3c3c;stroke-linecap:round;stroke-width:4.5;"/>
   </g>
   <g id="patch_3">
    <path d="M 57.6 307.584 
L 57.6 41.472 
" style="fill:none;stroke:#cccccc;stroke-linecap:square;stroke-linejoin:miter;stroke-width:1.25;"/>
   </g>
   <g id="patch_4">
    <path d="M 414.72 307.584 
L 414.72 41.472 
" style="fill:none;stroke:#cccccc;stroke-linecap:square;stroke-linejoin:miter;stroke-width:1.25;"/>
   </g>
   <g id="patch_5">
    <path d="M 57.6 307.584 
L 414.72 307.584 
" style="fill:none;stroke:#cccccc;stroke-linecap:square;stroke-linejoin:miter;stroke-width:1.25;"/>
   </g>
   <g id="patch_6">
    <path d="M 57.6 41.472 
L 414.72 41.472 
" style="fill:none;stroke:#cccccc;stroke-linecap:square;stroke-linejoin:miter;stroke-width:1.25;"/>
   </g>
   <g id="PathCollection_1">
    <defs>
     <path d="M 0 1.5 
C 0.397805 1.5 0.77937 1.341951 1.06066 1.06066 
C 1.341951 0.77937 1.5 0.397805 1.5 0 
C 1.5 -0.397805 1.341951 -0.77937 1.06066 -1.06066 
C 0.77937 -1.341951 0.397805 -1.5 0 -1.5 
C -0.397805 -1.5 -0.77937 -1.341951 -1.06066 -1.06066 
C -1.341951 -0.77937 -1.5 -0.397805 -1.5 0 
C -1.5 0.397805 -1.341951 0.77937 -1.06066 1.06066 
C -0.77937 1.341951 -0.397805 1.5 0 1.5 
z
" id="m0f95af92e1" style="stroke:#3c3c3c;"/>
    </defs>
    <g clip-path="url(#pb4591514f6)">
     <use style="fill:#ffffff;stroke:#3c3c3c;" x="87.36" xlink:href="#m0f95af92e1" y="239.942609"/>
    </g>
   </g>
   <g id="PathCollection_2">
    <g clip-path="url(#pb4591514f6)">
     <use style="fill:#ffffff;stroke:#3c3c3c;" x="146.88" xlink:href="#m0f95af92e1" y="238.017236"/>
    </g>
   </g>
   <g id="PathCollection_3">
    <g clip-path="url(#pb4591514f6)">
     <use style="fill:#ffffff;stroke:#3c3c3c;" x="206.4" xlink:href="#m0f95af92e1" y="237.46165"/>
    </g>
   </g>
   <g id="PathCollection_4">
    <g clip-path="url(#pb4591514f6)">
     <use style="fill:#ffffff;stroke:#3c3c3c;" x="265.92" xlink:href="#m0f95af92e1" y="242.164628"/>
    </g>
   </g>
   <g id="PathCollection_5">
    <g clip-path="url(#pb4591514f6)">
     <use style="fill:#ffffff;stroke:#3c3c3c;" x="325.44" xlink:href="#m0f95af92e1" y="237.180296"/>
    </g>
   </g>
   <g id="PathCollection_6">
    <g clip-path="url(#pb4591514f6)">
     <use style="fill:#ffffff;stroke:#3c3c3c;" x="384.96" xlink:href="#m0f95af92e1" y="241.132261"/>
    </g>
   </g>
  </g>
 </g>
 <defs>
  <clipPath id="pb4591514f6">
   <rect height="266.112" width="357.12" x="57.6" y="41.472"/>
  </clipPath>
 </defs>
</svg>
