<?xml version="1.0" encoding="utf-8" standalone="no"?>
<!DOCTYPE svg PUBLIC "-//W3C//DTD SVG 1.1//EN"
  "http://www.w3.org/Graphics/SVG/1.1/DTD/svg11.dtd">
<!-- Created with matplotlib (https://matplotlib.org/) -->
<svg height="316.271687pt" version="1.1" viewBox="0 0 413.183906 316.271687" width="413.183906pt" xmlns="http://www.w3.org/2000/svg" xmlns:xlink="http://www.w3.org/1999/xlink">
 <defs>
  <style type="text/css">
*{stroke-linecap:butt;stroke-linejoin:round;}
  </style>
 </defs>
 <g id="figure_1">
  <g id="patch_1">
   <path d="M 0 316.271687 
L 413.183906 316.271687 
L 413.183906 0 
L 0 0 
z
" style="fill:#ffffff;"/>
  </g>
  <g id="axes_1">
   <g id="patch_2">
    <path d="M 48.863906 273.312 
L 405.983906 273.312 
L 405.983906 7.2 
L 48.863906 7.2 
z
" style="fill:#ffffff;"/>
   </g>
   <g id="matplotlib.axis_1">
    <g id="xtick_1">
     <g id="text_1">
      <!-- 0 -->
      <defs>
       <path d="M 31.78125 66.40625 
Q 24.171875 66.40625 20.328125 58.90625 
Q 16.5 51.421875 16.5 36.375 
Q 16.5 21.390625 20.328125 13.890625 
Q 24.171875 6.390625 31.78125 6.390625 
Q 39.453125 6.390625 43.28125 13.890625 
Q 47.125 21.390625 47.125 36.375 
Q 47.125 51.421875 43.28125 58.90625 
Q 39.453125 66.40625 31.78125 66.40625 
z
M 31.78125 74.21875 
Q 44.046875 74.21875 50.515625 64.515625 
Q 56.984375 54.828125 56.984375 36.375 
Q 56.984375 17.96875 50.515625 8.265625 
Q 44.046875 -1.421875 31.78125 -1.421875 
Q 19.53125 -1.421875 13.0625 8.265625 
Q 6.59375 17.96875 6.59375 36.375 
Q 6.59375 54.828125 13.0625 64.515625 
Q 19.53125 74.21875 31.78125 74.21875 
z
" id="DejaVuSans-48"/>
      </defs>
      <g style="fill:#262626;" transform="translate(75.124531 291.170281)scale(0.11 -0.11)">
       <use xlink:href="#DejaVuSans-48"/>
      </g>
     </g>
    </g>
    <g id="xtick_2">
     <g id="text_2">
      <!-- 1 -->
      <defs>
       <path d="M 12.40625 8.296875 
L 28.515625 8.296875 
L 28.515625 63.921875 
L 10.984375 60.40625 
L 10.984375 69.390625 
L 28.421875 72.90625 
L 38.28125 72.90625 
L 38.28125 8.296875 
L 54.390625 8.296875 
L 54.390625 0 
L 12.40625 0 
z
" id="DejaVuSans-49"/>
      </defs>
      <g style="fill:#262626;" transform="translate(134.644531 291.170281)scale(0.11 -0.11)">
       <use xlink:href="#DejaVuSans-49"/>
      </g>
     </g>
    </g>
    <g id="xtick_3">
     <g id="text_3">
      <!-- 2 -->
      <defs>
       <path d="M 19.1875 8.296875 
L 53.609375 8.296875 
L 53.609375 0 
L 7.328125 0 
L 7.328125 8.296875 
Q 12.9375 14.109375 22.625 23.890625 
Q 32.328125 33.6875 34.8125 36.53125 
Q 39.546875 41.84375 41.421875 45.53125 
Q 43.3125 49.21875 43.3125 52.78125 
Q 43.3125 58.59375 39.234375 62.25 
Q 35.15625 65.921875 28.609375 65.921875 
Q 23.96875 65.921875 18.8125 64.3125 
Q 13.671875 62.703125 7.8125 59.421875 
L 7.8125 69.390625 
Q 13.765625 71.78125 18.9375 73 
Q 24.125 74.21875 28.421875 74.21875 
Q 39.75 74.21875 46.484375 68.546875 
Q 53.21875 62.890625 53.21875 53.421875 
Q 53.21875 48.921875 51.53125 44.890625 
Q 49.859375 40.875 45.40625 35.40625 
Q 44.1875 33.984375 37.640625 27.21875 
Q 31.109375 20.453125 19.1875 8.296875 
z
" id="DejaVuSans-50"/>
      </defs>
      <g style="fill:#262626;" transform="translate(194.164531 291.170281)scale(0.11 -0.11)">
       <use xlink:href="#DejaVuSans-50"/>
      </g>
     </g>
    </g>
    <g id="xtick_4">
     <g id="text_4">
      <!-- 3 -->
      <defs>
       <path d="M 40.578125 39.3125 
Q 47.65625 37.796875 51.625 33 
Q 55.609375 28.21875 55.609375 21.1875 
Q 55.609375 10.40625 48.1875 4.484375 
Q 40.765625 -1.421875 27.09375 -1.421875 
Q 22.515625 -1.421875 17.65625 -0.515625 
Q 12.796875 0.390625 7.625 2.203125 
L 7.625 11.71875 
Q 11.71875 9.328125 16.59375 8.109375 
Q 21.484375 6.890625 26.8125 6.890625 
Q 36.078125 6.890625 40.9375 10.546875 
Q 45.796875 14.203125 45.796875 21.1875 
Q 45.796875 27.640625 41.28125 31.265625 
Q 36.765625 34.90625 28.71875 34.90625 
L 20.21875 34.90625 
L 20.21875 43.015625 
L 29.109375 43.015625 
Q 36.375 43.015625 40.234375 45.921875 
Q 44.09375 48.828125 44.09375 54.296875 
Q 44.09375 59.90625 40.109375 62.90625 
Q 36.140625 65.921875 28.71875 65.921875 
Q 24.65625 65.921875 20.015625 65.03125 
Q 15.375 64.15625 9.8125 62.3125 
L 9.8125 71.09375 
Q 15.4375 72.65625 20.34375 73.4375 
Q 25.25 74.21875 29.59375 74.21875 
Q 40.828125 74.21875 47.359375 69.109375 
Q 53.90625 64.015625 53.90625 55.328125 
Q 53.90625 49.265625 50.4375 45.09375 
Q 46.96875 40.921875 40.578125 39.3125 
z
" id="DejaVuSans-51"/>
      </defs>
      <g style="fill:#262626;" transform="translate(253.684531 291.170281)scale(0.11 -0.11)">
       <use xlink:href="#DejaVuSans-51"/>
      </g>
     </g>
    </g>
    <g id="xtick_5">
     <g id="text_5">
      <!-- 4 -->
      <defs>
       <path d="M 37.796875 64.3125 
L 12.890625 25.390625 
L 37.796875 25.390625 
z
M 35.203125 72.90625 
L 47.609375 72.90625 
L 47.609375 25.390625 
L 58.015625 25.390625 
L 58.015625 17.1875 
L 47.609375 17.1875 
L 47.609375 0 
L 37.796875 0 
L 37.796875 17.1875 
L 4.890625 17.1875 
L 4.890625 26.703125 
z
" id="DejaVuSans-52"/>
      </defs>
      <g style="fill:#262626;" transform="translate(313.204531 291.170281)scale(0.11 -0.11)">
       <use xlink:href="#DejaVuSans-52"/>
      </g>
     </g>
    </g>
    <g id="xtick_6">
     <g id="text_6">
      <!-- 5 -->
      <defs>
       <path d="M 10.796875 72.90625 
L 49.515625 72.90625 
L 49.515625 64.59375 
L 19.828125 64.59375 
L 19.828125 46.734375 
Q 21.96875 47.46875 24.109375 47.828125 
Q 26.265625 48.1875 28.421875 48.1875 
Q 40.625 48.1875 47.75 41.5 
Q 54.890625 34.8125 54.890625 23.390625 
Q 54.890625 11.625 47.5625 5.09375 
Q 40.234375 -1.421875 26.90625 -1.421875 
Q 22.3125 -1.421875 17.546875 -0.640625 
Q 12.796875 0.140625 7.71875 1.703125 
L 7.71875 11.625 
Q 12.109375 9.234375 16.796875 8.0625 
Q 21.484375 6.890625 26.703125 6.890625 
Q 35.15625 6.890625 40.078125 11.328125 
Q 45.015625 15.765625 45.015625 23.390625 
Q 45.015625 31 40.078125 35.4375 
Q 35.15625 39.890625 26.703125 39.890625 
Q 22.75 39.890625 18.8125 39.015625 
Q 14.890625 38.140625 10.796875 36.28125 
z
" id="DejaVuSans-53"/>
      </defs>
      <g style="fill:#262626;" transform="translate(372.724531 291.170281)scale(0.11 -0.11)">
       <use xlink:href="#DejaVuSans-53"/>
      </g>
     </g>
    </g>
    <g id="text_7">
     <!-- Class label -->
     <defs>
      <path d="M 64.40625 67.28125 
L 64.40625 56.890625 
Q 59.421875 61.53125 53.78125 63.8125 
Q 48.140625 66.109375 41.796875 66.109375 
Q 29.296875 66.109375 22.65625 58.46875 
Q 16.015625 50.828125 16.015625 36.375 
Q 16.015625 21.96875 22.65625 14.328125 
Q 29.296875 6.6875 41.796875 6.6875 
Q 48.140625 6.6875 53.78125 8.984375 
Q 59.421875 11.28125 64.40625 15.921875 
L 64.40625 5.609375 
Q 59.234375 2.09375 53.4375 0.328125 
Q 47.65625 -1.421875 41.21875 -1.421875 
Q 24.65625 -1.421875 15.125 8.703125 
Q 5.609375 18.84375 5.609375 36.375 
Q 5.609375 53.953125 15.125 64.078125 
Q 24.65625 74.21875 41.21875 74.21875 
Q 47.75 74.21875 53.53125 72.484375 
Q 59.328125 70.75 64.40625 67.28125 
z
" id="DejaVuSans-67"/>
      <path d="M 9.421875 75.984375 
L 18.40625 75.984375 
L 18.40625 0 
L 9.421875 0 
z
" id="DejaVuSans-108"/>
      <path d="M 34.28125 27.484375 
Q 23.390625 27.484375 19.1875 25 
Q 14.984375 22.515625 14.984375 16.5 
Q 14.984375 11.71875 18.140625 8.90625 
Q 21.296875 6.109375 26.703125 6.109375 
Q 34.1875 6.109375 38.703125 11.40625 
Q 43.21875 16.703125 43.21875 25.484375 
L 43.21875 27.484375 
z
M 52.203125 31.203125 
L 52.203125 0 
L 43.21875 0 
L 43.21875 8.296875 
Q 40.140625 3.328125 35.546875 0.953125 
Q 30.953125 -1.421875 24.3125 -1.421875 
Q 15.921875 -1.421875 10.953125 3.296875 
Q 6 8.015625 6 15.921875 
Q 6 25.140625 12.171875 29.828125 
Q 18.359375 34.515625 30.609375 34.515625 
L 43.21875 34.515625 
L 43.21875 35.40625 
Q 43.21875 41.609375 39.140625 45 
Q 35.0625 48.390625 27.6875 48.390625 
Q 23 48.390625 18.546875 47.265625 
Q 14.109375 46.140625 10.015625 43.890625 
L 10.015625 52.203125 
Q 14.9375 54.109375 19.578125 55.046875 
Q 24.21875 56 28.609375 56 
Q 40.484375 56 46.34375 49.84375 
Q 52.203125 43.703125 52.203125 31.203125 
z
" id="DejaVuSans-97"/>
      <path d="M 44.28125 53.078125 
L 44.28125 44.578125 
Q 40.484375 46.53125 36.375 47.5 
Q 32.28125 48.484375 27.875 48.484375 
Q 21.1875 48.484375 17.84375 46.4375 
Q 14.5 44.390625 14.5 40.28125 
Q 14.5 37.15625 16.890625 35.375 
Q 19.28125 33.59375 26.515625 31.984375 
L 29.59375 31.296875 
Q 39.15625 29.25 43.1875 25.515625 
Q 47.21875 21.78125 47.21875 15.09375 
Q 47.21875 7.46875 41.1875 3.015625 
Q 35.15625 -1.421875 24.609375 -1.421875 
Q 20.21875 -1.421875 15.453125 -0.5625 
Q 10.6875 0.296875 5.421875 2 
L 5.421875 11.28125 
Q 10.40625 8.6875 15.234375 7.390625 
Q 20.0625 6.109375 24.8125 6.109375 
Q 31.15625 6.109375 34.5625 8.28125 
Q 37.984375 10.453125 37.984375 14.40625 
Q 37.984375 18.0625 35.515625 20.015625 
Q 33.0625 21.96875 24.703125 23.78125 
L 21.578125 24.515625 
Q 13.234375 26.265625 9.515625 29.90625 
Q 5.8125 33.546875 5.8125 39.890625 
Q 5.8125 47.609375 11.28125 51.796875 
Q 16.75 56 26.8125 56 
Q 31.78125 56 36.171875 55.265625 
Q 40.578125 54.546875 44.28125 53.078125 
z
" id="DejaVuSans-115"/>
      <path id="DejaVuSans-32"/>
      <path d="M 48.6875 27.296875 
Q 48.6875 37.203125 44.609375 42.84375 
Q 40.53125 48.484375 33.40625 48.484375 
Q 26.265625 48.484375 22.1875 42.84375 
Q 18.109375 37.203125 18.109375 27.296875 
Q 18.109375 17.390625 22.1875 11.75 
Q 26.265625 6.109375 33.40625 6.109375 
Q 40.53125 6.109375 44.609375 11.75 
Q 48.6875 17.390625 48.6875 27.296875 
z
M 18.109375 46.390625 
Q 20.953125 51.265625 25.265625 53.625 
Q 29.59375 56 35.59375 56 
Q 45.5625 56 51.78125 48.09375 
Q 58.015625 40.1875 58.015625 27.296875 
Q 58.015625 14.40625 51.78125 6.484375 
Q 45.5625 -1.421875 35.59375 -1.421875 
Q 29.59375 -1.421875 25.265625 0.953125 
Q 20.953125 3.328125 18.109375 8.203125 
L 18.109375 0 
L 9.078125 0 
L 9.078125 75.984375 
L 18.109375 75.984375 
z
" id="DejaVuSans-98"/>
      <path d="M 56.203125 29.59375 
L 56.203125 25.203125 
L 14.890625 25.203125 
Q 15.484375 15.921875 20.484375 11.0625 
Q 25.484375 6.203125 34.421875 6.203125 
Q 39.59375 6.203125 44.453125 7.46875 
Q 49.3125 8.734375 54.109375 11.28125 
L 54.109375 2.78125 
Q 49.265625 0.734375 44.1875 -0.34375 
Q 39.109375 -1.421875 33.890625 -1.421875 
Q 20.796875 -1.421875 13.15625 6.1875 
Q 5.515625 13.8125 5.515625 26.8125 
Q 5.515625 40.234375 12.765625 48.109375 
Q 20.015625 56 32.328125 56 
Q 43.359375 56 49.78125 48.890625 
Q 56.203125 41.796875 56.203125 29.59375 
z
M 47.21875 32.234375 
Q 47.125 39.59375 43.09375 43.984375 
Q 39.0625 48.390625 32.421875 48.390625 
Q 24.90625 48.390625 20.390625 44.140625 
Q 15.875 39.890625 15.1875 32.171875 
z
" id="DejaVuSans-101"/>
     </defs>
     <g style="fill:#262626;" transform="translate(195.220781 306.576062)scale(0.12 -0.12)">
      <use xlink:href="#DejaVuSans-67"/>
      <use x="69.824219" xlink:href="#DejaVuSans-108"/>
      <use x="97.607422" xlink:href="#DejaVuSans-97"/>
      <use x="158.886719" xlink:href="#DejaVuSans-115"/>
      <use x="210.986328" xlink:href="#DejaVuSans-115"/>
      <use x="263.085938" xlink:href="#DejaVuSans-32"/>
      <use x="294.873047" xlink:href="#DejaVuSans-108"/>
      <use x="322.65625" xlink:href="#DejaVuSans-97"/>
      <use x="383.935547" xlink:href="#DejaVuSans-98"/>
      <use x="447.412109" xlink:href="#DejaVuSans-101"/>
      <use x="508.935547" xlink:href="#DejaVuSans-108"/>
     </g>
    </g>
   </g>
   <g id="matplotlib.axis_2">
    <g id="ytick_1">
     <g id="line2d_1">
      <path clip-path="url(#p68de4e444d)" d="M 48.863906 263.67768 
L 405.983906 263.67768 
" style="fill:none;stroke:#cccccc;stroke-linecap:round;"/>
     </g>
     <g id="text_8">
      <!-- −3 -->
      <defs>
       <path d="M 10.59375 35.5 
L 73.1875 35.5 
L 73.1875 27.203125 
L 10.59375 27.203125 
z
" id="DejaVuSans-8722"/>
      </defs>
      <g style="fill:#262626;" transform="translate(23.1475 267.856821)scale(0.11 -0.11)">
       <use xlink:href="#DejaVuSans-8722"/>
       <use x="83.789062" xlink:href="#DejaVuSans-51"/>
      </g>
     </g>
    </g>
    <g id="ytick_2">
     <g id="line2d_2">
      <path clip-path="url(#p68de4e444d)" d="M 48.863906 226.579881 
L 405.983906 226.579881 
" style="fill:none;stroke:#cccccc;stroke-linecap:round;"/>
     </g>
     <g id="text_9">
      <!-- −2 -->
      <g style="fill:#262626;" transform="translate(23.1475 230.759022)scale(0.11 -0.11)">
       <use xlink:href="#DejaVuSans-8722"/>
       <use x="83.789062" xlink:href="#DejaVuSans-50"/>
      </g>
     </g>
    </g>
    <g id="ytick_3">
     <g id="line2d_3">
      <path clip-path="url(#p68de4e444d)" d="M 48.863906 189.482081 
L 405.983906 189.482081 
" style="fill:none;stroke:#cccccc;stroke-linecap:round;"/>
     </g>
     <g id="text_10">
      <!-- −1 -->
      <g style="fill:#262626;" transform="translate(23.1475 193.661222)scale(0.11 -0.11)">
       <use xlink:href="#DejaVuSans-8722"/>
       <use x="83.789062" xlink:href="#DejaVuSans-49"/>
      </g>
     </g>
    </g>
    <g id="ytick_4">
     <g id="line2d_4">
      <path clip-path="url(#p68de4e444d)" d="M 48.863906 152.384282 
L 405.983906 152.384282 
" style="fill:none;stroke:#cccccc;stroke-linecap:round;"/>
     </g>
     <g id="text_11">
      <!-- 0 -->
      <g style="fill:#262626;" transform="translate(32.365156 156.563423)scale(0.11 -0.11)">
       <use xlink:href="#DejaVuSans-48"/>
      </g>
     </g>
    </g>
    <g id="ytick_5">
     <g id="line2d_5">
      <path clip-path="url(#p68de4e444d)" d="M 48.863906 115.286482 
L 405.983906 115.286482 
" style="fill:none;stroke:#cccccc;stroke-linecap:round;"/>
     </g>
     <g id="text_12">
      <!-- 1 -->
      <g style="fill:#262626;" transform="translate(32.365156 119.465623)scale(0.11 -0.11)">
       <use xlink:href="#DejaVuSans-49"/>
      </g>
     </g>
    </g>
    <g id="ytick_6">
     <g id="line2d_6">
      <path clip-path="url(#p68de4e444d)" d="M 48.863906 78.188683 
L 405.983906 78.188683 
" style="fill:none;stroke:#cccccc;stroke-linecap:round;"/>
     </g>
     <g id="text_13">
      <!-- 2 -->
      <g style="fill:#262626;" transform="translate(32.365156 82.367823)scale(0.11 -0.11)">
       <use xlink:href="#DejaVuSans-50"/>
      </g>
     </g>
    </g>
    <g id="ytick_7">
     <g id="line2d_7">
      <path clip-path="url(#p68de4e444d)" d="M 48.863906 41.090883 
L 405.983906 41.090883 
" style="fill:none;stroke:#cccccc;stroke-linecap:round;"/>
     </g>
     <g id="text_14">
      <!-- 3 -->
      <g style="fill:#262626;" transform="translate(32.365156 45.270024)scale(0.11 -0.11)">
       <use xlink:href="#DejaVuSans-51"/>
      </g>
     </g>
    </g>
    <g id="text_15">
     <!-- SL_L_eigvals_ratio_8_1 -->
     <defs>
      <path d="M 53.515625 70.515625 
L 53.515625 60.890625 
Q 47.90625 63.578125 42.921875 64.890625 
Q 37.9375 66.21875 33.296875 66.21875 
Q 25.25 66.21875 20.875 63.09375 
Q 16.5 59.96875 16.5 54.203125 
Q 16.5 49.359375 19.40625 46.890625 
Q 22.3125 44.4375 30.421875 42.921875 
L 36.375 41.703125 
Q 47.40625 39.59375 52.65625 34.296875 
Q 57.90625 29 57.90625 20.125 
Q 57.90625 9.515625 50.796875 4.046875 
Q 43.703125 -1.421875 29.984375 -1.421875 
Q 24.8125 -1.421875 18.96875 -0.25 
Q 13.140625 0.921875 6.890625 3.21875 
L 6.890625 13.375 
Q 12.890625 10.015625 18.65625 8.296875 
Q 24.421875 6.59375 29.984375 6.59375 
Q 38.421875 6.59375 43.015625 9.90625 
Q 47.609375 13.234375 47.609375 19.390625 
Q 47.609375 24.75 44.3125 27.78125 
Q 41.015625 30.8125 33.5 32.328125 
L 27.484375 33.5 
Q 16.453125 35.6875 11.515625 40.375 
Q 6.59375 45.0625 6.59375 53.421875 
Q 6.59375 63.09375 13.40625 68.65625 
Q 20.21875 74.21875 32.171875 74.21875 
Q 37.3125 74.21875 42.625 73.28125 
Q 47.953125 72.359375 53.515625 70.515625 
z
" id="DejaVuSans-83"/>
      <path d="M 9.8125 72.90625 
L 19.671875 72.90625 
L 19.671875 8.296875 
L 55.171875 8.296875 
L 55.171875 0 
L 9.8125 0 
z
" id="DejaVuSans-76"/>
      <path d="M 50.984375 -16.609375 
L 50.984375 -23.578125 
L -0.984375 -23.578125 
L -0.984375 -16.609375 
z
" id="DejaVuSans-95"/>
      <path d="M 9.421875 54.6875 
L 18.40625 54.6875 
L 18.40625 0 
L 9.421875 0 
z
M 9.421875 75.984375 
L 18.40625 75.984375 
L 18.40625 64.59375 
L 9.421875 64.59375 
z
" id="DejaVuSans-105"/>
      <path d="M 45.40625 27.984375 
Q 45.40625 37.75 41.375 43.109375 
Q 37.359375 48.484375 30.078125 48.484375 
Q 22.859375 48.484375 18.828125 43.109375 
Q 14.796875 37.75 14.796875 27.984375 
Q 14.796875 18.265625 18.828125 12.890625 
Q 22.859375 7.515625 30.078125 7.515625 
Q 37.359375 7.515625 41.375 12.890625 
Q 45.40625 18.265625 45.40625 27.984375 
z
M 54.390625 6.78125 
Q 54.390625 -7.171875 48.1875 -13.984375 
Q 42 -20.796875 29.203125 -20.796875 
Q 24.46875 -20.796875 20.265625 -20.09375 
Q 16.0625 -19.390625 12.109375 -17.921875 
L 12.109375 -9.1875 
Q 16.0625 -11.328125 19.921875 -12.34375 
Q 23.78125 -13.375 27.78125 -13.375 
Q 36.625 -13.375 41.015625 -8.765625 
Q 45.40625 -4.15625 45.40625 5.171875 
L 45.40625 9.625 
Q 42.625 4.78125 38.28125 2.390625 
Q 33.9375 0 27.875 0 
Q 17.828125 0 11.671875 7.65625 
Q 5.515625 15.328125 5.515625 27.984375 
Q 5.515625 40.671875 11.671875 48.328125 
Q 17.828125 56 27.875 56 
Q 33.9375 56 38.28125 53.609375 
Q 42.625 51.21875 45.40625 46.390625 
L 45.40625 54.6875 
L 54.390625 54.6875 
z
" id="DejaVuSans-103"/>
      <path d="M 2.984375 54.6875 
L 12.5 54.6875 
L 29.59375 8.796875 
L 46.6875 54.6875 
L 56.203125 54.6875 
L 35.6875 0 
L 23.484375 0 
z
" id="DejaVuSans-118"/>
      <path d="M 41.109375 46.296875 
Q 39.59375 47.171875 37.8125 47.578125 
Q 36.03125 48 33.890625 48 
Q 26.265625 48 22.1875 43.046875 
Q 18.109375 38.09375 18.109375 28.8125 
L 18.109375 0 
L 9.078125 0 
L 9.078125 54.6875 
L 18.109375 54.6875 
L 18.109375 46.1875 
Q 20.953125 51.171875 25.484375 53.578125 
Q 30.03125 56 36.53125 56 
Q 37.453125 56 38.578125 55.875 
Q 39.703125 55.765625 41.0625 55.515625 
z
" id="DejaVuSans-114"/>
      <path d="M 18.3125 70.21875 
L 18.3125 54.6875 
L 36.8125 54.6875 
L 36.8125 47.703125 
L 18.3125 47.703125 
L 18.3125 18.015625 
Q 18.3125 11.328125 20.140625 9.421875 
Q 21.96875 7.515625 27.59375 7.515625 
L 36.8125 7.515625 
L 36.8125 0 
L 27.59375 0 
Q 17.1875 0 13.234375 3.875 
Q 9.28125 7.765625 9.28125 18.015625 
L 9.28125 47.703125 
L 2.6875 47.703125 
L 2.6875 54.6875 
L 9.28125 54.6875 
L 9.28125 70.21875 
z
" id="DejaVuSans-116"/>
      <path d="M 30.609375 48.390625 
Q 23.390625 48.390625 19.1875 42.75 
Q 14.984375 37.109375 14.984375 27.296875 
Q 14.984375 17.484375 19.15625 11.84375 
Q 23.34375 6.203125 30.609375 6.203125 
Q 37.796875 6.203125 41.984375 11.859375 
Q 46.1875 17.53125 46.1875 27.296875 
Q 46.1875 37.015625 41.984375 42.703125 
Q 37.796875 48.390625 30.609375 48.390625 
z
M 30.609375 56 
Q 42.328125 56 49.015625 48.375 
Q 55.71875 40.765625 55.71875 27.296875 
Q 55.71875 13.875 49.015625 6.21875 
Q 42.328125 -1.421875 30.609375 -1.421875 
Q 18.84375 -1.421875 12.171875 6.21875 
Q 5.515625 13.875 5.515625 27.296875 
Q 5.515625 40.765625 12.171875 48.375 
Q 18.84375 56 30.609375 56 
z
" id="DejaVuSans-111"/>
      <path d="M 31.78125 34.625 
Q 24.75 34.625 20.71875 30.859375 
Q 16.703125 27.09375 16.703125 20.515625 
Q 16.703125 13.921875 20.71875 10.15625 
Q 24.75 6.390625 31.78125 6.390625 
Q 38.8125 6.390625 42.859375 10.171875 
Q 46.921875 13.96875 46.921875 20.515625 
Q 46.921875 27.09375 42.890625 30.859375 
Q 38.875 34.625 31.78125 34.625 
z
M 21.921875 38.8125 
Q 15.578125 40.375 12.03125 44.71875 
Q 8.5 49.078125 8.5 55.328125 
Q 8.5 64.0625 14.71875 69.140625 
Q 20.953125 74.21875 31.78125 74.21875 
Q 42.671875 74.21875 48.875 69.140625 
Q 55.078125 64.0625 55.078125 55.328125 
Q 55.078125 49.078125 51.53125 44.71875 
Q 48 40.375 41.703125 38.8125 
Q 48.828125 37.15625 52.796875 32.3125 
Q 56.78125 27.484375 56.78125 20.515625 
Q 56.78125 9.90625 50.3125 4.234375 
Q 43.84375 -1.421875 31.78125 -1.421875 
Q 19.734375 -1.421875 13.25 4.234375 
Q 6.78125 9.90625 6.78125 20.515625 
Q 6.78125 27.484375 10.78125 32.3125 
Q 14.796875 37.15625 21.921875 38.8125 
z
M 18.3125 54.390625 
Q 18.3125 48.734375 21.84375 45.5625 
Q 25.390625 42.390625 31.78125 42.390625 
Q 38.140625 42.390625 41.71875 45.5625 
Q 45.3125 48.734375 45.3125 54.390625 
Q 45.3125 60.0625 41.71875 63.234375 
Q 38.140625 66.40625 31.78125 66.40625 
Q 25.390625 66.40625 21.84375 63.234375 
Q 18.3125 60.0625 18.3125 54.390625 
z
" id="DejaVuSans-56"/>
     </defs>
     <g style="fill:#262626;" transform="translate(16.318125 208.4085)rotate(-90)scale(0.12 -0.12)">
      <use xlink:href="#DejaVuSans-83"/>
      <use x="63.476562" xlink:href="#DejaVuSans-76"/>
      <use x="119.189453" xlink:href="#DejaVuSans-95"/>
      <use x="169.189453" xlink:href="#DejaVuSans-76"/>
      <use x="224.902344" xlink:href="#DejaVuSans-95"/>
      <use x="274.902344" xlink:href="#DejaVuSans-101"/>
      <use x="336.425781" xlink:href="#DejaVuSans-105"/>
      <use x="364.208984" xlink:href="#DejaVuSans-103"/>
      <use x="427.685547" xlink:href="#DejaVuSans-118"/>
      <use x="486.865234" xlink:href="#DejaVuSans-97"/>
      <use x="548.144531" xlink:href="#DejaVuSans-108"/>
      <use x="575.927734" xlink:href="#DejaVuSans-115"/>
      <use x="628.027344" xlink:href="#DejaVuSans-95"/>
      <use x="678.027344" xlink:href="#DejaVuSans-114"/>
      <use x="719.140625" xlink:href="#DejaVuSans-97"/>
      <use x="780.419922" xlink:href="#DejaVuSans-116"/>
      <use x="819.628906" xlink:href="#DejaVuSans-105"/>
      <use x="847.412109" xlink:href="#DejaVuSans-111"/>
      <use x="908.59375" xlink:href="#DejaVuSans-95"/>
      <use x="958.59375" xlink:href="#DejaVuSans-56"/>
      <use x="1022.216797" xlink:href="#DejaVuSans-95"/>
      <use x="1072.216797" xlink:href="#DejaVuSans-49"/>
     </g>
    </g>
   </g>
   <g id="PolyCollection_1">
    <defs>
     <path d="M 78.84556 -55.055687 
L 78.402253 -55.055687 
L 78.350879 -57.499324 
L 78.290341 -59.94296 
L 78.219647 -62.386597 
L 78.13783 -64.830233 
L 78.04397 -67.273869 
L 77.937219 -69.717506 
L 77.816828 -72.161142 
L 77.682172 -74.604778 
L 77.532768 -77.048415 
L 77.36829 -79.492051 
L 77.188585 -81.935687 
L 76.993675 -84.379324 
L 76.783759 -86.82296 
L 76.559205 -89.266597 
L 76.320545 -91.710233 
L 76.068456 -94.153869 
L 75.803749 -96.597506 
L 75.527346 -99.041142 
L 75.240264 -101.484778 
L 74.943601 -103.928415 
L 74.638518 -106.372051 
L 74.326232 -108.815687 
L 74.00801 -111.259324 
L 73.685163 -113.70296 
L 73.359058 -116.146597 
L 73.031117 -118.590233 
L 72.702835 -121.033869 
L 72.375785 -123.477506 
L 72.051639 -125.921142 
L 71.73217 -128.364778 
L 71.419264 -130.808415 
L 71.114912 -133.252051 
L 70.8212 -135.695687 
L 70.540287 -138.139324 
L 70.274358 -140.58296 
L 70.025576 -143.026597 
L 69.796007 -145.470233 
L 69.587539 -147.913869 
L 69.401783 -150.357506 
L 69.239971 -152.801142 
L 69.10285 -155.244778 
L 68.990582 -157.688415 
L 68.902652 -160.132051 
L 68.837802 -162.575687 
L 68.793978 -165.019324 
L 68.768325 -167.46296 
L 68.757208 -169.906597 
L 68.756276 -172.350233 
L 68.760568 -174.793869 
L 68.764663 -177.237506 
L 68.76286 -179.681142 
L 68.749397 -182.124778 
L 68.718691 -184.568415 
L 68.665588 -187.012051 
L 68.58563 -189.455687 
L 68.475301 -191.899324 
L 68.332262 -194.34296 
L 68.155551 -196.786597 
L 67.945746 -199.230233 
L 67.705065 -201.673869 
L 67.437416 -204.117506 
L 67.14837 -206.561142 
L 66.845065 -209.004778 
L 66.536034 -211.448415 
L 66.230967 -213.892051 
L 65.940402 -216.335687 
L 65.675365 -218.779324 
L 65.446971 -221.22296 
L 65.265992 -223.666597 
L 65.142431 -226.110233 
L 65.085107 -228.553869 
L 65.101273 -230.997506 
L 65.1963 -233.441142 
L 65.37343 -235.884778 
L 65.633618 -238.328415 
L 65.975475 -240.772051 
L 66.395312 -243.215687 
L 66.887282 -245.659324 
L 67.443616 -248.10296 
L 68.054938 -250.546597 
L 68.710635 -252.990233 
L 69.39928 -255.433869 
L 70.109053 -257.877506 
L 70.828177 -260.321142 
L 71.545314 -262.764778 
L 72.249919 -265.208415 
L 72.932537 -267.652051 
L 73.585029 -270.095687 
L 74.200722 -272.539324 
L 74.774482 -274.98296 
L 75.30272 -277.426597 
L 75.783331 -279.870233 
L 76.215579 -282.313869 
L 76.599943 -284.757506 
L 76.937932 -287.201142 
L 77.231889 -289.644778 
L 77.484789 -292.088415 
L 77.70004 -294.532051 
L 77.881311 -296.975687 
L 79.366502 -296.975687 
L 79.366502 -296.975687 
L 79.547772 -294.532051 
L 79.763024 -292.088415 
L 80.015924 -289.644778 
L 80.309881 -287.201142 
L 80.64787 -284.757506 
L 81.032234 -282.313869 
L 81.464482 -279.870233 
L 81.945093 -277.426597 
L 82.473331 -274.98296 
L 83.047091 -272.539324 
L 83.662783 -270.095687 
L 84.315276 -267.652051 
L 84.997894 -265.208415 
L 85.702498 -262.764778 
L 86.419635 -260.321142 
L 87.13876 -257.877506 
L 87.848533 -255.433869 
L 88.537177 -252.990233 
L 89.192875 -250.546597 
L 89.804196 -248.10296 
L 90.36053 -245.659324 
L 90.8525 -243.215687 
L 91.272337 -240.772051 
L 91.614194 -238.328415 
L 91.874382 -235.884778 
L 92.051512 -233.441142 
L 92.14654 -230.997506 
L 92.162706 -228.553869 
L 92.105381 -226.110233 
L 91.981821 -223.666597 
L 91.800842 -221.22296 
L 91.572447 -218.779324 
L 91.307411 -216.335687 
L 91.016846 -213.892051 
L 90.711778 -211.448415 
L 90.402747 -209.004778 
L 90.099442 -206.561142 
L 89.810396 -204.117506 
L 89.542748 -201.673869 
L 89.302067 -199.230233 
L 89.092261 -196.786597 
L 88.915551 -194.34296 
L 88.772511 -191.899324 
L 88.662182 -189.455687 
L 88.582224 -187.012051 
L 88.529122 -184.568415 
L 88.498415 -182.124778 
L 88.484953 -179.681142 
L 88.48315 -177.237506 
L 88.487245 -174.793869 
L 88.491537 -172.350233 
L 88.490604 -169.906597 
L 88.479487 -167.46296 
L 88.453835 -165.019324 
L 88.410011 -162.575687 
L 88.34516 -160.132051 
L 88.257231 -157.688415 
L 88.144962 -155.244778 
L 88.007841 -152.801142 
L 87.846029 -150.357506 
L 87.660273 -147.913869 
L 87.451805 -145.470233 
L 87.222237 -143.026597 
L 86.973455 -140.58296 
L 86.707526 -138.139324 
L 86.426612 -135.695687 
L 86.132901 -133.252051 
L 85.828549 -130.808415 
L 85.515642 -128.364778 
L 85.196173 -125.921142 
L 84.872027 -123.477506 
L 84.544978 -121.033869 
L 84.216695 -118.590233 
L 83.888754 -116.146597 
L 83.562649 -113.70296 
L 83.239803 -111.259324 
L 82.92158 -108.815687 
L 82.609294 -106.372051 
L 82.304212 -103.928415 
L 82.007549 -101.484778 
L 81.720467 -99.041142 
L 81.444064 -96.597506 
L 81.179356 -94.153869 
L 80.927268 -91.710233 
L 80.688608 -89.266597 
L 80.464054 -86.82296 
L 80.254137 -84.379324 
L 80.059227 -81.935687 
L 79.879522 -79.492051 
L 79.715045 -77.048415 
L 79.56564 -74.604778 
L 79.430984 -72.161142 
L 79.310594 -69.717506 
L 79.203842 -67.273869 
L 79.109982 -64.830233 
L 79.028165 -62.386597 
L 78.957472 -59.94296 
L 78.896933 -57.499324 
L 78.84556 -55.055687 
z
" id="mdb157a4f47" style="stroke:#3c3c3c;stroke-width:1.5;"/>
    </defs>
    <g clip-path="url(#p68de4e444d)">
     <use style="fill:#597dbf;stroke:#3c3c3c;stroke-width:1.5;" x="0" xlink:href="#mdb157a4f47" y="316.271687"/>
    </g>
   </g>
   <g id="PolyCollection_2">
    <defs>
     <path d="M 138.52128 -73.806677 
L 137.766532 -73.806677 
L 137.674196 -75.35673 
L 137.563914 -76.906782 
L 137.433321 -78.456834 
L 137.279968 -80.006886 
L 137.101362 -81.556938 
L 136.895021 -83.106991 
L 136.658522 -84.657043 
L 136.389565 -86.207095 
L 136.086041 -87.757147 
L 135.746099 -89.307199 
L 135.368229 -90.857252 
L 134.951334 -92.407304 
L 134.494812 -93.957356 
L 133.998632 -95.507408 
L 133.463409 -97.05746 
L 132.890471 -98.607513 
L 132.281903 -100.157565 
L 131.640592 -101.707617 
L 130.970232 -103.257669 
L 130.275318 -104.807721 
L 129.561096 -106.357774 
L 128.833499 -107.907826 
L 128.099033 -109.457878 
L 127.364651 -111.00793 
L 126.637591 -112.557983 
L 125.925205 -114.108035 
L 125.234775 -115.658087 
L 124.573325 -117.208139 
L 123.947457 -118.758191 
L 123.363187 -120.308244 
L 122.825821 -121.858296 
L 122.33985 -123.408348 
L 121.908879 -124.9584 
L 121.535583 -126.508452 
L 121.221685 -128.058505 
L 120.96795 -129.608557 
L 120.774182 -131.158609 
L 120.639233 -132.708661 
L 120.560995 -134.258713 
L 120.536397 -135.808766 
L 120.561382 -137.358818 
L 120.630899 -138.90887 
L 120.738895 -140.458922 
L 120.878327 -142.008974 
L 121.041212 -143.559027 
L 121.218724 -145.109079 
L 121.401348 -146.659131 
L 121.579098 -148.209183 
L 121.74181 -149.759235 
L 121.879495 -151.309288 
L 121.982741 -152.85934 
L 122.04316 -154.409392 
L 122.053839 -155.959444 
L 122.009776 -157.509496 
L 121.908272 -159.059549 
L 121.749248 -160.609601 
L 121.535456 -162.159653 
L 121.272562 -163.709705 
L 120.969102 -165.259757 
L 120.636273 -166.80981 
L 120.28759 -168.359862 
L 119.938416 -169.909914 
L 119.605366 -171.459966 
L 119.305641 -173.010018 
L 119.056315 -174.560071 
L 118.873604 -176.110123 
L 118.772171 -177.660175 
L 118.764501 -179.210227 
L 118.86037 -180.760279 
L 119.066446 -182.310332 
L 119.386033 -183.860384 
L 119.818976 -185.410436 
L 120.36172 -186.960488 
L 121.007516 -188.510541 
L 121.746761 -190.060593 
L 122.567453 -191.610645 
L 123.455711 -193.160697 
L 124.396362 -194.710749 
L 125.373533 -196.260802 
L 126.371241 -197.810854 
L 127.37393 -199.360906 
L 128.366962 -200.910958 
L 129.337015 -202.46101 
L 130.272395 -204.011063 
L 131.163256 -205.561115 
L 132.001715 -207.111167 
L 132.78189 -208.661219 
L 133.49984 -210.211271 
L 134.153456 -211.761324 
L 134.742284 -213.311376 
L 135.267319 -214.861428 
L 135.730768 -216.41148 
L 136.135806 -217.961532 
L 136.48634 -219.511585 
L 136.786775 -221.061637 
L 137.041807 -222.611689 
L 137.256244 -224.161741 
L 137.434845 -225.711793 
L 137.582202 -227.261846 
L 138.705611 -227.261846 
L 138.705611 -227.261846 
L 138.852968 -225.711793 
L 139.031569 -224.161741 
L 139.246005 -222.611689 
L 139.501038 -221.061637 
L 139.801472 -219.511585 
L 140.152006 -217.961532 
L 140.557045 -216.41148 
L 141.020493 -214.861428 
L 141.545528 -213.311376 
L 142.134357 -211.761324 
L 142.787973 -210.211271 
L 143.505923 -208.661219 
L 144.286097 -207.111167 
L 145.124557 -205.561115 
L 146.015418 -204.011063 
L 146.950798 -202.46101 
L 147.92085 -200.910958 
L 148.913882 -199.360906 
L 149.916572 -197.810854 
L 150.914279 -196.260802 
L 151.891451 -194.710749 
L 152.832102 -193.160697 
L 153.72036 -191.610645 
L 154.541051 -190.060593 
L 155.280297 -188.510541 
L 155.926092 -186.960488 
L 156.468836 -185.410436 
L 156.90178 -183.860384 
L 157.221367 -182.310332 
L 157.427443 -180.760279 
L 157.523312 -179.210227 
L 157.515642 -177.660175 
L 157.414209 -176.110123 
L 157.231497 -174.560071 
L 156.982171 -173.010018 
L 156.682447 -171.459966 
L 156.349396 -169.909914 
L 156.000222 -168.359862 
L 155.65154 -166.80981 
L 155.31871 -165.259757 
L 155.01525 -163.709705 
L 154.752357 -162.159653 
L 154.538564 -160.609601 
L 154.37954 -159.059549 
L 154.278037 -157.509496 
L 154.233973 -155.959444 
L 154.244652 -154.409392 
L 154.305071 -152.85934 
L 154.408318 -151.309288 
L 154.546002 -149.759235 
L 154.708715 -148.209183 
L 154.886465 -146.659131 
L 155.069088 -145.109079 
L 155.246601 -143.559027 
L 155.409486 -142.008974 
L 155.548917 -140.458922 
L 155.656913 -138.90887 
L 155.726431 -137.358818 
L 155.751416 -135.808766 
L 155.726817 -134.258713 
L 155.64858 -132.708661 
L 155.513631 -131.158609 
L 155.319863 -129.608557 
L 155.066127 -128.058505 
L 154.752229 -126.508452 
L 154.378934 -124.9584 
L 153.947963 -123.408348 
L 153.461991 -121.858296 
L 152.924625 -120.308244 
L 152.340355 -118.758191 
L 151.714487 -117.208139 
L 151.053038 -115.658087 
L 150.362607 -114.108035 
L 149.650222 -112.557983 
L 148.923162 -111.00793 
L 148.188779 -109.457878 
L 147.454313 -107.907826 
L 146.726716 -106.357774 
L 146.012495 -104.807721 
L 145.31758 -103.257669 
L 144.647221 -101.707617 
L 144.005909 -100.157565 
L 143.397342 -98.607513 
L 142.824403 -97.05746 
L 142.289181 -95.507408 
L 141.793001 -93.957356 
L 141.336478 -92.407304 
L 140.919583 -90.857252 
L 140.541713 -89.307199 
L 140.201772 -87.757147 
L 139.898247 -86.207095 
L 139.62929 -84.657043 
L 139.392791 -83.106991 
L 139.18645 -81.556938 
L 139.007845 -80.006886 
L 138.854491 -78.456834 
L 138.723898 -76.906782 
L 138.613617 -75.35673 
L 138.52128 -73.806677 
z
" id="m3623a32abe" style="stroke:#3c3c3c;stroke-width:1.5;"/>
    </defs>
    <g clip-path="url(#p68de4e444d)">
     <use style="fill:#d98b5f;stroke:#3c3c3c;stroke-width:1.5;" x="0" xlink:href="#m3623a32abe" y="316.271687"/>
    </g>
   </g>
   <g id="PolyCollection_3">
    <defs>
     <path d="M 198.002112 -63.192097 
L 197.3257 -63.192097 
L 197.243464 -65.230699 
L 197.145471 -67.269301 
L 197.029769 -69.307903 
L 196.894404 -71.346506 
L 196.737468 -73.385108 
L 196.55717 -75.42371 
L 196.351896 -77.462312 
L 196.12028 -79.500914 
L 195.861276 -81.539516 
L 195.574224 -83.578118 
L 195.25891 -85.616721 
L 194.915617 -87.655323 
L 194.545162 -89.693925 
L 194.148924 -91.732527 
L 193.728846 -93.771129 
L 193.287428 -95.809731 
L 192.827693 -97.848333 
L 192.353141 -99.886936 
L 191.867678 -101.925538 
L 191.37554 -103.96414 
L 190.881193 -106.002742 
L 190.389229 -108.041344 
L 189.904251 -110.079946 
L 189.430754 -112.118548 
L 188.973014 -114.157151 
L 188.534966 -116.195753 
L 188.120103 -118.234355 
L 187.731381 -120.272957 
L 187.371137 -122.311559 
L 187.041026 -124.350161 
L 186.741986 -126.388763 
L 186.474222 -128.427366 
L 186.23721 -130.465968 
L 186.029742 -132.50457 
L 185.849989 -134.543172 
L 185.695584 -136.581774 
L 185.563738 -138.620376 
L 185.451366 -140.658978 
L 185.355219 -142.697581 
L 185.272029 -144.736183 
L 185.198636 -146.774785 
L 185.132116 -148.813387 
L 185.069873 -150.851989 
L 185.00972 -152.890591 
L 184.949915 -154.929193 
L 184.889176 -156.967796 
L 184.826661 -159.006398 
L 184.761924 -161.045 
L 184.694847 -163.083602 
L 184.625565 -165.122204 
L 184.55439 -167.160806 
L 184.481737 -169.199408 
L 184.408074 -171.238011 
L 184.333893 -173.276613 
L 184.259706 -175.315215 
L 184.186078 -177.353817 
L 184.11368 -179.392419 
L 184.043366 -181.431021 
L 183.976268 -183.469623 
L 183.91389 -185.508226 
L 183.858191 -187.546828 
L 183.81165 -189.58543 
L 183.777305 -191.624032 
L 183.758738 -193.662634 
L 183.760031 -195.701236 
L 183.785658 -197.739838 
L 183.840347 -199.778441 
L 183.928887 -201.817043 
L 184.055914 -203.855645 
L 184.225679 -205.894247 
L 184.441806 -207.932849 
L 184.707064 -209.971451 
L 185.023171 -212.010053 
L 185.390632 -214.048656 
L 185.808631 -216.087258 
L 186.274981 -218.12586 
L 186.786144 -220.164462 
L 187.337311 -222.203064 
L 187.92254 -224.241666 
L 188.534952 -226.280268 
L 189.16697 -228.318871 
L 189.810576 -230.357473 
L 190.457598 -232.396075 
L 191.099979 -234.434677 
L 191.730047 -236.473279 
L 192.340741 -238.511881 
L 192.925813 -240.550483 
L 193.47997 -242.589086 
L 193.998979 -244.627688 
L 194.479713 -246.66629 
L 194.920148 -248.704892 
L 195.319318 -250.743494 
L 195.677233 -252.782096 
L 195.994765 -254.820698 
L 196.273518 -256.859301 
L 196.515678 -258.897903 
L 196.723873 -260.936505 
L 196.901025 -262.975107 
L 197.050217 -265.013709 
L 198.277595 -265.013709 
L 198.277595 -265.013709 
L 198.426788 -262.975107 
L 198.603939 -260.936505 
L 198.812134 -258.897903 
L 199.054295 -256.859301 
L 199.333047 -254.820698 
L 199.65058 -252.782096 
L 200.008495 -250.743494 
L 200.407664 -248.704892 
L 200.848099 -246.66629 
L 201.328833 -244.627688 
L 201.847843 -242.589086 
L 202.402 -240.550483 
L 202.987071 -238.511881 
L 203.597766 -236.473279 
L 204.227833 -234.434677 
L 204.870215 -232.396075 
L 205.517236 -230.357473 
L 206.160843 -228.318871 
L 206.79286 -226.280268 
L 207.405273 -224.241666 
L 207.990501 -222.203064 
L 208.541668 -220.164462 
L 209.052832 -218.12586 
L 209.519182 -216.087258 
L 209.93718 -214.048656 
L 210.304641 -212.010053 
L 210.620749 -209.971451 
L 210.886007 -207.932849 
L 211.102133 -205.894247 
L 211.271898 -203.855645 
L 211.398926 -201.817043 
L 211.487466 -199.778441 
L 211.542154 -197.739838 
L 211.567782 -195.701236 
L 211.569074 -193.662634 
L 211.550508 -191.624032 
L 211.516162 -189.58543 
L 211.469622 -187.546828 
L 211.413922 -185.508226 
L 211.351544 -183.469623 
L 211.284447 -181.431021 
L 211.214133 -179.392419 
L 211.141734 -177.353817 
L 211.068106 -175.315215 
L 210.99392 -173.276613 
L 210.919738 -171.238011 
L 210.846076 -169.199408 
L 210.773423 -167.160806 
L 210.702247 -165.122204 
L 210.632965 -163.083602 
L 210.565888 -161.045 
L 210.501151 -159.006398 
L 210.438637 -156.967796 
L 210.377898 -154.929193 
L 210.318093 -152.890591 
L 210.257939 -150.851989 
L 210.195697 -148.813387 
L 210.129177 -146.774785 
L 210.055784 -144.736183 
L 209.972593 -142.697581 
L 209.876447 -140.658978 
L 209.764074 -138.620376 
L 209.632229 -136.581774 
L 209.477824 -134.543172 
L 209.29807 -132.50457 
L 209.090603 -130.465968 
L 208.853591 -128.427366 
L 208.585826 -126.388763 
L 208.286787 -124.350161 
L 207.956676 -122.311559 
L 207.596431 -120.272957 
L 207.207709 -118.234355 
L 206.792847 -116.195753 
L 206.354799 -114.157151 
L 205.897058 -112.118548 
L 205.423562 -110.079946 
L 204.938583 -108.041344 
L 204.446619 -106.002742 
L 203.952273 -103.96414 
L 203.460135 -101.925538 
L 202.974672 -99.886936 
L 202.500119 -97.848333 
L 202.040384 -95.809731 
L 201.598966 -93.771129 
L 201.178889 -91.732527 
L 200.782651 -89.693925 
L 200.412196 -87.655323 
L 200.068902 -85.616721 
L 199.753588 -83.578118 
L 199.466537 -81.539516 
L 199.207533 -79.500914 
L 198.975917 -77.462312 
L 198.770642 -75.42371 
L 198.590344 -73.385108 
L 198.433409 -71.346506 
L 198.298043 -69.307903 
L 198.182342 -67.269301 
L 198.084349 -65.230699 
L 198.002112 -63.192097 
z
" id="m6030d65343" style="stroke:#3c3c3c;stroke-width:1.5;"/>
    </defs>
    <g clip-path="url(#p68de4e444d)">
     <use style="fill:#75bf71;stroke:#3c3c3c;stroke-width:1.5;" x="0" xlink:href="#m6030d65343" y="316.271687"/>
    </g>
   </g>
   <g id="PolyCollection_4">
    <defs>
     <path d="M 257.976662 -81.895406 
L 256.39115 -81.895406 
L 256.202095 -83.568267 
L 255.978639 -85.241127 
L 255.717225 -86.913988 
L 255.414539 -88.586848 
L 255.067661 -90.259709 
L 254.674223 -91.93257 
L 254.232562 -93.60543 
L 253.741866 -95.278291 
L 253.202298 -96.951151 
L 252.615093 -98.624012 
L 251.982612 -100.296872 
L 251.308359 -101.969733 
L 250.596944 -103.642593 
L 249.854001 -105.315454 
L 249.086055 -106.988314 
L 248.300351 -108.661175 
L 247.504649 -110.334036 
L 246.706999 -112.006896 
L 245.915502 -113.679757 
L 245.138084 -115.352617 
L 244.382278 -117.025478 
L 243.655045 -118.698338 
L 242.962616 -120.371199 
L 242.310397 -122.044059 
L 241.702899 -123.71692 
L 241.143718 -125.38978 
L 240.635559 -127.062641 
L 240.180277 -128.735501 
L 239.778951 -130.408362 
L 239.431963 -132.081223 
L 239.139089 -133.754083 
L 238.899578 -135.426944 
L 238.712235 -137.099804 
L 238.575478 -138.772665 
L 238.487397 -140.445525 
L 238.445798 -142.118386 
L 238.448234 -143.791246 
L 238.492038 -145.464107 
L 238.574353 -147.136967 
L 238.692157 -148.809828 
L 238.842302 -150.482689 
L 239.021548 -152.155549 
L 239.2266 -153.82841 
L 239.454156 -155.50127 
L 239.700943 -157.174131 
L 239.963762 -158.846991 
L 240.239523 -160.519852 
L 240.525281 -162.192712 
L 240.818261 -163.865573 
L 241.115883 -165.538433 
L 241.415785 -167.211294 
L 241.715839 -168.884154 
L 242.014169 -170.557015 
L 242.309171 -172.229876 
L 242.59953 -173.902736 
L 242.884242 -175.575597 
L 243.162637 -177.248457 
L 243.434392 -178.921318 
L 243.699555 -180.594178 
L 243.95855 -182.267039 
L 244.212182 -183.939899 
L 244.461628 -185.61276 
L 244.708417 -187.28562 
L 244.954395 -188.958481 
L 245.201678 -190.631342 
L 245.452591 -192.304202 
L 245.709592 -193.977063 
L 245.975185 -195.649923 
L 246.25183 -197.322784 
L 246.541838 -198.995644 
L 246.847273 -200.668505 
L 247.16985 -202.341365 
L 247.510846 -204.014226 
L 247.871014 -205.687086 
L 248.250518 -207.359947 
L 248.648887 -209.032807 
L 249.064995 -210.705668 
L 249.497058 -212.378529 
L 249.94267 -214.051389 
L 250.398858 -215.72425 
L 250.862166 -217.39711 
L 251.328761 -219.069971 
L 251.794561 -220.742831 
L 252.255365 -222.415692 
L 252.707001 -224.088552 
L 253.145459 -225.761413 
L 253.567027 -227.434273 
L 253.968401 -229.107134 
L 254.346781 -230.779995 
L 254.699936 -232.452855 
L 255.026247 -234.125716 
L 255.324718 -235.798576 
L 255.594963 -237.471437 
L 255.837169 -239.144297 
L 256.052036 -240.817158 
L 256.240707 -242.490018 
L 256.404685 -244.162879 
L 256.545746 -245.835739 
L 256.665852 -247.5086 
L 257.70196 -247.5086 
L 257.70196 -247.5086 
L 257.822067 -245.835739 
L 257.963127 -244.162879 
L 258.127105 -242.490018 
L 258.315777 -240.817158 
L 258.530644 -239.144297 
L 258.772849 -237.471437 
L 259.043095 -235.798576 
L 259.341566 -234.125716 
L 259.667876 -232.452855 
L 260.021031 -230.779995 
L 260.399411 -229.107134 
L 260.800786 -227.434273 
L 261.222354 -225.761413 
L 261.660812 -224.088552 
L 262.112447 -222.415692 
L 262.573252 -220.742831 
L 263.039051 -219.069971 
L 263.505647 -217.39711 
L 263.968954 -215.72425 
L 264.425142 -214.051389 
L 264.870754 -212.378529 
L 265.302818 -210.705668 
L 265.718925 -209.032807 
L 266.117295 -207.359947 
L 266.496799 -205.687086 
L 266.856966 -204.014226 
L 267.197962 -202.341365 
L 267.52054 -200.668505 
L 267.825975 -198.995644 
L 268.115983 -197.322784 
L 268.392627 -195.649923 
L 268.658221 -193.977063 
L 268.915221 -192.304202 
L 269.166135 -190.631342 
L 269.413418 -188.958481 
L 269.659395 -187.28562 
L 269.906184 -185.61276 
L 270.15563 -183.939899 
L 270.409262 -182.267039 
L 270.668257 -180.594178 
L 270.93342 -178.921318 
L 271.205176 -177.248457 
L 271.48357 -175.575597 
L 271.768283 -173.902736 
L 272.058641 -172.229876 
L 272.353643 -170.557015 
L 272.651973 -168.884154 
L 272.952027 -167.211294 
L 273.251929 -165.538433 
L 273.549552 -163.865573 
L 273.842531 -162.192712 
L 274.128289 -160.519852 
L 274.404051 -158.846991 
L 274.66687 -157.174131 
L 274.913657 -155.50127 
L 275.141212 -153.82841 
L 275.346265 -152.155549 
L 275.52551 -150.482689 
L 275.675656 -148.809828 
L 275.79346 -147.136967 
L 275.875774 -145.464107 
L 275.919578 -143.791246 
L 275.922014 -142.118386 
L 275.880415 -140.445525 
L 275.792335 -138.772665 
L 275.655578 -137.099804 
L 275.468234 -135.426944 
L 275.228724 -133.754083 
L 274.93585 -132.081223 
L 274.588862 -130.408362 
L 274.187535 -128.735501 
L 273.732253 -127.062641 
L 273.224094 -125.38978 
L 272.664914 -123.71692 
L 272.057415 -122.044059 
L 271.405196 -120.371199 
L 270.712768 -118.698338 
L 269.985534 -117.025478 
L 269.229729 -115.352617 
L 268.45231 -113.679757 
L 267.660813 -112.006896 
L 266.863163 -110.334036 
L 266.067461 -108.661175 
L 265.281758 -106.988314 
L 264.513812 -105.315454 
L 263.770869 -103.642593 
L 263.059454 -101.969733 
L 262.385201 -100.296872 
L 261.75272 -98.624012 
L 261.165514 -96.951151 
L 260.625946 -95.278291 
L 260.13525 -93.60543 
L 259.693589 -91.93257 
L 259.300151 -90.259709 
L 258.953274 -88.586848 
L 258.650588 -86.913988 
L 258.389173 -85.241127 
L 258.165717 -83.568267 
L 257.976662 -81.895406 
z
" id="m866ff87ad3" style="stroke:#3c3c3c;stroke-width:1.5;"/>
    </defs>
    <g clip-path="url(#p68de4e444d)">
     <use style="fill:#c76e6e;stroke:#3c3c3c;stroke-width:1.5;" x="0" xlink:href="#m866ff87ad3" y="316.271687"/>
    </g>
   </g>
   <g id="PolyCollection_5">
    <defs>
     <path d="M 317.323886 -83.163725 
L 316.083927 -83.163725 
L 315.881689 -85.013071 
L 315.627422 -86.862417 
L 315.312184 -88.711764 
L 314.926697 -90.56111 
L 314.461647 -92.410456 
L 313.908034 -94.259802 
L 313.257574 -96.109149 
L 312.503136 -97.958495 
L 311.639197 -99.807841 
L 310.662299 -101.657188 
L 309.571492 -103.506534 
L 308.368736 -105.35588 
L 307.059246 -107.205227 
L 305.651751 -109.054573 
L 304.158647 -110.903919 
L 302.59601 -112.753266 
L 300.983453 -114.602612 
L 299.343803 -116.451958 
L 297.702595 -118.301305 
L 296.08737 -120.150651 
L 294.526817 -121.999997 
L 293.049776 -123.849344 
L 291.684159 -125.69869 
L 290.455867 -127.548036 
L 289.387758 -129.397383 
L 288.49876 -131.246729 
L 287.803182 -133.096075 
L 287.310293 -134.945422 
L 287.02418 -136.794768 
L 286.943906 -138.644114 
L 287.06393 -140.49346 
L 287.374749 -142.342807 
L 287.863687 -144.192153 
L 288.515757 -146.041499 
L 289.314506 -147.890846 
L 290.242782 -149.740192 
L 291.283353 -151.589538 
L 292.419356 -153.438885 
L 293.634561 -155.288231 
L 294.913465 -157.137577 
L 296.24126 -158.986924 
L 297.603713 -160.83627 
L 298.987012 -162.685616 
L 300.377649 -164.534963 
L 301.762347 -166.384309 
L 303.128085 -168.233655 
L 304.462223 -170.083002 
L 305.752697 -171.932348 
L 306.988301 -173.781694 
L 308.158979 -175.631041 
L 309.25613 -177.480387 
L 310.272858 -179.329733 
L 311.204162 -181.17908 
L 312.047029 -183.028426 
L 312.800429 -184.877772 
L 313.465202 -186.727119 
L 314.043861 -188.576465 
L 314.540317 -190.425811 
L 314.959549 -192.275157 
L 315.307252 -194.124504 
L 315.589489 -195.97385 
L 315.812358 -197.823196 
L 315.981716 -199.672543 
L 316.102961 -201.521889 
L 316.180897 -203.371235 
L 316.219675 -205.220582 
L 316.222824 -207.069928 
L 316.193356 -208.919274 
L 316.13394 -210.768621 
L 316.047122 -212.617967 
L 315.935566 -214.467313 
L 315.802294 -216.31666 
L 315.650894 -218.166006 
L 315.485665 -220.015352 
L 315.311679 -221.864699 
L 315.134745 -223.714045 
L 314.961256 -225.563391 
L 314.797948 -227.412738 
L 314.65156 -229.262084 
L 314.528451 -231.11143 
L 314.434189 -232.960777 
L 314.373173 -234.810123 
L 314.348317 -236.659469 
L 314.360834 -238.508815 
L 314.410154 -240.358162 
L 314.493969 -242.207508 
L 314.608421 -244.056854 
L 314.748398 -245.906201 
L 314.907913 -247.755547 
L 315.080529 -249.604893 
L 315.259785 -251.45424 
L 315.439585 -253.303586 
L 315.614522 -255.152932 
L 315.780115 -257.002279 
L 315.932939 -258.851625 
L 316.070667 -260.700971 
L 316.192026 -262.550318 
L 316.296677 -264.399664 
L 316.385062 -266.24901 
L 317.022751 -266.24901 
L 317.022751 -266.24901 
L 317.111136 -264.399664 
L 317.215787 -262.550318 
L 317.337145 -260.700971 
L 317.474874 -258.851625 
L 317.627697 -257.002279 
L 317.79329 -255.152932 
L 317.968228 -253.303586 
L 318.148028 -251.45424 
L 318.327283 -249.604893 
L 318.499899 -247.755547 
L 318.659414 -245.906201 
L 318.799391 -244.056854 
L 318.913844 -242.207508 
L 318.997659 -240.358162 
L 319.046978 -238.508815 
L 319.059496 -236.659469 
L 319.034639 -234.810123 
L 318.973623 -232.960777 
L 318.879362 -231.11143 
L 318.756252 -229.262084 
L 318.609865 -227.412738 
L 318.446557 -225.563391 
L 318.273068 -223.714045 
L 318.096133 -221.864699 
L 317.922148 -220.015352 
L 317.756918 -218.166006 
L 317.605518 -216.31666 
L 317.472246 -214.467313 
L 317.36069 -212.617967 
L 317.273872 -210.768621 
L 317.214457 -208.919274 
L 317.184989 -207.069928 
L 317.188137 -205.220582 
L 317.226915 -203.371235 
L 317.304851 -201.521889 
L 317.426097 -199.672543 
L 317.595454 -197.823196 
L 317.818323 -195.97385 
L 318.10056 -194.124504 
L 318.448264 -192.275157 
L 318.867495 -190.425811 
L 319.363951 -188.576465 
L 319.942611 -186.727119 
L 320.607384 -184.877772 
L 321.360783 -183.028426 
L 322.20365 -181.17908 
L 323.134954 -179.329733 
L 324.151682 -177.480387 
L 325.248833 -175.631041 
L 326.419512 -173.781694 
L 327.655115 -171.932348 
L 328.94559 -170.083002 
L 330.279727 -168.233655 
L 331.645466 -166.384309 
L 333.030163 -164.534963 
L 334.4208 -162.685616 
L 335.8041 -160.83627 
L 337.166552 -158.986924 
L 338.494348 -157.137577 
L 339.773252 -155.288231 
L 340.988456 -153.438885 
L 342.124459 -151.589538 
L 343.16503 -149.740192 
L 344.093306 -147.890846 
L 344.892055 -146.041499 
L 345.544125 -144.192153 
L 346.033063 -142.342807 
L 346.343882 -140.49346 
L 346.463906 -138.644114 
L 346.383633 -136.794768 
L 346.09752 -134.945422 
L 345.604631 -133.096075 
L 344.909053 -131.246729 
L 344.020054 -129.397383 
L 342.951945 -127.548036 
L 341.723654 -125.69869 
L 340.358037 -123.849344 
L 338.880995 -121.999997 
L 337.320443 -120.150651 
L 335.705218 -118.301305 
L 334.064009 -116.451958 
L 332.42436 -114.602612 
L 330.811802 -112.753266 
L 329.249165 -110.903919 
L 327.756061 -109.054573 
L 326.348567 -107.205227 
L 325.039077 -105.35588 
L 323.83632 -103.506534 
L 322.745513 -101.657188 
L 321.768616 -99.807841 
L 320.904676 -97.958495 
L 320.150239 -96.109149 
L 319.499779 -94.259802 
L 318.946165 -92.410456 
L 318.481115 -90.56111 
L 318.095629 -88.711764 
L 317.78039 -86.862417 
L 317.526124 -85.013071 
L 317.323886 -83.163725 
z
" id="ma780732e7b" style="stroke:#3c3c3c;stroke-width:1.5;"/>
    </defs>
    <g clip-path="url(#p68de4e444d)">
     <use style="fill:#9475ab;stroke:#3c3c3c;stroke-width:1.5;" x="0" xlink:href="#ma780732e7b" y="316.271687"/>
    </g>
   </g>
   <g id="PolyCollection_6">
    <defs>
     <path d="M 376.712971 -71.100763 
L 375.734841 -71.100763 
L 375.605621 -73.276855 
L 375.450141 -75.452946 
L 375.26516 -77.629037 
L 375.047504 -79.805129 
L 374.794177 -81.98122 
L 374.502465 -84.157311 
L 374.170045 -86.333402 
L 373.795082 -88.509494 
L 373.376319 -90.685585 
L 372.913137 -92.861676 
L 372.405607 -95.037768 
L 371.854511 -97.213859 
L 371.261344 -99.38995 
L 370.62829 -101.566041 
L 369.958192 -103.742133 
L 369.254493 -105.918224 
L 368.521183 -108.094315 
L 367.762729 -110.270407 
L 366.984016 -112.446498 
L 366.190281 -114.622589 
L 365.387062 -116.79868 
L 364.58014 -118.974772 
L 363.775504 -121.150863 
L 362.979312 -123.326954 
L 362.197867 -125.503046 
L 361.43759 -127.679137 
L 360.705012 -129.855228 
L 360.006753 -132.03132 
L 359.349517 -134.207411 
L 358.740066 -136.383502 
L 358.185196 -138.559593 
L 357.691689 -140.735685 
L 357.266241 -142.911776 
L 356.915365 -145.087867 
L 356.645253 -147.263959 
L 356.461608 -149.44005 
L 356.369436 -151.616141 
L 356.372813 -153.792232 
L 356.474644 -155.968324 
L 356.676406 -158.144415 
L 356.977927 -160.320506 
L 357.377191 -162.496598 
L 357.870205 -164.672689 
L 358.450946 -166.84878 
L 359.111393 -169.024871 
L 359.841654 -171.200963 
L 360.630198 -173.377054 
L 361.464165 -175.553145 
L 362.329755 -177.729237 
L 363.212675 -179.905328 
L 364.098605 -182.081419 
L 364.97367 -184.25751 
L 365.824886 -186.433602 
L 366.640553 -188.609693 
L 367.410569 -190.785784 
L 368.126669 -192.961876 
L 368.78256 -195.137967 
L 369.373963 -197.314058 
L 369.898569 -199.49015 
L 370.355921 -201.666241 
L 370.747232 -203.842332 
L 371.07517 -206.018423 
L 371.343623 -208.194515 
L 371.557453 -210.370606 
L 371.722275 -212.546697 
L 371.844244 -214.722789 
L 371.929877 -216.89888 
L 371.985896 -219.074971 
L 372.019095 -221.251062 
L 372.036216 -223.427154 
L 372.043845 -225.603245 
L 372.048292 -227.779336 
L 372.055486 -229.955428 
L 372.070847 -232.131519 
L 372.099165 -234.30761 
L 372.14448 -236.483701 
L 372.209968 -238.659793 
L 372.297847 -240.835884 
L 372.409316 -243.011975 
L 372.544529 -245.188067 
L 372.702615 -247.364158 
L 372.881742 -249.540249 
L 373.079232 -251.716341 
L 373.291711 -253.892432 
L 373.515292 -256.068523 
L 373.745781 -258.244614 
L 373.978879 -260.420706 
L 374.210388 -262.596797 
L 374.436393 -264.772888 
L 374.653409 -266.94898 
L 374.858501 -269.125071 
L 375.049356 -271.301162 
L 375.224314 -273.477253 
L 375.382364 -275.653345 
L 375.523103 -277.829436 
L 375.646672 -280.005527 
L 375.75367 -282.181619 
L 375.84506 -284.35771 
L 375.922071 -286.533801 
L 376.525741 -286.533801 
L 376.525741 -286.533801 
L 376.602752 -284.35771 
L 376.694142 -282.181619 
L 376.80114 -280.005527 
L 376.924709 -277.829436 
L 377.065448 -275.653345 
L 377.223498 -273.477253 
L 377.398456 -271.301162 
L 377.589311 -269.125071 
L 377.794404 -266.94898 
L 378.01142 -264.772888 
L 378.237424 -262.596797 
L 378.468934 -260.420706 
L 378.702031 -258.244614 
L 378.93252 -256.068523 
L 379.156102 -253.892432 
L 379.368581 -251.716341 
L 379.566071 -249.540249 
L 379.745198 -247.364158 
L 379.903283 -245.188067 
L 380.038496 -243.011975 
L 380.149965 -240.835884 
L 380.237844 -238.659793 
L 380.303332 -236.483701 
L 380.348648 -234.30761 
L 380.376966 -232.131519 
L 380.392326 -229.955428 
L 380.39952 -227.779336 
L 380.403968 -225.603245 
L 380.411596 -223.427154 
L 380.428718 -221.251062 
L 380.461916 -219.074971 
L 380.517936 -216.89888 
L 380.603569 -214.722789 
L 380.725537 -212.546697 
L 380.890359 -210.370606 
L 381.104189 -208.194515 
L 381.372642 -206.018423 
L 381.700581 -203.842332 
L 382.091892 -201.666241 
L 382.549244 -199.49015 
L 383.07385 -197.314058 
L 383.665253 -195.137967 
L 384.321144 -192.961876 
L 385.037244 -190.785784 
L 385.80726 -188.609693 
L 386.622926 -186.433602 
L 387.474143 -184.25751 
L 388.349208 -182.081419 
L 389.235137 -179.905328 
L 390.118057 -177.729237 
L 390.983648 -175.553145 
L 391.817614 -173.377054 
L 392.606158 -171.200963 
L 393.33642 -169.024871 
L 393.996866 -166.84878 
L 394.577607 -164.672689 
L 395.070621 -162.496598 
L 395.469885 -160.320506 
L 395.771406 -158.144415 
L 395.973169 -155.968324 
L 396.074999 -153.792232 
L 396.078377 -151.616141 
L 395.986204 -149.44005 
L 395.802559 -147.263959 
L 395.532448 -145.087867 
L 395.181572 -142.911776 
L 394.756124 -140.735685 
L 394.262616 -138.559593 
L 393.707746 -136.383502 
L 393.098295 -134.207411 
L 392.441059 -132.03132 
L 391.742801 -129.855228 
L 391.010222 -127.679137 
L 390.249946 -125.503046 
L 389.4685 -123.326954 
L 388.672309 -121.150863 
L 387.867673 -118.974772 
L 387.060751 -116.79868 
L 386.257531 -114.622589 
L 385.463797 -112.446498 
L 384.685084 -110.270407 
L 383.92663 -108.094315 
L 383.193319 -105.918224 
L 382.489621 -103.742133 
L 381.819522 -101.566041 
L 381.186469 -99.38995 
L 380.593301 -97.213859 
L 380.042205 -95.037768 
L 379.534675 -92.861676 
L 379.071493 -90.685585 
L 378.65273 -88.509494 
L 378.277768 -86.333402 
L 377.945348 -84.157311 
L 377.653636 -81.98122 
L 377.400309 -79.805129 
L 377.182653 -77.629037 
L 376.997671 -75.452946 
L 376.842192 -73.276855 
L 376.712971 -71.100763 
z
" id="m1e90f3476b" style="stroke:#3c3c3c;stroke-width:1.5;"/>
    </defs>
    <g clip-path="url(#p68de4e444d)">
     <use style="fill:#826246;stroke:#3c3c3c;stroke-width:1.5;" x="0" xlink:href="#m1e90f3476b" y="316.271687"/>
    </g>
   </g>
   <g id="line2d_8">
    <path clip-path="url(#p68de4e444d)" d="M 78.623906 211.655579 
L 78.623906 68.856421 
" style="fill:none;stroke:#3c3c3c;stroke-linecap:round;stroke-width:1.5;"/>
   </g>
   <g id="line2d_9">
    <path clip-path="url(#p68de4e444d)" d="M 78.623906 155.34324 
L 78.623906 83.617331 
" style="fill:none;stroke:#3c3c3c;stroke-linecap:round;stroke-width:4.5;"/>
   </g>
   <g id="line2d_10">
    <path clip-path="url(#p68de4e444d)" d="M 138.143906 211.655579 
L 138.143906 119.819273 
" style="fill:none;stroke:#3c3c3c;stroke-linecap:round;stroke-width:1.5;"/>
   </g>
   <g id="line2d_11">
    <path clip-path="url(#p68de4e444d)" d="M 138.143906 184.008321 
L 138.143906 136.568507 
" style="fill:none;stroke:#3c3c3c;stroke-linecap:round;stroke-width:4.5;"/>
   </g>
   <g id="line2d_12">
    <path clip-path="url(#p68de4e444d)" d="M 197.663906 211.655579 
L 197.663906 92.68199 
" style="fill:none;stroke:#3c3c3c;stroke-linecap:round;stroke-width:1.5;"/>
   </g>
   <g id="line2d_13">
    <path clip-path="url(#p68de4e444d)" d="M 197.663906 177.426226 
L 197.663906 114.53976 
" style="fill:none;stroke:#3c3c3c;stroke-linecap:round;stroke-width:4.5;"/>
   </g>
   <g id="line2d_14">
    <path clip-path="url(#p68de4e444d)" d="M 257.183906 200.451574 
L 257.183906 102.687795 
" style="fill:none;stroke:#3c3c3c;stroke-linecap:round;stroke-width:1.5;"/>
   </g>
   <g id="line2d_15">
    <path clip-path="url(#p68de4e444d)" d="M 257.183906 181.301705 
L 257.183906 136.721586 
" style="fill:none;stroke:#3c3c3c;stroke-linecap:round;stroke-width:4.5;"/>
   </g>
   <g id="line2d_16">
    <path clip-path="url(#p68de4e444d)" d="M 316.703906 203.829005 
L 316.703906 143.995668 
" style="fill:none;stroke:#3c3c3c;stroke-linecap:round;stroke-width:1.5;"/>
   </g>
   <g id="line2d_17">
    <path clip-path="url(#p68de4e444d)" d="M 316.703906 187.639207 
L 316.703906 161.927729 
" style="fill:none;stroke:#3c3c3c;stroke-linecap:round;stroke-width:4.5;"/>
   </g>
   <g id="line2d_18">
    <path clip-path="url(#p68de4e444d)" d="M 376.223906 205.376409 
L 376.223906 105.655052 
" style="fill:none;stroke:#3c3c3c;stroke-linecap:round;stroke-width:1.5;"/>
   </g>
   <g id="line2d_19">
    <path clip-path="url(#p68de4e444d)" d="M 376.223906 180.638197 
L 376.223906 145.122927 
" style="fill:none;stroke:#3c3c3c;stroke-linecap:round;stroke-width:4.5;"/>
   </g>
   <g id="patch_3">
    <path d="M 48.863906 273.312 
L 48.863906 7.2 
" style="fill:none;stroke:#cccccc;stroke-linecap:square;stroke-linejoin:miter;stroke-width:1.25;"/>
   </g>
   <g id="patch_4">
    <path d="M 405.983906 273.312 
L 405.983906 7.2 
" style="fill:none;stroke:#cccccc;stroke-linecap:square;stroke-linejoin:miter;stroke-width:1.25;"/>
   </g>
   <g id="patch_5">
    <path d="M 48.863906 273.312 
L 405.983906 273.312 
" style="fill:none;stroke:#cccccc;stroke-linecap:square;stroke-linejoin:miter;stroke-width:1.25;"/>
   </g>
   <g id="patch_6">
    <path d="M 48.863906 7.2 
L 405.983906 7.2 
" style="fill:none;stroke:#cccccc;stroke-linecap:square;stroke-linejoin:miter;stroke-width:1.25;"/>
   </g>
   <g id="PathCollection_1">
    <defs>
     <path d="M 0 1.5 
C 0.397805 1.5 0.77937 1.341951 1.06066 1.06066 
C 1.341951 0.77937 1.5 0.397805 1.5 0 
C 1.5 -0.397805 1.341951 -0.77937 1.06066 -1.06066 
C 0.77937 -1.341951 0.397805 -1.5 0 -1.5 
C -0.397805 -1.5 -0.77937 -1.341951 -1.06066 -1.06066 
C -1.341951 -0.77937 -1.5 -0.397805 -1.5 0 
C -1.5 0.397805 -1.341951 0.77937 -1.06066 1.06066 
C -0.77937 1.341951 -0.397805 1.5 0 1.5 
z
" id="m2aff7beb3b" style="stroke:#3c3c3c;"/>
    </defs>
    <g clip-path="url(#p68de4e444d)">
     <use style="fill:#ffffff;stroke:#3c3c3c;" x="78.623906" xlink:href="#m2aff7beb3b" y="113.57346"/>
    </g>
   </g>
   <g id="PathCollection_2">
    <g clip-path="url(#p68de4e444d)">
     <use style="fill:#ffffff;stroke:#3c3c3c;" x="138.143906" xlink:href="#m2aff7beb3b" y="164.880162"/>
    </g>
   </g>
   <g id="PathCollection_3">
    <g clip-path="url(#p68de4e444d)">
     <use style="fill:#ffffff;stroke:#3c3c3c;" x="197.663906" xlink:href="#m2aff7beb3b" y="144.193478"/>
    </g>
   </g>
   <g id="PathCollection_4">
    <g clip-path="url(#p68de4e444d)">
     <use style="fill:#ffffff;stroke:#3c3c3c;" x="257.183906" xlink:href="#m2aff7beb3b" y="162.397449"/>
    </g>
   </g>
   <g id="PathCollection_5">
    <g clip-path="url(#p68de4e444d)">
     <use style="fill:#ffffff;stroke:#3c3c3c;" x="316.703906" xlink:href="#m2aff7beb3b" y="175.84996"/>
    </g>
   </g>
   <g id="PathCollection_6">
    <g clip-path="url(#p68de4e444d)">
     <use style="fill:#ffffff;stroke:#3c3c3c;" x="376.223906" xlink:href="#m2aff7beb3b" y="158.506814"/>
    </g>
   </g>
  </g>
 </g>
 <defs>
  <clipPath id="p68de4e444d">
   <rect height="266.112" width="357.12" x="48.863906" y="7.2"/>
  </clipPath>
 </defs>
</svg>
